<svg width="456" height="34" viewBox="0 0 456 34" fill="none" xmlns="http://www.w3.org/2000/svg">
<path d="M20.0625 32.8789C17.6016 32.8789 16.3711 32 16.3711 30.2422C17.4258 29.1875 18.5684 28.6602 19.7988 28.6602H20.8535L21.3809 27.3418L20.5898 26.5508L20.8535 26.2871L20.5898 26.0234C20.9414 24.6318 21.2051 20.2373 21.3809 12.8398C21.3809 8.21094 19.7988 5.57422 16.6348 4.92969L16.3711 2.29297C16.8545 1.41406 17.5576 0.974609 18.4805 0.974609C24.5889 0.974609 29.0713 5.36914 31.9277 14.1582V14.4219C31.0488 15.0371 30.6094 15.916 30.6094 17.0586C31.1367 17.0586 31.4004 17.4102 31.4004 18.1133H31.9277C31.9277 19.666 31.4004 20.6328 30.3457 21.0137L30.082 20.75H29.8184L29.0273 22.0684L30.6094 23.6504C30.1992 24.8955 29.4961 26.126 28.5 27.3418H28.2363C28.2363 26.3457 27.709 25.6426 26.6543 25.2324H25.8633C25.8633 26.0527 25.6875 26.668 25.3359 27.0781V27.6055C25.3359 27.957 25.8633 28.2207 26.918 28.3965L27.709 28.1328V28.3965L24.5449 31.0332H24.0176L23.2266 30.5059H22.9629L22.4355 31.0332L22.6992 31.2969L20.0625 32.8789ZM12.9434 32.8789H12.6797L11.3613 31.5605L11.0977 31.8242V32.0879L11.3613 32.3516L10.5703 32.6152C5.64844 31.5605 3.1875 30.2422 3.1875 28.6602C2.00098 28.6602 1.12207 24.793 0.550781 17.0586L0.814453 16.7949V16.5312L0.550781 15.7402C1.13672 12.9863 2.01562 10.2617 3.1875 7.56641L4.50586 7.83008H5.0332L5.56055 7.30273L5.0332 5.7207C7.4209 2.38086 10.1455 0.710938 13.207 0.710938H13.7344L15.0527 2.82031C15.0527 3.65527 14.0859 4.62207 12.1523 5.7207C11.4932 5.7207 10.8779 7.91797 10.3066 12.3125L10.5703 14.1582L10.3066 20.4863V21.2773L10.5703 23.123H10.3066C10.3066 27.166 11.5371 29.1875 13.998 29.1875L14.5254 31.2969V31.8242L12.9434 32.8789ZM8.98828 31.5605L8.46094 31.0332H8.19727V31.5605H8.98828ZM24.5449 29.7148V29.4512L24.0176 28.9238V29.7148H24.5449ZM29.0273 25.4961V24.7051L28.5 25.2324V25.4961H29.0273ZM24.8086 24.4414V23.3867H24.5449V23.9141H23.7539V23.6504L24.2812 22.8594V22.0684L23.2266 20.75L22.9629 21.0137H22.1719L21.9082 20.75H21.6445V21.0137L21.9082 22.332L21.6445 22.5957C21.9961 22.5957 22.3477 23.123 22.6992 24.1777C23.5781 24.1777 24.0176 24.3535 24.0176 24.7051L24.8086 24.4414ZM5.0332 23.9141V23.123L4.50586 22.5957H3.97852C4.19824 23.4746 4.46191 23.9141 4.76953 23.9141H5.0332ZM10.043 21.8047L9.51562 21.2773H9.25195V21.8047H10.043ZM27.709 17.3223C27.3721 16.5166 27.0205 16.0771 26.6543 16.0039H25.3359V16.5312H26.127V16.7949L25.5996 17.5859V17.8496L26.127 18.377C27.1816 18.377 27.709 18.0254 27.709 17.3223ZM24.0176 17.3223V17.0586L23.2266 16.2676L22.9629 17.0586L23.2266 17.3223H24.0176ZM3.97852 16.2676L4.76953 15.2129H4.24219V14.9492L4.50586 14.6855V14.4219L4.24219 14.1582H3.71484C3.71484 14.583 3.45117 15.0225 2.92383 15.4766L3.97852 16.2676ZM8.19727 11.2578L8.46094 10.9941V10.7305L8.19727 10.4668H7.14258L8.19727 11.2578ZM21.9082 9.67578L22.9629 7.56641H21.6445V8.09375H21.3809L21.6445 8.35742V8.62109L21.3809 9.67578H21.9082ZM57.416 1.72168L58.998 1.98535L59.2617 1.72168H59.5254L61.1074 2.77637L62.4258 2.5127C62.4258 4.79785 61.9863 5.94043 61.1074 5.94043C60.1406 5.94043 59.6133 6.73145 59.5254 8.31348L59.7891 9.89551L59.5254 10.9502L59.7891 12.0049L59.5254 12.2686V12.5322L59.7891 13.8506L59.5254 14.9053L59.7891 15.96L59.5254 19.3877V19.6514H59.2617C56.6543 17.5859 55.3359 15.916 55.3066 14.6416V13.0596L56.625 11.2139L56.3613 10.9502H55.5703V11.7412L55.043 11.2139V10.6865H55.3066L55.043 8.84082V6.46777L53.4609 5.94043L52.4062 6.2041C52.0547 6.2041 51.8789 5.94043 51.8789 5.41309C51.8789 2.95215 52.582 1.72168 53.9883 1.72168H57.416ZM45.2871 1.98535C47.2207 3.40625 48.1875 4.90039 48.1875 6.46777C48.7148 6.46777 48.9785 6.81934 48.9785 7.52246C49.6816 8.0498 50.9121 10.1592 52.6699 13.8506C56.083 18.9922 58.4561 23.123 59.7891 26.2432L59.5254 26.5068L59.7891 27.8252V28.6162L59.5254 28.8799L59.7891 29.1436V29.4072C59.7891 29.7002 58.7344 30.2275 56.625 30.9893V31.5166C57.3281 31.5166 57.6797 31.6924 57.6797 32.0439L57.416 32.3076H57.1523C56.625 32.3076 56.3613 32.0439 56.3613 31.5166H55.5703C55.5703 32.0439 54.7793 32.3076 53.1973 32.3076C53.1973 31.9561 52.7578 31.7803 51.8789 31.7803L51.6152 30.4619C52.1426 30.4619 52.4062 30.1982 52.4062 29.6709L53.7246 29.9346C54.5596 28.7041 55.2627 28.0889 55.834 28.0889V27.5615L55.3066 25.7158H54.7793V26.2432H53.9883C53.9883 25.0127 53.6367 24.3975 52.9336 24.3975L52.4062 24.9248L51.8789 24.3975L51.6152 26.2432L52.6699 27.0342V27.2979H52.1426L53.4609 28.8799V29.1436H53.1973L51.8789 28.0889L51.3516 28.6162H51.8789V29.1436L51.0879 29.4072L45.2871 19.3877L46.0781 18.5967C45.0234 18.5967 44.4961 18.2451 44.4961 17.542C40.8193 11.0234 38.4463 7.41992 37.377 6.73145C36.3223 6.32129 35.7949 5.96973 35.7949 5.67676V5.41309L37.1133 5.67676L37.9043 5.41309V4.3584L35.5312 4.88574L35.2676 4.62207V4.3584L35.5312 4.09473H34.2129V3.04004C34.3301 2.5127 35.0332 2.24902 36.3223 2.24902L36.5859 2.5127H36.8496L37.9043 2.24902H38.4316L38.959 2.77637L38.4316 3.56738C38.4316 4.02148 39.0469 4.37305 40.2773 4.62207V4.09473L39.75 3.30371V2.5127L45.2871 1.98535ZM38.4316 6.2041L38.6953 6.46777H38.959L39.2227 6.2041V5.41309L38.4316 6.2041ZM41.5957 6.46777V7.52246L42.3867 7.78613V7.52246L41.5957 6.46777ZM39.75 6.73145V6.99512C39.75 7.34668 40.1016 7.52246 40.8047 7.52246V8.0498H41.332V7.52246L39.75 6.73145ZM36.8496 8.57715H37.377C37.6113 8.57715 37.9629 9.36816 38.4316 10.9502L39.4863 12.2686C39.4863 12.6201 39.1348 12.7959 38.4316 12.7959V13.0596C39.4863 13.0596 40.0137 13.2354 40.0137 13.5869L39.75 14.6416L40.0137 14.9053H40.2773L40.8047 14.3779C42.7383 16.2383 43.7051 19.2266 43.7051 23.3428V25.9795C43.7051 26.8584 44.4961 27.6494 46.0781 28.3525V28.8799L45.8145 29.6709L46.0781 31.2529V31.5166L45.5508 32.3076L44.2324 32.0439L42.3867 32.3076V32.0439L42.123 32.3076H39.75L35.5312 32.0439L34.4766 32.3076C33.9492 31.6191 33.6855 30.6523 33.6855 29.4072C34.4619 28.8799 35.2529 28.6162 36.0586 28.6162V26.5068L37.377 24.6611L36.5859 24.3975L36.0586 24.9248L35.7949 24.6611V17.542L35.5312 15.1689L36.0586 12.0049L35.7949 11.7412V11.4775C36.1465 9.54395 36.498 8.57715 36.8496 8.57715ZM43.7051 11.4775V11.7412C43.8809 12.3125 44.2324 12.6641 44.7598 12.7959L45.2871 12.0049L44.7598 11.4775H43.7051ZM38.959 17.0146L39.2227 17.8057H38.6953L39.2227 18.333L40.541 18.0693V17.2783L39.75 16.4873L38.959 17.0146ZM46.3418 19.3877V19.6514L46.6055 20.7061H47.1328L47.6602 20.1787C47.6602 19.7832 47.2207 19.5195 46.3418 19.3877ZM56.0977 22.8154V23.0791L56.625 23.6064L57.1523 23.0791V22.8154H56.0977ZM39.2227 28.6162H38.959L38.6953 28.3525H38.4316V28.8799C39.1348 28.8799 39.4863 29.3193 39.4863 30.1982L40.8047 30.7256L41.8594 29.9346V29.4072L41.5957 28.6162L41.8594 28.3525L40.541 27.8252L39.2227 28.6162ZM90.4629 1.91943H93.3633L93.8906 2.44678V2.71045L93.627 2.97412L94.1543 5.34717V5.87451H93.8906L94.1543 8.51123V9.56592L93.8906 17.2124L94.1543 17.4761V17.7397L93.8906 18.7944V20.1128L94.1543 21.6948L93.8906 21.9585V22.2222L94.418 26.7046L94.1543 27.4956C96.0879 27.8911 97.0547 28.2427 97.0547 28.5503C96.7617 30.8354 96.3223 31.978 95.7363 31.978L89.9355 32.5054L89.6719 32.2417H89.4082L88.3535 32.5054C86.7715 32.3882 85.9805 32.2124 85.9805 31.978L85.7168 32.2417H84.6621C83.6074 31.3188 83.0801 30.4399 83.0801 29.605V29.0776C84.6035 28.0229 85.834 27.4956 86.7715 27.4956V26.7046H85.9805V25.9136L85.7168 24.8589L85.9805 24.5952V24.3315L85.7168 20.6401V20.3765L85.9805 19.0581L85.7168 17.4761V12.9937L85.4531 11.939L85.9805 8.24756L85.7168 7.98389C85.7168 4.29248 86.332 2.44678 87.5625 2.44678L90.4629 1.91943ZM79.125 2.18311L80.707 2.71045H82.8164L84.1348 2.44678L84.3984 2.71045V3.50146C84.3984 4.86377 83.2559 6.35791 80.9707 7.98389L78.5977 12.73C76.8398 12.5542 75.9609 12.2905 75.9609 11.939V9.56592L76.2246 8.51123L75.9609 7.72021L76.4883 5.61084L76.2246 4.02881V2.97412C76.2246 2.62256 77.1914 2.35889 79.125 2.18311ZM95.7363 2.44678H96.2637L96.5273 2.71045L96.791 2.44678H98.1094C99.3398 2.50537 99.9551 2.68115 99.9551 2.97412L101.273 2.71045H102.064L102.328 2.97412H102.592L102.064 11.6753C100.951 11.6753 100.072 12.0269 99.4277 12.73L98.1094 9.03857L95.209 5.0835V2.97412L95.7363 2.44678ZM92.3086 9.30225C92.3086 9.82959 92.1328 10.0933 91.7812 10.0933V10.6206L92.8359 10.8843V9.30225H92.3086ZM91.2539 16.6851L90.4629 17.4761L90.1992 17.2124H89.9355V18.0034L90.1992 19.8491H89.6719L89.4082 18.5308H89.1445C89.1445 19.2339 88.9688 19.5854 88.6172 19.5854L88.8809 19.8491V20.6401H88.6172L88.3535 20.3765H88.0898L88.3535 19.0581V18.5308H87.8262L88.0898 18.7944V19.3218H87.8262L87.0352 18.7944L86.2441 19.0581V19.3218C86.5957 19.3218 86.7715 19.5854 86.7715 20.1128H87.0352V19.5854C87.3867 19.5854 87.6504 20.1128 87.8262 21.1675H88.3535V21.4312L88.6172 21.1675H88.8809L89.1445 21.4312L89.4082 21.1675H89.6719C90.1992 21.1675 90.4629 21.4312 90.4629 21.9585L91.5176 21.4312V20.6401H90.4629V20.3765C90.8877 19.3218 91.415 18.7944 92.0449 18.7944V17.4761C91.5176 17.4761 91.2539 17.3003 91.2539 16.9487H91.7812V16.6851H91.2539ZM87.2988 23.5405V24.3315H87.8262V24.0679L87.2988 23.5405ZM86.5078 24.0679L86.2441 24.3315V24.8589H87.0352V24.5952L86.5078 24.0679ZM88.3535 24.3315L88.6172 25.6499L87.8262 26.1772C87.958 27.1001 88.4854 27.7153 89.4082 28.0229H90.1992C90.1992 27.3198 90.4629 26.9683 90.9902 26.9683C90.8584 25.7378 90.2432 25.1226 89.1445 25.1226V24.3315H88.3535ZM122.213 1.50195L127.223 2.0293L127.487 1.76562H127.75L128.805 2.0293H129.333V1.76562L130.651 2.0293L134.342 1.76562C134.87 2.70313 135.221 3.93359 135.397 5.45703L134.606 5.98438H133.024V6.77539L132.76 10.2031L133.024 12.5762H132.76L133.024 12.8398V13.8945C132.672 14.3047 132.497 14.9199 132.497 15.7402L131.178 15.4766L130.915 15.7402V16.0039C131.442 16.0039 131.706 16.1797 131.706 16.5312L131.442 16.7949H131.178L130.387 16.2676L128.805 18.9043H128.542V19.6953L130.124 20.4863C131.105 20.3105 131.896 19.959 132.497 19.4316C132.907 25.0566 133.346 27.8691 133.815 27.8691C134.372 27.8691 134.899 28.3086 135.397 29.1875H135.133L133.551 28.9238L133.288 29.1875V29.4512L133.815 29.9785V30.2422L133.024 29.7148H132.497V30.5059C132.79 31.209 133.405 31.5605 134.342 31.5605L134.606 31.2969H134.87L135.133 31.5605V31.8242L134.079 32.3516H133.551V32.0879L127.75 32.3516H122.741L121.159 31.2969V30.2422L121.686 29.7148L121.95 29.9785V29.4512L123.268 28.1328H123.795V28.3965L124.059 28.6602L124.85 28.9238L126.168 28.3965L126.696 28.9238L126.959 28.1328H127.223L128.014 28.6602L128.278 28.3965L128.542 28.6602H128.805L129.86 27.6055L129.596 26.2871C128.483 26.375 127.604 26.7266 126.959 27.3418H126.696V26.8145H125.905L124.586 26.5508L124.059 27.0781L123.268 26.2871L123.532 24.7051L123.268 22.332C123.488 21.4531 123.751 21.0137 124.059 21.0137H124.586V21.541H125.114L123.532 19.168L123.268 17.3223L123.532 17.0586L123.268 12.5762V6.24805C123.268 5.95508 122.653 5.60352 121.422 5.19336V3.875C121.422 2.95215 121.686 2.16113 122.213 1.50195ZM110.678 1.63379V1.89746L110.941 1.63379H115.424L116.479 1.89746L117.533 1.63379L118.061 2.4248L117.797 3.74316L118.061 4.53418C118.061 5.41309 117.445 5.85254 116.215 5.85254C116.215 6.90723 116.039 7.43457 115.688 7.43457L115.951 7.69824V8.22559H115.688L115.951 11.3896V14.29H121.488L122.543 15.3447L122.279 16.6631L122.543 18.2451L121.488 19.0361H120.961L116.479 19.2998L115.688 21.6729L116.479 21.9365V24.8369L116.215 27.21L116.742 28.792H116.479L115.951 28.2646L116.215 28.001L114.633 26.4189V27.4736H113.842V26.6826L113.314 27.21L113.842 27.7373C113.124 28.4404 112.333 28.792 111.469 28.792V29.0557L111.732 29.3193V29.583L113.051 29.3193H113.314V30.374H112.787C112.787 30.7256 113.051 30.9014 113.578 30.9014V31.4287H113.314L111.996 30.374H111.469C111.469 31.0771 111.205 31.4287 110.678 31.4287V31.9561L110.941 31.6924H111.205V32.2197L109.623 32.7471H108.832C108.568 32.7471 108.305 32.3955 108.041 31.6924L107.777 31.4287H107.514C107.514 32.1318 107.338 32.4834 106.986 32.4834V31.9561L105.932 32.2197C105.214 31.9707 104.687 31.5312 104.35 30.9014V29.583L105.141 28.792H106.459C106.547 29.4951 106.811 29.8467 107.25 29.8467L108.305 28.2646H108.568V29.0557H108.832L109.096 28.792H109.359L108.832 27.21L109.096 26.9463H109.359L109.887 28.2646H110.15C110.502 28.2646 110.678 28.001 110.678 27.4736H110.941L111.205 27.7373H111.469V27.4736C111.029 27.4736 110.766 27.1221 110.678 26.4189L110.414 26.6826H109.887C109.887 25.6279 109.535 25.1006 108.832 25.1006L108.568 24.3096H108.305C108.305 24.8369 108.129 25.1006 107.777 25.1006H106.986L106.459 24.5732C106.679 22.8154 107.118 21.9365 107.777 21.9365C107.777 21.585 107.514 21.4092 106.986 21.4092L106.723 21.1455V20.0908H107.25C107.25 20.5303 107.602 20.7939 108.305 20.8818V20.6182L108.041 20.3545V20.0908L108.305 19.8271H108.832L109.359 20.3545L109.096 20.6182H109.359L111.205 19.2998V19.8271H111.469V19.5635L111.205 18.7725H110.941L109.623 19.0361V18.2451L110.678 17.9814L109.887 17.1904V17.4541L109.623 17.1904H109.359L108.305 18.7725H107.777L106.723 15.0811L106.986 12.4443L106.723 12.1807V11.917L107.777 9.54395L106.986 9.0166L107.25 7.69824V6.64355C107.25 6.29199 106.986 6.11621 106.459 6.11621L105.141 6.37988L104.877 6.11621V5.85254L105.404 1.89746L106.986 2.4248C108.349 1.89746 109.579 1.63379 110.678 1.63379ZM126.696 9.67578V10.2031L127.75 10.4668V10.2031L127.223 9.67578H126.696ZM110.678 16.6631L110.414 16.9268V17.1904L110.678 17.4541H110.941L111.205 17.1904V16.9268L110.941 16.6631H110.678ZM125.377 21.0137L125.641 21.2773H125.905C125.905 20.8818 126.256 20.5303 126.959 20.2227L127.75 20.4863V20.2227L128.014 19.4316L127.75 19.168V18.9043L128.014 18.1133L125.377 21.0137ZM109.623 20.8818L110.15 21.4092H110.414V20.8818H109.623ZM114.633 22.7275L114.369 22.9912V23.2549L114.633 24.3096L115.951 23.7822C115.893 23.3135 115.453 22.9619 114.633 22.7275ZM124.85 25.4961V26.0234L125.641 26.2871V25.4961H124.85ZM121.225 27.2539H121.752L122.016 28.0449L121.488 28.5723H121.225V27.2539ZM109.623 28.792V29.0557L110.414 30.9014L111.205 30.6377C111.205 30.2861 110.941 30.1104 110.414 30.1104L110.678 29.8467V29.0557L109.623 28.792ZM118.061 28.792L118.324 29.0557H118.588L118.324 30.6377H117.797V29.8467L117.006 30.374L116.479 29.8467V30.374L115.688 29.8467H115.16L115.424 30.1104V31.165H115.16C114.457 30.9014 114.105 30.6377 114.105 30.374L115.424 29.3193L115.688 29.583V29.3193L115.951 29.583H117.533C117.533 29.0557 117.709 28.792 118.061 28.792ZM116.479 31.165V31.9561H115.424V31.4287L116.479 31.165ZM113.051 32.2197H113.842L113.314 32.7471H113.051V32.2197ZM138.495 0.776855L140.341 1.04053L148.515 0.776855L149.306 3.94092L148.778 9.7417L149.306 14.4878H152.47L153.788 14.2241L155.37 14.4878H156.952L157.479 15.0151V15.5425L157.216 16.8608H156.952L156.161 16.3335L155.106 17.1245C155.282 17.6519 155.81 17.9155 156.688 17.9155L156.952 17.6519L157.216 17.9155V18.1792C156.498 18.6919 155.531 18.9556 154.315 18.9702V18.7065L154.052 18.9702L152.733 18.7065H149.569L149.306 18.9702H149.042V19.4976H149.306L149.042 23.4526V25.8257L148.251 26.8804V27.9351C148.778 27.9351 149.042 28.1108 149.042 28.4624V29.5171C149.042 30.689 148.515 31.5679 147.46 32.1538L146.142 31.8901H143.769L141.132 32.1538V31.8901L140.868 32.1538H140.604C138.319 32.1538 137.177 31.187 137.177 29.2534V28.9897C137.763 28.9897 138.378 28.7261 139.022 28.1987L138.495 19.2339L138.759 17.1245L138.495 15.5425L138.759 15.2788L138.495 13.9604L139.022 4.46826H138.495V4.20459L138.231 4.46826H137.704C137.353 4.46826 137.177 4.20459 137.177 3.67725L138.495 0.776855ZM152.58 0.447266L152.843 0.710938L156.798 0.447266H159.171C160.402 0.447266 161.017 1.0625 161.017 2.29297V7.03906L160.753 8.09375L161.017 8.88477L159.962 9.41211L159.171 9.14844L158.38 9.93945H157.589C157.589 8.1377 156.886 6.46777 155.48 4.92969C155.48 4.40234 155.216 4.13867 154.689 4.13867L153.634 4.66602C151.349 4.25586 150.207 3.81641 150.207 3.34766C150.558 2.99609 150.734 2.20508 150.734 0.974609L152.58 0.447266ZM146.933 6.05029L147.46 6.57764V7.10498L147.196 6.84131H146.405V7.36865H147.196L147.46 7.10498H147.724L147.987 7.36865L148.251 7.10498V6.84131L147.987 5.52295H147.46L146.933 6.05029ZM146.669 17.1245V17.9155C146.786 18.4429 147.489 18.7065 148.778 18.7065L149.306 17.9155C148.778 17.271 148.515 16.6558 148.515 16.0698C147.284 16.3042 146.669 16.6558 146.669 17.1245ZM143.505 22.1343C144.208 22.1343 144.56 22.3101 144.56 22.6616L144.296 23.4526L144.56 23.189H144.823L145.087 23.4526H145.351L145.878 22.6616V22.3979L144.823 21.0796C144.018 21.4165 143.578 21.7681 143.505 22.1343ZM146.669 22.1343L146.933 22.3979H147.46L147.987 21.8706L147.724 21.6069H147.196L146.669 22.1343ZM158.007 22.7275H158.271L158.798 23.2549V23.7822L158.534 24.0459V24.3096C159.56 24.3535 160.175 24.8809 160.38 25.8916H160.644V25.1006L160.38 24.8369V24.5732L160.644 24.3096H160.907L161.171 24.5732V25.3643L160.907 25.6279L161.171 25.8916V27.21L160.907 29.583L161.171 31.165L160.116 31.9561H158.534L156.161 31.6924L154.315 31.9561V30.9014L151.415 32.7471C151.02 32.7471 150.756 31.6924 150.624 29.583L155.37 27.21C155.663 27.21 156.015 27.8252 156.425 29.0557C157.831 28.8799 158.534 28.6162 158.534 28.2646C158.534 26.8584 158.007 26.1553 156.952 26.1553H156.688V25.6279L157.479 24.0459H158.007V24.5732H158.271V23.7822L158.007 22.7275ZM176.024 1.0625L177.343 1.32617H178.397C183.671 1.32617 186.308 1.76562 186.308 2.64453L186.571 4.49023L186.308 5.80859L186.571 6.07227L186.308 7.39062V9.76367L186.571 10.5547L186.308 11.873V24.2656L186.835 28.748C186.615 30.3301 186.264 31.1211 185.78 31.1211C185.78 30.418 185.341 30.0664 184.462 30.0664C183.876 30.0664 183.261 30.5938 182.616 31.6484L179.716 32.1758L178.134 31.9121H177.606V31.3848H178.134V29.8027H178.661V29.2754L178.397 29.5391H178.134V29.0117L178.661 28.4844H179.188L179.452 29.5391L179.188 30.3301H179.452C180.639 29.4512 181.605 29.0117 182.353 29.0117V28.748C181.825 28.748 181.562 28.5723 181.562 28.2207L181.298 28.4844H180.507V27.957H181.298V27.6934H180.507L180.243 27.957V27.166H180.507L181.562 27.4297L182.353 27.166L183.407 28.2207H183.671C183.671 27.9131 182.616 26.9463 180.507 25.3203C180.507 25.8037 179.979 26.4189 178.925 27.166H178.661V26.6387L178.397 26.9023H177.87C177.87 26.4043 177.431 25.7891 176.552 25.0566L176.815 24.793L176.552 24.5293V19.7832C176.552 18.9043 177.079 18.4648 178.134 18.4648V17.9375L177.606 17.4102L176.552 17.6738V17.4102L177.606 16.3555C177.606 16.8096 178.222 17.1611 179.452 17.4102V17.1465L179.979 16.3555V16.0918C179.101 16.0918 178.661 15.916 178.661 15.5645C178.661 15.2129 178.134 15.0371 177.079 15.0371V15.8281H176.552V15.5645L176.815 6.07227L174.706 3.43555C174.765 2.49805 175.204 1.70703 176.024 1.0625ZM188.681 1.58984H189.472L190.526 1.85352L191.581 1.58984L191.845 1.85352L193.163 1.58984H194.745C197.704 1.58984 199.901 3.96289 201.337 8.70898V8.97266C201.337 11.7852 200.106 14.2461 197.646 16.3555V16.6191C199.755 17.7031 200.81 18.9336 200.81 20.3105V21.3652L200.019 20.8379H198.7C198.173 21.0137 197.909 21.541 197.909 22.4199V22.6836L200.282 23.4746L200.546 23.2109L200.81 24.5293L199.228 26.375L199.491 26.6387V26.9023L197.646 27.166L197.382 25.8477H197.646L198.437 26.1113V25.584C197.909 25.584 197.646 25.4082 197.646 25.0566L197.909 24.2656H196.854C196.854 25.1445 196.327 25.584 195.272 25.584L194.481 26.6387V27.6934C196.239 27.9863 197.118 28.6895 197.118 29.8027H196.854C196.723 31.0332 196.107 31.6484 195.009 31.6484H193.69L193.427 30.8574L193.69 30.0664H193.427L192.636 29.5391C192.636 29.8906 192.196 30.0664 191.317 30.0664L191.054 30.3301V30.8574L191.317 31.1211V31.3848L191.054 31.6484H190.526L190.263 31.3848L189.999 31.6484H189.208L188.681 31.1211V30.8574L188.944 31.1211H189.208V30.5938H188.944L188.681 30.8574H188.417V30.3301L188.944 29.8027L189.999 30.5938C190.351 29.8906 190.878 29.5391 191.581 29.5391C191.581 29.1875 191.317 29.0117 190.79 29.0117C191.537 28.25 192.064 26.2285 192.372 22.9473L193.427 22.4199C193.427 20.4424 191.845 19.2119 188.681 18.7285V17.4102C189.208 16.7363 189.472 15.9453 189.472 15.0371H188.944V14.5098H189.208L189.472 14.7734H189.735C191.493 14.7734 192.372 12.9277 192.372 9.23633V8.44531C192.372 6.33594 191.757 5.28125 190.526 5.28125C188.944 5.10547 188.153 4.8418 188.153 4.49023V2.11719L188.681 1.58984ZM194.218 15.3008V16.0918L195.009 16.8828H196.327V16.3555H196.591L196.327 16.0918V15.5645L196.591 15.3008V15.0371H195.536L194.218 15.3008ZM177.079 19.7832V20.0469L177.606 20.5742V20.3105L177.079 19.7832ZM182.616 20.5742V21.6289L184.198 22.4199L184.989 22.1562L184.726 21.1016L184.989 19.7832L182.616 20.5742ZM200.282 21.6289H200.81V22.9473L200.282 22.4199V21.6289ZM177.343 22.6836V23.4746H177.87V23.2109L177.343 22.6836ZM192.636 27.166L192.372 28.4844V28.748L193.69 29.0117V28.2207C193.339 28.2207 193.163 27.957 193.163 27.4297L192.899 27.166H192.636ZM184.462 28.2207L184.198 29.0117L184.462 29.2754H185.517L184.989 28.4844L185.253 28.2207H184.462ZM189.999 28.2207L190.526 28.748L189.472 29.0117V28.748L189.999 28.2207ZM193.427 29.2754L193.954 29.8027H194.218V29.2754H193.427ZM207.05 1.39209L208.104 1.65576L209.159 1.39209C210.038 1.39209 210.478 1.56787 210.478 1.91943L210.741 1.65576H213.378L215.751 1.39209L217.069 1.65576V4.29248L216.542 4.81982L216.278 4.02881H215.751L214.96 4.81982L215.224 5.0835C214.696 5.25928 214.433 5.78662 214.433 6.66553V13.2573L214.169 14.8394L214.433 15.103V15.3667L214.169 16.6851L214.433 16.9487L214.169 18.2671V19.8491L214.433 26.7046L213.114 29.0776L213.378 29.3413H213.642L213.905 29.0776H214.169L215.224 29.605L217.069 29.0776V30.6597L216.542 31.187V30.6597H216.015V30.9233L216.278 31.187V31.4507C215.707 31.8608 214.916 32.1245 213.905 32.2417L213.642 31.978L208.896 32.5054L208.368 31.978L207.841 32.5054H205.468L204.149 32.769C203.446 31.9634 203.095 30.7329 203.095 29.0776V28.2866H205.204V27.7593H205.731C205.731 28.2866 206.522 28.5503 208.104 28.5503C208.104 28.9019 207.841 29.0776 207.313 29.0776V29.3413C208.192 29.3413 208.632 29.5171 208.632 29.8687L207.577 30.1323V30.6597L207.841 30.396H208.368L208.104 31.7144L209.423 31.4507L209.159 31.187V30.9233L210.478 30.396L210.214 29.0776V28.0229L210.741 27.2319L210.478 26.1772H210.214V26.7046H209.95L209.687 26.4409H209.423L209.159 27.2319H208.632V26.4409H206.522L205.468 27.2319H205.204V26.7046L205.468 18.0034L205.204 11.939L205.468 9.30225L205.204 7.98389L205.468 8.24756H205.995V7.98389H205.468V6.9292L205.995 5.87451L207.05 6.66553C207.05 5.71338 207.577 5.01025 208.632 4.55615V4.29248C208.28 4.29248 208.104 4.02881 208.104 3.50146L207.841 3.23779H206.522C206.259 3.23779 205.995 3.58936 205.731 4.29248L205.995 5.34717V5.61084H205.204V4.02881C204.853 4.02881 204.677 4.38037 204.677 5.0835L204.413 5.34717H203.622L203.095 4.81982V4.02881C203.095 2.271 204.149 1.39209 206.259 1.39209H207.05ZM206.259 12.2026V12.4663C206.259 12.9937 206.61 13.2573 207.313 13.2573C207.782 13.1401 208.222 12.7007 208.632 11.939L206.786 11.6753L206.259 12.2026ZM206.259 19.3218V19.5854L206.522 20.9038H206.786L208.104 19.8491V18.7944H206.786L206.259 19.3218ZM224.452 20.6401H224.716L227.616 21.6948L227.089 26.1772V26.4409L227.353 27.4956L227.089 28.5503V30.396C226.679 31.2749 226.239 31.7144 225.771 31.7144L225.507 31.4507L221.552 31.978V31.7144L221.288 31.978H219.97C219.032 31.978 218.417 31.6265 218.124 30.9233V28.814L218.915 28.0229V28.2866C222.431 27.2173 224.188 25.7231 224.188 23.8042L223.925 23.5405V23.2769L224.452 20.6401ZM222.343 29.0776C222.943 29.0776 223.559 29.5171 224.188 30.396H224.452V29.605L223.397 28.5503H222.87L222.343 29.0776ZM221.552 30.1323H222.079L222.606 29.605V29.3413H222.343L221.552 30.1323ZM213.378 30.6597V31.4507H213.642L214.169 30.9233L213.905 30.6597H213.378ZM248.886 32.8789C246.425 32.8789 245.194 32 245.194 30.2422C246.249 29.1875 247.392 28.6602 248.622 28.6602H249.677L250.204 27.3418L249.413 26.5508L249.677 26.2871L249.413 26.0234C249.765 24.6318 250.028 20.2373 250.204 12.8398C250.204 8.21094 248.622 5.57422 245.458 4.92969L245.194 2.29297C245.678 1.41406 246.381 0.974609 247.304 0.974609C253.412 0.974609 257.895 5.36914 260.751 14.1582V14.4219C259.872 15.0371 259.433 15.916 259.433 17.0586C259.96 17.0586 260.224 17.4102 260.224 18.1133H260.751C260.751 19.666 260.224 20.6328 259.169 21.0137L258.905 20.75H258.642L257.851 22.0684L259.433 23.6504C259.022 24.8955 258.319 26.126 257.323 27.3418H257.06C257.06 26.3457 256.532 25.6426 255.478 25.2324H254.687C254.687 26.0527 254.511 26.668 254.159 27.0781V27.6055C254.159 27.957 254.687 28.2207 255.741 28.3965L256.532 28.1328V28.3965L253.368 31.0332H252.841L252.05 30.5059H251.786L251.259 31.0332L251.522 31.2969L248.886 32.8789ZM241.767 32.8789H241.503L240.185 31.5605L239.921 31.8242V32.0879L240.185 32.3516L239.394 32.6152C234.472 31.5605 232.011 30.2422 232.011 28.6602C230.824 28.6602 229.945 24.793 229.374 17.0586L229.638 16.7949V16.5312L229.374 15.7402C229.96 12.9863 230.839 10.2617 232.011 7.56641L233.329 7.83008H233.856L234.384 7.30273L233.856 5.7207C236.244 2.38086 238.969 0.710938 242.03 0.710938H242.558L243.876 2.82031C243.876 3.65527 242.909 4.62207 240.976 5.7207C240.316 5.7207 239.701 7.91797 239.13 12.3125L239.394 14.1582L239.13 20.4863V21.2773L239.394 23.123H239.13C239.13 27.166 240.36 29.1875 242.821 29.1875L243.349 31.2969V31.8242L241.767 32.8789ZM237.812 31.5605L237.284 31.0332H237.021V31.5605H237.812ZM253.368 29.7148V29.4512L252.841 28.9238V29.7148H253.368ZM257.851 25.4961V24.7051L257.323 25.2324V25.4961H257.851ZM253.632 24.4414V23.3867H253.368V23.9141H252.577V23.6504L253.104 22.8594V22.0684L252.05 20.75L251.786 21.0137H250.995L250.731 20.75H250.468V21.0137L250.731 22.332L250.468 22.5957C250.819 22.5957 251.171 23.123 251.522 24.1777C252.401 24.1777 252.841 24.3535 252.841 24.7051L253.632 24.4414ZM233.856 23.9141V23.123L233.329 22.5957H232.802C233.021 23.4746 233.285 23.9141 233.593 23.9141H233.856ZM238.866 21.8047L238.339 21.2773H238.075V21.8047H238.866ZM256.532 17.3223C256.195 16.5166 255.844 16.0771 255.478 16.0039H254.159V16.5312H254.95V16.7949L254.423 17.5859V17.8496L254.95 18.377C256.005 18.377 256.532 18.0254 256.532 17.3223ZM252.841 17.3223V17.0586L252.05 16.2676L251.786 17.0586L252.05 17.3223H252.841ZM232.802 16.2676L233.593 15.2129H233.065V14.9492L233.329 14.6855V14.4219L233.065 14.1582H232.538C232.538 14.583 232.274 15.0225 231.747 15.4766L232.802 16.2676ZM237.021 11.2578L237.284 10.9941V10.7305L237.021 10.4668H235.966L237.021 11.2578ZM250.731 9.67578L251.786 7.56641H250.468V8.09375H250.204L250.468 8.35742V8.62109L250.204 9.67578H250.731ZM276.483 1.32617L277.538 2.11719V2.38086L277.274 3.43555L277.538 4.49023C276.571 5.19336 275.604 5.54492 274.638 5.54492V5.28125C274.638 4.51953 274.989 3.99219 275.692 3.69922L275.956 2.64453L274.638 1.58984L276.483 1.32617ZM271.737 1.58984V1.85352L272.001 1.58984H273.583L274.11 2.11719L273.056 2.64453C273.056 3.59668 273.583 4.56348 274.638 5.54492C273.407 7.02441 272.792 12.5615 272.792 22.1562C272.792 25.6719 273.407 27.4297 274.638 27.4297C274.638 27.8252 275.517 28.2646 277.274 28.748V30.0664L277.011 30.3301L277.274 30.5938V31.6484L277.011 31.9121V32.1758L275.165 31.9121V31.3848L275.956 30.3301L275.692 30.0664V29.8027L275.956 29.0117H275.692L274.374 28.748L274.638 29.0117L274.374 30.3301V31.1211L274.638 31.3848V31.6484L273.847 31.9121C273.158 31.9121 272.455 31.4727 271.737 30.5938H271.474L271.21 30.8574H270.946L269.628 29.8027H269.364V29.5391L269.628 29.2754V29.0117L269.101 28.4844L267.782 28.748C265.409 27.2979 263.651 24.2217 262.509 19.5195V18.7285L263.036 18.2012L262.509 17.4102V14.5098C262.831 11.3604 263.358 9.69043 264.091 9.5L264.882 9.23633L264.354 7.91797C265.292 5.98438 265.995 4.92969 266.464 4.75391L266.728 5.01758H266.991L268.31 4.49023L268.573 4.75391C268.69 2.82031 269.569 1.85352 271.21 1.85352L271.474 1.58984H271.737ZM280.702 0.864746C283.866 0.967285 285.448 1.49463 285.448 2.44678H285.712L287.558 0.864746H288.876V1.39209C288.349 1.39209 287.997 1.83154 287.821 2.71045L289.14 4.29248V9.56592C289.14 11.3237 288.437 12.2026 287.03 12.2026C287.03 12.5542 286.679 12.73 285.976 12.73L284.657 9.30225C282.855 6.97314 281.01 5.03955 279.12 3.50146L278.856 3.23779V2.97412C278.856 1.56787 279.472 0.864746 280.702 0.864746ZM280.702 3.23779V3.50146L282.284 4.81982H282.812L283.603 2.71045C283.544 2.2417 283.104 1.89014 282.284 1.65576C281.229 1.65576 280.702 2.18311 280.702 3.23779ZM284.657 7.45654V7.98389C284.657 8.55518 285.536 8.99463 287.294 9.30225V9.03857L287.03 7.72021L287.294 7.45654C286.767 7.45654 286.503 7.01709 286.503 6.13818H285.976L284.657 7.45654ZM269.892 8.44531C270.302 9.5 270.653 10.0273 270.946 10.0273H272.265V9.5H270.946L271.21 8.18164H271.474L271.737 8.44531H272.001V8.18164L271.737 7.39062H271.21L269.892 8.44531ZM266.991 13.1914L267.255 14.7734H267.782V13.7188L267.255 13.1914H266.991ZM287.558 20.5742L288.612 21.6289V21.8926C288.612 25.9209 286.942 29.1729 283.603 31.6484L280.175 32.4395C279.647 31.5312 279.384 30.6523 279.384 29.8027C279.384 28.6748 280.526 27.708 282.812 26.9023C284.218 25.4961 285.272 23.4746 285.976 20.8379L286.239 20.5742H287.558ZM264.882 22.6836V23.2109L266.2 24.793H266.991L267.519 24.2656L266.464 23.2109V22.9473L266.728 22.6836V22.4199L264.882 22.6836ZM272.001 26.375L272.265 27.166H272.528L273.056 26.6387V26.375H272.001ZM271.474 27.6934L271.737 27.957V28.2207L271.474 29.5391L271.737 29.8027L271.474 30.0664L272.265 30.3301L273.056 27.6934L272.792 27.4297H272.528L271.474 27.6934ZM291.161 2.11719H291.688L294.062 2.38086L294.325 2.11719L295.644 2.38086H296.435L301.181 2.11719C303.642 2.11719 304.872 3.08398 304.872 5.01758L302.499 6.59961L301.708 5.80859C301.005 6.07227 300.653 6.33594 300.653 6.59961V7.12695L300.917 8.44531H301.972L302.235 8.18164H302.499L302.763 8.44531V9.23633L302.499 9.5L302.763 9.76367L301.972 18.4648L302.499 20.5742V21.6289H301.972V22.1562C302.675 22.1562 303.026 23.5625 303.026 26.375L302.763 26.6387H302.499L302.235 26.375L301.444 27.957L304.608 30.5938V31.9121C304.213 32.791 303.334 33.2305 301.972 33.2305L300.39 31.9121L300.653 31.6484V31.3848H300.126V31.1211L298.017 32.9668H296.171C293.754 32.9668 292.084 32.2637 291.161 30.8574V29.8027C291.161 29.5098 291.688 29.1582 292.743 28.748L293.271 27.957L293.007 26.6387V25.584H293.534V26.375H294.062L294.589 24.2656H294.325L294.589 24.002V23.4746C293.71 22.7129 293.271 21.4824 293.271 19.7832V17.6738L293.007 16.6191L293.271 16.3555V16.0918L293.007 12.1367L293.271 8.44531L294.325 8.70898L295.644 8.44531V7.6543C295.116 7.6543 294.853 7.12695 294.853 6.07227L293.271 6.59961C293.271 5.7207 293.095 5.28125 292.743 5.28125C291.645 4.92969 291.029 4.49023 290.897 3.96289L291.161 2.11719ZM307.509 2.11719H314.364L314.628 2.38086L314.892 2.11719H315.155L315.419 2.38086L317.265 2.11719H318.583L319.374 2.9082V4.22656C319.374 4.85645 317.792 5.47168 314.628 6.07227L309.618 13.1914C312.841 19.2852 315.741 23.9434 318.319 27.166C320.077 28.748 320.956 29.7148 320.956 30.0664C320.238 31.7949 319.711 32.6738 319.374 32.7031H318.583L318.319 32.4395L318.056 32.7031H317.792L317.528 32.4395L311.728 33.2305L309.354 32.9668L308.563 33.2305C307.685 31.9561 307.245 30.9014 307.245 30.0664L308.827 28.4844L304.608 21.1016L303.817 20.0469L304.345 19.5195C303.466 17.6592 303.026 16.3408 303.026 15.5645C303.026 15.0078 304.081 13.5137 306.19 11.082L309.354 6.59961V5.54492C308.725 5.54492 308.197 5.28125 307.772 4.75391L307.509 5.01758H307.245L306.718 4.49023V2.9082L307.509 2.11719ZM295.907 9.23633L295.644 10.0273H296.171V9.23633H295.907ZM297.489 13.1914L299.071 14.5098L300.126 12.9277C299.73 12.9277 299.467 12.4883 299.335 11.6094H298.28C297.753 11.7852 297.489 12.3125 297.489 13.1914ZM298.544 21.1016L298.017 22.6836V23.4746L299.599 24.793H299.862C300.668 23.7383 301.283 23.2109 301.708 23.2109V22.9473C301.181 22.9473 300.917 22.6836 300.917 22.1562C300.346 22.1562 299.555 21.8047 298.544 21.1016ZM298.017 25.0566V25.3203C298.28 26.0234 298.544 26.375 298.808 26.375V25.584L298.28 25.0566H298.017ZM294.589 27.6934V28.748C295.043 29.627 295.746 30.0664 296.698 30.0664H296.962L297.489 27.6934C297.489 27.2979 297.05 27.0342 296.171 26.9023C295.116 27.0781 294.589 27.3418 294.589 27.6934ZM298.808 28.4844V29.0117L299.599 29.2754V29.0117L299.071 28.4844H298.808ZM293.798 29.5391V30.5938L294.325 30.0664L293.798 29.5391ZM336.688 1.32617L337.743 2.11719V2.38086L337.479 3.43555L337.743 4.49023C336.776 5.19336 335.81 5.54492 334.843 5.54492V5.28125C334.843 4.51953 335.194 3.99219 335.897 3.69922L336.161 2.64453L334.843 1.58984L336.688 1.32617ZM331.942 1.58984V1.85352L332.206 1.58984H333.788L334.315 2.11719L333.261 2.64453C333.261 3.59668 333.788 4.56348 334.843 5.54492C333.612 7.02441 332.997 12.5615 332.997 22.1562C332.997 25.6719 333.612 27.4297 334.843 27.4297C334.843 27.8252 335.722 28.2646 337.479 28.748V30.0664L337.216 30.3301L337.479 30.5938V31.6484L337.216 31.9121V32.1758L335.37 31.9121V31.3848L336.161 30.3301L335.897 30.0664V29.8027L336.161 29.0117H335.897L334.579 28.748L334.843 29.0117L334.579 30.3301V31.1211L334.843 31.3848V31.6484L334.052 31.9121C333.363 31.9121 332.66 31.4727 331.942 30.5938H331.679L331.415 30.8574H331.151L329.833 29.8027H329.569V29.5391L329.833 29.2754V29.0117L329.306 28.4844L327.987 28.748C325.614 27.2979 323.856 24.2217 322.714 19.5195V18.7285L323.241 18.2012L322.714 17.4102V14.5098C323.036 11.3604 323.563 9.69043 324.296 9.5L325.087 9.23633L324.56 7.91797C325.497 5.98438 326.2 4.92969 326.669 4.75391L326.933 5.01758H327.196L328.515 4.49023L328.778 4.75391C328.896 2.82031 329.774 1.85352 331.415 1.85352L331.679 1.58984H331.942ZM340.907 0.864746C344.071 0.967285 345.653 1.49463 345.653 2.44678H345.917L347.763 0.864746H349.081V1.39209C348.554 1.39209 348.202 1.83154 348.026 2.71045L349.345 4.29248V9.56592C349.345 11.3237 348.642 12.2026 347.235 12.2026C347.235 12.5542 346.884 12.73 346.181 12.73L344.862 9.30225C343.061 6.97314 341.215 5.03955 339.325 3.50146L339.062 3.23779V2.97412C339.062 1.56787 339.677 0.864746 340.907 0.864746ZM340.907 3.23779V3.50146L342.489 4.81982H343.017L343.808 2.71045C343.749 2.2417 343.31 1.89014 342.489 1.65576C341.435 1.65576 340.907 2.18311 340.907 3.23779ZM344.862 7.45654V7.98389C344.862 8.55518 345.741 8.99463 347.499 9.30225V9.03857L347.235 7.72021L347.499 7.45654C346.972 7.45654 346.708 7.01709 346.708 6.13818H346.181L344.862 7.45654ZM330.097 8.44531C330.507 9.5 330.858 10.0273 331.151 10.0273H332.47V9.5H331.151L331.415 8.18164H331.679L331.942 8.44531H332.206V8.18164L331.942 7.39062H331.415L330.097 8.44531ZM327.196 13.1914L327.46 14.7734H327.987V13.7188L327.46 13.1914H327.196ZM347.763 20.5742L348.817 21.6289V21.8926C348.817 25.9209 347.147 29.1729 343.808 31.6484L340.38 32.4395C339.853 31.5312 339.589 30.6523 339.589 29.8027C339.589 28.6748 340.731 27.708 343.017 26.9023C344.423 25.4961 345.478 23.4746 346.181 20.8379L346.444 20.5742H347.763ZM325.087 22.6836V23.2109L326.405 24.793H327.196L327.724 24.2656L326.669 23.2109V22.9473L326.933 22.6836V22.4199L325.087 22.6836ZM332.206 26.375L332.47 27.166H332.733L333.261 26.6387V26.375H332.206ZM331.679 27.6934L331.942 27.957V28.2207L331.679 29.5391L331.942 29.8027L331.679 30.0664L332.47 30.3301L333.261 27.6934L332.997 27.4297H332.733L331.679 27.6934ZM368.966 1.50195L373.976 2.0293L374.24 1.76562H374.503L375.558 2.0293H376.085V1.76562L377.404 2.0293L381.095 1.76562C381.623 2.70313 381.974 3.93359 382.15 5.45703L381.359 5.98438H379.777V6.77539L379.513 10.2031L379.777 12.5762H379.513L379.777 12.8398V13.8945C379.425 14.3047 379.25 14.9199 379.25 15.7402L377.931 15.4766L377.667 15.7402V16.0039C378.195 16.0039 378.458 16.1797 378.458 16.5312L378.195 16.7949H377.931L377.14 16.2676L375.558 18.9043H375.294V19.6953L376.876 20.4863C377.858 20.3105 378.649 19.959 379.25 19.4316C379.66 25.0566 380.099 27.8691 380.568 27.8691C381.125 27.8691 381.652 28.3086 382.15 29.1875H381.886L380.304 28.9238L380.041 29.1875V29.4512L380.568 29.9785V30.2422L379.777 29.7148H379.25V30.5059C379.542 31.209 380.158 31.5605 381.095 31.5605L381.359 31.2969H381.623L381.886 31.5605V31.8242L380.832 32.3516H380.304V32.0879L374.503 32.3516H369.494L367.912 31.2969V30.2422L368.439 29.7148L368.703 29.9785V29.4512L370.021 28.1328H370.548V28.3965L370.812 28.6602L371.603 28.9238L372.921 28.3965L373.449 28.9238L373.712 28.1328H373.976L374.767 28.6602L375.031 28.3965L375.294 28.6602H375.558L376.613 27.6055L376.349 26.2871C375.236 26.375 374.357 26.7266 373.712 27.3418H373.449V26.8145H372.658L371.339 26.5508L370.812 27.0781L370.021 26.2871L370.285 24.7051L370.021 22.332C370.241 21.4531 370.504 21.0137 370.812 21.0137H371.339V21.541H371.867L370.285 19.168L370.021 17.3223L370.285 17.0586L370.021 12.5762V6.24805C370.021 5.95508 369.406 5.60352 368.175 5.19336V3.875C368.175 2.95215 368.439 2.16113 368.966 1.50195ZM357.431 1.63379V1.89746L357.694 1.63379H362.177L363.231 1.89746L364.286 1.63379L364.813 2.4248L364.55 3.74316L364.813 4.53418C364.813 5.41309 364.198 5.85254 362.968 5.85254C362.968 6.90723 362.792 7.43457 362.44 7.43457L362.704 7.69824V8.22559H362.44L362.704 11.3896V14.29H368.241L369.296 15.3447L369.032 16.6631L369.296 18.2451L368.241 19.0361H367.714L363.231 19.2998L362.44 21.6729L363.231 21.9365V24.8369L362.968 27.21L363.495 28.792H363.231L362.704 28.2646L362.968 28.001L361.386 26.4189V27.4736H360.595V26.6826L360.067 27.21L360.595 27.7373C359.877 28.4404 359.086 28.792 358.222 28.792V29.0557L358.485 29.3193V29.583L359.804 29.3193H360.067V30.374H359.54C359.54 30.7256 359.804 30.9014 360.331 30.9014V31.4287H360.067L358.749 30.374H358.222C358.222 31.0771 357.958 31.4287 357.431 31.4287V31.9561L357.694 31.6924H357.958V32.2197L356.376 32.7471H355.585C355.321 32.7471 355.058 32.3955 354.794 31.6924L354.53 31.4287H354.267C354.267 32.1318 354.091 32.4834 353.739 32.4834V31.9561L352.685 32.2197C351.967 31.9707 351.439 31.5312 351.103 30.9014V29.583L351.894 28.792H353.212C353.3 29.4951 353.563 29.8467 354.003 29.8467L355.058 28.2646H355.321V29.0557H355.585L355.849 28.792H356.112L355.585 27.21L355.849 26.9463H356.112L356.64 28.2646H356.903C357.255 28.2646 357.431 28.001 357.431 27.4736H357.694L357.958 27.7373H358.222V27.4736C357.782 27.4736 357.519 27.1221 357.431 26.4189L357.167 26.6826H356.64C356.64 25.6279 356.288 25.1006 355.585 25.1006L355.321 24.3096H355.058C355.058 24.8369 354.882 25.1006 354.53 25.1006H353.739L353.212 24.5732C353.432 22.8154 353.871 21.9365 354.53 21.9365C354.53 21.585 354.267 21.4092 353.739 21.4092L353.476 21.1455V20.0908H354.003C354.003 20.5303 354.354 20.7939 355.058 20.8818V20.6182L354.794 20.3545V20.0908L355.058 19.8271H355.585L356.112 20.3545L355.849 20.6182H356.112L357.958 19.2998V19.8271H358.222V19.5635L357.958 18.7725H357.694L356.376 19.0361V18.2451L357.431 17.9814L356.64 17.1904V17.4541L356.376 17.1904H356.112L355.058 18.7725H354.53L353.476 15.0811L353.739 12.4443L353.476 12.1807V11.917L354.53 9.54395L353.739 9.0166L354.003 7.69824V6.64355C354.003 6.29199 353.739 6.11621 353.212 6.11621L351.894 6.37988L351.63 6.11621V5.85254L352.157 1.89746L353.739 2.4248C355.102 1.89746 356.332 1.63379 357.431 1.63379ZM373.449 9.67578V10.2031L374.503 10.4668V10.2031L373.976 9.67578H373.449ZM357.431 16.6631L357.167 16.9268V17.1904L357.431 17.4541H357.694L357.958 17.1904V16.9268L357.694 16.6631H357.431ZM372.13 21.0137L372.394 21.2773H372.658C372.658 20.8818 373.009 20.5303 373.712 20.2227L374.503 20.4863V20.2227L374.767 19.4316L374.503 19.168V18.9043L374.767 18.1133L372.13 21.0137ZM356.376 20.8818L356.903 21.4092H357.167V20.8818H356.376ZM361.386 22.7275L361.122 22.9912V23.2549L361.386 24.3096L362.704 23.7822C362.646 23.3135 362.206 22.9619 361.386 22.7275ZM371.603 25.4961V26.0234L372.394 26.2871V25.4961H371.603ZM367.978 27.2539H368.505L368.769 28.0449L368.241 28.5723H367.978V27.2539ZM356.376 28.792V29.0557L357.167 30.9014L357.958 30.6377C357.958 30.2861 357.694 30.1104 357.167 30.1104L357.431 29.8467V29.0557L356.376 28.792ZM364.813 28.792L365.077 29.0557H365.341L365.077 30.6377H364.55V29.8467L363.759 30.374L363.231 29.8467V30.374L362.44 29.8467H361.913L362.177 30.1104V31.165H361.913C361.21 30.9014 360.858 30.6377 360.858 30.374L362.177 29.3193L362.44 29.583V29.3193L362.704 29.583H364.286C364.286 29.0557 364.462 28.792 364.813 28.792ZM363.231 31.165V31.9561H362.177V31.4287L363.231 31.165ZM359.804 32.2197H360.595L360.067 32.7471H359.804V32.2197ZM390.719 1.0625H395.465L395.729 1.32617L395.993 1.0625C398.615 1.0625 400.285 1.85352 401.002 3.43555L403.639 12.9277L402.848 13.7188C402.848 14.7441 403.551 15.5352 404.958 16.0918C407.199 23.6504 408.957 27.4297 410.231 27.4297C411.286 27.7812 411.813 28.1328 411.813 28.4844C411.813 30.418 410.934 31.3848 409.176 31.3848L407.858 31.1211C403.888 31.8242 400.636 32.1758 398.102 32.1758C397.223 31.2676 396.784 30.2129 396.784 29.0117C398.366 28.1621 399.157 27.5469 399.157 27.166L393.62 12.1367L392.565 9.23633C392.609 8.5332 392.785 8.18164 393.092 8.18164C393.092 7.6543 392.741 7.39062 392.038 7.39062C391.598 7.08301 391.159 6.29199 390.719 5.01758C389.489 4.66602 388.874 4.31445 388.874 3.96289V2.9082C388.874 1.67773 389.489 1.0625 390.719 1.0625ZM394.411 3.17188H394.674L394.938 2.9082H395.202C395.29 3.61133 395.553 3.96289 395.993 3.96289L396.256 3.69922V3.43555C395.553 3.43555 395.202 3.17188 395.202 2.64453H395.729V2.11719H395.465L394.411 3.17188ZM398.893 7.91797C398.893 8.44531 398.629 8.70898 398.102 8.70898V9.5C398.688 9.5 399.303 9.76367 399.948 10.291L400.475 8.97266V8.70898C400.124 8.00586 399.596 7.6543 398.893 7.6543V7.91797ZM396.52 10.291V10.8184L397.311 11.082V10.8184L396.784 10.291H396.52ZM395.993 11.3457V11.6094L396.784 11.873V11.3457H395.993ZM397.047 11.3457V11.873L397.838 12.1367V12.4004L397.575 12.6641V12.9277H398.366L398.629 12.1367L398.102 11.6094L397.838 11.873H397.311V11.3457H397.047ZM390.719 11.3457H391.247C391.95 11.3457 392.829 13.1914 393.883 16.8828C393.004 17.9375 392.038 18.4648 390.983 18.4648L390.719 18.7285V19.5195C391.071 19.5195 391.247 19.959 391.247 20.8379L391.51 20.5742H394.674C395.905 20.5742 396.52 21.3652 396.52 22.9473L395.729 23.7383L395.993 24.5293L395.729 24.793H394.938L393.356 24.5293L391.774 25.0566H390.983L389.928 27.6934C391.686 28.1621 392.565 29.1289 392.565 30.5938L391.774 31.1211L391.51 30.8574V31.1211L391.774 31.3848V31.6484L390.719 32.1758L388.346 31.9121L387.555 32.1758L385.446 31.9121L383.6 32.1758C381.989 32.1758 381.022 31.0332 380.7 28.748C380.7 28.2207 381.315 27.957 382.545 27.957C385.006 26.4189 386.237 24.6611 386.237 22.6836C387.292 20.5742 388.346 17.8496 389.401 14.5098L389.665 14.2461H389.928L389.665 13.9824V13.7188C389.958 12.1367 390.309 11.3457 390.719 11.3457ZM394.411 13.4551C394.66 14.334 395.275 14.7734 396.256 14.7734H397.311V13.4551L396.256 12.1367L394.411 13.4551ZM399.42 17.6738L399.948 18.9922H400.211C400.211 18.6406 400.475 18.4648 401.002 18.4648V18.2012L399.42 17.6738ZM389.928 19.2559V20.0469H390.719L389.928 19.2559ZM391.774 21.3652V21.8926L392.565 21.6289V21.3652H391.774ZM387.555 23.4746L389.665 24.5293C389.928 23.8262 390.192 23.4746 390.456 23.4746L390.719 23.7383L390.983 23.4746C390.617 22.4199 389.914 21.8926 388.874 21.8926C387.995 22.1709 387.555 22.6982 387.555 23.4746ZM403.112 23.4746V23.7383L404.167 24.793H404.958L405.221 23.2109L404.958 22.9473H403.639L403.112 23.4746ZM385.709 29.2754H386.764L386.237 28.748L385.709 29.2754ZM411.703 1.19434L417.24 1.72168V1.45801L417.504 1.72168L421.723 1.19434C422.777 1.32617 423.305 1.50195 423.305 1.72168L423.568 1.45801H423.832L424.359 1.98535V3.83105C424.359 5.16406 423.48 5.86719 421.723 5.94043L421.195 10.0273L421.459 10.291L421.195 12.1367V16.3555L421.459 18.9922C420.507 19.3438 419.276 19.5195 417.768 19.5195C417.768 19.1094 416.977 18.6699 415.395 18.2012C415.395 18.7285 415.219 18.9922 414.867 18.9922L414.604 18.2012L414.867 17.9375V17.6738C414.867 17.2344 414.252 16.5312 413.021 15.5645V8.57715L412.758 5.94043H413.021C412.919 5.2373 412.304 4.88574 411.176 4.88574L410.648 4.09473V2.77637L411.703 1.19434ZM413.812 19.5195V19.7832L413.285 20.3105L413.021 20.0469V19.7832L413.285 19.5195H413.812ZM418.295 20.0469L418.559 20.3105V20.5742L418.031 21.6289H418.295L419.086 21.1016C419.086 21.8047 419.701 22.1562 420.932 22.1562L421.459 23.7383V25.0566C420.155 25.0566 419.452 24.7051 419.35 24.002C418.998 24.3535 417.855 24.5293 415.922 24.5293L416.449 25.3203L417.768 25.0566L418.295 25.8477L419.613 25.0566L419.877 26.375L419.086 27.4297V27.6934L419.35 27.4297H419.613C419.613 28.3086 420.404 28.748 421.986 28.748V29.2754H422.25V29.0117L421.986 28.2207L422.777 27.6934C423.876 28.0449 424.491 28.4844 424.623 29.0117C424.403 30.9453 423.964 31.9121 423.305 31.9121H415.395L413.285 31.3848H412.758L410.912 31.9121L410.648 31.6484V29.8027L410.385 28.2207C410.722 27.415 411.073 26.9756 411.439 26.9023H413.021V26.375H413.285L413.021 26.1113V22.9473H413.549V21.3652C414.604 21.3652 415.131 21.1016 415.131 20.5742H415.922L416.977 21.3652C416.977 20.7646 417.416 20.3252 418.295 20.0469ZM414.867 21.6289V22.1562H416.449V21.8926L415.922 21.3652L414.867 21.6289ZM416.977 22.1562V22.4199C417.504 22.4199 417.768 22.6836 417.768 23.2109H418.031V22.4199C417.68 22.4199 417.504 22.1562 417.504 21.6289L416.977 22.1562ZM420.404 22.9473L420.668 23.7383H420.932V22.9473H420.404ZM417.504 27.4297V28.2207L418.295 28.4844L418.559 28.2207V27.4297H417.504ZM418.031 30.5938V30.8574L418.559 30.3301V30.0664L418.031 30.5938ZM450.111 1.72168L451.693 1.98535L451.957 1.72168H452.221L453.803 2.77637L455.121 2.5127C455.121 4.79785 454.682 5.94043 453.803 5.94043C452.836 5.94043 452.309 6.73145 452.221 8.31348L452.484 9.89551L452.221 10.9502L452.484 12.0049L452.221 12.2686V12.5322L452.484 13.8506L452.221 14.9053L452.484 15.96L452.221 19.3877V19.6514H451.957C449.35 17.5859 448.031 15.916 448.002 14.6416V13.0596L449.32 11.2139L449.057 10.9502H448.266V11.7412L447.738 11.2139V10.6865H448.002L447.738 8.84082V6.46777L446.156 5.94043L445.102 6.2041C444.75 6.2041 444.574 5.94043 444.574 5.41309C444.574 2.95215 445.277 1.72168 446.684 1.72168H450.111ZM437.982 1.98535C439.916 3.40625 440.883 4.90039 440.883 6.46777C441.41 6.46777 441.674 6.81934 441.674 7.52246C442.377 8.0498 443.607 10.1592 445.365 13.8506C448.778 18.9922 451.151 23.123 452.484 26.2432L452.221 26.5068L452.484 27.8252V28.6162L452.221 28.8799L452.484 29.1436V29.4072C452.484 29.7002 451.43 30.2275 449.32 30.9893V31.5166C450.023 31.5166 450.375 31.6924 450.375 32.0439L450.111 32.3076H449.848C449.32 32.3076 449.057 32.0439 449.057 31.5166H448.266C448.266 32.0439 447.475 32.3076 445.893 32.3076C445.893 31.9561 445.453 31.7803 444.574 31.7803L444.311 30.4619C444.838 30.4619 445.102 30.1982 445.102 29.6709L446.42 29.9346C447.255 28.7041 447.958 28.0889 448.529 28.0889V27.5615L448.002 25.7158H447.475V26.2432H446.684C446.684 25.0127 446.332 24.3975 445.629 24.3975L445.102 24.9248L444.574 24.3975L444.311 26.2432L445.365 27.0342V27.2979H444.838L446.156 28.8799V29.1436H445.893L444.574 28.0889L444.047 28.6162H444.574V29.1436L443.783 29.4072L437.982 19.3877L438.773 18.5967C437.719 18.5967 437.191 18.2451 437.191 17.542C433.515 11.0234 431.142 7.41992 430.072 6.73145C429.018 6.32129 428.49 5.96973 428.49 5.67676V5.41309L429.809 5.67676L430.6 5.41309V4.3584L428.227 4.88574L427.963 4.62207V4.3584L428.227 4.09473H426.908V3.04004C427.025 2.5127 427.729 2.24902 429.018 2.24902L429.281 2.5127H429.545L430.6 2.24902H431.127L431.654 2.77637L431.127 3.56738C431.127 4.02148 431.742 4.37305 432.973 4.62207V4.09473L432.445 3.30371V2.5127L437.982 1.98535ZM431.127 6.2041L431.391 6.46777H431.654L431.918 6.2041V5.41309L431.127 6.2041ZM434.291 6.46777V7.52246L435.082 7.78613V7.52246L434.291 6.46777ZM432.445 6.73145V6.99512C432.445 7.34668 432.797 7.52246 433.5 7.52246V8.0498H434.027V7.52246L432.445 6.73145ZM429.545 8.57715H430.072C430.307 8.57715 430.658 9.36816 431.127 10.9502L432.182 12.2686C432.182 12.6201 431.83 12.7959 431.127 12.7959V13.0596C432.182 13.0596 432.709 13.2354 432.709 13.5869L432.445 14.6416L432.709 14.9053H432.973L433.5 14.3779C435.434 16.2383 436.4 19.2266 436.4 23.3428V25.9795C436.4 26.8584 437.191 27.6494 438.773 28.3525V28.8799L438.51 29.6709L438.773 31.2529V31.5166L438.246 32.3076L436.928 32.0439L435.082 32.3076V32.0439L434.818 32.3076H432.445L428.227 32.0439L427.172 32.3076C426.645 31.6191 426.381 30.6523 426.381 29.4072C427.157 28.8799 427.948 28.6162 428.754 28.6162V26.5068L430.072 24.6611L429.281 24.3975L428.754 24.9248L428.49 24.6611V17.542L428.227 15.1689L428.754 12.0049L428.49 11.7412V11.4775C428.842 9.54395 429.193 8.57715 429.545 8.57715ZM436.4 11.4775V11.7412C436.576 12.3125 436.928 12.6641 437.455 12.7959L437.982 12.0049L437.455 11.4775H436.4ZM431.654 17.0146L431.918 17.8057H431.391L431.918 18.333L433.236 18.0693V17.2783L432.445 16.4873L431.654 17.0146ZM439.037 19.3877V19.6514L439.301 20.7061H439.828L440.355 20.1787C440.355 19.7832 439.916 19.5195 439.037 19.3877ZM448.793 22.8154V23.0791L449.32 23.6064L449.848 23.0791V22.8154H448.793ZM431.918 28.6162H431.654L431.391 28.3525H431.127V28.8799C431.83 28.8799 432.182 29.3193 432.182 30.1982L433.5 30.7256L434.555 29.9346V29.4072L434.291 28.6162L434.555 28.3525L433.236 27.8252L431.918 28.6162Z" fill="#B0D99A"/>
</svg>
