<svg width="1094" height="304" viewBox="0 0 1094 304" fill="none" xmlns="http://www.w3.org/2000/svg">
<path d="M41.7525 72.8449L45.7849 74.8004L49.1876 75.6843C66.2012 80.1036 74.3396 83.731 73.6031 86.5666L72.907 92.7423L70.9515 96.7747L71.5812 97.8464L69.6257 101.879L67.637 109.535L67.8248 112.308L65.8693 116.34L55.4839 156.322L53.4288 171.226C51.3941 176.145 49.597 178.403 48.0374 177.998C48.6267 175.729 47.5035 174.227 44.6679 173.49C42.7775 172.999 40.3507 174.185 37.3874 177.048L27.588 176.318L22.7049 174.142L21.0036 173.7L21.4455 171.998L23.1468 172.44L24.4726 167.336L26.174 167.778L26.6159 166.077L25.5443 166.707L24.6936 166.486L25.1355 164.784L27.2788 163.525L28.9802 163.967L28.947 167.59L27.4334 169.922L28.2841 170.143C32.8487 168.301 36.3361 167.694 38.7464 168.32L38.9673 167.469C37.266 167.027 36.5626 166.239 36.8572 165.105L35.7856 165.735L33.2336 165.072L33.6755 163.37L36.2275 164.033L36.4485 163.183L33.8965 162.52L32.8248 163.149L33.4877 160.597L34.3384 160.818L37.5201 162.553L40.2931 162.365L42.812 166.652L43.6626 166.873C43.9204 165.88 41.3279 161.877 35.8851 154.864C35.48 156.423 33.2631 157.966 29.2343 159.492L28.3837 159.272L28.8256 157.57L27.7539 158.2L26.0526 157.758C26.47 156.151 25.5678 153.798 23.346 150.698L24.4176 150.069L23.7879 148.997L27.7653 133.685C28.5018 130.849 30.5715 129.873 33.9742 130.757L34.4161 129.056L33.1567 126.913L29.533 126.879L29.754 126.029L34.0405 123.51C33.66 124.975 35.3503 126.625 39.1114 128.459L39.3324 127.609L41.6966 125.499L41.9176 124.648C39.082 123.911 37.8115 122.976 38.1062 121.842C38.4008 120.708 36.8467 119.698 33.444 118.815L32.7811 121.367L31.0798 120.925L31.3007 120.074L40.1062 89.6706L35.5104 79.3962C36.4851 76.4206 38.5658 74.2369 41.7525 72.8449ZM82.143 85.1526L84.6951 85.8155L87.8768 87.55L91.5005 87.5832L92.1302 88.6549L96.6045 88.909L101.709 90.2348C111.255 92.7146 116.355 102.212 117.009 118.727L116.788 119.578C114.431 128.652 108.399 135.56 98.692 140.303L98.471 141.154C104.368 146.419 106.74 151.273 105.586 155.715L104.702 159.118L102.592 156.754L98.3382 155.649C96.4896 155.774 95.197 157.254 94.4604 160.09L94.2394 160.941L101.233 165.481L102.304 164.852L102.05 169.326L95.3993 173.955L96.029 175.026L95.8081 175.877L89.6324 175.181L89.8865 170.707L90.7372 170.928L93.0682 172.441L93.5102 170.74C91.8088 170.298 91.1055 169.51 91.4001 168.376L92.9137 166.045L89.5109 165.161C88.7744 167.996 86.7048 168.972 83.3021 168.088L79.8662 170.828L78.9823 174.231C84.408 176.649 86.6543 179.654 85.7213 183.246L84.8707 183.025C83.4142 186.884 80.9137 188.354 77.3692 187.433L73.1158 186.328L72.928 183.555L74.4416 181.224L73.5909 181.003L71.4808 178.639C71.1862 179.773 69.6211 179.972 66.7855 179.235L65.7139 179.865L65.2719 181.566L65.9016 182.638L65.6807 183.489L64.609 184.118L62.9077 183.676L62.278 182.605L61.2063 183.235L58.6543 182.572L57.3949 180.428L57.6158 179.578L58.2455 180.649L59.0962 180.87L59.5382 179.169L58.6875 178.948L57.6158 179.578L56.7652 179.357L57.2071 177.655L59.3504 176.396L62.0902 179.832C63.8137 177.858 65.8096 177.166 68.0781 177.755C68.3727 176.621 67.6694 175.833 65.968 175.391C69.0166 173.559 72.412 167.479 76.1543 157.151L79.9989 156.333C81.6562 149.953 77.5833 144.658 67.7803 140.447L68.8851 136.193C71.1511 134.461 72.6647 132.13 73.4258 129.2L71.7245 128.758L72.1664 127.057L73.0171 127.278L73.6468 128.349L74.4975 128.57C80.1686 130.043 84.551 124.825 87.6445 112.916L88.3074 110.364C90.0751 103.558 88.9741 99.64 85.0043 98.6088C80.0475 96.7159 77.7164 95.2024 78.0111 94.0681L79.9998 86.412L82.143 85.1526ZM88.517 134.028L87.8541 136.58L89.7433 139.795L93.9966 140.9L94.4386 139.198L95.2892 139.419L94.6595 138.348L95.1015 136.646L96.1731 136.017L96.3941 135.166L92.9914 134.282L88.517 134.028ZM29.4666 134.127L29.2457 134.977L30.5051 137.121L30.7261 136.27L29.4666 134.127ZM46.6679 141.319L45.7841 144.722L50.2252 148.6L52.9982 148.412L53.0314 144.788L54.9869 140.756L46.6679 141.319ZM102.779 159.527L104.481 159.968L103.376 164.222L102.117 162.079L102.779 159.527ZM27.8867 143.705L27.2238 146.257L28.9251 146.699L29.1461 145.848L27.8867 143.705ZM73.4695 170.983L71.514 175.015L71.293 175.866L75.3254 177.821L75.9883 175.269C74.8541 174.975 74.508 173.977 74.9499 172.275L74.3202 171.204L73.4695 170.983ZM46.2147 167.535L44.7011 169.867L45.3308 170.938L48.7335 171.822L47.6951 168.828L48.7667 168.198L46.2147 167.535ZM64.0789 172.176L65.3383 174.319L61.7146 174.286L61.9356 173.435L64.0789 172.176ZM74.2538 178.451L75.5132 180.594L76.3639 180.815L76.8058 179.114L74.2538 178.451ZM133.232 97.0609L150.654 103.403L150.875 102.552L151.504 103.623L165.557 105.458C168.849 106.767 170.403 107.776 170.219 108.485L171.291 107.855L172.142 108.076L173.401 110.219L171.854 116.174C170.737 120.475 167.312 122.007 161.58 120.77L156.454 133.513L157.083 134.585L154.686 140.319L151.15 153.93L149.791 162.657C146.425 162.994 142.308 162.53 137.44 161.265C137.784 159.942 135.6 157.861 130.889 155.023C130.447 156.724 129.659 157.428 128.524 157.133L128.337 154.36L129.408 153.73L129.629 152.88C129.998 151.462 128.602 148.678 125.442 144.528L131.298 121.985L132.657 113.257L133.508 113.478C133.766 111.123 132.076 109.474 128.437 108.528L127.398 105.534L128.503 101.281L133.232 97.0609ZM124.68 157.951L124.459 158.801L122.316 160.061L121.686 158.989L121.907 158.138L122.978 157.509L124.68 157.951ZM138.699 163.408L139.329 164.48L139.108 165.331L136.523 168.291L137.374 168.512L140.368 167.474C139.778 169.742 141.469 171.392 145.438 172.423L145.814 177.969L144.709 182.223C140.503 181.13 138.529 179.407 138.788 177.052C137.359 177.892 133.525 177.502 127.287 175.881L128.325 178.875L132.8 179.129L133.838 182.123L138.754 180.676L138.5 185.15L135.064 187.89L134.843 188.741L135.915 188.111L136.766 188.332C136.029 191.168 138.213 193.248 143.317 194.574L142.875 196.276L143.726 196.497L143.947 195.646L143.759 192.873L146.753 191.834C150.003 193.889 151.619 195.823 151.603 197.635C149.273 203.689 147.045 206.44 144.919 205.887L119.398 199.258L113.035 195.789L111.334 195.347L104.937 195.502L104.307 194.43L105.854 188.475L106.329 183.15C108.091 180.833 109.594 179.71 110.837 179.781L115.941 181.107L116.383 179.405L117.233 179.626L116.604 178.555L119.255 168.347L120.957 168.788L122.282 163.684C125.685 164.568 127.607 164.16 128.049 162.458L130.601 163.121L133.341 166.557C133.844 164.619 135.631 163.57 138.699 163.408ZM126.315 165.64L125.873 167.341L130.977 168.667L131.198 167.816L129.938 165.673L126.315 165.64ZM132.678 169.109L132.457 169.96C134.159 170.402 134.788 171.473 134.346 173.175L135.197 173.396L135.86 170.844C134.726 170.549 134.38 169.551 134.822 167.85L132.678 169.109ZM143.074 174.534L143.262 177.307L144.113 177.528L144.776 174.976L143.074 174.534ZM129.96 186.564L129.297 189.116L131.628 190.63L132.7 190L133.363 187.448L129.96 186.564ZM129.01 197.214L128.789 198.065L130.932 196.806L131.153 195.955L129.01 197.214ZM256.705 130.95L261.588 133.126L262.66 132.496L263.51 132.717L267.73 137.446L272.205 137.7C270.29 145.073 267.914 148.391 265.079 147.654C261.96 146.844 259.595 148.954 257.986 153.984L257.511 159.309L255.776 162.491L255.743 166.115L254.672 166.744L254.451 167.595L254.196 172.069L252.462 175.251L252.429 178.875L248.705 189.713L248.485 190.563L247.634 190.342C240.952 181.494 238.099 175.001 239.072 170.865L240.398 165.761L246.198 160.911L245.568 159.839L243.016 159.177L242.353 161.729L241.094 159.585L241.536 157.884L242.387 158.105L243.083 151.929L245.071 144.273L240.409 141.246L236.786 141.213C235.651 140.918 235.305 139.92 235.747 138.219C237.809 130.279 241.109 126.899 245.646 128.077L256.705 130.95ZM217.353 121.636C222.4 127.84 224.267 133.471 222.954 138.528C224.655 138.97 225.211 140.325 224.622 142.594C226.448 144.884 228.651 152.721 231.228 166.103C237.931 185.552 242.125 200.868 243.811 212.051L242.739 212.681L242.485 217.155L241.822 219.707L240.751 220.337L241.38 221.409L241.159 222.259C240.914 223.205 237.069 224.022 229.626 224.712L229.184 226.413C231.452 227.002 232.439 227.864 232.144 228.998L231.073 229.628L230.222 229.407C228.521 228.965 227.891 227.894 228.333 226.192L225.781 225.529C225.339 227.231 222.566 227.418 217.462 226.093C217.757 224.958 216.486 224.023 213.65 223.286L213.905 218.812C215.606 219.254 216.678 218.624 217.12 216.923L221.152 218.878C224.877 215.608 227.661 214.213 229.504 214.691L229.946 212.99L229.791 206.593L228.09 206.152L227.648 207.853L225.096 207.19C226.127 203.22 225.509 200.941 223.24 200.351L221.097 201.611L219.838 199.467L217.44 205.201L220.18 208.637L219.959 209.488L218.258 209.046L221.185 215.255L220.964 216.105L220.114 215.885L216.744 211.377L214.601 212.636L216.302 213.078L215.86 214.78L213.087 214.967L202.769 177.78L205.984 175.891C202.581 175.008 201.174 173.431 201.764 171.163C195.364 147.051 190.728 133.436 187.855 130.319C184.796 128.112 183.389 126.536 183.635 125.591L183.856 124.74L187.888 126.695L190.661 126.508L191.545 123.105L183.447 122.818L182.817 121.746L183.038 120.895L184.11 120.266L179.857 119.161L180.74 115.758C181.56 114.155 184.05 113.893 188.209 114.974L188.838 116.045L189.689 116.266L193.313 116.299L195.014 116.741L196.274 118.885L193.909 120.995C193.529 122.46 195.219 124.11 198.98 125.944L199.422 124.243L198.384 121.249L199.047 118.697L217.353 121.636ZM191.7 129.502L192.329 130.573L193.18 130.794L194.252 130.164L194.915 127.612L191.7 129.502ZM201.687 133.004L200.803 136.407L203.134 137.92L203.355 137.069L201.687 133.004ZM195.511 132.308L195.29 133.158C194.996 134.293 195.982 135.154 198.251 135.744L197.809 137.445L199.51 137.887L199.952 136.186L195.511 132.308ZM184.607 135.832L186.308 136.274C187.064 136.47 187.536 139.317 187.722 144.814L190.02 149.951C189.726 151.085 188.444 151.358 186.176 150.768L185.955 151.619C189.357 152.503 190.911 153.512 190.617 154.646L188.882 157.828L189.512 158.9L190.363 159.121L192.506 157.861C197.185 165.484 197.8 175.935 194.35 189.215L192.141 197.722C191.404 200.557 193.293 203.772 197.808 207.366L197.366 209.068L195.853 211.399L195.378 216.724L195.157 217.575L192.792 219.685L188.76 217.729L182.584 217.033L182.805 216.182L181.734 216.812L174.077 214.823L160.688 210.437L157.064 210.404C155.94 207.741 155.899 204.401 156.942 200.384C159.889 199.333 162.662 199.145 165.261 199.82L167.029 193.015L172.829 188.165L170.498 186.651L168.355 187.911L167.725 186.839L173.691 163.871L174.829 155.994L179.182 146.228L178.553 145.156L178.774 144.305C181.528 138.362 183.473 135.537 184.607 135.832ZM204.294 150.934L204.073 151.785C204.161 153.776 205.001 155.204 206.592 156.072L208.956 153.962L207.697 151.818L204.294 150.934ZM184.341 164.821L184.529 167.594L182.828 167.152L184.087 169.296L188.562 169.55L189.225 166.998L187.335 163.783L184.341 164.821ZM206.172 178.664L205.951 179.515L205.918 183.139L207.619 183.581L209.762 182.321C210.094 181.045 208.897 179.826 206.172 178.664ZM234.774 197.899L234.553 198.75L235.813 200.893L237.956 199.633L238.177 198.783L234.774 197.899ZM175.47 202.472L174.619 202.251L173.989 201.179L173.139 200.958L172.697 202.66C174.965 203.249 175.731 204.961 174.994 207.797L178.806 210.603L182.872 208.935L183.313 207.234L183.126 204.461L184.197 203.831L180.386 201.025L175.47 202.472Z" fill="#A6FF61"/>
<path d="M624.264 169.322L627.881 169.103L630.97 167.207C633.764 166.326 635.337 166.444 635.689 167.562L636.263 166.459L644.645 163.816L651.925 160.598L656.38 160.114L659.024 168.496L657.876 170.702L656.245 168.451L654.568 168.98L652.847 172.288L653.95 172.862C652.449 173.949 652.14 175.89 653.021 178.684L659.63 199.639L660.379 204.933L661.481 205.506L661.745 206.345L662.229 210.8L663.332 211.374L663.815 215.829L665.402 220.858L673.113 242.387L671.302 251.253L672.404 251.827L673.243 251.563L673.816 250.46L674.655 250.196L678.536 250.814L683.875 247.287L685.461 252.317L684.313 254.522L683.785 252.845L682.108 253.374L682.373 254.212L683.475 254.786L683.74 255.624C682.335 257.501 680.084 259.132 676.989 260.518L675.886 259.945L661.327 266.38L659.122 265.232L657.975 267.437L650.431 269.816L646.504 271.977C643.461 270.12 641.11 266.561 639.45 261.299L638.657 258.785L645.363 256.67L644.834 254.993L646.51 254.464C647.039 256.141 649.818 256.186 654.847 254.6C655.2 255.717 654.538 256.54 652.861 257.069L653.126 257.907C655.92 257.026 657.493 257.144 657.845 258.262L654.757 260.158L655.286 261.834L655.86 260.732L657.536 260.203L658.02 264.658L661.946 262.498L660.844 261.924L660.579 261.086L664.242 258.088L662.082 254.161L661.024 250.808L661.907 247.765L660.012 244.677L659.173 244.941L659.702 246.617L658.864 246.882L657.761 246.308L656.923 246.572L656.878 249.351L655.202 249.88L654.409 247.365L647.703 249.48L645.143 253.052L644.305 253.317L643.776 251.64L635.89 223.715L628.972 204.701L627.166 196.055L625.006 192.128L626.109 192.702L627.785 192.173L627.521 191.335L625.844 191.864L624.787 188.511L625.406 184.629L629.552 186.086C628.597 183.06 629.568 180.296 632.466 177.795L632.201 176.956C631.084 177.309 630.261 176.647 629.732 174.97L628.629 174.397L624.438 175.718C623.6 175.983 623.114 177.365 622.981 179.864L624.877 182.953L625.141 183.791L622.627 184.584L621.04 179.555C619.923 179.907 619.716 181.201 620.421 183.437L619.848 184.539L617.333 185.332L615.128 184.185L614.335 181.67C612.572 176.082 615.044 172.23 621.749 170.115L624.264 169.322ZM632.589 204.482L632.853 205.32C633.382 206.996 634.764 207.482 636.999 206.777C638.372 205.935 639.328 204.097 639.868 201.264L633.736 202.277L632.589 204.482ZM639.727 227.113L639.991 227.951L642.151 231.878L642.989 231.614L646.123 226.939L645.065 223.586L640.874 224.908L639.727 227.113ZM698.885 213.063L699.723 212.798L710.001 213.243L712.818 228.021L713.083 228.859L714.978 231.948L715.198 235.565L717.048 241.432C716.626 244.638 715.669 246.475 714.179 246.945L713.077 246.371L701.032 252.013L700.768 251.175L700.194 252.278L696.003 253.6C693.023 254.54 690.715 254.039 689.078 252.097L686.963 245.392L688.685 242.084L688.949 242.922C699.053 235.998 703.143 229.486 701.219 223.385L700.116 222.812L699.852 221.973L698.885 213.063ZM700.639 242C702.548 241.398 704.945 242.178 707.828 244.34L708.666 244.076L707.873 241.561L703.463 239.266L701.787 239.795L700.639 242ZM699.182 246.146L700.858 245.617L702.006 243.412L701.741 242.574L700.903 242.838L699.182 246.146ZM673.726 256.018L674.519 258.533L675.358 258.268L676.505 256.063L675.403 255.489L673.726 256.018ZM716.485 139.084L731.573 134.325L732.675 134.899L733.249 133.796C741.585 131.167 747.686 132.007 751.554 136.317L769.454 163.848L767.732 167.156C768.76 170.416 771.789 172.225 776.817 172.585C791.521 194.366 800.898 204.618 804.949 203.34C808.655 203.4 810.684 203.989 811.036 205.107C812.975 211.254 811.15 215.208 805.562 216.971L801.107 217.454C789.192 223.67 779.207 228.048 771.151 230.589C767.446 228.583 764.992 225.671 763.787 221.852C767.965 217.565 769.862 214.816 769.48 213.606L736.809 171.38L730.548 163.217C729.983 160.938 730.189 159.644 731.167 159.336C730.638 157.659 729.256 157.174 727.021 157.879C725.316 157.341 723.126 155.267 720.451 151.657C716.187 151.773 713.878 151.272 713.526 150.154L712.468 146.802C711.235 142.89 712.574 140.317 716.485 139.084ZM730.335 142.088L731.173 141.824L731.747 140.721L732.585 140.457C733.57 142.604 734.76 143.457 736.157 143.016L736.731 141.914L736.467 141.076C734.232 141.781 732.85 141.295 732.321 139.618L733.997 139.09L733.468 137.413L732.63 137.678L730.335 142.088ZM749.343 152.681C749.872 154.358 749.298 155.46 747.622 155.989L748.415 158.504C750.277 157.916 752.498 158.137 755.075 159.168L755.43 154.448L755.165 153.61C753.343 151.727 751.314 151.138 749.079 151.843L749.343 152.681ZM744.179 162.604L744.707 164.281L747.486 164.326L747.222 163.488L745.017 162.34L744.179 162.604ZM743.56 166.486L743.824 167.324L746.603 167.369L746.074 165.693L743.56 166.486ZM746.913 165.428L747.441 167.105L750.22 167.15L750.485 167.988L749.911 169.091L750.175 169.929L752.69 169.136L752.735 166.357L750.53 165.209L749.956 166.312L748.279 166.841L747.751 165.164L746.913 165.428ZM726.796 171.773L728.472 171.245C730.707 170.54 735.352 175.526 742.406 186.203C740.669 190.437 738.125 193.083 734.772 194.141L734.198 195.243L734.991 197.758C736.109 197.405 737.108 198.626 737.989 201.42L738.563 200.317L748.622 197.145C752.533 195.911 755.282 197.809 756.868 202.838L755.147 206.146L756.778 208.396L756.204 209.499L753.69 210.292L748.396 211.04L743.896 214.302L741.381 215.096L740.672 224.535C746.73 224.263 750.493 226.455 751.962 231.112L749.976 233.581L748.874 233.007L749.138 233.846L750.241 234.419L750.505 235.258L747.681 237.991L739.873 239.533L737.623 241.164L730.653 242.441L725.05 245.129C719.927 246.745 715.708 244.082 712.392 237.141C711.864 235.465 713.555 234.009 717.467 232.776C723.748 225.419 725.897 218.597 723.914 212.31C725.152 204.547 725.773 194.828 725.777 183.154L726.351 182.051L727.189 181.787L726.087 181.213L725.822 180.375C725.167 175.052 725.492 172.185 726.796 171.773ZM740.645 174.778C742.318 177.322 744.715 178.102 747.835 177.118L751.188 176.061L749.866 171.87L745.191 168.736L740.645 174.778ZM760.801 183.166L763.8 186.828L764.638 186.564C764.285 185.446 764.947 184.623 766.624 184.094L766.359 183.256L760.801 183.166ZM732.212 197.713L733.005 200.227L735.52 199.434L732.212 197.713ZM740.195 202.568L740.723 204.244L742.974 202.613L742.709 201.775L740.195 202.568ZM728.898 213.503L736.661 214.741C736.795 212.241 737.28 210.859 738.119 210.595L739.221 211.169L739.795 210.066C737.573 207.081 734.809 206.109 731.503 207.152C728.988 208.918 728.12 211.035 728.898 213.503ZM778.352 197.905L778.617 198.743L783.027 201.039L785.542 200.246L784.794 194.952L783.691 194.378L779.5 195.7L778.352 197.905ZM728.847 233.794L732.2 232.737L729.995 231.589L728.847 233.794ZM839.307 103.11C853.621 102.23 864.971 105.102 873.357 111.724C876.547 114.045 879.604 119.84 882.526 129.107L884.113 134.136L891.205 159.546C888.202 162.849 885.613 168.273 883.436 175.82L878.497 171.849L873.423 176.214L873.687 177.052C874.275 178.915 875.73 180.606 878.052 182.126L878.317 182.965C876.64 183.493 875.508 184.772 874.919 186.801L874.345 187.904C874.874 189.58 874.579 190.595 873.462 190.947L872.624 191.211L871.521 190.638L870.683 190.902C871.858 194.627 868.269 198.831 859.915 203.514C854.327 205.276 850.476 202.805 848.361 196.099C852.007 191.263 855.11 188.441 857.671 187.633L857.407 186.795L855.73 187.324L856.878 185.119L859.083 186.266L859.921 186.002L857.761 182.075C859.298 180.618 860.756 176.472 862.133 169.637L863.809 169.109L857.638 155.388L850.5 132.757C845.216 121.521 839.454 116.887 833.214 118.855L832.111 118.282L831.847 117.443L833.568 114.136L831.099 112.15L831.673 111.047L833.349 110.519L838.333 111.711L839.481 109.506L838.952 107.83L837.276 108.358L836.747 106.682C836.306 105.285 837.16 104.094 839.307 103.11ZM803.441 112.118C807.586 110.811 810.996 111.885 813.674 115.342L813.938 116.18L813.1 116.444L810.895 115.297C809.218 115.825 808.645 116.928 809.173 118.604C807.773 122.118 805.978 124.22 803.79 124.91L802.687 124.337L802.113 125.439L802.378 126.277L804.583 127.425L807.097 126.632C806.569 124.956 806.863 123.941 807.981 123.589L810.45 125.574L810.979 127.251L809.302 127.78L808.2 127.206L807.362 127.47L807.626 128.308L808.729 128.882L808.993 129.72L807.845 131.926C810.874 133.735 812.608 135.338 813.049 136.735L813.623 135.633L816.137 134.84L817.24 135.414L818.078 135.149L817.549 133.473L820.328 133.518L822.578 131.887L825.487 141.107L824.339 143.312L823.236 142.738L823.501 143.576L825.97 145.562L825.396 146.665L824.558 146.929L821.25 145.208L820.412 145.472C818.456 147.062 817.867 149.091 818.646 151.559L816.969 152.087L816.44 150.411L817.014 149.308L816.75 148.47L815.074 148.999L816.131 152.352L818.82 157.955L818.246 159.057C821.546 161.242 824.869 162.037 828.214 161.443C827.685 159.767 827.98 158.752 829.098 158.4C830.215 158.047 831.038 158.709 831.567 160.385L830.993 161.488L831.258 162.326L832.36 162.9L832.625 163.738L832.051 164.841L832.315 165.679L835.268 172.12C835.724 173.564 835.135 175.593 833.502 178.207L833.721 181.824C837.074 180.767 839.543 182.753 841.13 187.782L844.038 197.002C845.102 202.81 844.865 205.957 843.329 206.442L839.976 207.499L817.609 215.475L814.301 213.754L814.875 212.651L814.346 210.975L807.685 210.311L806.364 206.12C811.158 203.788 813.232 201.598 812.586 199.549L807.517 186.403L808.091 185.3L807.827 184.462L806.724 183.888L806.46 183.05C805.339 177.874 805.384 175.095 806.595 174.713L802.539 167.698L804.216 167.169L805.318 167.743L806.157 167.478L805.099 164.126L803.113 166.595L801.437 167.124L800.908 165.447L801.482 164.345L800.379 163.771L800.115 162.933L798.838 155.963L794.828 146.169L790.907 130.817L789.804 130.243L788.128 130.772L784.201 132.932L783.099 132.358L782.306 129.843L784.427 119.037L787.206 119.082L790.294 117.186L797.264 115.909L803.441 112.118ZM823.909 109.809L825.586 109.281L825.85 110.119L824.129 113.427L821.924 112.279L823.909 109.809ZM829.777 107.959L830.041 108.797L830.261 112.414L831.892 114.664L831.054 114.929L828.849 113.781L828.584 112.943L829.158 111.84L828.894 111.002L827.791 110.428L829.777 107.959ZM830.615 107.694L833.13 106.901L833.658 108.578L831.144 109.371L830.615 107.694ZM798.271 139.553L798.799 141.23L800.476 140.701L801.623 138.496L798.271 139.553ZM807.181 138.586L806.079 138.012L805.241 138.277L806.562 142.468L811.327 140.043L809.167 136.117L807.181 138.586ZM876.788 140.132L876.214 141.235L877.272 144.588L877.845 143.485L880.36 142.692C881.107 145.221 880.782 148.088 879.387 151.293L879.651 152.132L880.489 151.867L879.96 150.191L881.108 147.986L882.785 147.457L882.739 150.236L883.268 151.912L884.106 151.648C883.401 149.413 884.166 147.943 886.402 147.238L886.137 146.399C884.461 146.928 883.27 146.075 882.565 143.84L876.788 140.132ZM814.1 157.6L814.01 163.158L817.053 164.042L817.672 160.16L817.408 159.322L814.1 157.6ZM822.482 154.957L823.32 154.692C823.187 157.192 822.701 158.574 821.863 158.838L821.334 157.162L822.482 154.957ZM806.247 161.92L806.995 167.214L808.097 167.788L807.524 168.89L806.421 168.317L804.745 168.845L805.802 172.198L806.905 172.772L806.376 171.096L807.214 170.831L808.317 171.405L812.817 168.142L815.022 169.29L815.287 170.128L814.713 171.231L814.977 172.069L815.815 171.805L818.066 170.173L816.479 165.144C814.244 165.849 812.51 164.246 811.276 160.334L806.247 161.92ZM872.507 147.012L873.564 150.365L877.446 150.984L879.167 147.676L878.903 146.838L876.698 145.69L876.124 146.793L875.286 147.057L872.507 147.012ZM818.375 168.233L818.904 169.909L821.154 168.278L819.523 166.027L818.375 168.233ZM872.372 155.349L869.857 156.142L868.754 155.568L867.916 155.833L868.135 159.45L866.459 159.979C865.93 158.302 865.107 157.64 863.99 157.993C864.695 160.228 864.209 161.61 862.532 162.139L864.383 168.006L867.736 166.949L875.151 155.394L875.989 155.13L877.091 155.704L877.356 156.542L874.267 158.438L876.472 159.585C876.076 158.328 877.208 157.049 879.87 155.749L874.622 153.718L874.357 152.88L872.372 155.349ZM827.37 179.219L828.472 179.793L829.001 181.47L827.325 181.998L827.589 182.837L828.427 182.572C831.428 180.397 832.575 178.192 831.87 175.957L827.37 179.219ZM821.367 189.407L821.632 190.245L826.616 191.438L829.704 189.542L829.175 187.866L824.72 188.349L821.367 189.407ZM821.058 191.348L820.484 192.45L821.013 194.127L823.263 192.495L821.058 191.348ZM808.214 211.987L809.891 211.458C810.772 214.252 812.33 215.297 814.565 214.592L813.418 216.797C811.974 217.252 810.24 215.649 808.214 211.987ZM879.858 86.5569L885.99 85.5445L911.71 76.5107L917.397 85.776L921.536 104.745L927.971 119.304L938.03 116.132L941.957 113.972L947.25 113.224L952.279 111.637L954.484 112.785L955.013 114.461L955.497 118.917L954.659 119.181L951.615 118.298L949.056 121.87C950.143 123.37 952.084 123.68 954.878 122.798L955.452 121.696L956.554 122.27L956.819 123.108C955.051 125.457 952.242 127.265 948.392 128.531L948.127 127.692L947.553 128.795L943.098 129.279L933.04 132.451L932.466 133.554L931.628 133.818L932.156 135.494L932.995 135.23L936.122 148.067L938.501 155.611L937.044 159.757L938.102 163.11C939.778 162.581 940.792 162.876 941.145 163.993L942.202 167.346C943.377 171.071 942.582 174.394 939.817 177.314L935.362 177.798L927.818 180.177L919.7 183.659L919.436 182.821L918.862 183.924L918.024 184.188C910.759 186.479 906.158 184.551 904.219 178.405L903.955 177.566C905.817 176.979 907.509 175.524 909.029 173.201L898.364 145.231L897.087 138.261L894.663 133.496L895.236 132.394L893.076 128.467L885.235 97.763L883.559 98.2917L883.295 97.4535L882.721 98.5561L881.044 99.0848C879.927 99.4373 879.104 98.7754 878.575 97.0989L879.858 86.5569ZM924.301 71.3872L925.404 71.9611L937.713 67.1573L945.256 64.7779C949.168 63.5442 951.741 64.8832 952.974 68.7948L957.733 83.8824L957.952 87.4996L959.584 89.7498L956.76 92.4837L953.981 92.4386L952.259 95.7464L949.745 96.5395C947.938 90.8118 944.028 86.2081 938.016 82.7286C937.487 81.0522 936.385 80.4784 934.708 81.0071L931.884 83.741C924.208 84.7284 920.136 84.477 919.666 82.9868C920.431 81.5167 920.196 78.8259 918.963 74.9143L924.301 71.3872ZM911.968 94.861L914.173 96.0087L914.702 97.6851L913.599 97.1113L911.084 97.9044L911.613 99.5808L914.128 98.7877L914.702 97.6851L915.54 97.4207L916.642 97.9945L917.216 96.892L916.952 96.0538L914.792 92.1271L913.115 92.6559L911.968 94.861ZM922.233 130.33L923.026 132.845C923.928 134.403 926.427 134.537 930.525 133.244L931.408 130.201C929.086 128.681 927.631 126.989 927.043 125.126C923.366 127.105 921.763 128.84 922.233 130.33ZM917.198 149.428C919.433 148.723 920.727 148.93 921.079 150.047L921.034 152.826L921.608 151.724L922.446 151.459L923.549 152.033L924.387 151.769L925.27 148.725L925.006 147.887L920.331 144.754C918.108 146.632 917.063 148.191 917.198 149.428ZM927.256 146.256L928.359 146.83L930.035 146.301L931.183 144.096L930.08 143.522L928.404 144.051L927.256 146.256ZM963.894 136.774L964.732 136.509L966.937 137.657L967.466 139.333L966.892 140.436L967.156 141.274C970.46 140.386 972.945 141.445 974.61 144.453L975.448 144.188L974.655 141.674L973.553 141.1L973.288 140.262L973.862 139.159L974.7 138.895L975.803 139.469L976.596 141.983L976.022 143.086L977.125 143.66L978.447 147.851L979.988 155.659L982.412 160.424L979.852 163.996L974.823 165.582L967.015 167.123L961.412 169.812L960.354 166.459L952.985 175.235C951.728 175.631 949.832 172.543 947.298 165.969L960.006 153.667C960.937 153.373 962.672 154.976 965.209 158.477C969.504 156.508 971.474 154.965 971.122 153.847C969.712 149.377 967.331 147.67 963.978 148.728L963.14 148.992L962.611 147.316L963.539 141.493L965.216 140.965L965.744 142.641L966.583 142.377L965.789 139.862L963.894 136.774ZM1033.92 41.2685L1039.21 40.5205L1039.78 39.4179L1040.62 39.1535L1046.71 40.9201L1050.64 38.76C1052.93 46.0245 1052.68 50.0973 1049.88 50.9785C1046.81 51.9479 1045.92 54.9913 1047.23 60.1086L1049.66 64.8734L1049.88 68.4906L1051.77 71.5791L1051.2 72.6816L1051.46 73.5198L1053.62 77.4465L1053.84 81.0637L1055.74 84.1521L1058.34 95.3131L1058.6 96.1513L1057.76 96.4157C1047.4 92.4641 1041.54 88.4773 1040.17 84.4554L1038.58 79.4262L1040.92 72.2369L1039.82 71.6631L1037.3 72.4562L1038.1 74.9708L1035.89 73.8231L1035.36 72.1467L1036.2 71.8824L1033.51 66.2793L1031.13 58.7355L1025.57 58.6453L1022.49 60.541C1021.37 60.8935 1020.54 60.2316 1020.02 58.5551C1017.55 50.7319 1018.55 46.1153 1023.02 44.7053L1033.92 41.2685ZM995.624 54.2678C1003.2 56.8461 1007.77 60.6265 1009.34 65.6092C1011.01 65.0804 1012.21 65.9337 1012.91 68.1689C1015.67 69.1403 1021.7 74.6122 1030.99 84.5845C1047 97.5073 1058.68 108.26 1066.05 116.842L1065.47 117.945L1067.63 121.871L1068.43 124.386L1067.85 125.488L1068.96 126.062L1069.22 126.9C1069.51 127.832 1066.69 130.566 1060.75 135.102L1061.28 136.779C1063.51 136.074 1064.81 136.28 1065.16 137.397L1064.58 138.5L1063.75 138.764C1062.07 139.293 1060.97 138.719 1060.44 137.043L1057.92 137.836C1058.45 139.512 1056.2 141.144 1051.17 142.73C1050.82 141.612 1049.25 141.494 1046.45 142.375L1044.29 138.449C1045.97 137.92 1046.54 136.817 1046.01 135.141L1050.47 134.657C1051.89 129.909 1053.51 127.248 1055.32 126.675L1054.8 124.999L1051.27 119.66L1049.59 120.189L1050.12 121.865L1047.61 122.658C1046.37 118.747 1044.64 117.143 1042.4 117.848L1041.26 120.053L1039.05 118.906L1040.06 125.038L1044.21 126.495L1044.47 127.333L1042.8 127.862L1048.57 131.569L1048.84 132.407L1048 132.672L1042.75 130.641L1041.6 132.846L1043.28 132.317L1043.81 133.993L1041.56 135.625L1013.07 109.589L1014.79 106.281C1011.44 107.339 1009.41 106.75 1008.71 104.515C990.483 87.4792 979.326 78.4031 975.237 77.2866C971.472 77.0402 969.444 76.4514 969.15 75.52L968.885 74.6818L973.341 74.1982L975.591 72.5669L974.534 69.214L967.518 73.2698L966.416 72.696L966.152 71.8578L966.725 70.7552L962.534 72.077L961.477 68.7242C961.321 66.9303 963.291 65.3871 967.389 64.0947L968.492 64.6685L969.33 64.4041L972.419 62.5084L974.095 61.9797L976.3 63.1273L975.417 66.1707C975.872 67.6143 978.18 68.115 982.342 67.6729L981.813 65.9965L979.343 64.0106L978.55 61.496L995.624 54.2678ZM978.061 74.5527L979.163 75.1265L980.001 74.8622L980.575 73.7596L979.782 71.245L978.061 74.5527ZM988.383 72.2185L989.441 75.5713L992.22 75.6164L991.955 74.7782L988.383 72.2185ZM982.78 74.9073L983.045 75.7455C983.397 76.8631 984.691 77.0694 986.926 76.3644L987.455 78.0408L989.131 77.512L988.603 75.8356L982.78 74.9073ZM975.411 83.6828L977.087 83.154C977.832 82.919 979.743 85.0811 982.819 89.6404L987.494 92.7739C987.846 93.8915 986.905 94.8028 984.67 95.5078L984.934 96.346C988.287 95.2885 990.14 95.3186 990.492 96.4362L990.711 100.053L991.814 100.627L992.652 100.363L993.8 98.1577C1001.81 102.133 1007.88 110.663 1012.01 123.748L1014.65 132.13C1015.53 134.924 1018.84 136.646 1024.58 137.295L1025.1 138.971L1025.06 141.75L1027.48 146.515L1027.75 147.353L1026.86 150.397L1022.41 150.88L1016.81 153.569L1016.54 152.731L1015.97 153.834L1008.42 156.213L994.749 159.605L991.66 161.5C989.294 159.84 987.486 157.031 986.238 153.073C988.177 150.618 990.427 148.987 992.988 148.179L990.873 141.474L993.214 134.284L990.435 134.239L989.287 136.444L988.185 135.871L981.047 113.239L977.829 105.96L976.333 95.3725L975.23 94.7987L974.966 93.9605C974.145 87.4612 974.293 84.0353 975.411 83.6828ZM1000.11 86.0293L1000.38 86.8675C1001.51 88.5074 1002.98 89.2725 1004.79 89.1629L1005.67 86.1195L1003.46 84.9718L1000.11 86.0293ZM990.576 108.39L992.208 110.641L990.531 111.169L992.736 112.317L996.663 110.157L995.87 107.642L992.562 105.921L990.576 108.39ZM1016.43 108.532L1016.69 109.37L1018.59 112.458L1020.26 111.93L1021.41 109.724C1021.01 108.467 1019.35 108.07 1016.43 108.532ZM1050.88 109.647L1051.14 110.485L1053.35 111.632L1054.49 109.427L1054.23 108.589L1050.88 109.647ZM1003.05 145.007L1002.21 145.271L1001.11 144.697L1000.27 144.962L1000.8 146.638C1003.03 145.933 1004.59 146.978 1005.47 149.772L1010.19 150.126L1012.75 146.554L1012.22 144.878L1010.59 142.627L1011.16 141.525L1006.44 141.17L1003.05 145.007Z" fill="#A6FF61"/>
</svg>
