<svg width="1221" height="621" viewBox="0 0 1221 621" fill="none" xmlns="http://www.w3.org/2000/svg">
<path d="M79.625 158.219L81.5 160.094L79.625 161.969V165.719L83.375 169.469H85.25V161.969H87.125L90.875 165.719V176.969L70.25 186.344C64 192.906 60.875 199.781 60.875 206.969C60.875 216.969 78.375 225.094 113.375 231.344C131.708 237.594 146.708 248.219 158.375 263.219C173.375 276.24 180.875 292.49 180.875 311.969C180.875 324.885 173.375 340.51 158.375 358.844C140.875 372.594 128.375 379.469 120.875 379.469H105.875L98.375 371.969V360.719L124.625 345.719C124.625 341.969 125.875 340.094 128.375 340.094H132.125L130.25 341.969V343.844H135.875V340.094H132.125V338.219H137.75L139.625 343.844H141.5C148.271 343.844 152.646 341.344 154.625 336.344V334.469L152.75 336.344H149V334.469L150.875 328.844L149 326.969H143.375L132.125 330.719C132.125 314.469 123.375 306.344 105.875 306.344L51.5 291.344C24 276.24 10.25 253.115 10.25 221.969V216.344C10.25 191.76 25.25 173.01 55.25 160.094L57.125 167.594H62.75L66.5 163.844L64.625 161.969L79.625 158.219ZM120.875 158.219V160.094L117.125 169.469L119 175.094H120.875L126.5 171.344L132.125 173.219V171.344L128.375 161.969L130.25 160.094H132.125C132.125 163.844 134.625 165.719 139.625 165.719L141.5 176.969H143.375C143.375 173.219 147.75 171.344 156.5 171.344C156.5 164.573 159.625 160.198 165.875 158.219C173.375 159.469 177.125 161.344 177.125 163.844V171.344C177.125 180.51 175.25 185.51 171.5 186.344H167.75L165.875 184.469H164L156.5 199.469C159 199.469 160.25 201.344 160.25 205.094H162.125C162.125 202.281 166.5 197.281 175.25 190.094L177.125 191.969V193.844C173.896 193.844 171.396 198.219 169.625 206.969H171.5L177.125 205.094L179 206.969V208.844C173.792 217.594 170.042 221.969 167.75 221.969H165.875C143.167 196.969 124.417 184.469 109.625 184.469C104.625 184.469 102.125 183.219 102.125 180.719C102.125 166.969 105.25 160.094 111.5 160.094L120.875 158.219ZM92.75 263.219L94.625 268.844C98.375 267.906 101.5 263.531 104 255.719L102.125 253.844C97.125 253.844 94.625 256.969 94.625 263.219H92.75ZM122.75 257.594V263.219H126.5V257.594H122.75ZM120.875 274.469V276.344H126.5V278.219L122.75 283.844H124.625C127.229 283.323 129.729 280.198 132.125 274.469L126.5 270.719H124.625L120.875 274.469ZM30.875 311.969C34.625 313.219 36.5 316.969 36.5 323.219V328.844C41.8125 328.844 51.8125 335.094 66.5 347.594C78.7917 352.385 85.0417 356.135 85.25 358.844V370.094C85.25 373.115 79 374.99 66.5 375.719L60.875 371.969L51.5 373.844L25.25 366.344C22.3333 373.844 19.8333 377.594 17.75 377.594H12.125C8.375 377.594 6.5 370.719 6.5 356.969V319.469C6.5 316.656 9.625 314.781 15.875 313.844L19.625 317.594C20.875 313.844 24.625 311.969 30.875 311.969ZM21.5 325.094L25.25 330.719L30.875 328.844V332.594H34.625V328.844L21.5 323.219V325.094ZM332.125 380.25C314.625 380.25 305.875 374 305.875 361.5C313.375 354 321.5 350.25 330.25 350.25H337.75L341.5 340.875L335.875 335.25L337.75 333.375L335.875 331.5C338.375 321.604 340.25 290.354 341.5 237.75C341.5 204.833 330.25 186.083 307.75 181.5L305.875 162.75C309.312 156.5 314.312 153.375 320.875 153.375C364.312 153.375 396.188 184.625 416.5 247.125V249C410.25 253.375 407.125 259.625 407.125 267.75C410.875 267.75 412.75 270.25 412.75 275.25H416.5C416.5 286.292 412.75 293.167 405.25 295.875L403.375 294H401.5L395.875 303.375L407.125 314.625C404.208 323.479 399.208 332.229 392.125 340.875H390.25C390.25 333.792 386.5 328.792 379 325.875H373.375C373.375 331.708 372.125 336.083 369.625 339V342.75C369.625 345.25 373.375 347.125 380.875 348.375L386.5 346.5V348.375L364 367.125H360.25L354.625 363.375H352.75L349 367.125L350.875 369L332.125 380.25ZM281.5 380.25H279.625L270.25 370.875L268.375 372.75V374.625L270.25 376.5L264.625 378.375C229.625 370.875 212.125 361.5 212.125 350.25C203.688 350.25 197.438 322.75 193.375 267.75L195.25 265.875V264L193.375 258.375C197.542 238.792 203.792 219.417 212.125 200.25L221.5 202.125H225.25L229 198.375L225.25 187.125C242.229 163.375 261.604 151.5 283.375 151.5H287.125L296.5 166.5C296.5 172.438 289.625 179.312 275.875 187.125C271.188 187.125 266.812 202.75 262.75 234L264.625 247.125L262.75 292.125V297.75L264.625 310.875H262.75C262.75 339.625 271.5 354 289 354L292.75 369V372.75L281.5 380.25ZM253.375 370.875L249.625 367.125H247.75V370.875H253.375ZM364 357.75V355.875L360.25 352.125V357.75H364ZM395.875 327.75V322.125L392.125 325.875V327.75H395.875ZM365.875 320.25V312.75H364V316.5H358.375V314.625L362.125 309V303.375L354.625 294L352.75 295.875H347.125L345.25 294H343.375V295.875L345.25 305.25L343.375 307.125C345.875 307.125 348.375 310.875 350.875 318.375C357.125 318.375 360.25 319.625 360.25 322.125L365.875 320.25ZM225.25 316.5V310.875L221.5 307.125H217.75C219.312 313.375 221.188 316.5 223.375 316.5H225.25ZM260.875 301.5L257.125 297.75H255.25V301.5H260.875ZM386.5 269.625C384.104 263.896 381.604 260.771 379 260.25H369.625V264H375.25V265.875L371.5 271.5V273.375L375.25 277.125C382.75 277.125 386.5 274.625 386.5 269.625ZM360.25 269.625V267.75L354.625 262.125L352.75 267.75L354.625 269.625H360.25ZM217.75 262.125L223.375 254.625H219.625V252.75L221.5 250.875V249L219.625 247.125H215.875C215.875 250.146 214 253.271 210.25 256.5L217.75 262.125ZM247.75 226.5L249.625 224.625V222.75L247.75 220.875H240.25L247.75 226.5ZM345.25 215.25L352.75 200.25H343.375V204H341.5L343.375 205.875V207.75L341.5 215.25H345.25ZM457.125 156.344L464.625 158.219L472.125 156.344C478.375 156.344 481.5 157.594 481.5 160.094L483.375 158.219H502.125L519 156.344L528.375 158.219V176.969L524.625 180.719L522.75 175.094H519L513.375 180.719L515.25 182.594C511.5 183.844 509.625 187.594 509.625 193.844V240.719L507.75 251.969L509.625 253.844V255.719L507.75 265.094L509.625 266.969L507.75 276.344V287.594L509.625 336.344L500.25 353.219L502.125 355.094H504L505.875 353.219H507.75L515.25 356.969L528.375 353.219V364.469L524.625 368.219V364.469H520.875V366.344L522.75 368.219V370.094C518.688 373.01 513.062 374.885 505.875 375.719L504 373.844L470.25 377.594L466.5 373.844L462.75 377.594H445.875L436.5 379.469C431.5 373.74 429 364.99 429 353.219V347.594H444V343.844H447.75C447.75 347.594 453.375 349.469 464.625 349.469C464.625 351.969 462.75 353.219 459 353.219V355.094C465.25 355.094 468.375 356.344 468.375 358.844L460.875 360.719V364.469L462.75 362.594H466.5L464.625 371.969L474 370.094L472.125 368.219V366.344L481.5 362.594L479.625 353.219V345.719L483.375 340.094L481.5 332.594H479.625V336.344H477.75L475.875 334.469H474L472.125 340.094H468.375V334.469H453.375L445.875 340.094H444V336.344L445.875 274.469L444 231.344L445.875 212.594L444 203.219L445.875 205.094H449.625V203.219H445.875V195.719L449.625 188.219L457.125 193.844C457.125 187.073 460.875 182.073 468.375 178.844V176.969C465.875 176.969 464.625 175.094 464.625 171.344L462.75 169.469H453.375C451.5 169.469 449.625 171.969 447.75 176.969L449.625 184.469V186.344H444V175.094C441.5 175.094 440.25 177.594 440.25 182.594L438.375 184.469H432.75L429 180.719V175.094C429 162.594 436.5 156.344 451.5 156.344H457.125ZM451.5 233.219V235.094C451.5 238.844 454 240.719 459 240.719C462.333 239.885 465.458 236.76 468.375 231.344L455.25 229.469L451.5 233.219ZM451.5 283.844V285.719L453.375 295.094H455.25L464.625 287.594V280.094H455.25L451.5 283.844ZM580.875 293.219H582.75L603.375 300.719L599.625 332.594V334.469L601.5 341.969L599.625 349.469V362.594C596.708 368.844 593.583 371.969 590.25 371.969L588.375 370.094L560.25 373.844V371.969L558.375 373.844H549C542.333 373.844 537.958 371.344 535.875 366.344V351.344L541.5 345.719V347.594C566.5 339.99 579 329.365 579 315.719L577.125 313.844V311.969L580.875 293.219ZM565.875 353.219C570.146 353.219 574.521 356.344 579 362.594H580.875V356.969L573.375 349.469H569.625L565.875 353.219ZM560.25 360.719H564L567.75 356.969V355.094H565.875L560.25 360.719ZM502.125 364.469V370.094H504L507.75 366.344L505.875 364.469H502.125ZM664.156 154H697.906L699.781 155.875L701.656 154C720.302 154 732.177 159.625 737.281 170.875L756.031 238.375L750.406 244C750.406 251.292 755.406 256.917 765.406 260.875C781.344 314.625 793.844 341.5 802.906 341.5C810.406 344 814.156 346.5 814.156 349C814.156 362.75 807.906 369.625 795.406 369.625L786.031 367.75C757.802 372.75 734.677 375.25 716.656 375.25C710.406 368.792 707.281 361.292 707.281 352.75C718.531 346.708 724.156 342.333 724.156 339.625L684.781 232.75L677.281 212.125C677.594 207.125 678.844 204.625 681.031 204.625C681.031 200.875 678.531 199 673.531 199C670.406 196.812 667.281 191.188 664.156 182.125C655.406 179.625 651.031 177.125 651.031 174.625V167.125C651.031 158.375 655.406 154 664.156 154ZM690.406 169H692.281L694.156 167.125H696.031C696.656 172.125 698.531 174.625 701.656 174.625L703.531 172.75V170.875C698.531 170.875 696.031 169 696.031 165.25H699.781V161.5H697.906L690.406 169ZM722.281 202.75C722.281 206.5 720.406 208.375 716.656 208.375V214C720.823 214 725.198 215.875 729.781 219.625L733.531 210.25V208.375C731.031 203.375 727.281 200.875 722.281 200.875V202.75ZM705.406 219.625V223.375L711.031 225.25V223.375L707.281 219.625H705.406ZM701.656 227.125V229L707.281 230.875V227.125H701.656ZM709.156 227.125V230.875L714.781 232.75V234.625L712.906 236.5V238.375H718.531L720.406 232.75L716.656 229L714.781 230.875H711.031V227.125H709.156ZM664.156 227.125H667.906C672.906 227.125 679.156 240.25 686.656 266.5C680.406 274 673.531 277.75 666.031 277.75L664.156 279.625V285.25C666.656 285.25 667.906 288.375 667.906 294.625L669.781 292.75H692.281C701.031 292.75 705.406 298.375 705.406 309.625L699.781 315.25L701.656 320.875L699.781 322.75H694.156L682.906 320.875L671.656 324.625H666.031L658.531 343.375C671.031 346.708 677.281 353.583 677.281 364L671.656 367.75L669.781 365.875V367.75L671.656 369.625V371.5L664.156 375.25L647.281 373.375L641.656 375.25L626.656 373.375L613.531 375.25C602.073 375.25 595.198 367.125 592.906 350.875C592.906 347.125 597.281 345.25 606.031 345.25C623.531 334.312 632.281 321.812 632.281 307.75C639.781 292.75 647.281 273.375 654.781 249.625L656.656 247.75H658.531L656.656 245.875V244C658.74 232.75 661.24 227.125 664.156 227.125ZM690.406 242.125C692.177 248.375 696.552 251.5 703.531 251.5H711.031V242.125L703.531 232.75L690.406 242.125ZM726.031 272.125L729.781 281.5H731.656C731.656 279 733.531 277.75 737.281 277.75V275.875L726.031 272.125ZM658.531 283.375V289H664.156L658.531 283.375ZM671.656 298.375V302.125L677.281 300.25V298.375H671.656ZM641.656 313.375L656.656 320.875C658.531 315.875 660.406 313.375 662.281 313.375L664.156 315.25L666.031 313.375C663.427 305.875 658.427 302.125 651.031 302.125C644.781 304.104 641.656 307.854 641.656 313.375ZM752.281 313.375V315.25L759.781 322.75H765.406L767.281 311.5L765.406 309.625H756.031L752.281 313.375ZM628.531 354.625H636.031L632.281 350.875L628.531 354.625ZM972.75 158.688L984 160.562L985.875 158.688H987.75L999 166.188L1008.38 164.312C1008.38 180.562 1005.25 188.688 999 188.688C992.125 188.688 988.375 194.312 987.75 205.562L989.625 216.812L987.75 224.312L989.625 231.812L987.75 233.688V235.562L989.625 244.938L987.75 252.438L989.625 259.938L987.75 284.312V286.188H985.875C967.333 271.5 957.958 259.625 957.75 250.562V239.312L967.125 226.188L965.25 224.312H959.625V229.938L955.875 226.188V222.438H957.75L955.875 209.312V192.438L944.625 188.688L937.125 190.562C934.625 190.562 933.375 188.688 933.375 184.938C933.375 167.438 938.375 158.688 948.375 158.688H972.75ZM886.5 160.562C900.25 170.667 907.125 181.292 907.125 192.438C910.875 192.438 912.75 194.938 912.75 199.938C917.75 203.688 926.5 218.688 939 244.938C963.271 281.5 980.146 310.875 989.625 333.062L987.75 334.938L989.625 344.312V349.938L987.75 351.812L989.625 353.688V355.562C989.625 357.646 982.125 361.396 967.125 366.812V370.562C972.125 370.562 974.625 371.812 974.625 374.312L972.75 376.188H970.875C967.125 376.188 965.25 374.312 965.25 370.562H959.625C959.625 374.312 954 376.188 942.75 376.188C942.75 373.688 939.625 372.438 933.375 372.438L931.5 363.062C935.25 363.062 937.125 361.188 937.125 357.438L946.5 359.312C952.438 350.562 957.438 346.188 961.5 346.188V342.438L957.75 329.312H954V333.062H948.375C948.375 324.312 945.875 319.938 940.875 319.938L937.125 323.688L933.375 319.938L931.5 333.062L939 338.688V340.562H935.25L944.625 351.812V353.688H942.75L933.375 346.188L929.625 349.938H933.375V353.688L927.75 355.562L886.5 284.312L892.125 278.688C884.625 278.688 880.875 276.188 880.875 271.188C854.729 224.833 837.854 199.208 830.25 194.312C822.75 191.396 819 188.896 819 186.812V184.938L828.375 186.812L834 184.938V177.438L817.125 181.188L815.25 179.312V177.438L817.125 175.562H807.75V168.062C808.583 164.312 813.583 162.438 822.75 162.438L824.625 164.312H826.5L834 162.438H837.75L841.5 166.188L837.75 171.812C837.75 175.042 842.125 177.542 850.875 179.312V175.562L847.125 169.938V164.312L886.5 160.562ZM837.75 190.562L839.625 192.438H841.5L843.375 190.562V184.938L837.75 190.562ZM860.25 192.438V199.938L865.875 201.812V199.938L860.25 192.438ZM847.125 194.312V196.188C847.125 198.688 849.625 199.938 854.625 199.938V203.688H858.375V199.938L847.125 194.312ZM826.5 207.438H830.25C831.917 207.438 834.417 213.062 837.75 224.312L845.25 233.688C845.25 236.188 842.75 237.438 837.75 237.438V239.312C845.25 239.312 849 240.562 849 243.062L847.125 250.562L849 252.438H850.875L854.625 248.688C868.375 261.917 875.25 283.167 875.25 312.438V331.188C875.25 337.438 880.875 343.062 892.125 348.062V351.812L890.25 357.438L892.125 368.688V370.562L888.375 376.188L879 374.312L865.875 376.188V374.312L864 376.188H847.125L817.125 374.312L809.625 376.188C805.875 371.292 804 364.417 804 355.562C809.521 351.812 815.146 349.938 820.875 349.938V334.938L830.25 321.812L824.625 319.938L820.875 323.688L819 321.812V271.188L817.125 254.312L820.875 231.812L819 229.938V228.062C821.5 214.312 824 207.438 826.5 207.438ZM875.25 228.062V229.938C876.5 234 879 236.5 882.75 237.438L886.5 231.812L882.75 228.062H875.25ZM841.5 267.438L843.375 273.062H839.625L843.375 276.812L852.75 274.938V269.312L847.125 263.688L841.5 267.438ZM894 284.312V286.188L895.875 293.688H899.625L903.375 289.938C903.375 287.125 900.25 285.25 894 284.312ZM963.375 308.688V310.562L967.125 314.312L970.875 310.562V308.688H963.375ZM843.375 349.938H841.5L839.625 348.062H837.75V351.812C842.75 351.812 845.25 354.938 845.25 361.188L854.625 364.938L862.125 359.312V355.562L860.25 349.938L862.125 348.062L852.75 344.312L843.375 349.938ZM1069.16 154H1102.91L1104.78 155.875L1106.66 154C1125.3 154 1137.18 159.625 1142.28 170.875L1161.03 238.375L1155.41 244C1155.41 251.292 1160.41 256.917 1170.41 260.875C1186.34 314.625 1198.84 341.5 1207.91 341.5C1215.41 344 1219.16 346.5 1219.16 349C1219.16 362.75 1212.91 369.625 1200.41 369.625L1191.03 367.75C1162.8 372.75 1139.68 375.25 1121.66 375.25C1115.41 368.792 1112.28 361.292 1112.28 352.75C1123.53 346.708 1129.16 342.333 1129.16 339.625L1089.78 232.75L1082.28 212.125C1082.59 207.125 1083.84 204.625 1086.03 204.625C1086.03 200.875 1083.53 199 1078.53 199C1075.41 196.812 1072.28 191.188 1069.16 182.125C1060.41 179.625 1056.03 177.125 1056.03 174.625V167.125C1056.03 158.375 1060.41 154 1069.16 154ZM1095.41 169H1097.28L1099.16 167.125H1101.03C1101.66 172.125 1103.53 174.625 1106.66 174.625L1108.53 172.75V170.875C1103.53 170.875 1101.03 169 1101.03 165.25H1104.78V161.5H1102.91L1095.41 169ZM1127.28 202.75C1127.28 206.5 1125.41 208.375 1121.66 208.375V214C1125.82 214 1130.2 215.875 1134.78 219.625L1138.53 210.25V208.375C1136.03 203.375 1132.28 200.875 1127.28 200.875V202.75ZM1110.41 219.625V223.375L1116.03 225.25V223.375L1112.28 219.625H1110.41ZM1106.66 227.125V229L1112.28 230.875V227.125H1106.66ZM1114.16 227.125V230.875L1119.78 232.75V234.625L1117.91 236.5V238.375H1123.53L1125.41 232.75L1121.66 229L1119.78 230.875H1116.03V227.125H1114.16ZM1069.16 227.125H1072.91C1077.91 227.125 1084.16 240.25 1091.66 266.5C1085.41 274 1078.53 277.75 1071.03 277.75L1069.16 279.625V285.25C1071.66 285.25 1072.91 288.375 1072.91 294.625L1074.78 292.75H1097.28C1106.03 292.75 1110.41 298.375 1110.41 309.625L1104.78 315.25L1106.66 320.875L1104.78 322.75H1099.16L1087.91 320.875L1076.66 324.625H1071.03L1063.53 343.375C1076.03 346.708 1082.28 353.583 1082.28 364L1076.66 367.75L1074.78 365.875V367.75L1076.66 369.625V371.5L1069.16 375.25L1052.28 373.375L1046.66 375.25L1031.66 373.375L1018.53 375.25C1007.07 375.25 1000.2 367.125 997.906 350.875C997.906 347.125 1002.28 345.25 1011.03 345.25C1028.53 334.312 1037.28 321.812 1037.28 307.75C1044.78 292.75 1052.28 273.375 1059.78 249.625L1061.66 247.75H1063.53L1061.66 245.875V244C1063.74 232.75 1066.24 227.125 1069.16 227.125ZM1095.41 242.125C1097.18 248.375 1101.55 251.5 1108.53 251.5H1116.03V242.125L1108.53 232.75L1095.41 242.125ZM1131.03 272.125L1134.78 281.5H1136.66C1136.66 279 1138.53 277.75 1142.28 277.75V275.875L1131.03 272.125ZM1063.53 283.375V289H1069.16L1063.53 283.375ZM1076.66 298.375V302.125L1082.28 300.25V298.375H1076.66ZM1046.66 313.375L1061.66 320.875C1063.53 315.875 1065.41 313.375 1067.28 313.375L1069.16 315.25L1071.03 313.375C1068.43 305.875 1063.43 302.125 1056.03 302.125C1049.78 304.104 1046.66 307.854 1046.66 313.375ZM1157.28 313.375V315.25L1164.78 322.75H1170.41L1172.28 311.5L1170.41 309.625H1161.03L1157.28 313.375ZM1033.53 354.625H1041.03L1037.28 350.875L1033.53 354.625Z" fill="#A6FF61"/>
<path d="M168.753 389.845L172.785 391.8L176.188 392.684C193.201 397.104 201.34 400.731 200.603 403.567L199.907 409.742L197.952 413.775L198.581 414.846L196.626 418.879L194.637 426.535L194.825 429.308L192.869 433.34L182.484 473.322L180.429 488.226C178.394 493.145 176.597 495.403 175.037 494.998C175.627 492.729 174.503 491.227 171.668 490.49C169.778 489.999 167.351 491.185 164.387 494.048L154.588 493.318L149.705 491.142L148.004 490.7L148.445 488.998L150.147 489.44L151.473 484.336L153.174 484.778L153.616 483.077L152.544 483.707L151.694 483.486L152.136 481.784L154.279 480.525L155.98 480.967L155.947 484.59L154.433 486.922L155.284 487.143C159.849 485.301 163.336 484.694 165.746 485.32L165.967 484.469C164.266 484.027 163.563 483.239 163.857 482.105L162.786 482.735L160.234 482.072L160.675 480.37L163.228 481.033L163.448 480.183L160.896 479.52L159.825 480.149L160.488 477.597L161.338 477.818L164.52 479.553L167.293 479.365L169.812 483.652L170.663 483.873C170.92 482.88 168.328 478.877 162.885 471.864C162.48 473.423 160.263 474.966 156.234 476.492L155.384 476.272L155.826 474.57L154.754 475.2L153.053 474.758C153.47 473.151 152.568 470.798 150.346 467.698L151.418 467.069L150.788 465.997L154.765 450.685C155.502 447.849 157.571 446.873 160.974 447.757L161.416 446.056L160.157 443.913L156.533 443.879L156.754 443.029L161.041 440.51C160.66 441.975 162.35 443.625 166.111 445.459L166.332 444.609L168.697 442.499L168.918 441.648C166.082 440.911 164.812 439.976 165.106 438.842C165.401 437.708 163.847 436.698 160.444 435.815L159.781 438.367L158.08 437.925L158.301 437.074L167.106 406.671L162.51 396.396C163.485 393.421 165.566 391.237 168.753 389.845ZM209.143 402.153L211.695 402.816L214.877 404.55L218.5 404.583L219.13 405.655L223.605 405.909L228.709 407.235C238.255 409.715 243.355 419.212 244.009 435.727L243.788 436.578C241.431 445.652 235.399 452.56 225.692 457.303L225.471 458.154C231.368 463.419 233.74 468.273 232.586 472.715L231.702 476.118L229.592 473.754L225.338 472.649C223.49 472.774 222.197 474.254 221.46 477.09L221.239 477.941L228.233 482.481L229.304 481.852L229.05 486.326L222.399 490.955L223.029 492.026L222.808 492.877L216.632 492.181L216.887 487.707L217.737 487.928L220.068 489.441L220.51 487.74C218.809 487.298 218.105 486.51 218.4 485.376L219.914 483.045L216.511 482.161C215.774 484.996 213.705 485.972 210.302 485.088L206.866 487.828L205.982 491.231C211.408 493.649 213.654 496.654 212.721 500.246L211.871 500.025C210.414 503.884 207.914 505.354 204.369 504.433L200.116 503.328L199.928 500.555L201.442 498.224L200.591 498.003L198.481 495.639C198.186 496.773 196.621 496.972 193.785 496.235L192.714 496.865L192.272 498.566L192.902 499.638L192.681 500.489L191.609 501.118L189.908 500.676L189.278 499.605L188.206 500.235L185.654 499.572L184.395 497.428L184.616 496.578L185.246 497.649L186.096 497.87L186.538 496.169L185.687 495.948L184.616 496.578L183.765 496.357L184.207 494.655L186.35 493.396L189.09 496.832C190.814 494.858 192.81 494.166 195.078 494.755C195.373 493.621 194.669 492.833 192.968 492.391C196.017 490.559 199.412 484.479 203.154 474.151L206.999 473.333C208.656 466.953 204.583 461.658 194.78 457.447L195.885 453.193C198.151 451.461 199.665 449.13 200.426 446.2L198.724 445.758L199.166 444.057L200.017 444.278L200.647 445.349L201.497 445.57C207.169 447.043 211.551 441.825 214.645 429.916L215.307 427.364C217.075 420.558 215.974 416.64 212.004 415.609C207.048 413.716 204.716 412.202 205.011 411.068L207 403.412L209.143 402.153ZM215.517 451.028L214.854 453.58L216.743 456.795L220.997 457.9L221.439 456.198L222.289 456.419L221.66 455.348L222.101 453.646L223.173 453.017L223.394 452.166L219.991 451.282L215.517 451.028ZM156.467 451.127L156.246 451.977L157.505 454.121L157.726 453.27L156.467 451.127ZM173.668 458.319L172.784 461.722L177.225 465.6L179.998 465.412L180.031 461.788L181.987 457.756L173.668 458.319ZM229.779 476.527L231.481 476.968L230.376 481.222L229.117 479.079L229.779 476.527ZM154.887 460.705L154.224 463.257L155.925 463.699L156.146 462.848L154.887 460.705ZM200.469 487.983L198.514 492.015L198.293 492.866L202.325 494.821L202.988 492.269C201.854 491.975 201.508 490.977 201.95 489.275L201.32 488.204L200.469 487.983ZM173.215 484.535L171.701 486.867L172.331 487.938L175.734 488.822L174.695 485.828L175.767 485.198L173.215 484.535ZM191.079 489.176L192.338 491.319L188.715 491.286L188.936 490.435L191.079 489.176ZM201.254 495.451L202.513 497.594L203.364 497.815L203.806 496.114L201.254 495.451ZM260.232 414.061L277.654 420.403L277.875 419.552L278.504 420.623L292.557 422.458C295.849 423.767 297.403 424.776 297.219 425.485L298.291 424.855L299.142 425.076L300.401 427.219L298.854 433.174C297.737 437.475 294.312 439.007 288.58 437.77L283.454 450.513L284.083 451.585L281.686 457.319L278.15 470.93L276.791 479.657C273.425 479.994 269.308 479.53 264.44 478.265C264.784 476.942 262.6 474.861 257.889 472.023C257.447 473.724 256.659 474.428 255.524 474.133L255.337 471.36L256.408 470.73L256.629 469.88C256.998 468.462 255.602 465.678 252.442 461.528L258.298 438.985L259.657 430.257L260.508 430.478C260.766 428.123 259.076 426.474 255.437 425.528L254.398 422.534L255.503 418.281L260.232 414.061ZM251.68 474.951L251.459 475.801L249.316 477.061L248.686 475.989L248.907 475.138L249.978 474.509L251.68 474.951ZM265.699 480.408L266.329 481.48L266.108 482.331L263.523 485.291L264.374 485.512L267.368 484.474C266.778 486.742 268.469 488.392 272.438 489.423L272.814 494.969L271.709 499.223C267.503 498.13 265.529 496.407 265.788 494.052C264.359 494.892 260.525 494.502 254.287 492.881L255.325 495.875L259.8 496.129L260.838 499.123L265.754 497.676L265.5 502.15L262.064 504.89L261.843 505.741L262.915 505.111L263.766 505.332C263.029 508.168 265.213 510.248 270.317 511.574L269.875 513.276L270.726 513.497L270.947 512.646L270.759 509.873L273.753 508.834C277.003 510.889 278.619 512.823 278.603 514.635C276.273 520.689 274.045 523.44 271.919 522.887L246.398 516.258L240.035 512.789L238.334 512.347L231.937 512.502L231.307 511.43L232.854 505.475L233.329 500.15C235.091 497.833 236.594 496.71 237.837 496.781L242.941 498.107L243.383 496.405L244.233 496.626L243.604 495.555L246.255 485.347L247.957 485.788L249.282 480.684C252.685 481.568 254.607 481.16 255.049 479.458L257.601 480.121L260.341 483.557C260.844 481.619 262.631 480.57 265.699 480.408ZM253.315 482.64L252.873 484.341L257.977 485.667L258.198 484.816L256.938 482.673L253.315 482.64ZM259.678 486.109L259.457 486.96C261.159 487.402 261.788 488.473 261.346 490.175L262.197 490.396L262.86 487.844C261.726 487.549 261.38 486.551 261.822 484.85L259.678 486.109ZM270.074 491.534L270.262 494.307L271.113 494.528L271.776 491.976L270.074 491.534ZM256.96 503.564L256.297 506.116L258.628 507.63L259.7 507L260.363 504.448L256.96 503.564ZM256.01 514.214L255.789 515.065L257.932 513.806L258.153 512.955L256.01 514.214ZM383.705 447.95L388.588 450.126L389.66 449.496L390.51 449.717L394.73 454.446L399.205 454.7C397.29 462.073 394.914 465.391 392.079 464.654C388.96 463.844 386.595 465.954 384.986 470.984L384.511 476.309L382.776 479.491L382.743 483.115L381.672 483.744L381.451 484.595L381.196 489.069L379.462 492.251L379.429 495.875L375.705 506.713L375.485 507.563L374.634 507.342C367.952 498.494 365.099 492.001 366.072 487.865L367.398 482.761L373.198 477.911L372.568 476.839L370.016 476.177L369.353 478.729L368.094 476.585L368.536 474.884L369.387 475.105L370.083 468.929L372.071 461.273L367.409 458.246L363.786 458.213C362.651 457.918 362.305 456.92 362.747 455.219C364.809 447.279 368.109 443.899 372.646 445.077L383.705 447.95ZM344.353 438.636C349.4 444.84 351.267 450.471 349.954 455.528C351.655 455.97 352.211 457.325 351.622 459.594C353.448 461.884 355.651 469.721 358.228 483.103C364.931 502.552 369.125 517.868 370.811 529.051L369.739 529.681L369.485 534.155L368.822 536.707L367.751 537.337L368.38 538.409L368.159 539.259C367.914 540.205 364.069 541.022 356.626 541.712L356.184 543.413C358.452 544.002 359.439 544.864 359.144 545.998L358.073 546.628L357.222 546.407C355.521 545.965 354.891 544.894 355.333 543.192L352.781 542.529C352.339 544.231 349.566 544.418 344.462 543.093C344.757 541.958 343.486 541.023 340.65 540.286L340.905 535.812C342.606 536.254 343.678 535.624 344.12 533.923L348.152 535.878C351.877 532.608 354.661 531.213 356.504 531.691L356.946 529.99L356.791 523.593L355.09 523.152L354.648 524.853L352.096 524.19C353.127 520.22 352.509 517.941 350.24 517.351L348.097 518.611L346.838 516.467L344.44 522.201L347.18 525.637L346.959 526.488L345.258 526.046L348.185 532.255L347.964 533.105L347.114 532.885L343.744 528.377L341.601 529.636L343.302 530.078L342.86 531.78L340.087 531.967L329.769 494.78L332.984 492.891C329.581 492.008 328.174 490.431 328.764 488.163C322.364 464.051 317.728 450.436 314.855 447.319C311.796 445.112 310.389 443.536 310.635 442.591L310.856 441.74L314.888 443.695L317.661 443.508L318.545 440.105L310.447 439.818L309.817 438.746L310.038 437.895L311.11 437.266L306.857 436.161L307.74 432.758C308.56 431.155 311.05 430.893 315.209 431.974L315.838 433.045L316.689 433.266L320.313 433.299L322.014 433.741L323.274 435.885L320.909 437.995C320.529 439.46 322.219 441.11 325.98 442.944L326.422 441.243L325.384 438.249L326.047 435.697L344.353 438.636ZM318.7 446.502L319.329 447.573L320.18 447.794L321.252 447.164L321.915 444.612L318.7 446.502ZM328.687 450.004L327.803 453.407L330.134 454.92L330.355 454.069L328.687 450.004ZM322.511 449.308L322.29 450.158C321.996 451.293 322.982 452.154 325.251 452.744L324.809 454.445L326.51 454.887L326.952 453.186L322.511 449.308ZM311.607 452.832L313.308 453.274C314.064 453.47 314.536 456.317 314.722 461.814L317.02 466.951C316.726 468.085 315.444 468.358 313.176 467.768L312.955 468.619C316.357 469.503 317.911 470.512 317.617 471.646L315.882 474.828L316.512 475.9L317.363 476.121L319.506 474.861C324.185 482.484 324.8 492.935 321.35 506.215L319.141 514.722C318.404 517.557 320.293 520.772 324.808 524.366L324.366 526.068L322.853 528.399L322.378 533.724L322.157 534.575L319.792 536.685L315.76 534.729L309.584 534.033L309.805 533.182L308.734 533.812L301.077 531.823L287.688 527.437L284.064 527.404C282.94 524.741 282.899 521.401 283.942 517.384C286.889 516.333 289.662 516.145 292.261 516.82L294.029 510.015L299.829 505.165L297.498 503.651L295.355 504.911L294.725 503.839L300.691 480.871L301.829 472.994L306.182 463.228L305.553 462.156L305.774 461.305C308.528 455.362 310.473 452.537 311.607 452.832ZM331.294 467.934L331.073 468.785C331.161 470.776 332.001 472.204 333.592 473.072L335.956 470.962L334.697 468.818L331.294 467.934ZM311.341 481.821L311.529 484.594L309.828 484.152L311.087 486.296L315.562 486.55L316.225 483.998L314.335 480.783L311.341 481.821ZM333.172 495.664L332.951 496.515L332.918 500.139L334.619 500.581L336.762 499.321C337.094 498.045 335.897 496.826 333.172 495.664ZM361.774 514.899L361.553 515.75L362.813 517.893L364.956 516.633L365.177 515.783L361.774 514.899ZM302.47 519.472L301.619 519.251L300.989 518.179L300.139 517.958L299.697 519.66C301.965 520.249 302.731 521.961 301.994 524.797L305.806 527.603L309.872 525.935L310.313 524.234L310.126 521.461L311.197 520.831L307.386 518.025L302.47 519.472Z" fill="#A6FF61"/>
<path d="M751.264 486.322L754.881 486.103L757.97 484.207C760.764 483.326 762.337 483.444 762.689 484.562L763.263 483.459L771.645 480.816L778.925 477.598L783.38 477.114L786.024 485.496L784.876 487.702L783.245 485.451L781.568 485.98L779.847 489.288L780.95 489.862C779.449 490.949 779.14 492.89 780.021 495.684L786.63 516.639L787.379 521.933L788.481 522.506L788.745 523.345L789.229 527.8L790.332 528.374L790.815 532.829L792.402 537.858L800.113 559.387L798.302 568.253L799.404 568.827L800.243 568.563L800.816 567.46L801.655 567.196L805.536 567.814L810.875 564.287L812.461 569.317L811.313 571.522L810.785 569.845L809.108 570.374L809.373 571.212L810.475 571.786L810.74 572.624C809.335 574.501 807.084 576.132 803.989 577.518L802.886 576.945L788.327 583.38L786.122 582.232L784.975 584.437L777.431 586.816L773.504 588.977C770.461 587.12 768.11 583.561 766.45 578.299L765.657 575.785L772.363 573.67L771.834 571.993L773.51 571.464C774.039 573.141 776.818 573.186 781.847 571.6C782.2 572.717 781.538 573.54 779.861 574.069L780.126 574.907C782.92 574.026 784.493 574.144 784.845 575.262L781.757 577.158L782.286 578.834L782.86 577.732L784.536 577.203L785.02 581.658L788.946 579.498L787.844 578.924L787.579 578.086L791.242 575.088L789.082 571.161L788.024 567.808L788.907 564.765L787.012 561.677L786.173 561.941L786.702 563.617L785.864 563.882L784.761 563.308L783.923 563.572L783.878 566.351L782.202 566.88L781.409 564.365L774.703 566.48L772.143 570.052L771.305 570.317L770.776 568.64L762.89 540.715L755.972 521.701L754.166 513.055L752.006 509.128L753.109 509.702L754.785 509.173L754.521 508.335L752.844 508.864L751.787 505.511L752.406 501.629L756.552 503.086C755.597 500.06 756.568 497.296 759.466 494.795L759.201 493.956C758.084 494.309 757.261 493.647 756.732 491.97L755.629 491.397L751.438 492.718C750.6 492.983 750.114 494.365 749.981 496.864L751.877 499.953L752.141 500.791L749.627 501.584L748.04 496.555C746.923 496.907 746.716 498.201 747.421 500.437L746.848 501.539L744.333 502.332L742.128 501.185L741.335 498.67C739.572 493.082 742.044 489.23 748.749 487.115L751.264 486.322ZM759.589 521.482L759.853 522.32C760.382 523.996 761.764 524.482 763.999 523.777C765.372 522.935 766.328 521.097 766.868 518.264L760.736 519.277L759.589 521.482ZM766.727 544.113L766.991 544.951L769.151 548.878L769.989 548.614L773.123 543.939L772.065 540.586L767.874 541.908L766.727 544.113ZM825.885 530.063L826.723 529.798L837.001 530.243L839.818 545.021L840.083 545.859L841.978 548.948L842.198 552.565L844.048 558.432C843.626 561.638 842.669 563.475 841.179 563.945L840.077 563.371L828.032 569.013L827.768 568.175L827.194 569.278L823.003 570.6C820.023 571.54 817.715 571.039 816.078 569.097L813.963 562.392L815.685 559.084L815.949 559.922C826.053 552.998 830.143 546.486 828.219 540.385L827.116 539.812L826.852 538.973L825.885 530.063ZM827.639 559C829.548 558.398 831.945 559.178 834.828 561.34L835.666 561.076L834.873 558.561L830.463 556.266L828.787 556.795L827.639 559ZM826.182 563.146L827.858 562.617L829.006 560.412L828.741 559.574L827.903 559.838L826.182 563.146ZM800.726 573.018L801.519 575.533L802.358 575.268L803.505 573.063L802.403 572.489L800.726 573.018ZM843.485 456.084L858.573 451.325L859.675 451.899L860.249 450.796C868.585 448.167 874.686 449.007 878.554 453.317L896.454 480.848L894.732 484.156C895.76 487.416 898.789 489.225 903.817 489.585C918.521 511.366 927.898 521.618 931.949 520.34C935.655 520.4 937.684 520.989 938.036 522.107C939.975 528.254 938.15 532.208 932.562 533.971L928.107 534.454C916.192 540.67 906.207 545.048 898.151 547.589C894.446 545.583 891.992 542.671 890.787 538.852C894.965 534.565 896.862 531.816 896.48 530.606L863.809 488.38L857.548 480.217C856.983 477.938 857.189 476.644 858.167 476.336C857.638 474.659 856.256 474.174 854.021 474.879C852.316 474.341 850.126 472.267 847.451 468.657C843.187 468.773 840.878 468.272 840.526 467.154L839.468 463.802C838.235 459.89 839.574 457.317 843.485 456.084ZM857.335 459.088L858.173 458.824L858.747 457.721L859.585 457.457C860.57 459.604 861.76 460.457 863.157 460.016L863.731 458.914L863.467 458.076C861.232 458.781 859.85 458.295 859.321 456.618L860.997 456.09L860.468 454.413L859.63 454.678L857.335 459.088ZM876.343 469.681C876.872 471.358 876.298 472.46 874.622 472.989L875.415 475.504C877.277 474.916 879.498 475.137 882.075 476.168L882.43 471.448L882.165 470.61C880.343 468.727 878.314 468.138 876.079 468.843L876.343 469.681ZM871.179 479.604L871.707 481.281L874.486 481.326L874.222 480.488L872.017 479.34L871.179 479.604ZM870.56 483.486L870.824 484.324L873.603 484.369L873.074 482.693L870.56 483.486ZM873.913 482.428L874.441 484.105L877.22 484.15L877.485 484.988L876.911 486.091L877.175 486.929L879.69 486.136L879.735 483.357L877.53 482.209L876.956 483.312L875.279 483.841L874.751 482.164L873.913 482.428ZM853.796 488.773L855.472 488.245C857.707 487.54 862.352 492.526 869.406 503.203C867.669 507.437 865.125 510.083 861.772 511.141L861.198 512.243L861.991 514.758C863.109 514.405 864.108 515.626 864.989 518.42L865.563 517.317L875.622 514.145C879.533 512.911 882.282 514.809 883.868 519.838L882.147 523.146L883.778 525.396L883.204 526.499L880.69 527.292L875.396 528.04L870.896 531.302L868.381 532.096L867.672 541.535C873.73 541.263 877.493 543.455 878.962 548.112L876.976 550.581L875.874 550.007L876.138 550.846L877.241 551.419L877.505 552.258L874.681 554.991L866.873 556.533L864.623 558.164L857.653 559.441L852.05 562.129C846.927 563.745 842.708 561.082 839.392 554.141C838.864 552.465 840.555 551.009 844.467 549.776C850.748 542.419 852.897 535.597 850.914 529.31C852.152 521.547 852.773 511.828 852.777 500.154L853.351 499.051L854.189 498.787L853.087 498.213L852.822 497.375C852.167 492.052 852.492 489.185 853.796 488.773ZM867.645 491.778C869.318 494.322 871.715 495.102 874.835 494.118L878.188 493.061L876.866 488.87L872.191 485.736L867.645 491.778ZM887.801 500.166L890.8 503.828L891.638 503.564C891.285 502.446 891.947 501.623 893.624 501.094L893.359 500.256L887.801 500.166ZM859.212 514.713L860.005 517.227L862.52 516.434L859.212 514.713ZM867.195 519.568L867.723 521.244L869.974 519.613L869.709 518.775L867.195 519.568ZM855.898 530.503L863.661 531.741C863.795 529.241 864.28 527.859 865.119 527.595L866.221 528.169L866.795 527.066C864.573 524.081 861.809 523.109 858.503 524.152C855.988 525.918 855.12 528.035 855.898 530.503ZM905.352 514.905L905.617 515.743L910.027 518.039L912.542 517.246L911.794 511.952L910.691 511.378L906.5 512.7L905.352 514.905ZM855.847 550.794L859.2 549.737L856.995 548.589L855.847 550.794ZM966.307 420.11C980.621 419.23 991.971 422.102 1000.36 428.724C1003.55 431.045 1006.6 436.84 1009.53 446.107L1011.11 451.136L1018.21 476.546C1015.2 479.849 1012.61 485.273 1010.44 492.82L1005.5 488.849L1000.42 493.214L1000.69 494.052C1001.27 495.915 1002.73 497.606 1005.05 499.126L1005.32 499.965C1003.64 500.493 1002.51 501.772 1001.92 503.801L1001.35 504.904C1001.87 506.58 1001.58 507.595 1000.46 507.947L999.624 508.211L998.521 507.638L997.683 507.902C998.858 511.627 995.269 515.831 986.915 520.514C981.327 522.276 977.476 519.805 975.361 513.099C979.007 508.263 982.11 505.441 984.671 504.633L984.407 503.795L982.73 504.324L983.878 502.119L986.083 503.266L986.921 503.002L984.761 499.075C986.298 497.618 987.756 493.472 989.133 486.637L990.809 486.109L984.638 472.388L977.5 449.757C972.216 438.521 966.454 433.887 960.214 435.855L959.111 435.282L958.847 434.443L960.568 431.136L958.099 429.15L958.673 428.047L960.349 427.519L965.333 428.711L966.481 426.506L965.952 424.83L964.276 425.358L963.747 423.682C963.306 422.285 964.16 421.094 966.307 420.11ZM930.441 429.118C934.586 427.811 937.996 428.885 940.674 432.342L940.938 433.18L940.1 433.444L937.895 432.297C936.218 432.825 935.645 433.928 936.173 435.604C934.773 439.118 932.978 441.22 930.79 441.91L929.687 441.337L929.113 442.439L929.378 443.277L931.583 444.425L934.097 443.632C933.569 441.956 933.863 440.941 934.981 440.589L937.45 442.574L937.979 444.251L936.302 444.78L935.2 444.206L934.362 444.47L934.626 445.308L935.729 445.882L935.993 446.72L934.845 448.926C937.874 450.735 939.608 452.338 940.049 453.735L940.623 452.633L943.137 451.84L944.24 452.414L945.078 452.149L944.549 450.473L947.328 450.518L949.578 448.887L952.487 458.107L951.339 460.312L950.236 459.738L950.501 460.576L952.97 462.562L952.396 463.665L951.558 463.929L948.25 462.208L947.412 462.472C945.456 464.062 944.867 466.091 945.646 468.559L943.969 469.087L943.44 467.411L944.014 466.308L943.75 465.47L942.074 465.999L943.131 469.352L945.82 474.955L945.246 476.057C948.546 478.242 951.869 479.037 955.214 478.443C954.685 476.767 954.98 475.752 956.098 475.4C957.215 475.047 958.038 475.709 958.567 477.385L957.993 478.488L958.258 479.326L959.36 479.9L959.625 480.738L959.051 481.841L959.315 482.679L962.268 489.12C962.724 490.564 962.135 492.593 960.502 495.207L960.721 498.824C964.074 497.767 966.543 499.753 968.13 504.782L971.038 514.002C972.102 519.81 971.865 522.957 970.329 523.442L966.976 524.499L944.609 532.475L941.301 530.754L941.875 529.651L941.346 527.975L934.685 527.311L933.364 523.12C938.158 520.788 940.232 518.598 939.586 516.549L934.517 503.403L935.091 502.3L934.827 501.462L933.724 500.888L933.46 500.05C932.339 494.874 932.384 492.095 933.595 491.713L929.539 484.698L931.216 484.169L932.318 484.743L933.157 484.478L932.099 481.126L930.113 483.595L928.437 484.124L927.908 482.447L928.482 481.345L927.379 480.771L927.115 479.933L925.838 472.963L921.828 463.169L917.907 447.817L916.804 447.243L915.128 447.772L911.201 449.932L910.099 449.358L909.306 446.843L911.427 436.037L914.206 436.082L917.294 434.186L924.264 432.909L930.441 429.118ZM950.909 426.809L952.586 426.281L952.85 427.119L951.129 430.427L948.924 429.279L950.909 426.809ZM956.777 424.959L957.041 425.797L957.261 429.414L958.892 431.664L958.054 431.929L955.849 430.781L955.584 429.943L956.158 428.84L955.894 428.002L954.791 427.428L956.777 424.959ZM957.615 424.694L960.13 423.901L960.658 425.578L958.144 426.371L957.615 424.694ZM925.271 456.553L925.799 458.23L927.476 457.701L928.623 455.496L925.271 456.553ZM934.181 455.586L933.079 455.012L932.241 455.277L933.562 459.468L938.327 457.043L936.167 453.117L934.181 455.586ZM1003.79 457.132L1003.21 458.235L1004.27 461.588L1004.85 460.485L1007.36 459.692C1008.11 462.221 1007.78 465.088 1006.39 468.293L1006.65 469.132L1007.49 468.867L1006.96 467.191L1008.11 464.986L1009.78 464.457L1009.74 467.236L1010.27 468.912L1011.11 468.648C1010.4 466.413 1011.17 464.943 1013.4 464.238L1013.14 463.399C1011.46 463.928 1010.27 463.075 1009.57 460.84L1003.79 457.132ZM941.1 474.6L941.01 480.158L944.053 481.042L944.672 477.16L944.408 476.322L941.1 474.6ZM949.482 471.957L950.32 471.692C950.187 474.192 949.701 475.574 948.863 475.838L948.334 474.162L949.482 471.957ZM933.247 478.92L933.995 484.214L935.097 484.788L934.524 485.89L933.421 485.317L931.745 485.845L932.802 489.198L933.905 489.772L933.376 488.096L934.214 487.831L935.317 488.405L939.817 485.142L942.022 486.29L942.287 487.128L941.713 488.231L941.977 489.069L942.815 488.805L945.066 487.173L943.479 482.144C941.244 482.849 939.51 481.246 938.276 477.334L933.247 478.92ZM999.507 464.012L1000.56 467.365L1004.45 467.984L1006.17 464.676L1005.9 463.838L1003.7 462.69L1003.12 463.793L1002.29 464.057L999.507 464.012ZM945.375 485.233L945.904 486.909L948.154 485.278L946.523 483.027L945.375 485.233ZM999.372 472.349L996.857 473.142L995.754 472.568L994.916 472.833L995.135 476.45L993.459 476.979C992.93 475.302 992.107 474.64 990.99 474.993C991.695 477.228 991.209 478.61 989.532 479.139L991.383 485.006L994.736 483.949L1002.15 472.394L1002.99 472.13L1004.09 472.704L1004.36 473.542L1001.27 475.438L1003.47 476.585C1003.08 475.328 1004.21 474.049 1006.87 472.749L1001.62 470.718L1001.36 469.88L999.372 472.349ZM954.37 496.219L955.472 496.793L956.001 498.47L954.325 498.998L954.589 499.837L955.427 499.572C958.428 497.397 959.575 495.192 958.87 492.957L954.37 496.219ZM948.367 506.407L948.632 507.245L953.616 508.438L956.704 506.542L956.175 504.866L951.72 505.349L948.367 506.407ZM948.058 508.348L947.484 509.45L948.013 511.127L950.263 509.495L948.058 508.348ZM935.214 528.987L936.891 528.458C937.772 531.252 939.33 532.297 941.565 531.592L940.418 533.797C938.974 534.252 937.24 532.649 935.214 528.987ZM1006.86 403.557L1012.99 402.544L1038.71 393.511L1044.4 402.776L1048.54 421.745L1054.97 436.304L1065.03 433.132L1068.96 430.972L1074.25 430.224L1079.28 428.637L1081.48 429.785L1082.01 431.461L1082.5 435.917L1081.66 436.181L1078.62 435.298L1076.06 438.87C1077.14 440.37 1079.08 440.68 1081.88 439.798L1082.45 438.696L1083.55 439.27L1083.82 440.108C1082.05 442.457 1079.24 444.265 1075.39 445.531L1075.13 444.692L1074.55 445.795L1070.1 446.279L1060.04 449.451L1059.47 450.554L1058.63 450.818L1059.16 452.494L1059.99 452.23L1063.12 465.067L1065.5 472.611L1064.04 476.757L1065.1 480.11C1066.78 479.581 1067.79 479.876 1068.14 480.993L1069.2 484.346C1070.38 488.071 1069.58 491.394 1066.82 494.314L1062.36 494.798L1054.82 497.177L1046.7 500.659L1046.44 499.821L1045.86 500.924L1045.02 501.188C1037.76 503.479 1033.16 501.551 1031.22 495.405L1030.95 494.566C1032.82 493.979 1034.51 492.524 1036.03 490.201L1025.36 462.231L1024.09 455.261L1021.66 450.496L1022.24 449.394L1020.08 445.467L1012.24 414.763L1010.56 415.292L1010.29 414.453L1009.72 415.556L1008.04 416.085C1006.93 416.437 1006.1 415.775 1005.57 414.099L1006.86 403.557ZM1051.3 388.387L1052.4 388.961L1064.71 384.157L1072.26 381.778C1076.17 380.544 1078.74 381.883 1079.97 385.795L1084.73 400.882L1084.95 404.5L1086.58 406.75L1083.76 409.484L1080.98 409.439L1079.26 412.746L1076.74 413.539C1074.94 407.812 1071.03 403.208 1065.02 399.729C1064.49 398.052 1063.38 397.478 1061.71 398.007L1058.88 400.741C1051.21 401.728 1047.14 401.477 1046.67 399.987C1047.43 398.517 1047.2 395.826 1045.96 391.914L1051.3 388.387ZM1038.97 411.861L1041.17 413.009L1041.7 414.685L1040.6 414.111L1038.08 414.904L1038.61 416.581L1041.13 415.788L1041.7 414.685L1042.54 414.421L1043.64 414.995L1044.22 413.892L1043.95 413.054L1041.79 409.127L1040.12 409.656L1038.97 411.861ZM1049.23 447.33L1050.03 449.845C1050.93 451.403 1053.43 451.537 1057.53 450.244L1058.41 447.201C1056.09 445.681 1054.63 443.989 1054.04 442.126C1050.37 444.105 1048.76 445.84 1049.23 447.33ZM1044.2 466.428C1046.43 465.723 1047.73 465.93 1048.08 467.047L1048.03 469.826L1048.61 468.724L1049.45 468.459L1050.55 469.033L1051.39 468.769L1052.27 465.725L1052.01 464.887L1047.33 461.754C1045.11 463.632 1044.06 465.191 1044.2 466.428ZM1054.26 463.256L1055.36 463.83L1057.04 463.301L1058.18 461.096L1057.08 460.522L1055.4 461.051L1054.26 463.256ZM1090.89 453.774L1091.73 453.509L1093.94 454.657L1094.47 456.333L1093.89 457.436L1094.16 458.274C1097.46 457.386 1099.94 458.445 1101.61 461.453L1102.45 461.188L1101.66 458.674L1100.55 458.1L1100.29 457.262L1100.86 456.159L1101.7 455.895L1102.8 456.469L1103.6 458.983L1103.02 460.086L1104.12 460.66L1105.45 464.851L1106.99 472.659L1109.41 477.424L1106.85 480.996L1101.82 482.582L1094.01 484.123L1088.41 486.812L1087.35 483.459L1079.98 492.235C1078.73 492.631 1076.83 489.543 1074.3 482.969L1087.01 470.667C1087.94 470.373 1089.67 471.976 1092.21 475.477C1096.5 473.508 1098.47 471.965 1098.12 470.847C1096.71 466.377 1094.33 464.67 1090.98 465.728L1090.14 465.992L1089.61 464.316L1090.54 458.493L1092.22 457.965L1092.74 459.641L1093.58 459.377L1092.79 456.862L1090.89 453.774ZM1160.92 358.268L1166.21 357.52L1166.78 356.418L1167.62 356.154L1173.71 357.92L1177.64 355.76C1179.93 363.024 1179.68 367.097 1176.88 367.979C1173.81 368.948 1172.92 371.991 1174.23 377.109L1176.66 381.873L1176.88 385.491L1178.77 388.579L1178.2 389.682L1178.46 390.52L1180.62 394.446L1180.84 398.064L1182.74 401.152L1185.34 412.313L1185.6 413.151L1184.76 413.416C1174.4 409.464 1168.54 405.477 1167.17 401.455L1165.58 396.426L1167.92 389.237L1166.82 388.663L1164.3 389.456L1165.1 391.971L1162.89 390.823L1162.36 389.147L1163.2 388.882L1160.51 383.279L1158.13 375.735L1152.57 375.645L1149.49 377.541C1148.37 377.894 1147.54 377.232 1147.02 375.555C1144.55 367.732 1145.55 363.115 1150.02 361.705L1160.92 358.268ZM1122.62 371.268C1130.2 373.846 1134.77 377.627 1136.34 382.609C1138.01 382.08 1139.21 382.934 1139.91 385.169C1142.67 386.14 1148.7 391.612 1157.99 401.585C1174 414.507 1185.68 425.26 1193.05 433.842L1192.47 434.945L1194.63 438.871L1195.43 441.386L1194.85 442.488L1195.96 443.062L1196.22 443.9C1196.51 444.832 1193.69 447.566 1187.75 452.102L1188.28 453.779C1190.51 453.074 1191.81 453.28 1192.16 454.397L1191.58 455.5L1190.75 455.764C1189.07 456.293 1187.97 455.719 1187.44 454.043L1184.92 454.836C1185.45 456.512 1183.2 458.144 1178.17 459.73C1177.82 458.612 1176.25 458.494 1173.45 459.375L1171.29 455.449C1172.97 454.92 1173.54 453.817 1173.01 452.141L1177.47 451.657C1178.89 446.909 1180.51 444.248 1182.32 443.675L1181.8 441.999L1178.27 436.66L1176.59 437.189L1177.12 438.865L1174.61 439.658C1173.37 435.747 1171.64 434.143 1169.4 434.848L1168.26 437.053L1166.05 435.906L1167.06 442.038L1171.21 443.495L1171.47 444.333L1169.8 444.862L1175.57 448.569L1175.84 449.407L1175 449.672L1169.75 447.641L1168.6 449.846L1170.28 449.317L1170.81 450.993L1168.56 452.625L1140.07 426.589L1141.79 423.281C1138.44 424.339 1136.41 423.75 1135.71 421.515C1117.48 404.479 1106.33 395.403 1102.24 394.287C1098.47 394.04 1096.44 393.451 1096.15 392.52L1095.89 391.682L1100.34 391.198L1102.59 389.567L1101.53 386.214L1094.52 390.27L1093.42 389.696L1093.15 388.858L1093.73 387.755L1089.53 389.077L1088.48 385.724C1088.32 383.93 1090.29 382.387 1094.39 381.095L1095.49 381.668L1096.33 381.404L1099.42 379.508L1101.09 378.98L1103.3 380.127L1102.42 383.171C1102.87 384.614 1105.18 385.115 1109.34 384.673L1108.81 382.996L1106.34 381.011L1105.55 378.496L1122.62 371.268ZM1105.06 391.553L1106.16 392.127L1107 391.862L1107.58 390.76L1106.78 388.245L1105.06 391.553ZM1115.38 389.218L1116.44 392.571L1119.22 392.616L1118.96 391.778L1115.38 389.218ZM1109.78 391.907L1110.04 392.745C1110.4 393.863 1111.69 394.069 1113.93 393.364L1114.45 395.041L1116.13 394.512L1115.6 392.836L1109.78 391.907ZM1102.41 400.683L1104.09 400.154C1104.83 399.919 1106.74 402.081 1109.82 406.64L1114.49 409.774C1114.85 410.891 1113.91 411.803 1111.67 412.508L1111.93 413.346C1115.29 412.288 1117.14 412.319 1117.49 413.436L1117.71 417.053L1118.81 417.627L1119.65 417.363L1120.8 415.158C1128.81 419.133 1134.88 427.663 1139.01 440.748L1141.65 449.13C1142.53 451.924 1145.84 453.646 1151.58 454.295L1152.1 455.971L1152.06 458.75L1154.48 463.515L1154.75 464.353L1153.86 467.397L1149.41 467.88L1143.81 470.569L1143.54 469.731L1142.97 470.834L1135.42 473.213L1121.75 476.605L1118.66 478.5C1116.29 476.84 1114.49 474.031 1113.24 470.073C1115.18 467.618 1117.43 465.987 1119.99 465.179L1117.87 458.474L1120.21 451.284L1117.43 451.239L1116.29 453.444L1115.18 452.871L1108.05 430.239L1104.83 422.96L1103.33 412.373L1102.23 411.799L1101.97 410.96C1101.14 404.461 1101.29 401.035 1102.41 400.683ZM1127.11 403.029L1127.38 403.868C1128.51 405.507 1129.98 406.273 1131.79 406.163L1132.67 403.12L1130.46 401.972L1127.11 403.029ZM1117.58 425.39L1119.21 427.641L1117.53 428.169L1119.74 429.317L1123.66 427.157L1122.87 424.642L1119.56 422.921L1117.58 425.39ZM1143.43 425.532L1143.69 426.37L1145.59 429.458L1147.26 428.93L1148.41 426.724C1148.01 425.467 1146.35 425.07 1143.43 425.532ZM1177.88 426.647L1178.14 427.485L1180.35 428.632L1181.49 426.427L1181.23 425.589L1177.88 426.647ZM1130.05 462.007L1129.21 462.271L1128.11 461.697L1127.27 461.962L1127.8 463.638C1130.03 462.933 1131.59 463.978 1132.47 466.772L1137.19 467.126L1139.75 463.554L1139.22 461.878L1137.59 459.627L1138.16 458.525L1133.44 458.17L1130.05 462.007Z" fill="#A6FF61"/>
<path d="M137.858 87.5408L140.841 87.3714L143.11 86.7822C154.452 83.8362 160.369 83.3084 160.86 85.1988L162.458 89.0213L162.627 92.0042L163.342 92.424L163.511 95.4069L164.837 100.511L165.846 102.065L166.015 105.048L172.938 131.703L176.577 141.049C176.988 144.575 176.674 146.472 175.634 146.742C175.241 145.23 174.1 144.719 172.209 145.21C170.949 145.538 169.92 147.016 169.123 149.644L163.179 152.399L159.629 152.715L158.495 153.01L158.201 151.876L159.335 151.581L158.451 148.178L159.585 147.884L159.291 146.75L158.871 147.464L158.304 147.611L158.009 146.477L158.849 145.048L159.983 144.754L161.139 146.875L161.014 148.723L161.581 148.576C163.642 146.023 165.476 144.538 167.083 144.12L166.936 143.553C165.801 143.848 165.136 143.617 164.94 142.861L164.52 143.575L162.819 144.017L162.524 142.883L164.225 142.441L164.078 141.874L162.377 142.316L161.957 143.03L161.515 141.329L162.082 141.182L164.498 141.159L166.052 140.15L168.91 141.83L169.477 141.682C169.305 141.021 166.496 139.531 161.051 137.212C161.321 138.251 160.53 139.869 158.679 142.065L158.112 142.213L157.818 141.078L157.398 141.793L156.264 142.087C155.985 141.016 154.696 139.938 152.397 138.854L152.817 138.14L152.102 137.72L149.451 127.512C148.96 125.621 149.849 124.382 152.117 123.792L151.822 122.658L150.394 121.818L148.272 122.975L148.125 122.408L149.804 119.55C150.058 120.527 151.578 120.939 154.363 120.787L154.216 120.22L154.909 118.224L154.761 117.657C152.871 118.148 151.827 118.016 151.631 117.259C151.435 116.503 150.202 116.42 147.934 117.009L148.376 118.71L147.241 119.005L147.094 118.438L142.358 97.8742L136.348 93.3814C135.951 91.3322 136.454 89.3853 137.858 87.5408ZM165.375 81.6046L167.076 81.1627L169.492 81.1406L171.613 79.9843L172.327 80.4041L175.016 79.1005L178.418 78.2167C184.783 76.5636 190.834 80.4402 196.573 89.8464L196.721 90.4135C198.292 96.4628 197.02 102.443 192.906 108.355L193.053 108.922C198.195 110.075 201.151 112.133 201.921 115.094L202.51 117.363L200.514 116.67L197.678 117.407C196.642 118.08 196.37 119.361 196.861 121.252L197.008 121.819L202.554 122.194L202.974 121.48L204.277 124.168L201.906 129.022L202.62 129.442L202.767 130.009L198.945 131.607L197.641 128.919L198.208 128.771L200.057 128.897L199.762 127.762C198.628 128.057 197.963 127.826 197.766 127.07L197.892 125.221L195.623 125.811C196.114 127.701 195.225 128.941 192.957 129.53L191.845 132.24L192.434 134.509C196.379 134.157 198.662 135.178 199.284 137.573L198.717 137.72C199.12 140.44 198.141 142.107 195.778 142.721L192.942 143.458L191.933 141.903L192.058 140.055L191.491 140.202L189.495 139.51C189.692 140.266 188.845 140.89 186.954 141.381L186.534 142.095L186.829 143.229L187.544 143.649L187.691 144.216L187.271 144.931L186.137 145.225L185.422 144.805L185.003 145.52L183.301 145.962L181.872 145.122L181.725 144.555L182.439 144.975L183.007 144.827L182.712 143.693L182.145 143.84L181.725 144.555L181.158 144.702L180.863 143.568L181.703 142.139L184.413 143.251C184.777 141.543 185.715 140.492 187.227 140.099C187.03 139.343 186.365 139.112 185.231 139.407C186.412 137.351 186.417 132.708 185.246 125.479L187.22 123.756C186.115 119.502 182.025 117.739 174.949 118.467L174.213 115.632C174.97 113.888 175.096 112.039 174.588 110.086L173.454 110.38L173.159 109.246L173.727 109.099L174.441 109.519L175.008 109.371C178.789 108.389 179.648 103.929 177.586 95.9888L177.144 94.2875C175.966 89.7505 174.053 87.8257 171.407 88.5131C167.906 89.0189 166.057 88.8937 165.861 88.1375L164.535 83.0334L165.375 81.6046ZM184.944 108.001L185.386 109.703L187.529 110.962L190.365 110.226L190.07 109.092L190.637 108.944L189.923 108.524L189.628 107.39L190.048 106.676L189.901 106.109L187.632 106.698L184.944 108.001ZM150.585 127.217L150.732 127.784L152.161 128.624L152.014 128.057L150.585 127.217ZM162.937 125.825L163.526 128.094L167.37 128.911L168.924 127.902L167.768 125.781L167.599 122.798L162.937 125.825ZM201.523 118.224L202.657 117.93L203.394 120.765L201.965 119.926L201.523 118.224ZM152.773 133.308L153.214 135.009L154.349 134.715L154.201 134.148L152.773 133.308ZM188.17 134.406L188.339 137.389L188.486 137.956L191.469 137.786L191.027 136.085C190.271 136.281 189.746 135.812 189.451 134.678L188.737 134.258L188.17 134.406ZM171.178 141.241L171.053 143.089L171.767 143.509L174.036 142.92L172.46 141.513L172.879 140.799L171.178 141.241ZM183.088 138.147L184.516 138.987L182.395 140.143L182.248 139.576L183.088 138.147ZM191.049 138.501L192.478 139.34L193.045 139.193L192.751 138.059L191.049 138.501ZM198.992 71.9649L211.196 70.0059L211.049 69.4387L211.763 69.8586L220.542 66.3675C222.885 66.0619 224.117 66.1453 224.24 66.6179L224.66 65.9035L225.227 65.7562L226.655 66.5958L227.687 70.5657C228.431 73.4328 226.934 75.4361 223.194 76.5757L224.343 85.6606L225.057 86.0804L225.521 90.1976L227.878 99.2715L229.918 104.795C228.067 106.083 225.518 107.149 222.273 107.992C222.044 107.11 220.097 106.606 216.432 106.482C216.727 107.616 216.496 108.282 215.74 108.478L214.731 106.924L215.151 106.209L215.004 105.642C214.758 104.697 213.042 103.529 209.855 102.136L205.952 87.1078L203.912 81.5839L204.479 81.4366C203.865 79.9816 202.346 79.5691 199.92 80.1992L198.344 78.7925L197.607 75.9569L198.992 71.9649ZM213.766 110.201L213.914 110.768L213.074 112.197L212.359 111.778L212.212 111.21L212.632 110.496L213.766 110.201ZM223.702 108.831L224.416 109.251L224.564 109.818L224.019 112.382L224.586 112.234L225.992 110.658C226.385 112.17 227.905 112.583 230.551 111.895L232.569 115.004L233.306 117.839C230.502 118.567 228.793 118.204 228.18 116.749C227.62 117.702 225.261 118.718 221.102 119.798L222.678 121.205L225.366 119.901L226.942 121.308L229.336 118.87L230.64 121.559L229.528 124.269L229.675 124.836L230.095 124.122L230.662 123.974C231.153 125.865 233.1 126.368 236.502 125.484L236.797 126.618L237.364 126.471L237.217 125.904L236.208 124.35L237.615 122.774C240.174 122.916 241.743 123.518 242.321 124.578C242.929 128.86 242.523 131.185 241.106 131.553L224.092 135.972L219.261 136.016L218.126 136.311L214.451 138.476L213.737 138.057L212.705 134.087L211.255 130.831C211.529 128.91 212.04 127.769 212.787 127.406L216.189 126.523L215.895 125.388L216.462 125.241L215.747 124.821L213.98 118.016L215.114 117.721L214.23 114.319C216.499 113.729 217.486 112.868 217.191 111.733L218.892 111.291L221.603 112.404C221.267 111.112 221.967 109.921 223.702 108.831ZM217.213 114.149L217.508 115.283L220.91 114.4L220.763 113.832L219.334 112.993L217.213 114.149ZM222.045 114.105L222.192 114.672C223.326 114.377 224.041 114.797 224.335 115.932L224.902 115.784L224.46 114.083C223.704 114.279 223.179 113.81 222.884 112.676L222.045 114.105ZM229.859 113.891L230.868 115.445L231.435 115.298L230.993 113.597L229.859 113.891ZM226.125 125.153L226.567 126.854L228.415 126.979L228.835 126.265L228.393 124.564L226.125 125.153ZM229.027 131.664L229.174 132.231L230.014 130.802L229.866 130.235L229.027 131.664ZM281.897 51.6423L285.447 51.3256L285.867 50.6112L286.434 50.4639L290.426 51.8486L293.114 50.545C294.391 55.46 294.084 58.163 292.193 58.654C290.114 59.1941 289.422 61.1901 290.116 64.6419L291.567 67.8973L291.589 70.3131L292.746 72.4343L292.326 73.1487L292.473 73.7158L293.777 76.4041L293.799 78.8199L294.955 80.9411L296.303 88.461L296.45 89.0281L295.883 89.1754C289.121 86.1896 285.353 83.3343 284.578 80.6096L283.694 77.2069L285.498 72.5006L284.784 72.0807L283.083 72.5226L283.525 74.224L282.096 73.3844L281.801 72.2501L282.368 72.1028L280.77 68.2803L279.444 63.1762L275.747 62.9258L273.626 64.0821C272.87 64.2785 272.344 63.8096 272.05 62.6753C270.675 57.3822 271.5 54.3428 274.524 53.5572L281.897 51.6423ZM255.957 58.9853C260.909 60.9612 263.824 63.6348 264.699 67.006C265.833 66.7114 266.597 67.3203 266.99 68.8326C268.797 69.574 272.622 73.4236 278.465 80.3813C288.678 89.5334 296.09 97.0926 300.7 103.059L300.28 103.773L301.584 106.462L302.026 108.163L301.606 108.877L302.32 109.297L302.468 109.864C302.631 110.494 300.657 112.218 296.546 115.035L296.841 116.169C298.353 115.776 299.207 115.958 299.404 116.714L298.984 117.428L298.417 117.576C297.282 117.87 296.568 117.45 296.273 116.316L294.572 116.758C294.867 117.892 293.313 118.901 289.91 119.785C289.714 119.029 288.67 118.896 286.78 119.387L285.476 116.699C286.61 116.404 287.03 115.69 286.736 114.556L289.718 114.386C290.827 111.273 291.996 109.557 293.224 109.238L292.93 108.104L290.764 104.429L289.63 104.723L289.925 105.858L288.223 106.299C287.536 103.653 286.436 102.526 284.924 102.919L284.084 104.348L282.655 103.508L283.119 107.625L285.83 108.737L285.977 109.304L284.843 109.599L288.562 112.265L288.709 112.832L288.142 112.98L284.717 111.448L283.878 112.876L285.012 112.582L285.307 113.716L283.753 114.725L265.679 96.4152L266.938 94.272C264.67 94.8612 263.339 94.3996 262.946 92.8873C251.396 80.9208 244.279 74.4959 241.595 73.6125C239.097 73.3195 237.766 72.8579 237.603 72.2278L237.455 71.6607L240.438 71.4913L241.992 70.4823L241.403 68.2138L236.594 70.6738L235.879 70.2539L235.732 69.6868L236.152 68.9724L233.316 69.7089L232.727 67.4404C232.684 66.2407 234.049 65.2808 236.822 64.5606L237.536 64.9805L238.103 64.8332L240.225 63.6768L241.359 63.3822L242.788 64.2219L242.095 66.2178C242.349 67.1945 243.869 67.607 246.654 67.4552L246.36 66.321L244.784 64.9142L244.342 63.2129L255.957 58.9853ZM243.568 71.889L244.283 72.3089L244.85 72.1616L245.27 71.4471L244.828 69.7458L243.568 71.889ZM250.521 70.6886L251.11 72.957L252.959 73.0822L252.812 72.5151L250.521 70.6886ZM246.699 72.2868L246.846 72.8539C247.042 73.6101 247.897 73.7917 249.409 73.3989L249.704 74.5332L250.838 74.2386L250.543 73.1043L246.699 72.2868ZM241.491 77.8769L242.626 77.5823C243.13 77.4514 244.328 78.9564 246.22 82.0972L249.225 84.3436C249.421 85.0998 248.763 85.6742 247.251 86.067L247.398 86.6342C249.667 86.045 250.899 86.1284 251.096 86.8846L251.118 89.3004L251.832 89.7202L252.399 89.5729L253.239 88.1441C258.437 91.0652 262.186 96.9525 264.485 105.806L265.958 111.477C266.449 113.367 268.593 114.627 272.388 115.255L272.683 116.39L272.558 118.238L274.008 121.494L274.156 122.061L273.463 124.057L270.481 124.226L266.658 125.824L266.511 125.257L266.091 125.972L260.987 127.297L251.766 129.087L249.644 130.243C248.126 129.057 247.018 127.125 246.323 124.447C247.698 122.879 249.252 121.87 250.985 121.42L249.806 116.883L251.611 112.177L249.762 112.051L248.923 113.48L248.208 113.06L244.231 97.7482L242.338 92.7914L241.705 85.6914L240.991 85.2716L240.843 84.7045C240.519 80.3492 240.735 78.0733 241.491 77.8769ZM257.857 80.2854L258.004 80.8525C258.701 81.9831 259.654 82.5429 260.862 82.5318L261.554 80.5359L260.125 79.6962L257.857 80.2854ZM250.742 94.8464L251.751 96.4004L250.617 96.695L252.046 97.5347L254.734 96.231L254.292 94.5297L252.149 93.2702L250.742 94.8464ZM267.947 95.826L268.094 96.3931L269.251 98.5143L270.385 98.2197L271.225 96.7909C271.004 95.9402 269.911 95.6186 267.947 95.826ZM290.845 97.7484L290.993 98.3156L292.422 99.1552L293.261 97.7264L293.114 97.1592L290.845 97.7484ZM257.79 119.652L257.223 119.8L256.509 119.38L255.942 119.527L256.236 120.661C257.749 120.269 258.75 121.017 259.241 122.908L262.371 123.305L264.198 121.015L263.903 119.881L262.894 118.327L263.314 117.612L260.184 117.214L257.79 119.652Z" fill="#A6FF61"/>
<path d="M812.625 26.1091L814.684 27.373L817.095 27.5194C818.958 28.1071 819.772 28.7734 819.537 29.5185L820.272 29.136L825.86 30.8989L831.065 31.9267L833.683 33.367L831.92 38.9549L830.45 39.7199L830.42 37.8672L829.302 37.5146L827.097 38.6621L827.479 39.3972C826.244 39.4171 825.333 40.3584 824.745 42.221L820.338 56.1907L818.721 59.3672L819.104 60.1022L818.928 60.661L817.487 63.2787L817.87 64.0138L816.43 66.6314L815.372 69.9841L811.347 84.6889L806.966 88.8365L807.349 89.5716L807.908 89.7479L808.643 89.3654L809.202 89.5417L811.084 91.3644L815.348 91.4809L814.291 94.8336L812.82 95.5986L813.173 94.4811L812.055 94.1285L811.879 94.6873L812.262 95.4223L812.085 95.9811C810.6 96.4684 808.748 96.4983 806.527 96.0709L806.145 95.3358L795.734 93.2801L794.969 91.8099L793.499 92.5749L788.47 90.9883L785.5 90.6656C784.548 88.4881 784.626 85.6454 785.733 82.1374L786.261 80.4611L790.732 81.8714L791.084 80.7538L792.202 81.1064C791.849 82.224 793.349 83.3116 796.702 84.3694C796.467 85.1144 795.791 85.3107 794.673 84.9581L794.497 85.5169C796.359 86.1045 797.173 86.7709 796.938 87.5159L794.527 87.3695L794.174 88.4871L794.909 88.1046L796.027 88.4572L794.587 91.0749L797.557 91.3975L797.174 90.6624L797.351 90.1037L800.497 89.8675L800.82 86.8973L801.525 84.6622L803.171 83.3384L803.318 80.9269L802.759 80.7506L802.406 81.8682L801.848 81.6919L801.465 80.9568L800.906 80.7806L799.819 82.2806L798.701 81.928L799.23 80.2517L794.76 78.8413L791.996 79.8125L791.437 79.6362L791.789 78.5187L798.166 60.255L801.662 47.2266L803.984 41.815L804.306 38.8447L804.689 39.5798L805.806 39.9324L805.983 39.3736L804.865 39.021L805.57 36.7859L807.393 34.9033L809.099 37.2848C809.736 35.267 811.324 34.1295 813.862 33.8723L814.039 33.3135C813.294 33.0784 813.097 32.4021 813.45 31.2846L813.067 30.5495L810.273 29.668C809.715 29.4917 808.921 30.0605 807.892 31.3743L807.746 33.7857L807.569 34.3445L805.893 33.8156L806.951 30.4629C806.206 30.2279 805.598 30.8554 805.128 32.3455L804.393 32.728L802.716 32.1991L801.951 30.7289L802.48 29.0526C803.656 25.3273 806.478 24.1699 810.949 25.5802L812.625 26.1091ZM803.721 48.4905L803.544 49.0493C803.192 50.1669 803.761 50.9607 805.251 51.4308C806.322 51.4959 807.548 50.8584 808.926 49.5184L805.191 47.7255L803.721 48.4905ZM798.961 63.5778L798.785 64.1366L798.462 67.1068L799.021 67.2831L802.52 65.9294L803.225 63.6942L800.431 62.8128L798.961 63.5778ZM836.636 78.5359L837.195 78.7122L842.636 82.8865L838.521 92.0334L838.345 92.5921L838.199 95.0036L836.935 97.0624L835.701 100.974C834.244 102.562 833.019 103.2 832.025 102.886L831.643 102.151L822.908 100.625L823.085 100.066L822.35 100.448L819.556 99.5668C817.569 98.94 816.5 97.7836 816.349 96.0976L817.76 91.6273L819.965 90.4798L819.789 91.0386C827.954 91.123 832.678 89.1318 833.961 85.065L833.579 84.33L833.755 83.7712L836.636 78.5359ZM826.524 95.0068C827.797 95.4083 828.807 96.751 829.554 99.0347L830.113 99.211L830.642 97.5347L829.112 94.5944L827.994 94.2418L826.524 95.0068ZM824.143 96.713L825.26 97.0656L826.73 96.3006L826.907 95.7418L826.348 95.5655L824.143 96.713ZM806.468 92.3655L805.939 94.0419L806.497 94.2182L807.968 93.4532L807.585 92.7181L806.468 92.3655ZM874.545 44.8762L884.603 48.0495L884.986 48.7846L885.721 48.4021C891.278 50.1552 894.288 52.9481 894.751 56.7807L893.992 78.66L891.787 79.8075C891.102 81.9805 892.063 84.127 894.671 86.2469C894.367 103.764 895.565 112.949 898.266 113.801C900.266 115.251 901.149 116.348 900.914 117.094C899.621 121.191 897.112 122.653 893.386 121.477L890.769 120.037C881.886 118.873 874.759 117.444 869.388 115.749C868.133 113.237 867.907 110.708 868.71 108.162C872.631 107.42 874.719 106.645 874.973 105.838L873.287 70.2845L872.991 63.4327C873.555 61.972 874.162 61.3444 874.814 61.5501C875.167 60.4325 874.598 59.6387 873.108 59.1686C872.382 58.2228 871.98 56.2527 871.901 53.258C869.528 51.6903 868.459 50.5339 868.694 49.7888L869.399 47.5537C870.222 44.946 871.937 44.0535 874.545 44.8762ZM880.958 51.8146L881.516 51.9909L882.251 51.6084L882.81 51.7847C882.526 53.3336 882.85 54.2549 883.781 54.5487L884.517 54.1662L884.693 53.6074C883.203 53.1373 882.634 52.3435 882.987 51.2259L884.104 51.5785L884.457 50.4609L883.898 50.2846L880.958 51.8146ZM887.284 64.8698C886.931 65.9873 886.196 66.3698 885.078 66.0172L884.55 67.6936C885.791 68.0854 886.919 69.0555 887.932 70.604L889.931 68.1627L890.108 67.6039C889.833 65.8787 888.95 64.7811 887.46 64.311L887.284 64.8698ZM880.668 68.3122L880.315 69.4298L881.815 70.5175L881.992 69.9587L881.227 68.4885L880.668 68.3122ZM878.845 70.1948L878.669 70.7536L880.169 71.8412L880.522 70.7237L878.845 70.1948ZM881.08 70.9L880.728 72.0175L882.228 73.1052L882.052 73.664L881.317 74.0465L881.14 74.6053L882.817 75.1341L883.904 73.6341L883.139 72.1639L882.404 72.5464L881.287 72.1938L881.639 71.0762L881.08 70.9ZM867.67 66.6689L868.787 67.0215C870.277 67.4916 870.906 71.9908 870.673 80.519C868.105 82.1665 865.704 82.6377 863.468 81.9325L862.733 82.315L862.204 83.9914C862.949 84.2264 863.028 85.2753 862.441 87.1379L863.176 86.7554L869.881 88.8709C872.489 89.6936 873.264 91.7813 872.206 95.134L870.001 96.2815L870.031 98.1342L869.296 98.5167L867.619 97.9878L864.443 96.3712L860.737 96.4311L859.061 95.9022L855.063 100.785C858.475 102.954 859.691 105.59 858.712 108.694L856.683 109.283L856.3 108.548L856.124 109.107L856.506 109.842L856.33 110.401L853.742 110.813L848.89 108.668L847.037 108.698L842.743 106.729L838.655 106.053C835.24 104.976 833.955 101.908 834.8 96.8498C835.153 95.7322 836.633 95.5848 839.241 96.4075C845.484 94.7933 849.267 91.8907 850.59 87.6998C854.235 83.9347 858.292 78.8657 862.76 72.4929L863.495 72.1104L864.054 72.2867L863.671 71.5516L863.848 70.9929C865.526 67.836 866.8 66.3947 867.67 66.6689ZM874.082 73.6073C874.022 75.6365 875.032 76.9791 877.112 77.6353L879.347 78.3405L880.229 75.5465L878.875 72.0474L874.082 73.6073ZM881.878 85.8975L882.115 89.044L882.673 89.2203C882.908 88.4753 883.585 88.279 884.702 88.6316L884.879 88.0728L881.878 85.8975ZM860.704 82.9037L860.175 84.5801L861.852 85.1089L860.704 82.9037ZM863.206 88.608L862.853 89.7256L864.706 89.6957L864.882 89.1369L863.206 88.608ZM852.855 90.2577L856.62 93.9032C857.649 92.5893 858.442 92.0206 859.001 92.1969L859.384 92.932L860.119 92.5495C860.048 90.0695 858.91 88.4818 856.706 87.7864C854.658 87.7886 853.374 88.6123 852.855 90.2577ZM885.823 100.659L885.647 101.218L887.177 104.158L888.853 104.687L890.47 101.51L890.087 100.775L887.293 99.8939L885.823 100.659ZM845.065 101.317L847.3 102.022L846.535 100.552L845.065 101.317ZM955.366 72.2178C963.518 77.2132 968.617 83.1227 970.663 89.9463C971.516 92.4342 970.969 96.7671 969.02 102.945L967.962 106.298L962.114 122.885C959.211 123.539 955.722 125.51 951.647 128.799L950.469 124.741L946.029 125.183L945.853 125.742C945.461 126.984 945.608 128.464 946.295 130.182L946.119 130.741C945.001 130.388 943.894 130.653 942.796 131.536L942.061 131.918C941.708 133.036 941.16 133.477 940.414 133.242L939.856 133.066L939.473 132.331L938.914 132.154C938.131 134.638 934.563 135.56 928.211 134.922C924.486 133.746 923.328 130.924 924.738 126.453C928.579 125.207 931.353 124.854 933.06 125.392L933.237 124.834L932.119 124.481L933.589 123.716L934.354 125.186L934.913 125.362L935.236 122.392C936.633 122.184 939.014 120.478 942.38 117.273L943.498 117.626L945.377 107.774L950.137 92.6867C951.55 84.5307 950.176 79.7965 946.016 78.4841L945.634 77.749L945.81 77.1902L948.015 76.0428L947.427 74.0138L948.162 73.6313L949.279 73.9839L951.544 76.5417L953.015 75.7767L953.367 74.6592L952.25 74.3066L952.602 73.189C952.896 72.2577 953.817 71.934 955.366 72.2178ZM932.338 63.4166C935.101 64.2882 936.552 66.1797 936.692 69.091L936.515 69.6498L935.957 69.4735L935.192 68.0033C934.074 67.6507 933.339 68.0332 932.986 69.1508C930.878 70.5335 929.094 70.9947 927.635 70.5344L927.252 69.7993L926.517 70.1818L926.341 70.7406L927.106 72.2108L928.782 72.7397C929.135 71.6221 929.684 71.1808 930.429 71.4159L931.017 73.4448L930.665 74.5624L929.547 74.2098L929.165 73.4747L928.606 73.2984L928.43 73.8572L928.812 74.5923L928.636 75.1511L927.166 75.9161C928.127 78.0626 928.46 79.6015 928.167 80.5328L928.902 80.1503L930.578 80.6792L930.961 81.4142L931.519 81.5905L931.872 80.4729L933.372 81.5606L935.225 81.5307L933.285 87.6774L931.815 88.4424L931.433 87.7073L931.257 88.2661L931.845 90.295L931.11 90.6775L930.551 90.5012L929.404 88.296L928.845 88.1197C927.169 88.2394 926.071 89.1219 925.552 90.7672L924.435 90.4147L924.787 89.2971L925.522 88.9146L925.699 88.3558L924.581 88.0032L923.876 90.2384L923.201 94.3262L922.465 94.7087C923.432 97.1639 924.942 98.8691 926.996 99.8243C927.348 98.7067 927.897 98.2655 928.642 98.5005C929.387 98.7356 929.583 99.4119 929.231 100.529L928.496 100.912L928.319 101.471L928.702 102.206L928.526 102.765L927.791 103.147L927.614 103.706L926.763 108.353C926.459 109.315 925.361 110.197 923.47 111L922.206 113.059C924.441 113.764 925.03 115.793 923.972 119.146L922.033 125.292C920.392 128.871 919.059 130.498 918.035 130.175L915.799 129.47L900.536 125.269L899.388 123.064L900.124 122.681L900.476 121.564L897.093 118.653L897.975 115.859C901.484 116.42 903.455 116.018 903.885 114.652L906.147 105.535L906.882 105.153L907.059 104.594L906.676 103.859L906.853 103.3C908.221 100.045 909.308 98.545 910.116 98.7996L910.585 93.418L911.702 93.7706L912.085 94.5056L912.643 94.6819L913.349 92.4468L911.32 93.0355L910.202 92.6829L910.555 91.5653L911.29 91.1828L910.907 90.4477L911.084 89.889L913.053 85.5949L914.609 78.7132L918.341 68.8313L917.959 68.0962L916.841 67.7436L913.871 67.421L913.489 66.6859L914.018 65.0095L919.309 59.9206L920.81 61.0083L923.221 61.1547L927.515 63.1238L932.338 63.4166ZM944.397 69.9858L945.514 70.3384L945.338 70.8972L943.133 72.0447L942.368 70.5745L944.397 69.9858ZM948.308 71.2199L948.132 71.7787L946.868 73.8375L946.898 75.6902L946.339 75.5139L945.574 74.0437L945.75 73.4849L946.485 73.1024L946.662 72.5436L946.279 71.8086L948.308 71.2199ZM948.867 71.3962L950.543 71.925L950.191 73.0426L948.514 72.5137L948.867 71.3962ZM919.02 76.4182L918.667 77.5358L919.785 77.8884L921.255 77.1234L919.02 76.4182ZM924.255 79.2987L923.873 78.5636L923.314 78.3874L922.432 81.1813L925.961 81.6803L926.284 78.71L924.255 79.2987ZM961.669 106.77L960.934 107.152L960.229 109.387L960.964 109.005L962.64 109.534C962.08 111.2 960.806 112.642 958.818 113.858L958.642 114.416L959.201 114.593L959.553 113.475L961.023 112.71L962.141 113.063L961.053 114.563L960.701 115.68L961.26 115.857C961.73 114.367 962.71 113.857 964.2 114.327L964.376 113.768C963.259 113.415 962.935 112.494 963.405 111.004L961.669 106.77ZM920.759 92.3271L918.584 95.3273L919.908 96.9737L921.73 95.0912L921.907 94.5324L920.759 92.3271ZM926.347 94.0901L926.906 94.2664C925.877 95.5802 925.083 96.1489 924.524 95.9726L924.877 94.8551L926.347 94.0901ZM914.819 91.6818L913.202 94.8582L913.585 95.5933L912.85 95.9758L912.467 95.2407L911.35 94.8881L910.644 97.1233L911.027 97.8584L911.379 96.7408L911.938 96.9171L912.321 97.6522L916.026 97.5923L916.791 99.0625L916.615 99.6213L915.88 100.004L915.703 100.563L916.262 100.739L918.115 100.709L919.173 97.3562C917.682 96.8861 917.349 95.3472 918.171 92.7395L914.819 91.6818ZM956.7 108.888L955.994 111.124L957.877 112.946L960.082 111.799L960.258 111.24L959.493 109.77L958.758 110.152L958.2 109.976L956.7 108.888ZM919.026 99.7677L918.674 100.885L920.526 100.855L920.496 99.0027L919.026 99.7677ZM953.437 113.389L951.76 112.86L951.378 112.125L950.819 111.948L949.555 114.007L948.437 113.655C948.79 112.537 948.594 111.861 947.849 111.626C947.379 113.116 946.585 113.685 945.467 113.332L944.233 117.243L946.468 117.949L954.937 114.476L955.495 114.653L955.878 115.388L955.702 115.946L953.29 115.8L954.055 117.27C954.32 116.432 955.427 116.167 957.378 116.475L955.289 113.359L955.465 112.8L953.437 113.389ZM919.735 109.207L920.117 109.942L919.764 111.06L918.647 110.707L918.471 111.266L919.029 111.442C921.5 111.403 922.97 110.638 923.44 109.147L919.735 109.207ZM912.56 112.473L912.384 113.032L914.649 115.59L917.06 115.736L917.413 114.619L914.795 113.179L912.56 112.473ZM911.649 113.415L910.914 113.797L910.561 114.915L912.414 114.885L911.649 113.415ZM896.741 119.771L897.858 120.123C897.271 121.986 897.722 123.152 899.212 123.622L897.742 124.387C896.78 124.084 896.446 122.545 896.741 119.771ZM983.839 78.6919L987.574 80.4848L1005.07 85.391L1004.63 92.6254L999.638 104.566L997.582 114.977L1004.29 117.092L1007.26 117.415L1010.43 119.032L1013.79 120.089L1014.55 121.56L1014.2 122.677L1012.76 125.295L1012.2 125.118L1010.88 123.472L1008.11 124.443C1008.13 125.678 1009.07 126.59 1010.94 127.177L1011.67 126.795L1012.05 127.53L1011.88 128.089C1010.01 128.695 1007.79 128.608 1005.2 127.826L1005.38 127.267L1004.64 127.65L1002.03 126.209L995.32 124.094L994.585 124.476L994.027 124.3L993.674 125.418L994.233 125.594L991.03 133.799L989.443 138.828L987.061 140.535L986.356 142.77C987.474 143.122 987.915 143.671 987.68 144.416L986.975 146.651C986.191 149.135 984.486 150.645 981.859 151.182L979.242 149.741L974.212 148.155L968.448 146.951L968.625 146.392L967.89 146.774L967.331 146.598C962.488 145.07 960.713 142.257 962.006 138.16L962.182 137.601C963.424 137.993 964.904 137.845 966.622 137.158L971.499 117.807L973.468 113.513L973.967 109.984L974.702 109.602L975.025 106.631L982.489 86.8675L981.371 86.515L981.547 85.9562L980.812 86.3387L979.695 85.9861C978.95 85.751 978.753 85.0747 979.106 83.9571L983.839 78.6919ZM1013.91 87.4104L1014.29 88.1455L1022.85 90.2311L1027.88 91.8177C1030.49 92.6404 1031.38 94.3556 1030.56 96.9633L1027.38 107.021L1026.12 109.08L1026.15 110.933L1023.56 111.345L1022.06 110.258L1019.85 111.405L1018.18 110.876C1019.38 107.058 1019.01 103.049 1017.06 98.849C1017.41 97.7314 1017.03 96.9964 1015.91 96.6438L1013.32 97.0562C1008.75 94.6591 1006.63 92.9638 1006.94 91.9704C1007.92 91.4604 1008.82 89.9016 1009.64 87.2939L1013.91 87.4104ZM998.195 95.509L998.96 96.9792L998.607 98.0968L998.224 97.3617L996.548 96.8328L996.196 97.9504L997.872 98.4793L998.607 98.0968L999.166 98.2731L999.548 99.0082L1000.28 98.6257L1000.46 98.0669L1000.78 95.0966L999.665 94.7441L998.195 95.509ZM990.232 118.802L989.703 120.478C989.598 121.674 990.912 122.703 993.644 123.565L995.291 122.241C994.604 120.523 994.456 119.042 994.848 117.801C992.084 117.475 990.545 117.808 990.232 118.802ZM980.176 127.303C981.667 127.773 982.294 128.381 982.059 129.126L980.971 130.626L981.706 130.244L982.265 130.42L982.648 131.155L983.207 131.331L984.853 130.008L985.029 129.449L983.676 125.95C981.743 126.125 980.577 126.576 980.176 127.303ZM986.882 129.419L987.264 130.154L988.382 130.506L989.852 129.741L989.47 129.006L988.352 128.654L986.882 129.419ZM1010.51 138.257L1011.07 138.433L1011.84 139.903L1011.48 141.021L1010.75 141.403L1010.57 141.962C1012.72 142.741 1013.67 144.27 1013.43 146.549L1013.99 146.725L1014.51 145.049L1014.13 144.314L1014.31 143.755L1015.04 143.372L1015.6 143.549L1015.98 144.284L1015.46 145.96L1014.72 146.343L1015.1 147.078L1014.22 149.872L1012.08 154.724L1011.58 158.253L1008.81 159.225L1005.46 158.167L1000.61 156.021L996.52 155.346L997.225 153.111L989.844 155.083C989.006 154.819 989.153 152.407 990.284 147.849L1001.93 145.993C1002.55 146.189 1002.88 147.728 1002.93 150.61C1006.03 151.178 1007.69 151.089 1007.93 150.344C1008.87 147.364 1008.22 145.521 1005.99 144.816L1005.43 144.639L1005.78 143.522L1008.51 140.698L1009.63 141.051L1009.28 142.168L1009.84 142.344L1010.37 140.668L1010.51 138.257ZM1085.28 112.897L1088.46 114.514L1089.19 114.131L1089.75 114.307L1092.4 117.6L1095.37 117.923C1093.84 122.766 1092.14 124.893 1090.28 124.306C1088.23 123.659 1086.59 124.983 1085.34 128.277L1084.84 131.806L1083.58 133.865L1083.43 136.276L1082.7 136.659L1082.52 137.218L1082.2 140.188L1080.94 142.247L1080.79 144.658L1077.94 151.746L1077.76 152.305L1077.2 152.129C1073.06 146.008 1071.38 141.588 1072.17 138.867L1073.23 135.515L1077.26 132.484L1076.87 131.749L1075.2 131.221L1074.67 132.897L1073.9 131.427L1074.26 130.309L1074.82 130.485L1075.49 126.398L1077.08 121.369L1074.08 119.193L1071.67 119.047C1070.92 118.812 1070.72 118.135 1071.08 117.018C1072.72 111.803 1075.03 109.665 1078.02 110.605L1085.28 112.897ZM1059.4 105.346C1062.55 109.65 1063.6 113.463 1062.55 116.785C1063.67 117.138 1063.99 118.059 1063.52 119.549C1064.66 121.137 1065.85 126.43 1067.11 135.428C1070.91 148.606 1073.17 158.947 1073.91 166.451L1073.18 166.833L1072.86 169.804L1072.33 171.48L1071.59 171.862L1071.97 172.598L1071.8 173.156C1071.6 173.777 1069.01 174.19 1064.03 174.394L1063.68 175.511C1065.17 175.981 1065.8 176.589 1065.56 177.334L1064.83 177.716L1064.27 177.54C1063.15 177.187 1062.77 176.452 1063.12 175.335L1061.45 174.806C1061.09 175.924 1059.24 175.953 1055.89 174.896C1056.12 174.151 1055.31 173.484 1053.45 172.897L1053.77 169.926C1054.89 170.279 1055.62 169.897 1055.98 168.779L1058.59 170.219C1061.19 168.17 1063.09 167.336 1064.3 167.718L1064.65 166.6L1064.77 162.336L1063.65 161.984L1063.3 163.101L1061.62 162.572C1062.44 159.965 1062.11 158.426 1060.62 157.956L1059.15 158.721L1058.38 157.251L1056.59 160.986L1058.3 163.367L1058.12 163.926L1057 163.574L1058.74 167.808L1058.56 168.367L1058 168.19L1055.92 165.074L1054.45 165.839L1055.56 166.191L1055.21 167.309L1053.36 167.339L1047.76 142.226L1049.97 141.079C1047.73 140.374 1046.85 139.276 1047.32 137.786C1043.89 121.513 1041.27 112.29 1039.46 110.116C1037.5 108.541 1036.62 107.444 1036.81 106.823L1036.99 106.264L1039.61 107.704L1041.46 107.674L1042.17 105.439L1036.78 104.97L1036.4 104.235L1036.58 103.676L1037.31 103.294L1034.52 102.412L1035.22 100.177C1035.83 99.138 1037.49 99.0493 1040.22 99.9112L1040.61 100.646L1041.17 100.823L1043.58 100.969L1044.69 101.322L1045.46 102.792L1043.81 104.115C1043.51 105.078 1044.58 106.234 1047.02 107.585L1047.37 106.467L1046.78 104.438L1047.31 102.762L1059.4 105.346ZM1042.05 109.703L1042.43 110.438L1042.99 110.615L1043.73 110.232L1044.25 108.556L1042.05 109.703ZM1048.58 112.378L1047.87 114.613L1049.37 115.7L1049.55 115.142L1048.58 112.378ZM1044.49 111.702L1044.31 112.261C1044.08 113.006 1044.71 113.614 1046.2 114.084L1045.84 115.201L1046.96 115.554L1047.31 114.436L1044.49 111.702ZM1037.11 113.675L1038.23 114.027C1038.72 114.184 1038.94 116.095 1038.88 119.762L1040.23 123.261C1040 124.006 1039.13 124.143 1037.64 123.673L1037.47 124.232C1039.7 124.937 1040.7 125.662 1040.47 126.407L1039.2 128.466L1039.58 129.201L1040.14 129.377L1041.61 128.612C1044.47 133.848 1044.52 140.827 1041.77 149.55L1040 155.138C1039.42 157.001 1040.56 159.206 1043.45 161.754L1043.09 162.872L1042.01 164.372L1041.51 167.901L1041.33 168.459L1039.68 169.783L1037.07 168.343L1032.98 167.668L1033.15 167.109L1032.42 167.491L1027.39 165.905L1018.63 162.525L1016.21 162.379C1015.56 160.567 1015.65 158.342 1016.48 155.703C1018.48 155.105 1020.33 155.075 1022.04 155.614L1023.45 151.143L1027.47 148.113L1025.97 147.026L1024.5 147.791L1024.12 147.056L1028.88 131.968L1029.91 126.763L1033.14 120.41L1032.76 119.675L1032.94 119.116C1034.97 115.253 1036.37 113.44 1037.11 113.675ZM1049.7 124.405L1049.52 124.964C1049.51 126.292 1050.02 127.272 1051.05 127.904L1052.7 126.58L1051.93 125.11L1049.7 124.405ZM1035.94 132.966L1035.97 134.819L1034.85 134.466L1035.62 135.936L1038.59 136.259L1039.12 134.583L1037.97 132.378L1035.94 132.966ZM1050 142.931L1049.82 143.49L1049.68 145.902L1050.79 146.254L1052.26 145.489C1052.53 144.651 1051.77 143.799 1050 142.931ZM1068.38 156.719L1068.21 157.277L1068.97 158.747L1070.44 157.983L1070.62 157.424L1068.38 156.719ZM1028.74 157.729L1028.18 157.553L1027.8 156.818L1027.24 156.642L1026.89 157.759C1028.38 158.229 1028.83 159.396 1028.24 161.258L1030.68 163.257L1033.45 162.286L1033.8 161.168L1033.77 159.316L1034.51 158.933L1032.06 156.934L1028.74 157.729Z" fill="#A6FF61"/>
</svg>
