<svg width="1220" height="368" viewBox="0 0 1220 368" fill="none" xmlns="http://www.w3.org/2000/svg">
<path d="M79.625 79.2188L81.5 81.0938L79.625 82.9688V86.7188L83.375 90.4688H85.25V82.9688H87.125L90.875 86.7188V97.9688L70.25 107.344C64 113.906 60.875 120.781 60.875 127.969C60.875 137.969 78.375 146.094 113.375 152.344C131.708 158.594 146.708 169.219 158.375 184.219C173.375 197.24 180.875 213.49 180.875 232.969C180.875 245.885 173.375 261.51 158.375 279.844C140.875 293.594 128.375 300.469 120.875 300.469H105.875L98.375 292.969V281.719L124.625 266.719C124.625 262.969 125.875 261.094 128.375 261.094H132.125L130.25 262.969V264.844H135.875V261.094H132.125V259.219H137.75L139.625 264.844H141.5C148.271 264.844 152.646 262.344 154.625 257.344V255.469L152.75 257.344H149V255.469L150.875 249.844L149 247.969H143.375L132.125 251.719C132.125 235.469 123.375 227.344 105.875 227.344L51.5 212.344C24 197.24 10.25 174.115 10.25 142.969V137.344C10.25 112.76 25.25 94.0104 55.25 81.0938L57.125 88.5938H62.75L66.5 84.8438L64.625 82.9688L79.625 79.2188ZM120.875 79.2188V81.0938L117.125 90.4688L119 96.0938H120.875L126.5 92.3438L132.125 94.2188V92.3438L128.375 82.9688L130.25 81.0938H132.125C132.125 84.8438 134.625 86.7188 139.625 86.7188L141.5 97.9688H143.375C143.375 94.2188 147.75 92.3438 156.5 92.3438C156.5 85.5729 159.625 81.1979 165.875 79.2188C173.375 80.4688 177.125 82.3438 177.125 84.8438V92.3438C177.125 101.51 175.25 106.51 171.5 107.344H167.75L165.875 105.469H164L156.5 120.469C159 120.469 160.25 122.344 160.25 126.094H162.125C162.125 123.281 166.5 118.281 175.25 111.094L177.125 112.969V114.844C173.896 114.844 171.396 119.219 169.625 127.969H171.5L177.125 126.094L179 127.969V129.844C173.792 138.594 170.042 142.969 167.75 142.969H165.875C143.167 117.969 124.417 105.469 109.625 105.469C104.625 105.469 102.125 104.219 102.125 101.719C102.125 87.9688 105.25 81.0938 111.5 81.0938L120.875 79.2188ZM92.75 184.219L94.625 189.844C98.375 188.906 101.5 184.531 104 176.719L102.125 174.844C97.125 174.844 94.625 177.969 94.625 184.219H92.75ZM122.75 178.594V184.219H126.5V178.594H122.75ZM120.875 195.469V197.344H126.5V199.219L122.75 204.844H124.625C127.229 204.323 129.729 201.198 132.125 195.469L126.5 191.719H124.625L120.875 195.469ZM30.875 232.969C34.625 234.219 36.5 237.969 36.5 244.219V249.844C41.8125 249.844 51.8125 256.094 66.5 268.594C78.7917 273.385 85.0417 277.135 85.25 279.844V291.094C85.25 294.115 79 295.99 66.5 296.719L60.875 292.969L51.5 294.844L25.25 287.344C22.3333 294.844 19.8333 298.594 17.75 298.594H12.125C8.375 298.594 6.5 291.719 6.5 277.969V240.469C6.5 237.656 9.625 235.781 15.875 234.844L19.625 238.594C20.875 234.844 24.625 232.969 30.875 232.969ZM21.5 246.094L25.25 251.719L30.875 249.844V253.594H34.625V249.844L21.5 244.219V246.094ZM332.125 301.25C314.625 301.25 305.875 295 305.875 282.5C313.375 275 321.5 271.25 330.25 271.25H337.75L341.5 261.875L335.875 256.25L337.75 254.375L335.875 252.5C338.375 242.604 340.25 211.354 341.5 158.75C341.5 125.833 330.25 107.083 307.75 102.5L305.875 83.75C309.312 77.5 314.312 74.375 320.875 74.375C364.312 74.375 396.188 105.625 416.5 168.125V170C410.25 174.375 407.125 180.625 407.125 188.75C410.875 188.75 412.75 191.25 412.75 196.25H416.5C416.5 207.292 412.75 214.167 405.25 216.875L403.375 215H401.5L395.875 224.375L407.125 235.625C404.208 244.479 399.208 253.229 392.125 261.875H390.25C390.25 254.792 386.5 249.792 379 246.875H373.375C373.375 252.708 372.125 257.083 369.625 260V263.75C369.625 266.25 373.375 268.125 380.875 269.375L386.5 267.5V269.375L364 288.125H360.25L354.625 284.375H352.75L349 288.125L350.875 290L332.125 301.25ZM281.5 301.25H279.625L270.25 291.875L268.375 293.75V295.625L270.25 297.5L264.625 299.375C229.625 291.875 212.125 282.5 212.125 271.25C203.688 271.25 197.438 243.75 193.375 188.75L195.25 186.875V185L193.375 179.375C197.542 159.792 203.792 140.417 212.125 121.25L221.5 123.125H225.25L229 119.375L225.25 108.125C242.229 84.375 261.604 72.5 283.375 72.5H287.125L296.5 87.5C296.5 93.4375 289.625 100.312 275.875 108.125C271.188 108.125 266.812 123.75 262.75 155L264.625 168.125L262.75 213.125V218.75L264.625 231.875H262.75C262.75 260.625 271.5 275 289 275L292.75 290V293.75L281.5 301.25ZM253.375 291.875L249.625 288.125H247.75V291.875H253.375ZM364 278.75V276.875L360.25 273.125V278.75H364ZM395.875 248.75V243.125L392.125 246.875V248.75H395.875ZM365.875 241.25V233.75H364V237.5H358.375V235.625L362.125 230V224.375L354.625 215L352.75 216.875H347.125L345.25 215H343.375V216.875L345.25 226.25L343.375 228.125C345.875 228.125 348.375 231.875 350.875 239.375C357.125 239.375 360.25 240.625 360.25 243.125L365.875 241.25ZM225.25 237.5V231.875L221.5 228.125H217.75C219.312 234.375 221.188 237.5 223.375 237.5H225.25ZM260.875 222.5L257.125 218.75H255.25V222.5H260.875ZM386.5 190.625C384.104 184.896 381.604 181.771 379 181.25H369.625V185H375.25V186.875L371.5 192.5V194.375L375.25 198.125C382.75 198.125 386.5 195.625 386.5 190.625ZM360.25 190.625V188.75L354.625 183.125L352.75 188.75L354.625 190.625H360.25ZM217.75 183.125L223.375 175.625H219.625V173.75L221.5 171.875V170L219.625 168.125H215.875C215.875 171.146 214 174.271 210.25 177.5L217.75 183.125ZM247.75 147.5L249.625 145.625V143.75L247.75 141.875H240.25L247.75 147.5ZM345.25 136.25L352.75 121.25H343.375V125H341.5L343.375 126.875V128.75L341.5 136.25H345.25ZM457.125 77.3438L464.625 79.2188L472.125 77.3438C478.375 77.3438 481.5 78.5938 481.5 81.0938L483.375 79.2188H502.125L519 77.3438L528.375 79.2188V97.9688L524.625 101.719L522.75 96.0938H519L513.375 101.719L515.25 103.594C511.5 104.844 509.625 108.594 509.625 114.844V161.719L507.75 172.969L509.625 174.844V176.719L507.75 186.094L509.625 187.969L507.75 197.344V208.594L509.625 257.344L500.25 274.219L502.125 276.094H504L505.875 274.219H507.75L515.25 277.969L528.375 274.219V285.469L524.625 289.219V285.469H520.875V287.344L522.75 289.219V291.094C518.688 294.01 513.062 295.885 505.875 296.719L504 294.844L470.25 298.594L466.5 294.844L462.75 298.594H445.875L436.5 300.469C431.5 294.74 429 285.99 429 274.219V268.594H444V264.844H447.75C447.75 268.594 453.375 270.469 464.625 270.469C464.625 272.969 462.75 274.219 459 274.219V276.094C465.25 276.094 468.375 277.344 468.375 279.844L460.875 281.719V285.469L462.75 283.594H466.5L464.625 292.969L474 291.094L472.125 289.219V287.344L481.5 283.594L479.625 274.219V266.719L483.375 261.094L481.5 253.594H479.625V257.344H477.75L475.875 255.469H474L472.125 261.094H468.375V255.469H453.375L445.875 261.094H444V257.344L445.875 195.469L444 152.344L445.875 133.594L444 124.219L445.875 126.094H449.625V124.219H445.875V116.719L449.625 109.219L457.125 114.844C457.125 108.073 460.875 103.073 468.375 99.8438V97.9688C465.875 97.9688 464.625 96.0938 464.625 92.3438L462.75 90.4688H453.375C451.5 90.4688 449.625 92.9688 447.75 97.9688L449.625 105.469V107.344H444V96.0938C441.5 96.0938 440.25 98.5938 440.25 103.594L438.375 105.469H432.75L429 101.719V96.0938C429 83.5938 436.5 77.3438 451.5 77.3438H457.125ZM451.5 154.219V156.094C451.5 159.844 454 161.719 459 161.719C462.333 160.885 465.458 157.76 468.375 152.344L455.25 150.469L451.5 154.219ZM451.5 204.844V206.719L453.375 216.094H455.25L464.625 208.594V201.094H455.25L451.5 204.844ZM580.875 214.219H582.75L603.375 221.719L599.625 253.594V255.469L601.5 262.969L599.625 270.469V283.594C596.708 289.844 593.583 292.969 590.25 292.969L588.375 291.094L560.25 294.844V292.969L558.375 294.844H549C542.333 294.844 537.958 292.344 535.875 287.344V272.344L541.5 266.719V268.594C566.5 260.99 579 250.365 579 236.719L577.125 234.844V232.969L580.875 214.219ZM565.875 274.219C570.146 274.219 574.521 277.344 579 283.594H580.875V277.969L573.375 270.469H569.625L565.875 274.219ZM560.25 281.719H564L567.75 277.969V276.094H565.875L560.25 281.719ZM502.125 285.469V291.094H504L507.75 287.344L505.875 285.469H502.125ZM664.156 75H697.906L699.781 76.875L701.656 75C720.302 75 732.177 80.625 737.281 91.875L756.031 159.375L750.406 165C750.406 172.292 755.406 177.917 765.406 181.875C781.344 235.625 793.844 262.5 802.906 262.5C810.406 265 814.156 267.5 814.156 270C814.156 283.75 807.906 290.625 795.406 290.625L786.031 288.75C757.802 293.75 734.677 296.25 716.656 296.25C710.406 289.792 707.281 282.292 707.281 273.75C718.531 267.708 724.156 263.333 724.156 260.625L684.781 153.75L677.281 133.125C677.594 128.125 678.844 125.625 681.031 125.625C681.031 121.875 678.531 120 673.531 120C670.406 117.812 667.281 112.188 664.156 103.125C655.406 100.625 651.031 98.125 651.031 95.625V88.125C651.031 79.375 655.406 75 664.156 75ZM690.406 90H692.281L694.156 88.125H696.031C696.656 93.125 698.531 95.625 701.656 95.625L703.531 93.75V91.875C698.531 91.875 696.031 90 696.031 86.25H699.781V82.5H697.906L690.406 90ZM722.281 123.75C722.281 127.5 720.406 129.375 716.656 129.375V135C720.823 135 725.198 136.875 729.781 140.625L733.531 131.25V129.375C731.031 124.375 727.281 121.875 722.281 121.875V123.75ZM705.406 140.625V144.375L711.031 146.25V144.375L707.281 140.625H705.406ZM701.656 148.125V150L707.281 151.875V148.125H701.656ZM709.156 148.125V151.875L714.781 153.75V155.625L712.906 157.5V159.375H718.531L720.406 153.75L716.656 150L714.781 151.875H711.031V148.125H709.156ZM664.156 148.125H667.906C672.906 148.125 679.156 161.25 686.656 187.5C680.406 195 673.531 198.75 666.031 198.75L664.156 200.625V206.25C666.656 206.25 667.906 209.375 667.906 215.625L669.781 213.75H692.281C701.031 213.75 705.406 219.375 705.406 230.625L699.781 236.25L701.656 241.875L699.781 243.75H694.156L682.906 241.875L671.656 245.625H666.031L658.531 264.375C671.031 267.708 677.281 274.583 677.281 285L671.656 288.75L669.781 286.875V288.75L671.656 290.625V292.5L664.156 296.25L647.281 294.375L641.656 296.25L626.656 294.375L613.531 296.25C602.073 296.25 595.198 288.125 592.906 271.875C592.906 268.125 597.281 266.25 606.031 266.25C623.531 255.312 632.281 242.812 632.281 228.75C639.781 213.75 647.281 194.375 654.781 170.625L656.656 168.75H658.531L656.656 166.875V165C658.74 153.75 661.24 148.125 664.156 148.125ZM690.406 163.125C692.177 169.375 696.552 172.5 703.531 172.5H711.031V163.125L703.531 153.75L690.406 163.125ZM726.031 193.125L729.781 202.5H731.656C731.656 200 733.531 198.75 737.281 198.75V196.875L726.031 193.125ZM658.531 204.375V210H664.156L658.531 204.375ZM671.656 219.375V223.125L677.281 221.25V219.375H671.656ZM641.656 234.375L656.656 241.875C658.531 236.875 660.406 234.375 662.281 234.375L664.156 236.25L666.031 234.375C663.427 226.875 658.427 223.125 651.031 223.125C644.781 225.104 641.656 228.854 641.656 234.375ZM752.281 234.375V236.25L759.781 243.75H765.406L767.281 232.5L765.406 230.625H756.031L752.281 234.375ZM628.531 275.625H636.031L632.281 271.875L628.531 275.625ZM972.75 79.6875L984 81.5625L985.875 79.6875H987.75L999 87.1875L1008.38 85.3125C1008.38 101.562 1005.25 109.688 999 109.688C992.125 109.688 988.375 115.312 987.75 126.562L989.625 137.812L987.75 145.312L989.625 152.812L987.75 154.688V156.562L989.625 165.938L987.75 173.438L989.625 180.938L987.75 205.312V207.188H985.875C967.333 192.5 957.958 180.625 957.75 171.562V160.312L967.125 147.188L965.25 145.312H959.625V150.938L955.875 147.188V143.438H957.75L955.875 130.312V113.438L944.625 109.688L937.125 111.562C934.625 111.562 933.375 109.688 933.375 105.938C933.375 88.4375 938.375 79.6875 948.375 79.6875H972.75ZM886.5 81.5625C900.25 91.6667 907.125 102.292 907.125 113.438C910.875 113.438 912.75 115.938 912.75 120.938C917.75 124.688 926.5 139.688 939 165.938C963.271 202.5 980.146 231.875 989.625 254.062L987.75 255.938L989.625 265.312V270.938L987.75 272.812L989.625 274.688V276.562C989.625 278.646 982.125 282.396 967.125 287.812V291.562C972.125 291.562 974.625 292.812 974.625 295.312L972.75 297.188H970.875C967.125 297.188 965.25 295.312 965.25 291.562H959.625C959.625 295.312 954 297.188 942.75 297.188C942.75 294.688 939.625 293.438 933.375 293.438L931.5 284.062C935.25 284.062 937.125 282.188 937.125 278.438L946.5 280.312C952.438 271.562 957.438 267.188 961.5 267.188V263.438L957.75 250.312H954V254.062H948.375C948.375 245.312 945.875 240.938 940.875 240.938L937.125 244.688L933.375 240.938L931.5 254.062L939 259.688V261.562H935.25L944.625 272.812V274.688H942.75L933.375 267.188L929.625 270.938H933.375V274.688L927.75 276.562L886.5 205.312L892.125 199.688C884.625 199.688 880.875 197.188 880.875 192.188C854.729 145.833 837.854 120.208 830.25 115.312C822.75 112.396 819 109.896 819 107.812V105.938L828.375 107.812L834 105.938V98.4375L817.125 102.188L815.25 100.312V98.4375L817.125 96.5625H807.75V89.0625C808.583 85.3125 813.583 83.4375 822.75 83.4375L824.625 85.3125H826.5L834 83.4375H837.75L841.5 87.1875L837.75 92.8125C837.75 96.0417 842.125 98.5417 850.875 100.312V96.5625L847.125 90.9375V85.3125L886.5 81.5625ZM837.75 111.562L839.625 113.438H841.5L843.375 111.562V105.938L837.75 111.562ZM860.25 113.438V120.938L865.875 122.812V120.938L860.25 113.438ZM847.125 115.312V117.188C847.125 119.688 849.625 120.938 854.625 120.938V124.688H858.375V120.938L847.125 115.312ZM826.5 128.438H830.25C831.917 128.438 834.417 134.062 837.75 145.312L845.25 154.688C845.25 157.188 842.75 158.438 837.75 158.438V160.312C845.25 160.312 849 161.562 849 164.062L847.125 171.562L849 173.438H850.875L854.625 169.688C868.375 182.917 875.25 204.167 875.25 233.438V252.188C875.25 258.438 880.875 264.062 892.125 269.062V272.812L890.25 278.438L892.125 289.688V291.562L888.375 297.188L879 295.312L865.875 297.188V295.312L864 297.188H847.125L817.125 295.312L809.625 297.188C805.875 292.292 804 285.417 804 276.562C809.521 272.812 815.146 270.938 820.875 270.938V255.938L830.25 242.812L824.625 240.938L820.875 244.688L819 242.812V192.188L817.125 175.312L820.875 152.812L819 150.938V149.062C821.5 135.312 824 128.438 826.5 128.438ZM875.25 149.062V150.938C876.5 155 879 157.5 882.75 158.438L886.5 152.812L882.75 149.062H875.25ZM841.5 188.438L843.375 194.062H839.625L843.375 197.812L852.75 195.938V190.312L847.125 184.688L841.5 188.438ZM894 205.312V207.188L895.875 214.688H899.625L903.375 210.938C903.375 208.125 900.25 206.25 894 205.312ZM963.375 229.688V231.562L967.125 235.312L970.875 231.562V229.688H963.375ZM843.375 270.938H841.5L839.625 269.062H837.75V272.812C842.75 272.812 845.25 275.938 845.25 282.188L854.625 285.938L862.125 280.312V276.562L860.25 270.938L862.125 269.062L852.75 265.312L843.375 270.938ZM1069.16 75H1102.91L1104.78 76.875L1106.66 75C1125.3 75 1137.18 80.625 1142.28 91.875L1161.03 159.375L1155.41 165C1155.41 172.292 1160.41 177.917 1170.41 181.875C1186.34 235.625 1198.84 262.5 1207.91 262.5C1215.41 265 1219.16 267.5 1219.16 270C1219.16 283.75 1212.91 290.625 1200.41 290.625L1191.03 288.75C1162.8 293.75 1139.68 296.25 1121.66 296.25C1115.41 289.792 1112.28 282.292 1112.28 273.75C1123.53 267.708 1129.16 263.333 1129.16 260.625L1089.78 153.75L1082.28 133.125C1082.59 128.125 1083.84 125.625 1086.03 125.625C1086.03 121.875 1083.53 120 1078.53 120C1075.41 117.812 1072.28 112.188 1069.16 103.125C1060.41 100.625 1056.03 98.125 1056.03 95.625V88.125C1056.03 79.375 1060.41 75 1069.16 75ZM1095.41 90H1097.28L1099.16 88.125H1101.03C1101.66 93.125 1103.53 95.625 1106.66 95.625L1108.53 93.75V91.875C1103.53 91.875 1101.03 90 1101.03 86.25H1104.78V82.5H1102.91L1095.41 90ZM1127.28 123.75C1127.28 127.5 1125.41 129.375 1121.66 129.375V135C1125.82 135 1130.2 136.875 1134.78 140.625L1138.53 131.25V129.375C1136.03 124.375 1132.28 121.875 1127.28 121.875V123.75ZM1110.41 140.625V144.375L1116.03 146.25V144.375L1112.28 140.625H1110.41ZM1106.66 148.125V150L1112.28 151.875V148.125H1106.66ZM1114.16 148.125V151.875L1119.78 153.75V155.625L1117.91 157.5V159.375H1123.53L1125.41 153.75L1121.66 150L1119.78 151.875H1116.03V148.125H1114.16ZM1069.16 148.125H1072.91C1077.91 148.125 1084.16 161.25 1091.66 187.5C1085.41 195 1078.53 198.75 1071.03 198.75L1069.16 200.625V206.25C1071.66 206.25 1072.91 209.375 1072.91 215.625L1074.78 213.75H1097.28C1106.03 213.75 1110.41 219.375 1110.41 230.625L1104.78 236.25L1106.66 241.875L1104.78 243.75H1099.16L1087.91 241.875L1076.66 245.625H1071.03L1063.53 264.375C1076.03 267.708 1082.28 274.583 1082.28 285L1076.66 288.75L1074.78 286.875V288.75L1076.66 290.625V292.5L1069.16 296.25L1052.28 294.375L1046.66 296.25L1031.66 294.375L1018.53 296.25C1007.07 296.25 1000.2 288.125 997.906 271.875C997.906 268.125 1002.28 266.25 1011.03 266.25C1028.53 255.312 1037.28 242.812 1037.28 228.75C1044.78 213.75 1052.28 194.375 1059.78 170.625L1061.66 168.75H1063.53L1061.66 166.875V165C1063.74 153.75 1066.24 148.125 1069.16 148.125ZM1095.41 163.125C1097.18 169.375 1101.55 172.5 1108.53 172.5H1116.03V163.125L1108.53 153.75L1095.41 163.125ZM1131.03 193.125L1134.78 202.5H1136.66C1136.66 200 1138.53 198.75 1142.28 198.75V196.875L1131.03 193.125ZM1063.53 204.375V210H1069.16L1063.53 204.375ZM1076.66 219.375V223.125L1082.28 221.25V219.375H1076.66ZM1046.66 234.375L1061.66 241.875C1063.53 236.875 1065.41 234.375 1067.28 234.375L1069.16 236.25L1071.03 234.375C1068.43 226.875 1063.43 223.125 1056.03 223.125C1049.78 225.104 1046.66 228.854 1046.66 234.375ZM1157.28 234.375V236.25L1164.78 243.75H1170.41L1172.28 232.5L1170.41 230.625H1161.03L1157.28 234.375ZM1033.53 275.625H1041.03L1037.28 271.875L1033.53 275.625Z" fill="#A6FF61"/>
</svg>
