<svg width="549" height="73" viewBox="0 0 549 73" fill="none" xmlns="http://www.w3.org/2000/svg">
<path d="M32.2266 4.1543H38.6719L39.8438 5.32617V5.91211L39.2578 6.49805L40.4297 11.7715V12.9434H39.8438L40.4297 18.8027V21.1465L39.8438 38.1387L40.4297 38.7246V39.3105L39.8438 41.6543V44.584L40.4297 48.0996L39.8438 48.6855V49.2715L41.0156 59.2324L40.4297 60.9902C44.7266 61.8691 46.875 62.6504 46.875 63.334C46.224 68.4121 45.2474 70.9512 43.9453 70.9512L31.0547 72.123L30.4688 71.5371H29.8828L27.5391 72.123C24.0234 71.8626 22.2656 71.472 22.2656 70.9512L21.6797 71.5371H19.3359C16.9922 69.4863 15.8203 67.5332 15.8203 65.6777V64.5059C19.2057 62.1621 21.9401 60.9902 24.0234 60.9902V59.2324H22.2656V57.4746L21.6797 55.1309L22.2656 54.5449V53.959L21.6797 45.7559V45.1699L22.2656 42.2402L21.6797 38.7246V28.7637L21.0938 26.4199L22.2656 18.2168L21.6797 17.6309C21.6797 9.42773 23.0469 5.32617 25.7812 5.32617L32.2266 4.1543ZM7.03125 4.74023L10.5469 5.91211H15.2344L18.1641 5.32617L18.75 5.91211V7.66992C18.75 10.6973 16.2109 14.0176 11.1328 17.6309L5.85938 28.1777C1.95312 27.7871 0 27.2012 0 26.4199V21.1465L0.585938 18.8027L0 17.0449L1.17188 12.3574L0.585938 8.8418V6.49805C0.585938 5.7168 2.73438 5.13086 7.03125 4.74023ZM43.9453 5.32617H45.1172L45.7031 5.91211L46.2891 5.32617H49.2188C51.9531 5.45638 53.3203 5.84701 53.3203 6.49805L56.25 5.91211H58.0078L58.5938 6.49805H59.1797L58.0078 25.834C55.5339 25.834 53.5807 26.6152 52.1484 28.1777L49.2188 19.9746L42.7734 11.1855V6.49805L43.9453 5.32617ZM36.3281 20.5605C36.3281 21.7324 35.9375 22.3184 35.1562 22.3184V23.4902L37.5 24.0762V20.5605H36.3281ZM33.9844 36.9668L32.2266 38.7246L31.6406 38.1387H31.0547V39.8965L31.6406 43.998H30.4688L29.8828 41.0684H29.2969C29.2969 42.6309 28.9062 43.4121 28.125 43.4121L28.7109 43.998V45.7559H28.125L27.5391 45.1699H26.9531L27.5391 42.2402V41.0684H26.3672L26.9531 41.6543V42.8262H26.3672L24.6094 41.6543L22.8516 42.2402V42.8262C23.6328 42.8262 24.0234 43.4121 24.0234 44.584H24.6094V43.4121C25.3906 43.4121 25.9766 44.584 26.3672 46.9277H27.5391V47.5137L28.125 46.9277H28.7109L29.2969 47.5137L29.8828 46.9277H30.4688C31.6406 46.9277 32.2266 47.5137 32.2266 48.6855L34.5703 47.5137V45.7559H32.2266V45.1699C33.1706 42.8262 34.3424 41.6543 35.7422 41.6543V38.7246C34.5703 38.7246 33.9844 38.334 33.9844 37.5527H35.1562V36.9668H33.9844ZM25.1953 52.2012V53.959H26.3672V53.373L25.1953 52.2012ZM23.4375 53.373L22.8516 53.959V55.1309H24.6094V54.5449L23.4375 53.373ZM27.5391 53.959L28.125 56.8887L26.3672 58.0605C26.6602 60.1113 27.832 61.4785 29.8828 62.1621H31.6406C31.6406 60.5996 32.2266 59.8184 33.3984 59.8184C33.1055 57.084 31.7383 55.7168 29.2969 55.7168V53.959H27.5391ZM66.0156 1.61523L70.1172 2.20117L88.2812 1.61523L90.0391 8.64648L88.8672 21.5371L90.0391 32.084H97.0703L100 31.498L103.516 32.084H107.031L108.203 33.2559V34.4277L107.617 37.3574H107.031L105.273 36.1855L102.93 37.9434C103.32 39.1152 104.492 39.7012 106.445 39.7012L107.031 39.1152L107.617 39.7012V40.2871C106.022 41.4264 103.874 42.0124 101.172 42.0449V41.459L100.586 42.0449L97.6562 41.459H90.625L90.0391 42.0449H89.4531V43.2168H90.0391L89.4531 52.0059V57.2793L87.6953 59.623V61.9668C88.8672 61.9668 89.4531 62.3574 89.4531 63.1387V65.4824C89.4531 68.0866 88.2812 70.0397 85.9375 71.3418L83.0078 70.7559H77.7344L71.875 71.3418V70.7559L71.2891 71.3418H70.7031C65.625 71.3418 63.0859 69.1934 63.0859 64.8965V64.3105C64.388 64.3105 65.7552 63.7246 67.1875 62.5527L66.0156 42.6309L66.6016 37.9434L66.0156 34.4277L66.6016 33.8418L66.0156 30.9121L67.1875 9.81836H66.0156V9.23242L65.4297 9.81836H64.2578C63.4766 9.81836 63.0859 9.23242 63.0859 8.06055L66.0156 1.61523ZM97.3145 0.882812L97.9004 1.46875L106.689 0.882812H111.963C114.697 0.882812 116.064 2.25 116.064 4.98438V15.5312L115.479 17.875L116.064 19.6328L113.721 20.8047L111.963 20.2188L110.205 21.9766H108.447C108.447 17.9727 106.885 14.2617 103.76 10.8438C103.76 9.67188 103.174 9.08594 102.002 9.08594L99.6582 10.2578C94.5801 9.34635 92.041 8.36979 92.041 7.32812C92.8223 6.54688 93.2129 4.78906 93.2129 2.05469L97.3145 0.882812ZM84.7656 13.334L85.9375 14.5059V15.6777L85.3516 15.0918H83.5938V16.2637H85.3516L85.9375 15.6777H86.5234L87.1094 16.2637L87.6953 15.6777V15.0918L87.1094 12.1621H85.9375L84.7656 13.334ZM84.1797 37.9434V39.7012C84.4401 40.873 86.0026 41.459 88.8672 41.459L90.0391 39.7012C88.8672 38.2689 88.2812 36.9017 88.2812 35.5996C85.5469 36.1204 84.1797 36.9017 84.1797 37.9434ZM77.1484 49.0762C78.7109 49.0762 79.4922 49.4668 79.4922 50.248L78.9062 52.0059L79.4922 51.4199H80.0781L80.6641 52.0059H81.25L82.4219 50.248V49.6621L80.0781 46.7324C78.2878 47.4811 77.3112 48.2624 77.1484 49.0762ZM84.1797 49.0762L84.7656 49.6621H85.9375L87.1094 48.4902L86.5234 47.9043H85.3516L84.1797 49.0762ZM109.375 50.3945H109.961L111.133 51.5664V52.7383L110.547 53.3242V53.9102C112.826 54.0078 114.193 55.1797 114.648 57.4258H115.234V55.668L114.648 55.082V54.4961L115.234 53.9102H115.82L116.406 54.4961V56.2539L115.82 56.8398L116.406 57.4258V60.3555L115.82 65.6289L116.406 69.1445L114.062 70.9023H110.547L105.273 70.3164L101.172 70.9023V68.5586L94.7266 72.6602C93.8477 72.6602 93.2617 70.3164 92.9688 65.6289L103.516 60.3555C104.167 60.3555 104.948 61.7227 105.859 64.457C108.984 64.0664 110.547 63.4805 110.547 62.6992C110.547 59.5742 109.375 58.0117 107.031 58.0117H106.445V56.8398L108.203 53.3242H109.375V54.4961H109.961V52.7383L109.375 50.3945ZM140.234 3.56836L143.164 4.1543L147.852 3.56836L149.023 4.74023L147.852 10.0137L148.438 10.5996L147.266 35.7949L147.852 36.3809V36.9668C147.005 41.2637 145.833 43.4121 144.336 43.4121C143.164 43.4121 142.578 43.8027 142.578 44.584H143.75V45.7559H142.578L141.992 45.1699H141.406C139.453 47.3184 138.477 49.2715 138.477 51.0293C137.305 51.0293 136.719 51.4199 136.719 52.2012C138.281 52.5918 139.062 53.373 139.062 54.5449L143.164 53.959V54.5449L145.508 53.373L147.266 53.959V57.4746C147.266 60.5345 148.828 62.2923 151.953 62.748V63.334C151.953 68.7051 150.195 71.6348 146.68 72.123L143.164 71.5371H140.234L139.648 67.4355L140.234 66.8496L137.305 66.2637C137.305 67.1426 136.523 67.9238 134.961 68.6074H133.789L133.203 68.0215L132.617 68.6074H131.445L130.859 68.0215H130.273L130.859 67.4355V65.6777H129.688V65.0918L127.93 65.6777L128.516 66.2637V67.4355H127.344L127.93 68.0215V68.6074L127.344 69.1934H126.758L126.172 67.4355H122.656C121.647 67.4355 120.866 66.0684 120.312 63.334C124.609 61.9668 126.758 60.9902 126.758 60.4043C126.758 57.6699 127.148 56.3027 127.93 56.3027V57.4746H129.102L130.273 56.3027L130.859 56.8887H131.445C132.227 56.8887 132.617 56.1074 132.617 54.5449C134.57 54.5449 135.547 54.1543 135.547 53.373L136.133 48.6855C132.617 52.071 130.859 54.2194 130.859 55.1309H130.273L127.344 52.7871V52.2012L127.93 51.6152V51.0293L127.344 50.4434H126.758C127.051 48.0996 127.441 46.9277 127.93 46.9277L127.344 43.998V35.7949L126.758 33.4512L127.344 31.1074L126.758 30.5215L127.344 27.5918L126.758 17.6309L127.344 14.1152C123.047 13.1387 120.898 12.3574 120.898 11.7715V11.1855C120.898 9.23242 122.07 6.88867 124.414 4.1543H128.516L129.102 4.74023L129.688 4.1543H136.719L140.234 3.56836ZM152.295 3.66602H154.053L157.568 4.25195L158.154 3.66602H158.74L164.014 4.83789L165.771 4.25195C173.193 5.87956 176.904 7.83268 176.904 10.1113C179.639 14.0176 181.006 17.3379 181.006 20.0723V24.1738C181.006 33.7441 178.076 39.9941 172.217 42.9238C169.613 44.4863 166.683 45.4629 163.428 45.8535V46.4395H171.045L171.631 47.0254L172.217 46.4395H172.803L178.076 59.916C180.518 59.916 182.275 60.8926 183.35 62.8457V68.7051C182.959 69.877 181.787 70.4629 179.834 70.4629H169.873L161.084 71.0488L160.498 70.4629V68.7051L161.084 68.1191C159.521 65.7754 158.74 64.0176 158.74 62.8457L159.326 62.2598V61.6738C157.536 60.6647 154.997 54.4147 151.709 42.9238L151.123 42.3379V41.752L151.709 38.2363L151.123 36.4785C158.154 35.6322 161.67 32.7025 161.67 27.6895L162.256 21.8301L161.67 19.4863L162.256 17.7285C162.256 14.7012 159.521 12.748 154.053 11.8691L152.295 12.4551L151.709 11.8691V11.2832L152.295 3.66602ZM130.273 10.0137V10.5996L131.445 11.7715L132.031 11.1855L131.445 8.8418L130.273 10.0137ZM175.977 35.209L176.562 35.7949H177.148V34.0371L175.977 35.209ZM123.828 69.1934H124.414V70.9512H122.656V70.3652L123.828 69.1934ZM207.227 3.56836L210.156 4.1543L214.844 3.56836L216.016 4.74023L214.844 10.0137L215.43 10.5996L214.258 35.7949L214.844 36.3809V36.9668C213.997 41.2637 212.826 43.4121 211.328 43.4121C210.156 43.4121 209.57 43.8027 209.57 44.584H210.742V45.7559H209.57L208.984 45.1699H208.398C206.445 47.3184 205.469 49.2715 205.469 51.0293C204.297 51.0293 203.711 51.4199 203.711 52.2012C205.273 52.5918 206.055 53.373 206.055 54.5449L210.156 53.959V54.5449L212.5 53.373L214.258 53.959V57.4746C214.258 60.5345 215.82 62.2923 218.945 62.748V63.334C218.945 68.7051 217.188 71.6348 213.672 72.123L210.156 71.5371H207.227L206.641 67.4355L207.227 66.8496L204.297 66.2637C204.297 67.1426 203.516 67.9238 201.953 68.6074H200.781L200.195 68.0215L199.609 68.6074H198.438L197.852 68.0215H197.266L197.852 67.4355V65.6777H196.68V65.0918L194.922 65.6777L195.508 66.2637V67.4355H194.336L194.922 68.0215V68.6074L194.336 69.1934H193.75L193.164 67.4355H189.648C188.639 67.4355 187.858 66.0684 187.305 63.334C191.602 61.9668 193.75 60.9902 193.75 60.4043C193.75 57.6699 194.141 56.3027 194.922 56.3027V57.4746H196.094L197.266 56.3027L197.852 56.8887H198.438C199.219 56.8887 199.609 56.1074 199.609 54.5449C201.562 54.5449 202.539 54.1543 202.539 53.373L203.125 48.6855C199.609 52.071 197.852 54.2194 197.852 55.1309H197.266L194.336 52.7871V52.2012L194.922 51.6152V51.0293L194.336 50.4434H193.75C194.043 48.0996 194.434 46.9277 194.922 46.9277L194.336 43.998V35.7949L193.75 33.4512L194.336 31.1074L193.75 30.5215L194.336 27.5918L193.75 17.6309L194.336 14.1152C190.039 13.1387 187.891 12.3574 187.891 11.7715V11.1855C187.891 9.23242 189.062 6.88867 191.406 4.1543H195.508L196.094 4.74023L196.68 4.1543H203.711L207.227 3.56836ZM219.287 3.66602H221.045L224.561 4.25195L225.146 3.66602H225.732L231.006 4.83789L232.764 4.25195C240.186 5.87956 243.896 7.83268 243.896 10.1113C246.631 14.0176 247.998 17.3379 247.998 20.0723V24.1738C247.998 33.7441 245.068 39.9941 239.209 42.9238C236.605 44.4863 233.675 45.4629 230.42 45.8535V46.4395H238.037L238.623 47.0254L239.209 46.4395H239.795L245.068 59.916C247.51 59.916 249.268 60.8926 250.342 62.8457V68.7051C249.951 69.877 248.779 70.4629 246.826 70.4629H236.865L228.076 71.0488L227.49 70.4629V68.7051L228.076 68.1191C226.514 65.7754 225.732 64.0176 225.732 62.8457L226.318 62.2598V61.6738C224.528 60.6647 221.989 54.4147 218.701 42.9238L218.115 42.3379V41.752L218.701 38.2363L218.115 36.4785C225.146 35.6322 228.662 32.7025 228.662 27.6895L229.248 21.8301L228.662 19.4863L229.248 17.7285C229.248 14.7012 226.514 12.748 221.045 11.8691L219.287 12.4551L218.701 11.8691V11.2832L219.287 3.66602ZM197.266 10.0137V10.5996L198.438 11.7715L199.023 11.1855L198.438 8.8418L197.266 10.0137ZM242.969 35.209L243.555 35.7949H244.141V34.0371L242.969 35.209ZM190.82 69.1934H191.406V70.9512H189.648V70.3652L190.82 69.1934ZM297.656 72.9531C292.188 72.9531 289.453 71 289.453 67.0938C291.797 64.75 294.336 63.5781 297.07 63.5781H299.414L300.586 60.6484L298.828 58.8906L299.414 58.3047L298.828 57.7188C299.609 54.6263 300.195 44.8607 300.586 28.4219C300.586 18.1354 297.07 12.276 290.039 10.8438L289.453 4.98438C290.527 3.03125 292.09 2.05469 294.141 2.05469C307.715 2.05469 317.676 11.8203 324.023 31.3516V31.9375C322.07 33.3047 321.094 35.2578 321.094 37.7969C322.266 37.7969 322.852 38.5781 322.852 40.1406H324.023C324.023 43.5911 322.852 45.7396 320.508 46.5859L319.922 46H319.336L317.578 48.9297L321.094 52.4453C320.182 55.2122 318.62 57.9466 316.406 60.6484H315.82C315.82 58.4349 314.648 56.8724 312.305 55.9609H310.547C310.547 57.7839 310.156 59.151 309.375 60.0625V61.2344C309.375 62.0156 310.547 62.6016 312.891 62.9922L314.648 62.4062V62.9922L307.617 68.8516H306.445L304.688 67.6797H304.102L302.93 68.8516L303.516 69.4375L297.656 72.9531ZM281.836 72.9531H281.25L278.32 70.0234L277.734 70.6094V71.1953L278.32 71.7812L276.562 72.3672C265.625 70.0234 260.156 67.0938 260.156 63.5781C257.52 63.5781 255.566 54.9844 254.297 37.7969L254.883 37.2109V36.625L254.297 34.8672C255.599 28.7474 257.552 22.6927 260.156 16.7031L263.086 17.2891H264.258L265.43 16.1172L264.258 12.6016C269.564 5.17969 275.618 1.46875 282.422 1.46875H283.594L286.523 6.15625C286.523 8.01172 284.375 10.1602 280.078 12.6016C278.613 12.6016 277.246 17.4844 275.977 27.25L276.562 31.3516L275.977 45.4141V47.1719L276.562 51.2734H275.977C275.977 60.2578 278.711 64.75 284.18 64.75L285.352 69.4375V70.6094L281.836 72.9531ZM273.047 70.0234L271.875 68.8516H271.289V70.0234H273.047ZM307.617 65.9219V65.3359L306.445 64.1641V65.9219H307.617ZM317.578 56.5469V54.7891L316.406 55.9609V56.5469H317.578ZM308.203 54.2031V51.8594H307.617V53.0312H305.859V52.4453L307.031 50.6875V48.9297L304.688 46L304.102 46.5859H302.344L301.758 46H301.172V46.5859L301.758 49.5156L301.172 50.1016C301.953 50.1016 302.734 51.2734 303.516 53.6172C305.469 53.6172 306.445 54.0078 306.445 54.7891L308.203 54.2031ZM264.258 53.0312V51.2734L263.086 50.1016H261.914C262.402 52.0547 262.988 53.0312 263.672 53.0312H264.258ZM275.391 48.3438L274.219 47.1719H273.633V48.3438H275.391ZM314.648 38.3828C313.9 36.5924 313.118 35.6159 312.305 35.4531H309.375V36.625H311.133V37.2109L309.961 38.9688V39.5547L311.133 40.7266C313.477 40.7266 314.648 39.9453 314.648 38.3828ZM306.445 38.3828V37.7969L304.688 36.0391L304.102 37.7969L304.688 38.3828H306.445ZM261.914 36.0391L263.672 33.6953H262.5V33.1094L263.086 32.5234V31.9375L262.5 31.3516H261.328C261.328 32.2956 260.742 33.2721 259.57 34.2812L261.914 36.0391ZM271.289 24.9062L271.875 24.3203V23.7344L271.289 23.1484H268.945L271.289 24.9062ZM301.758 21.3906L304.102 16.7031H301.172V17.875H300.586L301.172 18.4609V19.0469L300.586 21.3906H301.758ZM347.852 3.56836L350.781 4.1543L355.469 3.56836L356.641 4.74023L355.469 10.0137L356.055 10.5996L354.883 35.7949L355.469 36.3809V36.9668C354.622 41.2637 353.451 43.4121 351.953 43.4121C350.781 43.4121 350.195 43.8027 350.195 44.584H351.367V45.7559H350.195L349.609 45.1699H349.023C347.07 47.3184 346.094 49.2715 346.094 51.0293C344.922 51.0293 344.336 51.4199 344.336 52.2012C345.898 52.5918 346.68 53.373 346.68 54.5449L350.781 53.959V54.5449L353.125 53.373L354.883 53.959V57.4746C354.883 60.5345 356.445 62.2923 359.57 62.748V63.334C359.57 68.7051 357.812 71.6348 354.297 72.123L350.781 71.5371H347.852L347.266 67.4355L347.852 66.8496L344.922 66.2637C344.922 67.1426 344.141 67.9238 342.578 68.6074H341.406L340.82 68.0215L340.234 68.6074H339.062L338.477 68.0215H337.891L338.477 67.4355V65.6777H337.305V65.0918L335.547 65.6777L336.133 66.2637V67.4355H334.961L335.547 68.0215V68.6074L334.961 69.1934H334.375L333.789 67.4355H330.273C329.264 67.4355 328.483 66.0684 327.93 63.334C332.227 61.9668 334.375 60.9902 334.375 60.4043C334.375 57.6699 334.766 56.3027 335.547 56.3027V57.4746H336.719L337.891 56.3027L338.477 56.8887H339.062C339.844 56.8887 340.234 56.1074 340.234 54.5449C342.188 54.5449 343.164 54.1543 343.164 53.373L343.75 48.6855C340.234 52.071 338.477 54.2194 338.477 55.1309H337.891L334.961 52.7871V52.2012L335.547 51.6152V51.0293L334.961 50.4434H334.375C334.668 48.0996 335.059 46.9277 335.547 46.9277L334.961 43.998V35.7949L334.375 33.4512L334.961 31.1074L334.375 30.5215L334.961 27.5918L334.375 17.6309L334.961 14.1152C330.664 13.1387 328.516 12.3574 328.516 11.7715V11.1855C328.516 9.23242 329.688 6.88867 332.031 4.1543H336.133L336.719 4.74023L337.305 4.1543H344.336L347.852 3.56836ZM359.912 3.66602H361.67L365.186 4.25195L365.771 3.66602H366.357L371.631 4.83789L373.389 4.25195C380.811 5.87956 384.521 7.83268 384.521 10.1113C387.256 14.0176 388.623 17.3379 388.623 20.0723V24.1738C388.623 33.7441 385.693 39.9941 379.834 42.9238C377.23 44.4863 374.3 45.4629 371.045 45.8535V46.4395H378.662L379.248 47.0254L379.834 46.4395H380.42L385.693 59.916C388.135 59.916 389.893 60.8926 390.967 62.8457V68.7051C390.576 69.877 389.404 70.4629 387.451 70.4629H377.49L368.701 71.0488L368.115 70.4629V68.7051L368.701 68.1191C367.139 65.7754 366.357 64.0176 366.357 62.8457L366.943 62.2598V61.6738C365.153 60.6647 362.614 54.4147 359.326 42.9238L358.74 42.3379V41.752L359.326 38.2363L358.74 36.4785C365.771 35.6322 369.287 32.7025 369.287 27.6895L369.873 21.8301L369.287 19.4863L369.873 17.7285C369.873 14.7012 367.139 12.748 361.67 11.8691L359.912 12.4551L359.326 11.8691V11.2832L359.912 3.66602ZM337.891 10.0137V10.5996L339.062 11.7715L339.648 11.1855L339.062 8.8418L337.891 10.0137ZM383.594 35.209L384.18 35.7949H384.766V34.0371L383.594 35.209ZM331.445 69.1934H332.031V70.9512H330.273V70.3652L331.445 69.1934ZM397.852 2.54297L410.156 3.71484V3.12891L410.742 3.71484L420.117 2.54297C422.461 2.83594 423.633 3.22656 423.633 3.71484L424.219 3.12891H424.805L425.977 4.30078V8.40234C425.977 11.3646 424.023 12.9271 420.117 13.0898L418.945 22.1719L419.531 22.7578L418.945 26.8594V36.2344L419.531 42.0938C417.415 42.875 414.681 43.2656 411.328 43.2656C411.328 42.3542 409.57 41.3776 406.055 40.3359C406.055 41.5078 405.664 42.0938 404.883 42.0938L404.297 40.3359L404.883 39.75V39.1641C404.883 38.1875 403.516 36.625 400.781 34.4766V18.9492L400.195 13.0898H400.781C400.553 11.5273 399.186 10.7461 396.68 10.7461L395.508 8.98828V6.05859L397.852 2.54297ZM402.539 43.2656V43.8516L401.367 45.0234L400.781 44.4375V43.8516L401.367 43.2656H402.539ZM412.5 44.4375L413.086 45.0234V45.6094L411.914 47.9531H412.5L414.258 46.7812C414.258 48.3438 415.625 49.125 418.359 49.125L419.531 52.6406V55.5703C416.634 55.5703 415.072 54.7891 414.844 53.2266C414.062 54.0078 411.523 54.3984 407.227 54.3984L408.398 56.1562L411.328 55.5703L412.5 57.3281L415.43 55.5703L416.016 58.5L414.258 60.8438V61.4297L414.844 60.8438H415.43C415.43 62.7969 417.188 63.7734 420.703 63.7734V64.9453H421.289V64.3594L420.703 62.6016L422.461 61.4297C424.902 62.2109 426.27 63.1875 426.562 64.3594C426.074 68.6562 425.098 70.8047 423.633 70.8047H406.055L401.367 69.6328H400.195L396.094 70.8047L395.508 70.2188V66.1172L394.922 62.6016C395.671 60.8112 396.452 59.8346 397.266 59.6719H400.781V58.5H401.367L400.781 57.9141V50.8828H401.953V47.3672C404.297 47.3672 405.469 46.7812 405.469 45.6094H407.227L409.57 47.3672C409.57 46.0326 410.547 45.056 412.5 44.4375ZM404.883 47.9531V49.125H408.398V48.5391L407.227 47.3672L404.883 47.9531ZM409.57 49.125V49.7109C410.742 49.7109 411.328 50.2969 411.328 51.4688H411.914V49.7109C411.133 49.7109 410.742 49.125 410.742 47.9531L409.57 49.125ZM417.188 50.8828L417.773 52.6406H418.359V50.8828H417.188ZM410.742 60.8438V62.6016L412.5 63.1875L413.086 62.6016V60.8438H410.742ZM411.914 67.875V68.4609L413.086 67.2891V66.7031L411.914 67.875ZM453.32 3.56836L453.906 4.1543L453.32 4.74023V5.91211L454.492 7.08398H455.078V4.74023H455.664L456.836 5.91211V9.42773L450.391 12.3574C448.438 14.4082 447.461 16.5566 447.461 18.8027C447.461 21.9277 452.93 24.4668 463.867 26.4199C469.596 28.373 474.284 31.6934 477.93 36.3809C482.617 40.4499 484.961 45.528 484.961 51.6152C484.961 55.6517 482.617 60.5345 477.93 66.2637C472.461 70.5605 468.555 72.709 466.211 72.709H461.523L459.18 70.3652V66.8496L467.383 62.1621C467.383 60.9902 467.773 60.4043 468.555 60.4043H469.727L469.141 60.9902V61.5762H470.898V60.4043H469.727V59.8184H471.484L472.07 61.5762H472.656C474.772 61.5762 476.139 60.7949 476.758 59.2324V58.6465L476.172 59.2324H475V58.6465L475.586 56.8887L475 56.3027H473.242L469.727 57.4746C469.727 52.3965 466.992 49.8574 461.523 49.8574L444.531 45.1699C435.938 40.4499 431.641 33.2233 431.641 23.4902V21.7324C431.641 14.0501 436.328 8.19076 445.703 4.1543L446.289 6.49805H448.047L449.219 5.32617L448.633 4.74023L453.32 3.56836ZM466.211 3.56836V4.1543L465.039 7.08398L465.625 8.8418H466.211L467.969 7.66992L469.727 8.25586V7.66992L468.555 4.74023L469.141 4.1543H469.727C469.727 5.32617 470.508 5.91211 472.07 5.91211L472.656 9.42773H473.242C473.242 8.25586 474.609 7.66992 477.344 7.66992C477.344 5.55404 478.32 4.18685 480.273 3.56836C482.617 3.95898 483.789 4.54492 483.789 5.32617V7.66992C483.789 10.5345 483.203 12.097 482.031 12.3574H480.859L480.273 11.7715H479.688L477.344 16.459C478.125 16.459 478.516 17.0449 478.516 18.2168H479.102C479.102 17.3379 480.469 15.7754 483.203 13.5293L483.789 14.1152V14.7012C482.78 14.7012 481.999 16.0684 481.445 18.8027H482.031L483.789 18.2168L484.375 18.8027V19.3887C482.747 22.123 481.576 23.4902 480.859 23.4902H480.273C473.177 15.6777 467.318 11.7715 462.695 11.7715C461.133 11.7715 460.352 11.3809 460.352 10.5996C460.352 6.30273 461.328 4.1543 463.281 4.1543L466.211 3.56836ZM457.422 36.3809L458.008 38.1387C459.18 37.8457 460.156 36.4785 460.938 34.0371L460.352 33.4512C458.789 33.4512 458.008 34.4277 458.008 36.3809H457.422ZM466.797 34.623V36.3809H467.969V34.623H466.797ZM466.211 39.8965V40.4824H467.969V41.0684L466.797 42.8262H467.383C468.197 42.6634 468.978 41.6868 469.727 39.8965L467.969 38.7246H467.383L466.211 39.8965ZM438.086 51.6152C439.258 52.0059 439.844 53.1777 439.844 55.1309V56.8887C441.504 56.8887 444.629 58.8418 449.219 62.748C453.06 64.2454 455.013 65.4173 455.078 66.2637V69.7793C455.078 70.7233 453.125 71.3092 449.219 71.5371L447.461 70.3652L444.531 70.9512L436.328 68.6074C435.417 70.9512 434.635 72.123 433.984 72.123H432.227C431.055 72.123 430.469 69.9746 430.469 65.6777V53.959C430.469 53.0801 431.445 52.4941 433.398 52.2012L434.57 53.373C434.961 52.2012 436.133 51.6152 438.086 51.6152ZM435.156 55.7168L436.328 57.4746L438.086 56.8887V58.0605H439.258V56.8887L435.156 55.1309V55.7168ZM521.094 4.1543H527.539L528.711 5.32617V5.91211L528.125 6.49805L529.297 11.7715V12.9434H528.711L529.297 18.8027V21.1465L528.711 38.1387L529.297 38.7246V39.3105L528.711 41.6543V44.584L529.297 48.0996L528.711 48.6855V49.2715L529.883 59.2324L529.297 60.9902C533.594 61.8691 535.742 62.6504 535.742 63.334C535.091 68.4121 534.115 70.9512 532.812 70.9512L519.922 72.123L519.336 71.5371H518.75L516.406 72.123C512.891 71.8626 511.133 71.472 511.133 70.9512L510.547 71.5371H508.203C505.859 69.4863 504.688 67.5332 504.688 65.6777V64.5059C508.073 62.1621 510.807 60.9902 512.891 60.9902V59.2324H511.133V57.4746L510.547 55.1309L511.133 54.5449V53.959L510.547 45.7559V45.1699L511.133 42.2402L510.547 38.7246V28.7637L509.961 26.4199L511.133 18.2168L510.547 17.6309C510.547 9.42773 511.914 5.32617 514.648 5.32617L521.094 4.1543ZM495.898 4.74023L499.414 5.91211H504.102L507.031 5.32617L507.617 5.91211V7.66992C507.617 10.6973 505.078 14.0176 500 17.6309L494.727 28.1777C490.82 27.7871 488.867 27.2012 488.867 26.4199V21.1465L489.453 18.8027L488.867 17.0449L490.039 12.3574L489.453 8.8418V6.49805C489.453 5.7168 491.602 5.13086 495.898 4.74023ZM532.812 5.32617H533.984L534.57 5.91211L535.156 5.32617H538.086C540.82 5.45638 542.188 5.84701 542.188 6.49805L545.117 5.91211H546.875L547.461 6.49805H548.047L546.875 25.834C544.401 25.834 542.448 26.6152 541.016 28.1777L538.086 19.9746L531.641 11.1855V6.49805L532.812 5.32617ZM525.195 20.5605C525.195 21.7324 524.805 22.3184 524.023 22.3184V23.4902L526.367 24.0762V20.5605H525.195ZM522.852 36.9668L521.094 38.7246L520.508 38.1387H519.922V39.8965L520.508 43.998H519.336L518.75 41.0684H518.164C518.164 42.6309 517.773 43.4121 516.992 43.4121L517.578 43.998V45.7559H516.992L516.406 45.1699H515.82L516.406 42.2402V41.0684H515.234L515.82 41.6543V42.8262H515.234L513.477 41.6543L511.719 42.2402V42.8262C512.5 42.8262 512.891 43.4121 512.891 44.584H513.477V43.4121C514.258 43.4121 514.844 44.584 515.234 46.9277H516.406V47.5137L516.992 46.9277H517.578L518.164 47.5137L518.75 46.9277H519.336C520.508 46.9277 521.094 47.5137 521.094 48.6855L523.438 47.5137V45.7559H521.094V45.1699C522.038 42.8262 523.21 41.6543 524.609 41.6543V38.7246C523.438 38.7246 522.852 38.334 522.852 37.5527H524.023V36.9668H522.852ZM514.062 52.2012V53.959H515.234V53.373L514.062 52.2012ZM512.305 53.373L511.719 53.959V55.1309H513.477V54.5449L512.305 53.373ZM516.406 53.959L516.992 56.8887L515.234 58.0605C515.527 60.1113 516.699 61.4785 518.75 62.1621H520.508C520.508 60.5996 521.094 59.8184 522.266 59.8184C521.973 57.084 520.605 55.7168 518.164 55.7168V53.959H516.406Z" fill="#B0D99A"/>
</svg>
