<svg width="226" height="33" viewBox="0 0 226 33" fill="none" xmlns="http://www.w3.org/2000/svg">
<path d="M15.1943 1.91943H18.0947L18.6221 2.44678V2.71045L18.3584 2.97412L18.8857 5.34717V5.87451H18.6221L18.8857 8.51123V9.56592L18.6221 17.2124L18.8857 17.4761V17.7397L18.6221 18.7944V20.1128L18.8857 21.6948L18.6221 21.9585V22.2222L19.1494 26.7046L18.8857 27.4956C20.8193 27.8911 21.7861 28.2427 21.7861 28.5503C21.4932 30.8354 21.0537 31.978 20.4678 31.978L14.667 32.5054L14.4033 32.2417H14.1396L13.085 32.5054C11.5029 32.3882 10.7119 32.2124 10.7119 31.978L10.4482 32.2417H9.39355C8.33887 31.3188 7.81152 30.4399 7.81152 29.605V29.0776C9.33496 28.0229 10.5654 27.4956 11.5029 27.4956V26.7046H10.7119V25.9136L10.4482 24.8589L10.7119 24.5952V24.3315L10.4482 20.6401V20.3765L10.7119 19.0581L10.4482 17.4761V12.9937L10.1846 11.939L10.7119 8.24756L10.4482 7.98389C10.4482 4.29248 11.0635 2.44678 12.2939 2.44678L15.1943 1.91943ZM3.85645 2.18311L5.43848 2.71045H7.54785L8.86621 2.44678L9.12988 2.71045V3.50146C9.12988 4.86377 7.9873 6.35791 5.70215 7.98389L3.3291 12.73C1.57129 12.5542 0.692383 12.2905 0.692383 11.939V9.56592L0.956055 8.51123L0.692383 7.72021L1.21973 5.61084L0.956055 4.02881V2.97412C0.956055 2.62256 1.92285 2.35889 3.85645 2.18311ZM20.4678 2.44678H20.9951L21.2588 2.71045L21.5225 2.44678H22.8408C24.0713 2.50537 24.6865 2.68115 24.6865 2.97412L26.0049 2.71045H26.7959L27.0596 2.97412H27.3232L26.7959 11.6753C25.6826 11.6753 24.8037 12.0269 24.1592 12.73L22.8408 9.03857L19.9404 5.0835V2.97412L20.4678 2.44678ZM17.04 9.30225C17.04 9.82959 16.8643 10.0933 16.5127 10.0933V10.6206L17.5674 10.8843V9.30225H17.04ZM15.9854 16.6851L15.1943 17.4761L14.9307 17.2124H14.667V18.0034L14.9307 19.8491H14.4033L14.1396 18.5308H13.876C13.876 19.2339 13.7002 19.5854 13.3486 19.5854L13.6123 19.8491V20.6401H13.3486L13.085 20.3765H12.8213L13.085 19.0581V18.5308H12.5576L12.8213 18.7944V19.3218H12.5576L11.7666 18.7944L10.9756 19.0581V19.3218C11.3271 19.3218 11.5029 19.5854 11.5029 20.1128H11.7666V19.5854C12.1182 19.5854 12.3818 20.1128 12.5576 21.1675H13.085V21.4312L13.3486 21.1675H13.6123L13.876 21.4312L14.1396 21.1675H14.4033C14.9307 21.1675 15.1943 21.4312 15.1943 21.9585L16.249 21.4312V20.6401H15.1943V20.3765C15.6191 19.3218 16.1465 18.7944 16.7764 18.7944V17.4761C16.249 17.4761 15.9854 17.3003 15.9854 16.9487H16.5127V16.6851H15.9854ZM12.0303 23.5405V24.3315H12.5576V24.0679L12.0303 23.5405ZM11.2393 24.0679L10.9756 24.3315V24.8589H11.7666V24.5952L11.2393 24.0679ZM13.085 24.3315L13.3486 25.6499L12.5576 26.1772C12.6895 27.1001 13.2168 27.7153 14.1396 28.0229H14.9307C14.9307 27.3198 15.1943 26.9683 15.7217 26.9683C15.5898 25.7378 14.9746 25.1226 13.876 25.1226V24.3315H13.085ZM46.9448 1.50195L51.9546 2.0293L52.2183 1.76562H52.4819L53.5366 2.0293H54.064V1.76562L55.3823 2.0293L59.0737 1.76562C59.6011 2.70313 59.9526 3.93359 60.1284 5.45703L59.3374 5.98438H57.7554V6.77539L57.4917 10.2031L57.7554 12.5762H57.4917L57.7554 12.8398V13.8945C57.4038 14.3047 57.228 14.9199 57.228 15.7402L55.9097 15.4766L55.646 15.7402V16.0039C56.1733 16.0039 56.437 16.1797 56.437 16.5312L56.1733 16.7949H55.9097L55.1187 16.2676L53.5366 18.9043H53.2729V19.6953L54.855 20.4863C55.8364 20.3105 56.6274 19.959 57.228 19.4316C57.6382 25.0566 58.0776 27.8691 58.5464 27.8691C59.103 27.8691 59.6304 28.3086 60.1284 29.1875H59.8647L58.2827 28.9238L58.019 29.1875V29.4512L58.5464 29.9785V30.2422L57.7554 29.7148H57.228V30.5059C57.521 31.209 58.1362 31.5605 59.0737 31.5605L59.3374 31.2969H59.6011L59.8647 31.5605V31.8242L58.8101 32.3516H58.2827V32.0879L52.4819 32.3516H47.4722L45.8901 31.2969V30.2422L46.4175 29.7148L46.6812 29.9785V29.4512L47.9995 28.1328H48.5269V28.3965L48.7905 28.6602L49.5815 28.9238L50.8999 28.3965L51.4272 28.9238L51.6909 28.1328H51.9546L52.7456 28.6602L53.0093 28.3965L53.2729 28.6602H53.5366L54.5913 27.6055L54.3276 26.2871C53.2144 26.375 52.3354 26.7266 51.6909 27.3418H51.4272V26.8145H50.6362L49.3179 26.5508L48.7905 27.0781L47.9995 26.2871L48.2632 24.7051L47.9995 22.332C48.2192 21.4531 48.4829 21.0137 48.7905 21.0137H49.3179V21.541H49.8452L48.2632 19.168L47.9995 17.3223L48.2632 17.0586L47.9995 12.5762V6.24805C47.9995 5.95508 47.3843 5.60352 46.1538 5.19336V3.875C46.1538 2.95215 46.4175 2.16113 46.9448 1.50195ZM35.4092 1.63379V1.89746L35.6729 1.63379H40.1553L41.21 1.89746L42.2646 1.63379L42.792 2.4248L42.5283 3.74316L42.792 4.53418C42.792 5.41309 42.1768 5.85254 40.9463 5.85254C40.9463 6.90723 40.7705 7.43457 40.4189 7.43457L40.6826 7.69824V8.22559H40.4189L40.6826 11.3896V14.29H46.2197L47.2744 15.3447L47.0107 16.6631L47.2744 18.2451L46.2197 19.0361H45.6924L41.21 19.2998L40.4189 21.6729L41.21 21.9365V24.8369L40.9463 27.21L41.4736 28.792H41.21L40.6826 28.2646L40.9463 28.001L39.3643 26.4189V27.4736H38.5732V26.6826L38.0459 27.21L38.5732 27.7373C37.8555 28.4404 37.0645 28.792 36.2002 28.792V29.0557L36.4639 29.3193V29.583L37.7822 29.3193H38.0459V30.374H37.5186C37.5186 30.7256 37.7822 30.9014 38.3096 30.9014V31.4287H38.0459L36.7275 30.374H36.2002C36.2002 31.0771 35.9365 31.4287 35.4092 31.4287V31.9561L35.6729 31.6924H35.9365V32.2197L34.3545 32.7471H33.5635C33.2998 32.7471 33.0361 32.3955 32.7725 31.6924L32.5088 31.4287H32.2451C32.2451 32.1318 32.0693 32.4834 31.7178 32.4834V31.9561L30.6631 32.2197C29.9453 31.9707 29.418 31.5312 29.0811 30.9014V29.583L29.8721 28.792H31.1904C31.2783 29.4951 31.542 29.8467 31.9814 29.8467L33.0361 28.2646H33.2998V29.0557H33.5635L33.8271 28.792H34.0908L33.5635 27.21L33.8271 26.9463H34.0908L34.6182 28.2646H34.8818C35.2334 28.2646 35.4092 28.001 35.4092 27.4736H35.6729L35.9365 27.7373H36.2002V27.4736C35.7607 27.4736 35.4971 27.1221 35.4092 26.4189L35.1455 26.6826H34.6182C34.6182 25.6279 34.2666 25.1006 33.5635 25.1006L33.2998 24.3096H33.0361C33.0361 24.8369 32.8604 25.1006 32.5088 25.1006H31.7178L31.1904 24.5732C31.4102 22.8154 31.8496 21.9365 32.5088 21.9365C32.5088 21.585 32.2451 21.4092 31.7178 21.4092L31.4541 21.1455V20.0908H31.9814C31.9814 20.5303 32.333 20.7939 33.0361 20.8818V20.6182L32.7725 20.3545V20.0908L33.0361 19.8271H33.5635L34.0908 20.3545L33.8271 20.6182H34.0908L35.9365 19.2998V19.8271H36.2002V19.5635L35.9365 18.7725H35.6729L34.3545 19.0361V18.2451L35.4092 17.9814L34.6182 17.1904V17.4541L34.3545 17.1904H34.0908L33.0361 18.7725H32.5088L31.4541 15.0811L31.7178 12.4443L31.4541 12.1807V11.917L32.5088 9.54395L31.7178 9.0166L31.9814 7.69824V6.64355C31.9814 6.29199 31.7178 6.11621 31.1904 6.11621L29.8721 6.37988L29.6084 6.11621V5.85254L30.1357 1.89746L31.7178 2.4248C33.0801 1.89746 34.3105 1.63379 35.4092 1.63379ZM51.4272 9.67578V10.2031L52.4819 10.4668V10.2031L51.9546 9.67578H51.4272ZM35.4092 16.6631L35.1455 16.9268V17.1904L35.4092 17.4541H35.6729L35.9365 17.1904V16.9268L35.6729 16.6631H35.4092ZM50.1089 21.0137L50.3726 21.2773H50.6362C50.6362 20.8818 50.9878 20.5303 51.6909 20.2227L52.4819 20.4863V20.2227L52.7456 19.4316L52.4819 19.168V18.9043L52.7456 18.1133L50.1089 21.0137ZM34.3545 20.8818L34.8818 21.4092H35.1455V20.8818H34.3545ZM39.3643 22.7275L39.1006 22.9912V23.2549L39.3643 24.3096L40.6826 23.7822C40.624 23.3135 40.1846 22.9619 39.3643 22.7275ZM49.5815 25.4961V26.0234L50.3726 26.2871V25.4961H49.5815ZM45.9561 27.2539H46.4834L46.7471 28.0449L46.2197 28.5723H45.9561V27.2539ZM34.3545 28.792V29.0557L35.1455 30.9014L35.9365 30.6377C35.9365 30.2861 35.6729 30.1104 35.1455 30.1104L35.4092 29.8467V29.0557L34.3545 28.792ZM42.792 28.792L43.0557 29.0557H43.3193L43.0557 30.6377H42.5283V29.8467L41.7373 30.374L41.21 29.8467V30.374L40.4189 29.8467H39.8916L40.1553 30.1104V31.165H39.8916C39.1885 30.9014 38.8369 30.6377 38.8369 30.374L40.1553 29.3193L40.4189 29.583V29.3193L40.6826 29.583H42.2646C42.2646 29.0557 42.4404 28.792 42.792 28.792ZM41.21 31.165V31.9561H40.1553V31.4287L41.21 31.165ZM37.7822 32.2197H38.5732L38.0459 32.7471H37.7822V32.2197ZM63.2266 0.776855L65.0723 1.04053L73.2461 0.776855L74.0371 3.94092L73.5098 9.7417L74.0371 14.4878H77.2012L78.5195 14.2241L80.1016 14.4878H81.6836L82.2109 15.0151V15.5425L81.9473 16.8608H81.6836L80.8926 16.3335L79.8379 17.1245C80.0137 17.6519 80.541 17.9155 81.4199 17.9155L81.6836 17.6519L81.9473 17.9155V18.1792C81.2295 18.6919 80.2627 18.9556 79.0469 18.9702V18.7065L78.7832 18.9702L77.4648 18.7065H74.3008L74.0371 18.9702H73.7734V19.4976H74.0371L73.7734 23.4526V25.8257L72.9824 26.8804V27.9351C73.5098 27.9351 73.7734 28.1108 73.7734 28.4624V29.5171C73.7734 30.689 73.2461 31.5679 72.1914 32.1538L70.873 31.8901H68.5L65.8633 32.1538V31.8901L65.5996 32.1538H65.3359C63.0508 32.1538 61.9082 31.187 61.9082 29.2534V28.9897C62.4941 28.9897 63.1094 28.7261 63.7539 28.1987L63.2266 19.2339L63.4902 17.1245L63.2266 15.5425L63.4902 15.2788L63.2266 13.9604L63.7539 4.46826H63.2266V4.20459L62.9629 4.46826H62.4355C62.084 4.46826 61.9082 4.20459 61.9082 3.67725L63.2266 0.776855ZM77.311 0.447266L77.5747 0.710938L81.5298 0.447266H83.9028C85.1333 0.447266 85.7485 1.0625 85.7485 2.29297V7.03906L85.4849 8.09375L85.7485 8.88477L84.6938 9.41211L83.9028 9.14844L83.1118 9.93945H82.3208C82.3208 8.1377 81.6177 6.46777 80.2114 4.92969C80.2114 4.40234 79.9478 4.13867 79.4204 4.13867L78.3657 4.66602C76.0806 4.25586 74.938 3.81641 74.938 3.34766C75.2896 2.99609 75.4653 2.20508 75.4653 0.974609L77.311 0.447266ZM71.6641 6.05029L72.1914 6.57764V7.10498L71.9277 6.84131H71.1367V7.36865H71.9277L72.1914 7.10498H72.4551L72.7188 7.36865L72.9824 7.10498V6.84131L72.7188 5.52295H72.1914L71.6641 6.05029ZM71.4004 17.1245V17.9155C71.5176 18.4429 72.2207 18.7065 73.5098 18.7065L74.0371 17.9155C73.5098 17.271 73.2461 16.6558 73.2461 16.0698C72.0156 16.3042 71.4004 16.6558 71.4004 17.1245ZM68.2363 22.1343C68.9395 22.1343 69.291 22.3101 69.291 22.6616L69.0273 23.4526L69.291 23.189H69.5547L69.8184 23.4526H70.082L70.6094 22.6616V22.3979L69.5547 21.0796C68.749 21.4165 68.3096 21.7681 68.2363 22.1343ZM71.4004 22.1343L71.6641 22.3979H72.1914L72.7188 21.8706L72.4551 21.6069H71.9277L71.4004 22.1343ZM82.7383 22.7275H83.002L83.5293 23.2549V23.7822L83.2656 24.0459V24.3096C84.291 24.3535 84.9062 24.8809 85.1113 25.8916H85.375V25.1006L85.1113 24.8369V24.5732L85.375 24.3096H85.6387L85.9023 24.5732V25.3643L85.6387 25.6279L85.9023 25.8916V27.21L85.6387 29.583L85.9023 31.165L84.8477 31.9561H83.2656L80.8926 31.6924L79.0469 31.9561V30.9014L76.1465 32.7471C75.751 32.7471 75.4873 31.6924 75.3555 29.583L80.1016 27.21C80.3945 27.21 80.7461 27.8252 81.1562 29.0557C82.5625 28.8799 83.2656 28.6162 83.2656 28.2646C83.2656 26.8584 82.7383 26.1553 81.6836 26.1553H81.4199V25.6279L82.2109 24.0459H82.7383V24.5732H83.002V23.7822L82.7383 22.7275ZM102.338 1.19434L107.084 1.98535L109.193 1.72168L110.248 1.98535L111.303 1.72168L112.094 2.77637V14.6416L113.412 14.9053H114.73L116.049 14.6416V14.9053L117.367 14.3779C119.477 14.3779 120.531 14.8174 120.531 15.6963L120.795 16.751C120.575 18.5088 120.224 19.3877 119.74 19.3877H118.422L117.631 18.8604H116.576L115.521 19.6514H112.885C112.533 19.6514 112.357 19.915 112.357 20.4424L112.094 27.2979H111.83C111.83 27.8398 112.533 28.3672 113.939 28.8799L114.203 29.1436V29.4072C114.203 31.3408 113.588 32.3076 112.357 32.3076L110.775 32.5713L109.457 32.3076H105.766C104.008 32.3076 103.041 31.9561 102.865 31.2529C102.279 31.2529 101.928 30.6377 101.811 29.4072L102.074 29.1436V28.8799L101.811 27.8252L102.602 27.0342V26.2432L102.338 25.1885C102.719 21.6729 103.158 19.915 103.656 19.915L104.447 19.6514V18.8604C103.217 18.8604 102.602 17.8057 102.602 15.6963V5.67676H102.338L100.492 5.94043L99.4375 4.62207C100.346 2.73242 101.312 1.58984 102.338 1.19434ZM115.851 1.15039L120.861 1.67773L121.916 1.41406H122.443C123.673 1.41406 124.289 2.0293 124.289 3.25977L124.025 3.52344L124.289 4.8418V8.26953L121.916 10.3789H121.652C121.359 10.3789 120.744 9.23633 119.806 6.95117C118.605 5.36914 116.496 4.57812 113.478 4.57812L112.951 3.78711V2.20508C112.951 1.67773 113.917 1.32617 115.851 1.15039ZM110.775 9.63184C110.775 10.1592 110.6 10.4229 110.248 10.4229V10.9502L111.303 11.2139V9.63184H110.775ZM109.721 17.0146L108.93 17.8057L108.666 17.542H108.402V18.333L108.666 20.1787H108.139L107.875 18.8604H107.611C107.611 19.5635 107.436 19.915 107.084 19.915L107.348 20.1787V20.9697H107.084L106.82 20.7061H106.557L106.82 19.3877V18.8604H106.293L106.557 19.124V19.6514H106.293L105.502 19.124L104.711 19.3877V19.6514C105.062 19.6514 105.238 19.915 105.238 20.4424H105.502V19.915C105.854 19.915 106.117 20.4424 106.293 21.4971H106.82V21.7607L107.084 21.4971H107.348L107.611 21.7607L107.875 21.4971H108.139C108.666 21.4971 108.93 21.7607 108.93 22.2881L109.984 21.7607V20.9697H108.93V20.7061C109.354 19.6514 109.882 19.124 110.512 19.124V17.8057C109.984 17.8057 109.721 17.6299 109.721 17.2783H110.248V17.0146H109.721ZM105.766 23.8701V24.6611H106.293V24.3975L105.766 23.8701ZM103.393 24.3975V24.9248L104.447 24.1338H104.184L103.393 24.3975ZM104.975 24.3975L104.711 24.6611V25.1885H105.502V24.9248L104.975 24.3975ZM106.82 24.6611L107.084 25.9795L106.293 26.5068C106.425 27.4297 106.952 28.0449 107.875 28.3525H108.666C108.666 27.6494 108.93 27.2979 109.457 27.2979C109.325 26.0674 108.71 25.4521 107.611 25.4521V24.6611H106.82ZM104.184 27.2979V27.8252H105.238V27.0342H104.975L104.184 27.2979ZM127.387 1.19434L132.924 1.72168V1.45801L133.188 1.72168L137.406 1.19434C138.461 1.32617 138.988 1.50195 138.988 1.72168L139.252 1.45801H139.516L140.043 1.98535V3.83105C140.043 5.16406 139.164 5.86719 137.406 5.94043L136.879 10.0273L137.143 10.291L136.879 12.1367V16.3555L137.143 18.9922C136.19 19.3438 134.96 19.5195 133.451 19.5195C133.451 19.1094 132.66 18.6699 131.078 18.2012C131.078 18.7285 130.902 18.9922 130.551 18.9922L130.287 18.2012L130.551 17.9375V17.6738C130.551 17.2344 129.936 16.5312 128.705 15.5645V8.57715L128.441 5.94043H128.705C128.603 5.2373 127.987 4.88574 126.859 4.88574L126.332 4.09473V2.77637L127.387 1.19434ZM129.496 19.5195V19.7832L128.969 20.3105L128.705 20.0469V19.7832L128.969 19.5195H129.496ZM133.979 20.0469L134.242 20.3105V20.5742L133.715 21.6289H133.979L134.77 21.1016C134.77 21.8047 135.385 22.1562 136.615 22.1562L137.143 23.7383V25.0566C135.839 25.0566 135.136 24.7051 135.033 24.002C134.682 24.3535 133.539 24.5293 131.605 24.5293L132.133 25.3203L133.451 25.0566L133.979 25.8477L135.297 25.0566L135.561 26.375L134.77 27.4297V27.6934L135.033 27.4297H135.297C135.297 28.3086 136.088 28.748 137.67 28.748V29.2754H137.934V29.0117L137.67 28.2207L138.461 27.6934C139.56 28.0449 140.175 28.4844 140.307 29.0117C140.087 30.9453 139.647 31.9121 138.988 31.9121H131.078L128.969 31.3848H128.441L126.596 31.9121L126.332 31.6484V29.8027L126.068 28.2207C126.405 27.415 126.757 26.9756 127.123 26.9023H128.705V26.375H128.969L128.705 26.1113V22.9473H129.232V21.3652C130.287 21.3652 130.814 21.1016 130.814 20.5742H131.605L132.66 21.3652C132.66 20.7646 133.1 20.3252 133.979 20.0469ZM130.551 21.6289V22.1562H132.133V21.8926L131.605 21.3652L130.551 21.6289ZM132.66 22.1562V22.4199C133.188 22.4199 133.451 22.6836 133.451 23.2109H133.715V22.4199C133.363 22.4199 133.188 22.1562 133.188 21.6289L132.66 22.1562ZM136.088 22.9473L136.352 23.7383H136.615V22.9473H136.088ZM133.188 27.4297V28.2207L133.979 28.4844L134.242 28.2207V27.4297H133.188ZM133.715 30.5938V30.8574L134.242 30.3301V30.0664L133.715 30.5938ZM151.029 1.65576L152.348 1.91943L154.457 1.65576L154.984 2.18311L154.457 4.55615L154.721 4.81982L154.193 16.1577L154.457 16.4214V16.6851C154.076 18.6187 153.549 19.5854 152.875 19.5854C152.348 19.5854 152.084 19.7612 152.084 20.1128H152.611V20.6401H152.084L151.82 20.3765H151.557C150.678 21.3433 150.238 22.2222 150.238 23.0132C149.711 23.0132 149.447 23.189 149.447 23.5405C150.15 23.7163 150.502 24.0679 150.502 24.5952L152.348 24.3315V24.5952L153.402 24.0679L154.193 24.3315V25.9136C154.193 27.2905 154.896 28.0815 156.303 28.2866V28.5503C156.303 30.9673 155.512 32.2856 153.93 32.5054L152.348 32.2417H151.029L150.766 30.396L151.029 30.1323L149.711 29.8687C149.711 30.2642 149.359 30.6157 148.656 30.9233H148.129L147.865 30.6597L147.602 30.9233H147.074L146.811 30.6597H146.547L146.811 30.396V29.605H146.283V29.3413L145.492 29.605L145.756 29.8687V30.396H145.229L145.492 30.6597V30.9233L145.229 31.187H144.965L144.701 30.396H143.119C142.665 30.396 142.313 29.7808 142.064 28.5503C143.998 27.9351 144.965 27.4956 144.965 27.2319C144.965 26.0015 145.141 25.3862 145.492 25.3862V25.9136H146.02L146.547 25.3862L146.811 25.6499H147.074C147.426 25.6499 147.602 25.2983 147.602 24.5952C148.48 24.5952 148.92 24.4194 148.92 24.0679L149.184 21.9585C147.602 23.4819 146.811 24.4487 146.811 24.8589H146.547L145.229 23.8042V23.5405L145.492 23.2769V23.0132L145.229 22.7495H144.965C145.097 21.6948 145.272 21.1675 145.492 21.1675L145.229 19.8491V16.1577L144.965 15.103L145.229 14.0483L144.965 13.7847L145.229 12.4663L144.965 7.98389L145.229 6.40186C143.295 5.9624 142.328 5.61084 142.328 5.34717V5.0835C142.328 4.20459 142.855 3.1499 143.91 1.91943H145.756L146.02 2.18311L146.283 1.91943H149.447L151.029 1.65576ZM156.457 1.69971H157.248L158.83 1.96338L159.093 1.69971H159.357L161.73 2.22705L162.521 1.96338C165.861 2.6958 167.531 3.57471 167.531 4.6001C168.761 6.35791 169.376 7.85205 169.376 9.08252V10.9282C169.376 15.2349 168.058 18.0474 165.421 19.3657C164.25 20.0688 162.931 20.5083 161.466 20.6841V20.9478H164.894L165.158 21.2114L165.421 20.9478H165.685L168.058 27.0122C169.157 27.0122 169.948 27.4517 170.431 28.3306V30.9673C170.255 31.4946 169.728 31.7583 168.849 31.7583H164.367L160.412 32.022L160.148 31.7583V30.9673L160.412 30.7036C159.708 29.6489 159.357 28.8579 159.357 28.3306L159.621 28.0669V27.8032C158.815 27.3491 157.672 24.5366 156.193 19.3657L155.929 19.1021V18.8384L156.193 17.2563L155.929 16.4653C159.093 16.0845 160.675 14.7661 160.675 12.5103L160.939 9.87354L160.675 8.81885L160.939 8.02783C160.939 6.66553 159.708 5.78662 157.248 5.39111L156.457 5.65479L156.193 5.39111V5.12744L156.457 1.69971ZM146.547 4.55615V4.81982L147.074 5.34717L147.338 5.0835L147.074 4.02881L146.547 4.55615ZM167.113 15.894L167.377 16.1577H167.641V15.3667L167.113 15.894ZM143.646 31.187H143.91V31.978H143.119V31.7144L143.646 31.187ZM182.494 1.65576L182.758 1.91943L182.494 2.18311V2.71045L183.021 3.23779H183.285V2.18311H183.549L184.076 2.71045V4.29248L181.176 5.61084C180.297 6.53369 179.857 7.50049 179.857 8.51123C179.857 9.91748 182.318 11.0601 187.24 11.939C189.818 12.8179 191.928 14.312 193.568 16.4214C195.678 18.2524 196.732 20.5376 196.732 23.2769C196.732 25.0933 195.678 27.2905 193.568 29.8687C191.107 31.8022 189.35 32.769 188.295 32.769H186.186L185.131 31.7144V30.1323L188.822 28.0229C188.822 27.4956 188.998 27.2319 189.35 27.2319H189.877L189.613 27.4956V27.7593H190.404V27.2319H189.877V26.9683H190.668L190.932 27.7593H191.195C192.147 27.7593 192.763 27.4077 193.041 26.7046V26.4409L192.777 26.7046H192.25V26.4409L192.514 25.6499L192.25 25.3862H191.459L189.877 25.9136C189.877 23.6284 188.646 22.4858 186.186 22.4858L178.539 20.3765C174.672 18.2524 172.738 15.0005 172.738 10.6206V9.82959C172.738 6.37256 174.848 3.73584 179.066 1.91943L179.33 2.97412H180.121L180.648 2.44678L180.385 2.18311L182.494 1.65576ZM188.295 1.65576V1.91943L187.768 3.23779L188.031 4.02881H188.295L189.086 3.50146L189.877 3.76514V3.50146L189.35 2.18311L189.613 1.91943H189.877C189.877 2.44678 190.229 2.71045 190.932 2.71045L191.195 4.29248H191.459C191.459 3.76514 192.074 3.50146 193.305 3.50146C193.305 2.54932 193.744 1.93408 194.623 1.65576C195.678 1.83154 196.205 2.09521 196.205 2.44678V3.50146C196.205 4.79053 195.941 5.49365 195.414 5.61084H194.887L194.623 5.34717H194.359L193.305 7.45654C193.656 7.45654 193.832 7.72021 193.832 8.24756H194.096C194.096 7.85205 194.711 7.14893 195.941 6.13818L196.205 6.40186V6.66553C195.751 6.66553 195.399 7.28076 195.15 8.51123H195.414L196.205 8.24756L196.469 8.51123V8.7749C195.736 10.0054 195.209 10.6206 194.887 10.6206H194.623C191.43 7.10498 188.793 5.34717 186.713 5.34717C186.01 5.34717 185.658 5.17139 185.658 4.81982C185.658 2.88623 186.098 1.91943 186.977 1.91943L188.295 1.65576ZM184.34 16.4214L184.604 17.2124C185.131 17.0806 185.57 16.4653 185.922 15.3667L185.658 15.103C184.955 15.103 184.604 15.5425 184.604 16.4214H184.34ZM188.559 15.6304V16.4214H189.086V15.6304H188.559ZM188.295 18.0034V18.2671H189.086V18.5308L188.559 19.3218H188.822C189.188 19.2485 189.54 18.8091 189.877 18.0034L189.086 17.4761H188.822L188.295 18.0034ZM175.639 23.2769C176.166 23.4526 176.43 23.98 176.43 24.8589V25.6499C177.177 25.6499 178.583 26.5288 180.648 28.2866C182.377 28.9604 183.256 29.4878 183.285 29.8687V31.4507C183.285 31.8755 182.406 32.1392 180.648 32.2417L179.857 31.7144L178.539 31.978L174.848 30.9233C174.438 31.978 174.086 32.5054 173.793 32.5054H173.002C172.475 32.5054 172.211 31.5386 172.211 29.605V24.3315C172.211 23.936 172.65 23.6724 173.529 23.5405L174.057 24.0679C174.232 23.5405 174.76 23.2769 175.639 23.2769ZM174.32 25.1226L174.848 25.9136L175.639 25.6499V26.1772H176.166V25.6499L174.32 24.8589V25.1226ZM212.992 1.91943H215.893L216.42 2.44678V2.71045L216.156 2.97412L216.684 5.34717V5.87451H216.42L216.684 8.51123V9.56592L216.42 17.2124L216.684 17.4761V17.7397L216.42 18.7944V20.1128L216.684 21.6948L216.42 21.9585V22.2222L216.947 26.7046L216.684 27.4956C218.617 27.8911 219.584 28.2427 219.584 28.5503C219.291 30.8354 218.852 31.978 218.266 31.978L212.465 32.5054L212.201 32.2417H211.938L210.883 32.5054C209.301 32.3882 208.51 32.2124 208.51 31.978L208.246 32.2417H207.191C206.137 31.3188 205.609 30.4399 205.609 29.605V29.0776C207.133 28.0229 208.363 27.4956 209.301 27.4956V26.7046H208.51V25.9136L208.246 24.8589L208.51 24.5952V24.3315L208.246 20.6401V20.3765L208.51 19.0581L208.246 17.4761V12.9937L207.982 11.939L208.51 8.24756L208.246 7.98389C208.246 4.29248 208.861 2.44678 210.092 2.44678L212.992 1.91943ZM201.654 2.18311L203.236 2.71045H205.346L206.664 2.44678L206.928 2.71045V3.50146C206.928 4.86377 205.785 6.35791 203.5 7.98389L201.127 12.73C199.369 12.5542 198.49 12.2905 198.49 11.939V9.56592L198.754 8.51123L198.49 7.72021L199.018 5.61084L198.754 4.02881V2.97412C198.754 2.62256 199.721 2.35889 201.654 2.18311ZM218.266 2.44678H218.793L219.057 2.71045L219.32 2.44678H220.639C221.869 2.50537 222.484 2.68115 222.484 2.97412L223.803 2.71045H224.594L224.857 2.97412H225.121L224.594 11.6753C223.48 11.6753 222.602 12.0269 221.957 12.73L220.639 9.03857L217.738 5.0835V2.97412L218.266 2.44678ZM214.838 9.30225C214.838 9.82959 214.662 10.0933 214.311 10.0933V10.6206L215.365 10.8843V9.30225H214.838ZM213.783 16.6851L212.992 17.4761L212.729 17.2124H212.465V18.0034L212.729 19.8491H212.201L211.938 18.5308H211.674C211.674 19.2339 211.498 19.5854 211.146 19.5854L211.41 19.8491V20.6401H211.146L210.883 20.3765H210.619L210.883 19.0581V18.5308H210.355L210.619 18.7944V19.3218H210.355L209.564 18.7944L208.773 19.0581V19.3218C209.125 19.3218 209.301 19.5854 209.301 20.1128H209.564V19.5854C209.916 19.5854 210.18 20.1128 210.355 21.1675H210.883V21.4312L211.146 21.1675H211.41L211.674 21.4312L211.938 21.1675H212.201C212.729 21.1675 212.992 21.4312 212.992 21.9585L214.047 21.4312V20.6401H212.992V20.3765C213.417 19.3218 213.944 18.7944 214.574 18.7944V17.4761C214.047 17.4761 213.783 17.3003 213.783 16.9487H214.311V16.6851H213.783ZM209.828 23.5405V24.3315H210.355V24.0679L209.828 23.5405ZM209.037 24.0679L208.773 24.3315V24.8589H209.564V24.5952L209.037 24.0679ZM210.883 24.3315L211.146 25.6499L210.355 26.1772C210.487 27.1001 211.015 27.7153 211.938 28.0229H212.729C212.729 27.3198 212.992 26.9683 213.52 26.9683C213.388 25.7378 212.772 25.1226 211.674 25.1226V24.3315H210.883Z" fill="#B0D99A"/>
</svg>
