<svg width="1352" height="884" viewBox="0 0 1352 884" fill="none" xmlns="http://www.w3.org/2000/svg">
<path d="M130.03 184.937L142.904 189.322L144.447 192.46L144.048 193.63L142.479 194.402L141.232 205.732L140.435 208.072L139.265 207.674L136.449 219.775L134.854 224.457L122.124 257.997L122.895 259.566L122.497 260.736L119.732 265.019L117.739 270.87L116.517 278.29L114.948 279.062L114.55 280.232L110.114 300.925L107.747 304.037C115.732 308.716 119.491 311.738 119.026 313.103C114.271 322.803 110.593 327.21 107.993 326.324L81.4487 319.895L80.677 318.326L79.5067 317.927L74.4269 317.503C67.5822 314.591 64.3371 312.615 64.6914 311.575L63.1225 312.346L58.4413 310.752C55.1553 305.061 54.1435 300.363 55.4058 296.657L56.2031 294.316C64.5593 291.938 70.818 291.458 74.979 292.875L76.1749 289.365L72.664 288.169L73.8599 284.658L74.2841 279.578L75.8531 278.806L76.2517 277.636L80.6622 260.853L81.0609 259.683L84.2243 254.23L85.4458 246.81L92.2225 226.914L92.6467 221.835L100.568 206.248L99.7965 204.679C105.377 188.295 110.898 181.033 116.36 182.893L130.03 184.937ZM79.3089 168.966L85.5334 173.699L94.8958 176.888L101.146 177.711L101.918 179.28L100.722 182.79C98.6621 188.837 91.3319 193.741 78.7311 197.503L61.0231 214.981C53.4868 211.543 49.9844 209.044 50.516 207.484L54.1036 196.951L56.8684 192.669L56.894 188.759L62.4237 180.194L63.6452 172.774L65.2397 168.092C65.7712 166.532 70.4609 166.823 79.3089 168.966ZM152.639 195.25L154.98 196.048L155.751 197.617L157.32 196.845L163.172 198.838C168.545 200.958 171.01 202.669 170.567 203.969L176.817 204.792L180.328 205.988L181.099 207.557L182.27 207.955L166.774 245.778C161.833 244.095 157.4 244.327 153.477 246.473L153.206 228.096L146.312 206.156L149.501 196.794L152.639 195.25ZM127.061 220.496C126.264 222.837 125.085 223.741 123.524 223.21L122.727 225.55L127.01 228.315L129.401 221.293L127.061 220.496ZM111.218 251.67L106.511 253.985L105.74 252.416L104.569 252.017L103.373 255.528L101.753 264.119L99.4126 263.322L100.235 257.072L99.0652 256.673C98.0022 259.794 96.6904 261.088 95.13 260.557L95.9017 262.126L94.7058 265.637L93.5355 265.238L92.7639 263.669L91.5936 263.27L94.757 257.818L95.5543 255.477L93.2137 254.68L93.9853 256.249L93.1881 258.589L92.0178 258.191L89.3041 254.654L85.3946 254.629L84.996 255.799C86.5564 256.33 86.938 257.766 86.1407 260.107L87.311 260.506L88.1083 258.165C89.6686 258.697 90.0417 261.436 89.2274 266.383L91.568 267.18L91.1693 268.35L92.7383 267.579L93.9086 267.977L94.6802 269.546L96.2492 268.775L97.4195 269.173C99.7601 269.97 100.532 271.539 99.7345 273.88L105.213 273.134L106.409 269.623L101.728 268.028L102.126 266.858C105.606 262.819 108.744 261.276 111.54 262.228L113.533 256.377C111.192 255.579 110.288 254.401 110.819 252.84L113.16 253.637L113.559 252.467L111.218 251.67ZM83.2991 276.118L82.1032 279.629L84.4438 280.426L84.8424 279.256L83.2991 276.118ZM78.9909 277.263L77.422 278.035L76.6247 280.375L80.1356 281.571L80.5343 280.401L78.9909 277.263ZM86.7844 281.224L85.9615 287.474L81.6534 288.618C80.8433 292.914 82.2538 296.442 85.8848 299.202L89.3957 300.398C90.4587 297.277 92.1605 296.116 94.5011 296.913C95.7762 291.252 93.9757 287.591 89.0994 285.93L90.2953 282.419L86.7844 281.224ZM231.462 372.843C220.54 369.122 216.407 363.361 219.065 355.559C225.34 352.473 231.209 351.859 236.67 353.72L241.351 355.314L245.685 350.26L243.37 345.553L244.939 344.781L244.167 343.213C247.832 337.567 255.646 318.461 267.61 285.893C274.608 265.348 271.573 251.253 258.503 243.609L261.319 231.507C264.794 228.337 268.579 227.45 272.675 228.845C299.787 238.08 313.038 264.362 312.429 307.69L312.03 308.86C307.199 310.262 303.92 313.499 302.192 318.57C304.533 319.368 305.172 321.327 304.109 324.447L306.449 325.245C304.102 332.136 300.3 335.63 295.043 335.726L294.271 334.157L293.101 333.759L287.596 338.414L292.227 347.828C288.524 352.734 283.543 357.132 277.283 361.023L276.113 360.624C277.619 356.203 276.341 352.285 272.28 348.87L268.769 347.674C267.529 351.315 265.819 353.78 263.638 355.069L262.841 357.41C262.31 358.97 264.252 360.938 268.667 363.312L272.577 363.338L272.178 364.508L254.148 371.428L251.807 370.63L249.094 367.094L247.923 366.695L244.786 368.239L245.557 369.808L231.462 372.843ZM199.864 362.08L198.694 361.681L194.836 353.837L193.267 354.608L192.868 355.779L193.64 357.348L189.73 357.322C169.479 345.2 160.55 335.628 162.941 328.606C157.675 326.812 159.621 308.319 168.778 273.126L170.347 272.355L170.746 271.184L170.771 267.275C177.535 255.938 185.556 245.173 194.832 234.982L200.285 238.145L202.625 238.943L205.763 237.399L205.814 229.58C221.461 218.366 236.079 215.074 249.668 219.702L252.008 220.499L254.671 231.855C253.408 235.561 247.656 238.39 237.412 240.343C234.487 239.347 228.434 248.169 219.255 266.81L217.634 275.401L206.897 303.09L205.701 306.601L204.081 315.191L202.911 314.793C196.798 332.737 199.204 343.57 210.126 347.29L209.278 357.45L208.481 359.791L199.864 362.08ZM184.303 350.249L182.76 347.111L181.589 346.713L180.792 349.053L184.303 350.249ZM256.141 365.576L256.54 364.406L254.996 361.268L253.801 364.779L256.141 365.576ZM282.414 353.628L283.61 350.117L280.472 351.661L280.074 352.831L282.414 353.628ZM265.284 342.569L266.879 337.888L265.708 337.489L264.911 339.83L261.4 338.634L261.799 337.463L265.335 334.75L266.531 331.239L263.843 323.793L262.274 324.564L258.763 323.369L257.992 321.8L256.821 321.401L256.423 322.571L255.6 328.821L254.031 329.593C255.591 330.125 256.354 332.997 256.32 338.209C260.221 339.538 261.906 340.983 261.375 342.543L265.284 342.569ZM178.309 310.331L179.505 306.82L177.961 303.682L175.621 302.885C175.267 307.118 175.773 309.467 177.139 309.932L178.309 310.331ZM203.734 308.542L202.19 305.405L201.02 305.006L200.223 307.347L203.734 308.542ZM288.92 315.356C288.643 311.27 287.747 308.788 286.232 307.91L280.381 305.916L279.584 308.257L283.094 309.453L282.696 310.623L279.159 313.337L278.761 314.507L280.304 317.645C284.985 319.24 287.857 318.476 288.92 315.356ZM272.536 309.775L272.935 308.605L270.62 303.898L268.254 307.01L269.025 308.579L272.536 309.775ZM185.188 274.798L190.293 271.312L187.953 270.515L188.351 269.345L189.92 268.573L190.319 267.403L189.547 265.834L187.207 265.037C186.564 266.922 184.73 268.474 181.703 269.692L185.188 274.798ZM211.487 258.94L213.056 258.168L213.454 256.998L212.683 255.429L208.001 253.835L211.487 258.94ZM274.734 272.647L282.604 264.879L276.753 262.886L275.956 265.227L274.785 264.828L275.557 266.397L275.158 267.567L272.393 271.85L274.734 272.647ZM339.605 257.303L341.946 258.1L352.08 262.858L353.649 262.086L359.102 265.25L362.612 266.446L384.077 272.451C394.999 276.171 398.999 282.322 396.076 290.905L383.151 294.339L380.836 289.632C377.317 289.739 375.358 290.378 374.959 291.548L374.162 293.889L373.339 300.139L378.02 301.734L379.589 300.962L380.76 301.361L381.531 302.93L380.335 306.44L378.766 307.212L379.538 308.781L362.872 346.205L362.024 356.365L360.429 361.046L358.089 360.249L357.291 362.589C360.412 363.652 359.847 370.425 355.595 382.909L354.026 383.68L352.855 383.282L352.084 381.713L346.181 387.539L356.238 404.025L354.245 409.877C351.161 413.18 346.596 413.801 340.549 411.742L335.52 403.499L337.089 402.727L337.488 401.557L335.147 400.759L335.546 399.589L323.393 404.592L315.201 401.802C304.473 398.148 298.124 392.502 296.154 384.865L297.749 380.184C298.192 378.884 301.064 378.121 306.365 377.895L309.902 375.181L310.725 368.931L312.319 364.25L314.66 365.047L313.464 368.558L315.804 369.355L321.334 360.79L320.164 360.391L321.733 359.62L322.53 357.279C319.781 352.569 319.69 346.444 322.259 338.902L325.448 329.539L325.873 324.46L327.441 323.688L327.84 322.518L332.649 304.564L339.4 288.579L343.683 291.344L349.933 292.167L351.129 288.656C348.788 287.858 348.415 285.119 350.01 280.438L342.191 280.387C343.52 276.486 343.404 274.27 341.843 273.738C337.499 270.517 335.432 267.636 335.644 265.096L339.605 257.303ZM412.164 282.018L442.591 292.382L443.363 293.951L444.932 293.179L446.102 293.578L446.874 295.147L455.465 296.767L461.316 298.76L463.631 303.467L461.638 309.318C460.686 312.114 452.734 312.453 437.782 310.335L404.784 334.359C409.874 366.278 415.705 391.339 422.276 409.54C427.686 419.219 430.126 424.839 429.594 426.4C423.795 432.986 420.126 436.09 418.586 435.711L415.075 434.515L414.303 432.946L412.735 433.718L411.564 433.319L410.793 431.75L383.85 426.491L373.716 421.733L369.807 421.708C367.832 414.722 367.476 409.377 368.739 405.671L378.152 401.041L370.589 361.894L368.673 356.017L371.81 354.474C370.722 344.888 370.765 338.372 371.938 334.926C372.78 332.456 379.72 327.418 392.759 319.815L413.579 304.703L415.174 300.022C412.378 299.07 410.436 297.102 409.348 294.119L407.779 294.891L406.608 294.492L405.065 291.355L407.457 284.333L412.164 282.018ZM349.907 296.076L347.541 299.188L349.882 299.986L351.078 296.475L349.907 296.076ZM350.95 316.022L355.978 324.266L363.051 318.838C361.296 318.24 360.79 315.891 361.534 311.791L356.853 310.196C354.246 310.179 352.279 312.121 350.95 316.022ZM343.672 352.726L338.94 358.95L337.744 362.461L342.772 370.705L343.943 371.103C349.113 367.64 352.641 366.23 354.527 366.872L354.925 365.701C352.585 364.904 351.813 363.335 352.61 360.995C350.075 360.131 347.095 357.375 343.672 352.726ZM335.352 369.483L334.953 370.653C335.061 374.173 335.7 376.132 336.87 376.53L338.066 373.02L336.522 369.882L335.352 369.483ZM316.152 376.004L314.557 380.685C315.244 385.273 317.701 388.286 321.927 389.726L323.097 390.124L329.025 380.389C329.623 378.633 328.071 376.799 324.37 374.885C319.423 374.07 316.683 374.443 316.152 376.004ZM333.681 385.893L332.884 388.233L335.996 390.6L336.394 389.429L334.851 386.291L333.681 385.893ZM309.851 383L308.256 387.681L311.394 386.138L309.851 383ZM487.529 301.05L495.322 305.01L532 316.197L530.728 331.437L519.617 356.386L514.782 378.249L528.826 383.033L535.076 383.855L541.699 387.417L548.721 389.809L550.264 392.947L549.467 395.288L546.304 400.741L545.133 400.342L542.42 396.805L536.543 398.722C536.526 401.328 538.468 403.296 542.369 404.624L543.937 403.853L544.709 405.422L544.31 406.592C540.35 407.782 535.66 407.491 530.241 405.718L530.64 404.548L529.071 405.319L523.618 402.156L509.575 397.372L508.006 398.144L506.835 397.745L506.038 400.086L507.208 400.485L500.059 417.64L496.471 428.173L491.366 431.659L489.771 436.34C492.112 437.137 493.016 438.316 492.485 439.876L490.89 444.557C489.118 449.759 485.449 452.862 479.882 453.869L474.429 450.705L463.896 447.117L451.795 444.301L452.193 443.131L450.625 443.903L449.454 443.504C439.312 440.049 435.702 434.031 438.625 425.449L439.024 424.278C441.625 425.164 444.754 424.924 448.412 423.558L459.625 382.97L463.984 374.007L465.206 366.586L466.774 365.815L467.597 359.564L484.289 318.231L481.948 317.434L482.347 316.263L480.778 317.035L478.437 316.238C476.877 315.706 476.495 314.27 477.292 311.93L487.529 301.05ZM550.541 320.88L551.312 322.449L569.265 327.258L579.798 330.846C585.26 332.706 587.06 336.367 585.2 341.828L578.024 362.894L575.26 367.176L575.234 371.086L569.756 371.832L566.643 369.466L561.937 371.781L558.426 370.585C561.15 362.588 560.553 354.113 556.637 345.16C557.434 342.82 556.663 341.251 554.322 340.453L548.844 341.199C539.321 335.924 534.914 332.246 535.623 330.166C537.715 329.137 539.691 325.892 541.551 320.43L550.541 320.88ZM517.006 337.212L518.549 340.35L517.752 342.69L516.98 341.121L513.469 339.925L512.672 342.266L516.183 343.462L517.752 342.69L518.922 343.089L519.694 344.658L521.263 343.886L521.661 342.716L522.484 336.466L520.144 335.668L517.006 337.212ZM499.093 385.966L497.897 389.477C497.62 391.994 500.342 394.228 506.064 396.176L509.6 393.463C508.234 389.805 507.994 386.676 508.88 384.075C503.064 383.255 499.802 383.885 499.093 385.966ZM477.475 403.418C480.596 404.481 481.891 405.792 481.359 407.353L478.993 410.465L480.562 409.693L481.732 410.092L482.504 411.661L483.674 412.06L487.211 409.346L487.61 408.176L484.921 400.73C480.836 401.007 478.354 401.903 477.475 403.418ZM491.519 408.201L492.291 409.77L494.631 410.568L497.769 409.024L496.998 407.455L494.657 406.658L491.519 408.201ZM540.945 427.976L542.115 428.374L543.659 431.512L542.861 433.853L541.292 434.624L540.894 435.795C545.379 437.54 547.312 440.811 546.694 445.607L547.864 446.006L549.06 442.495L548.289 440.926L548.687 439.755L550.256 438.984L551.427 439.382L552.198 440.951L551.002 444.462L549.433 445.234L550.205 446.803L548.212 452.654L543.454 462.788L542.232 470.209L536.355 472.125L529.334 469.733L519.199 464.975L510.609 463.355L512.203 458.674L496.54 462.481C494.784 461.883 495.208 456.803 497.812 447.242L522.465 443.884C523.766 444.327 524.396 447.59 524.356 453.671C530.863 455.017 534.383 454.91 534.914 453.349C537.04 447.108 535.763 443.19 531.082 441.595L529.911 441.196L530.709 438.856L536.611 433.03L538.952 433.827L538.155 436.168L539.325 436.566L540.521 433.055L540.945 427.976ZM699.875 378.06L706.498 381.622L708.067 380.85L709.238 381.249L714.665 388.322L720.915 389.144C717.46 399.287 713.782 403.694 709.881 402.365C705.59 400.904 702.054 403.617 699.272 410.506L698.05 417.927L695.285 422.209L694.861 427.289L693.292 428.061L692.894 429.231L692.071 435.481L689.306 439.764L688.882 444.843L682.529 459.659L682.131 460.829L680.96 460.43C672.51 447.321 669.183 437.916 670.98 432.215L673.372 425.193L682.014 418.994L681.242 417.426L677.731 416.23L676.535 419.741L674.992 416.603L675.789 414.262L676.959 414.661L678.579 406.07L682.167 395.537L675.943 390.805L670.863 390.381C669.302 389.849 668.921 388.413 669.718 386.073C673.439 375.15 678.42 370.751 684.661 372.877L699.875 378.06ZM645.643 360.893C652.077 370.123 654.109 378.216 651.739 385.173C654.08 385.97 654.719 387.929 653.656 391.05C655.979 394.454 658.252 405.676 660.473 424.718C667.848 452.699 672.136 474.621 673.335 490.485L671.766 491.257L670.943 497.507L669.748 501.018L668.179 501.789L668.95 503.358L668.552 504.529C668.109 505.829 662.63 506.575 652.116 506.767L651.319 509.108C654.44 510.171 655.734 511.482 655.203 513.043L653.634 513.814L652.464 513.416C650.123 512.618 649.351 511.05 650.149 508.709L646.638 507.513C645.841 509.854 641.931 509.828 634.909 507.436C635.441 505.876 633.756 504.431 629.855 503.102L630.678 496.852C633.018 497.65 634.587 496.878 635.385 494.537L640.837 497.701C646.404 493.502 650.455 491.834 652.99 492.698L653.788 490.357L654.237 481.368L651.897 480.571L651.1 482.911L647.589 481.715C649.449 476.254 648.819 472.992 645.698 471.929L642.56 473.472L641.017 470.334L637.056 478.128L640.541 483.233L640.143 484.403L637.802 483.606L641.262 492.621L640.863 493.791L639.693 493.393L635.436 486.718L632.298 488.262L634.639 489.059L633.841 491.399L629.932 491.374L619.333 438.133L624.04 435.818C619.359 434.223 617.55 431.865 618.613 428.745C612.148 394.254 607.064 374.672 603.358 369.999C599.297 366.584 597.488 364.227 597.931 362.926L598.33 361.756L603.783 364.92L607.692 364.945L609.287 360.264L597.957 359.017L597.185 357.448L597.584 356.278L599.153 355.506L593.301 353.513L594.896 348.832C596.213 346.668 599.732 346.561 605.454 348.51L606.226 350.079L607.396 350.477L612.476 350.902L614.816 351.699L616.36 354.837L612.823 357.55C612.137 359.566 614.336 362.056 619.421 365.022L620.218 362.681L619.073 358.373L620.269 354.862L645.643 360.893ZM608.837 369.253L609.609 370.822L610.779 371.221L612.348 370.449L613.544 366.938L608.837 369.253ZM622.482 375.207L620.887 379.888L624 382.255L624.398 381.084L622.482 375.207ZM613.891 373.587L613.492 374.757C612.961 376.318 614.256 377.629 617.376 378.692L616.579 381.033L618.92 381.83L619.717 379.49L613.891 373.587ZM598.227 377.394L600.568 378.191C601.608 378.546 601.973 382.588 601.661 390.319L604.35 397.765C603.818 399.325 601.992 399.574 598.871 398.511L598.472 399.681C603.154 401.276 605.228 402.853 604.697 404.413L601.932 408.696L602.704 410.265L603.874 410.664L607.012 409.12C612.782 420.301 612.555 435.026 606.332 453.295L602.346 464.998C601.017 468.899 603.332 473.606 609.291 479.119L608.493 481.459L606.127 484.572L604.906 491.992L604.507 493.162L600.971 495.876L595.518 492.713L586.927 491.092L587.326 489.922L585.757 490.694L575.224 487.106L556.898 479.558L551.818 479.133C550.518 475.28 550.81 470.591 552.692 465.064C556.935 463.897 560.845 463.923 564.421 465.141L567.61 455.779L576.252 449.58L573.139 447.214L570.001 448.757L569.23 447.188L579.993 415.59L582.41 404.659L589.534 391.412L588.763 389.843L589.161 388.673C593.645 380.622 596.667 376.863 598.227 377.394ZM624.27 400.632L623.872 401.802C623.788 404.604 624.817 406.695 626.958 408.078L630.495 405.364L628.951 402.226L624.27 400.632ZM594.834 418.033L594.808 421.942L592.467 421.145L594.011 424.283L600.261 425.106L601.457 421.595L599.142 416.888L594.834 418.033ZM624.014 439.727L623.616 440.897L623.191 445.977L625.532 446.775L628.67 445.231C629.268 443.476 627.716 441.641 624.014 439.727ZM662.133 469.69L661.735 470.861L663.278 473.999L666.416 472.455L666.814 471.285L662.133 469.69ZM578.464 469.925L577.294 469.526L576.522 467.957L575.352 467.558L574.555 469.899C577.675 470.962 578.571 473.444 577.243 477.345L582.297 481.679L588.174 479.762L588.971 477.422L588.997 473.512L590.566 472.741L585.512 468.407L578.464 469.925ZM769.41 556.08C758.487 552.36 754.355 546.598 757.012 538.796C763.288 535.71 769.157 535.096 774.618 536.957L779.299 538.551L783.633 533.497L781.318 528.79L782.887 528.019L782.115 526.45C785.779 520.805 793.594 501.698 805.558 469.131C812.556 448.585 809.52 434.49 796.451 426.846L799.267 414.745C802.741 411.574 806.527 410.687 810.623 412.082C837.735 421.317 850.986 447.599 850.376 490.927L849.978 492.098C845.147 493.499 841.867 496.736 840.14 501.807C842.481 502.605 843.119 504.564 842.056 507.684L844.397 508.482C842.049 515.373 838.247 518.867 832.99 518.963L832.219 517.394L831.048 516.996L825.544 521.651L830.174 531.065C826.471 535.971 821.49 540.37 815.231 544.26L814.061 543.861C815.567 539.44 814.289 535.522 810.228 532.107L806.717 530.911C805.477 534.552 803.767 537.017 801.586 538.306L800.789 540.647C800.257 542.207 802.199 544.175 806.615 546.549L810.524 546.575L810.126 547.745L792.096 554.665L789.755 553.867L787.041 550.331L785.871 549.932L782.733 551.476L783.505 553.045L769.41 556.08ZM737.812 545.317L736.642 544.918L732.783 537.074L731.214 537.846L730.816 539.016L731.588 540.585L727.678 540.559C707.427 528.437 698.497 518.865 700.889 511.843C695.623 510.049 697.568 491.556 706.726 456.364L708.295 455.592L708.693 454.422L708.719 450.512C715.483 439.175 723.503 428.41 732.78 418.219L738.232 421.382L740.573 422.18L743.711 420.636L743.762 412.817C759.409 401.603 774.027 398.311 787.615 402.939L789.956 403.736L792.618 415.092C791.356 418.798 785.603 421.627 775.36 423.58C772.434 422.584 766.382 431.406 757.202 450.047L755.582 458.638L744.845 486.327L743.649 489.838L742.029 498.428L740.858 498.03C734.746 515.974 737.151 526.807 748.074 530.527L747.226 540.687L746.428 543.028L737.812 545.317ZM722.251 533.486L720.707 530.348L719.537 529.95L718.74 532.29L722.251 533.486ZM794.089 548.813L794.487 547.643L792.944 544.505L791.748 548.016L794.089 548.813ZM820.362 536.865L821.558 533.354L818.42 534.898L818.021 536.068L820.362 536.865ZM803.232 525.806L804.826 521.125L803.656 520.726L802.859 523.067L799.348 521.871L799.746 520.7L803.283 517.987L804.479 514.476L801.791 507.03L800.222 507.802L796.711 506.606L795.939 505.037L794.769 504.638L794.37 505.808L793.547 512.059L791.979 512.83C793.539 513.362 794.302 516.234 794.268 521.447C798.169 522.775 799.854 524.22 799.322 525.78L803.232 525.806ZM716.257 493.568L717.452 490.057L715.909 486.919L713.568 486.122C713.215 490.355 713.721 492.704 715.086 493.169L716.257 493.568ZM741.681 491.78L740.138 488.642L738.968 488.243L738.17 490.584L741.681 491.78ZM826.868 498.593C826.591 494.507 825.695 492.025 824.18 491.147L818.328 489.154L817.531 491.494L821.042 492.69L820.643 493.86L817.107 496.574L816.708 497.744L818.252 500.882C822.933 502.477 825.805 501.714 826.868 498.593ZM810.484 493.012L810.882 491.842L808.567 487.135L806.201 490.247L806.973 491.816L810.484 493.012ZM723.136 458.035L728.241 454.55L725.9 453.752L726.299 452.582L727.868 451.81L728.267 450.64L727.495 449.071L725.154 448.274C724.512 450.159 722.677 451.711 719.65 452.929L723.136 458.035ZM749.434 442.177L751.003 441.406L751.402 440.235L750.63 438.666L745.949 437.072L749.434 442.177ZM812.682 455.884L820.552 448.116L814.7 446.123L813.903 448.464L812.733 448.065L813.505 449.634L813.106 450.804L810.341 455.087L812.682 455.884ZM887.539 438.064L899.216 445.96L904.296 446.384C903.764 447.944 904.669 449.123 907.01 449.92L916.771 451.939C925.353 454.862 928.714 459.055 926.854 464.516L934.559 541.588L932.99 542.359L934.534 545.497L933.737 547.838C920.043 559.282 908.885 571.589 900.262 584.761L897.922 583.963C892.799 576.849 890.509 568.233 891.054 558.114C888.367 540.438 886.819 518.143 886.409 491.228L887.579 491.627L886.807 490.058L887.206 488.888L888.775 488.116L889.174 486.946L884.145 478.702L884.942 476.362L888.453 477.558C889.516 474.437 888.487 472.345 885.366 471.282C886.695 467.381 888.92 465.962 892.041 467.025L897.172 459.63L892.915 452.956L894.484 452.184L895.68 448.673C889.138 452.54 884.813 456.291 882.704 459.926L878.023 458.332L876.505 451.285L876.904 450.114C879.03 443.873 882.433 441.549 887.115 443.144L886.343 441.575L887.539 438.064ZM996.377 475.136L1002.6 479.869L998.666 483.753L999.785 491.97L1000.96 492.369C1002.28 488.468 1004.9 487.182 1008.8 488.511L1008.45 481.862L1014.3 483.855L1015.85 486.993L1012.26 497.526C1011.79 498.891 1009.45 499.397 1005.21 499.043L1002.45 503.326L1003.22 504.895L1000.43 513.087C999.632 515.428 996.892 515.801 992.211 514.206L991.813 515.376L991.787 519.286L990.617 518.887L991.388 520.456L983.866 534.873L982.695 534.474L979.982 530.938L978.413 531.709L977.641 530.14L976.844 532.481L978.76 538.358L980.329 537.587L982.67 538.384L981.474 541.895L978.336 543.438L977.564 541.869L976.394 541.47L971.288 544.956L970.89 546.126L972.433 549.264L982.966 552.852L983.712 558.33L982.915 560.671C978.953 565.271 973.068 568.491 965.258 570.329L965.605 576.978L961.297 578.123L959.381 572.246L955.471 572.22L954.7 570.651L955.098 569.481L956.667 568.709L957.066 567.539C955.505 567.007 955.124 565.571 955.921 563.231L951.24 561.636C950.443 563.977 949.264 564.881 947.703 564.35L946.533 563.951C947.773 560.31 946.886 556.525 943.871 552.596C944.668 550.255 944.038 546.993 941.98 542.809L936.333 509.54C951.514 489.895 961.095 479.662 965.075 478.841L964.303 477.272L964.702 476.102C968.554 471.609 971.958 469.286 974.913 469.131L983.105 471.922L996.377 475.136ZM953.888 515.519L948.782 519.004C948.251 520.565 949.545 521.877 952.666 522.94L952.242 528.019L954.582 528.817L957.72 527.273L959.713 521.422C959.73 518.815 957.789 516.848 953.888 515.519ZM953.387 532.328L954.184 529.987L953.013 529.588L952.615 530.759L952.589 534.668L951.419 534.27L951.393 538.179L952.564 538.578L953.76 535.067L957.27 536.263C959.026 536.861 959.532 539.21 958.788 543.31L964.665 541.394L965.064 540.223C962.723 539.426 962.217 537.077 963.546 533.176L961.206 532.379L961.604 531.208L953.387 532.328ZM880.031 509.953L885.381 528.755L877.01 553.331L874.245 557.613C872.916 561.514 874.202 564.129 878.103 565.458C883.459 570.185 885.916 573.198 885.473 574.499C881.964 582.882 879.332 586.774 877.577 586.176L871.352 581.444L861.964 582.164L857.283 580.57L854.57 577.033L851.432 578.577L850.66 577.008L851.856 573.497L853.026 573.895L856.138 576.262L859.276 574.718L860.447 575.117L859.649 577.457L863.16 578.653L862.389 577.084L863.958 576.313L864.755 573.972L862.414 573.175L862.813 572.005L865.179 568.892L864.009 568.494C862.448 567.962 862.067 566.526 862.864 564.185L865.23 561.073L864.06 560.675C857.304 557.503 854.192 555.136 854.723 553.576L856.292 552.804L857.462 553.203L860.176 556.739L863.687 557.935L866.053 554.823L863.738 550.116L872.406 540.008L870.862 536.87L873.203 537.667L875.196 531.816C876.547 524.44 874.232 519.733 868.251 517.695L868.65 516.525C870.405 517.123 872.896 514.924 876.121 509.927L880.031 509.953ZM964.215 550.383L963.02 553.894L967.701 555.488L968.498 553.148L964.215 550.383ZM859.082 544.612L862.195 546.978L861.796 548.149L857.115 546.554L858.684 545.783L859.082 544.612ZM937.89 575.265L939.061 575.664C940.621 576.195 940.861 579.325 939.781 585.052L942.893 587.418C944.488 582.737 947.236 581.061 951.137 582.39L951.111 586.299L952.281 586.698L961.296 583.238C960.943 587.471 961.449 589.82 962.814 590.285L966.723 590.311L964.73 596.162L965.901 596.561L967.47 595.789L968.64 596.188L969.412 597.757L969.013 598.927L967.444 599.699L968.216 601.268L965.875 600.471L965.476 601.641L971.65 614.192C969.026 616.782 966.154 617.545 963.033 616.482L964.628 611.801L963.458 611.402C962.594 613.938 961.149 615.622 959.124 616.456L953.671 613.293L943.91 611.274C944.707 608.933 943.936 607.364 941.595 606.567L944.758 601.114L942.045 597.578L938.907 599.121L939.679 600.69C937.996 605.631 931.728 607.415 920.877 606.041L918.189 598.595L922.175 586.892C922.707 585.331 926.749 584.967 934.303 585.798L937.89 575.265ZM968.666 587.163L973.348 588.758L972.949 589.928L971.38 590.7L972.152 592.269L971.354 594.609L970.184 594.211C968.429 593.613 967.923 591.264 968.666 587.163ZM845.708 557.036L849.142 569.96L848.345 572.301C846.525 571.681 843.129 572.701 838.16 575.362C834.129 573.989 832.187 572.021 832.334 569.459L832.732 568.289L834.301 567.517L833.53 565.948L834.726 562.437L836.295 561.666L835.523 560.097L836.32 557.756C836.852 556.196 839.981 555.956 845.708 557.036ZM940.477 593.234L939.68 595.575L944.386 593.26L944.785 592.09L943.615 591.691L940.477 593.234ZM929.944 589.647L930.292 596.295L927.925 599.408L928.697 600.977L929.867 601.375C930.93 598.254 933.412 597.358 937.313 598.687L937.712 597.517L933.455 590.843L929.944 589.647ZM840.95 567.17L839.356 571.851L840.526 572.25L842.12 567.568L840.95 567.17ZM1030.7 488.133L1054.48 498.845L1054.87 497.674L1055.65 499.243L1075.17 503.281C1079.65 505.46 1081.72 507.038 1081.39 508.013L1082.96 507.241L1084.13 507.64L1085.68 510.778L1082.88 518.97C1080.87 524.887 1075.91 526.679 1067.99 524.346L1059.47 541.688L1060.25 543.257L1056.28 551.051L1049.91 569.776L1047.09 581.877C1042.33 581.998 1036.61 580.918 1029.91 578.637C1030.53 576.817 1027.68 573.67 1021.37 569.198C1020.57 571.538 1019.39 572.443 1017.83 571.912L1017.86 568.002L1019.43 567.23L1019.83 566.06C1020.49 564.11 1018.82 560.059 1014.82 553.907L1025.39 522.894L1028.2 510.793L1029.37 511.191C1029.98 507.915 1027.78 505.425 1022.78 503.72L1021.63 499.412L1023.62 493.56L1030.7 488.133ZM1012.35 572.658L1011.96 573.828L1008.82 575.371L1008.05 573.802L1008.44 572.632L1010.01 571.86L1012.35 572.658ZM1031.45 581.775L1032.22 583.344L1031.83 584.514L1027.89 588.398L1029.06 588.797L1033.37 587.652C1032.31 590.773 1034.5 593.263 1039.97 595.124L1039.92 602.943L1037.92 608.794C1032.14 606.823 1029.55 604.2 1030.15 600.924C1028.06 601.953 1022.73 601.006 1014.14 598.082L1015.29 602.391L1021.54 603.213L1022.68 607.522L1029.73 606.004L1028.91 612.254L1023.8 615.739L1023.4 616.91L1024.97 616.138L1026.14 616.536C1024.81 620.437 1027.66 623.584 1034.68 625.976L1033.88 628.316L1035.05 628.715L1035.45 627.545L1035.48 623.635L1039.79 622.49C1044.13 625.712 1046.2 628.592 1045.99 631.132C1042.09 639.382 1038.68 643.009 1035.75 642.012L1000.64 630.053L992.075 624.524L989.735 623.727L980.746 623.277L979.974 621.708L982.764 613.516L983.986 606.095C986.699 603.029 988.924 601.61 990.66 601.838L997.682 604.23L998.479 601.89L999.649 602.288L998.878 600.719L1003.66 586.676L1006 587.473L1008.39 580.451C1013.07 582.046 1015.81 581.673 1016.61 579.332L1020.12 580.528L1023.61 585.633C1024.52 582.968 1027.13 581.681 1031.45 581.775ZM1013.85 583.615L1013.05 585.955L1020.07 588.347L1020.47 587.177L1018.93 584.039L1013.85 583.615ZM1022.41 589.144L1022.01 590.314C1024.35 591.112 1025.13 592.681 1024.33 595.021L1025.5 595.42L1026.69 591.909C1025.13 591.377 1024.75 589.941 1025.55 587.601L1022.41 589.144ZM1036.43 597.837L1036.4 601.747L1037.57 602.145L1038.77 598.635L1036.43 597.837ZM1016.78 613.347L1015.58 616.858L1018.7 619.225L1020.27 618.453L1021.46 614.942L1016.78 613.347ZM1014.34 628.188L1013.94 629.359L1017.08 627.815L1017.47 626.645L1014.34 628.188ZM1157.67 532.036L1161.16 537.141L1160.76 538.311L1157.99 542.594L1157.57 547.674C1152.21 549.333 1147.39 549.432 1143.1 547.97L1143.5 546.8C1144.65 543.419 1147.01 541.61 1150.57 541.373L1153.34 537.09L1149.08 530.416L1157.67 532.036ZM1136.21 526.031L1135.81 527.201L1137.38 526.429L1144.4 528.821L1145.94 531.959L1140.46 532.705C1139.02 536.931 1139.9 542.019 1143.1 547.97C1135.4 552.677 1124.3 576.323 1109.79 618.909C1104.48 634.513 1104.55 643.245 1110.01 645.105C1109.42 646.86 1112.65 650.14 1119.72 654.943L1117.73 660.794L1116.16 661.566L1116.93 663.135L1115.34 667.816L1113.77 668.588L1113.37 669.758L1105.58 665.797L1106.37 663.457L1111.48 659.971L1110.71 658.402L1111.11 657.232L1113.47 654.12L1112.3 653.721L1106.85 650.558L1107.62 652.127L1104.46 657.58L1103.26 661.091L1104.03 662.659L1103.64 663.83L1099.73 663.804C1096.67 662.763 1094.21 659.75 1092.36 654.764L1091.19 654.365L1089.62 655.137L1088.45 654.738L1084.19 648.064L1083.02 647.665L1083.42 646.495L1084.99 645.723L1085.39 644.553L1083.84 641.415L1077.59 640.592C1069.25 630.568 1066.1 614.257 1068.14 591.659L1069.33 588.148L1072.47 586.605L1071.33 582.297L1075.71 569.423C1081.9 555.932 1086.77 549.317 1090.31 549.579L1094.22 549.605L1093.87 542.956C1100.95 535.791 1105.67 532.173 1108.02 532.102L1108.79 533.671L1109.96 534.069L1116.61 533.722L1117.38 535.291C1120.82 526.886 1126.18 523.923 1133.47 526.404L1135.04 525.632L1136.21 526.031ZM1177.09 536.366C1190.98 541.604 1197.21 546.337 1195.77 550.563L1196.94 550.962L1207.52 546.73L1213.37 548.723L1212.57 551.064C1210.23 550.267 1208.01 551.686 1205.9 555.321L1209.36 564.336L1201.39 587.742C1198.73 595.544 1194.28 598.382 1188.04 596.256C1187.51 597.816 1185.68 598.065 1182.56 597.002L1181.89 579.795C1177.41 566.733 1172.15 555.361 1166.08 545.677L1165.31 544.108L1165.71 542.938C1167.84 536.696 1171.63 534.506 1177.09 536.366ZM1173.5 546.898L1173.11 548.069L1178.13 556.312L1180.48 557.109L1187.18 548.943C1187.62 546.774 1186.2 544.549 1182.92 542.268C1178.24 540.674 1175.1 542.217 1173.5 546.898ZM1184.68 571.603L1183.88 573.943C1183.02 576.479 1186.26 579.758 1193.59 583.781L1193.99 582.611L1194.82 576.361L1196.38 575.589C1194.04 574.792 1193.54 572.443 1194.87 568.542L1192.53 567.744L1184.68 571.603ZM1117.65 553.668C1117.88 558.969 1118.64 561.841 1119.94 562.284L1125.79 564.278L1126.59 561.937L1120.74 559.944L1123.9 554.491L1125.07 554.89L1125.84 556.458L1127.01 556.857L1127.41 555.687L1127.44 551.777L1125.1 550.98L1117.65 553.668ZM1097.6 570.349L1096.38 577.769L1098.72 578.566L1100.31 573.885L1098.77 570.747L1097.6 570.349ZM1177.72 634.21L1180.81 640.486L1180.41 641.656C1174.32 659.536 1161.99 671.445 1143.43 677.383L1127.02 675.712C1126.05 670.884 1126.21 666.584 1127.49 662.813C1129.2 657.807 1135.73 655.243 1147.09 655.122C1155.46 651.006 1163.2 643.629 1170.3 632.989L1171.87 632.217L1177.72 634.21ZM1073.89 609.29L1073.09 611.631L1076.55 620.646L1080.06 621.842L1083.2 620.298L1080.11 614.023L1080.51 612.852L1082.08 612.081L1082.48 610.91L1073.89 609.29ZM1099.91 636.437L1099.88 640.347L1101.05 640.746L1104.19 639.202L1104.59 638.032L1099.91 636.437ZM1095.57 641.492L1096.34 643.061L1095.94 644.231L1092.78 649.684L1093.55 651.253L1091.98 652.024L1095.1 654.391L1102.59 643.883L1101.82 642.315L1100.65 641.916L1095.57 641.492ZM1266.79 570.837L1267.56 572.406L1265.99 573.178L1265.2 575.518L1266.74 578.656L1267.91 579.055L1269.5 574.373L1270.67 574.772L1272.22 577.91L1269.83 584.932L1254.96 586.398C1249.66 589.166 1246.25 592.792 1244.72 597.278C1242.6 603.52 1251.79 612.312 1272.31 623.654C1282.42 631.453 1289.53 641.273 1293.62 653.116C1300.21 664.432 1301.44 676.169 1297.3 688.328C1294.55 696.39 1286.55 704.548 1273.29 712.802C1259.44 717.663 1250.18 719.297 1245.5 717.702L1236.14 714.513L1233.05 708.237L1235.44 701.216L1255.01 697.434C1255.81 695.093 1256.99 694.189 1258.55 694.72L1260.89 695.518L1259.32 696.289L1258.92 697.46L1262.43 698.656L1263.23 696.315L1260.89 695.518L1261.29 694.347L1264.8 695.543L1264.78 699.453L1265.95 699.851C1270.17 701.291 1273.43 700.661 1275.73 697.961L1276.13 696.79L1274.56 697.562L1272.22 696.765L1272.62 695.594L1274.99 692.482L1274.21 690.913L1270.7 689.717L1262.88 689.666C1266.34 679.524 1262.61 672.592 1251.68 668.871L1220.93 647.949C1206.98 632.675 1203.31 615.318 1209.94 595.878L1211.13 592.367C1216.36 577.023 1229.71 568.509 1251.18 566.825L1250.75 571.905L1254.26 573.101L1257.4 571.557L1256.63 569.989L1266.79 570.837ZM1292.54 579.607L1292.14 580.777L1287.8 585.831L1287.78 589.741L1288.95 590.14L1293.26 588.995L1296.37 591.361L1296.77 590.191L1296.42 583.542L1297.99 582.77L1299.16 583.169C1298.36 585.51 1299.52 587.211 1302.64 588.274L1301.42 595.695L1302.59 596.093C1303.39 593.753 1306.52 593.513 1311.98 595.373C1313.42 591.147 1316.3 589.081 1320.62 589.174C1325.04 591.549 1326.98 593.516 1326.45 595.077L1324.86 599.758C1322.91 605.479 1320.67 608.202 1318.16 607.924L1315.81 607.127L1315.04 605.558L1313.87 605.16L1306 612.927C1307.56 613.459 1307.94 614.895 1307.15 617.236L1308.32 617.634C1308.92 615.879 1312.71 613.688 1319.7 611.062L1320.47 612.631L1320.07 613.801C1318.06 613.115 1315.57 615.314 1312.6 620.399L1313.77 620.798L1317.68 620.823L1318.45 622.392L1318.05 623.562C1312.94 627.917 1309.67 629.85 1308.24 629.363L1307.07 628.964C1298.21 608.532 1289.17 596.744 1279.93 593.599C1276.81 592.536 1275.52 591.225 1276.05 589.664C1278.97 581.082 1282.39 577.455 1286.29 578.784L1292.54 579.607ZM1252.66 639.164L1252.63 643.074C1255.17 643.286 1258.05 641.22 1261.27 636.875L1260.5 635.306C1257.38 634.243 1255.16 635.662 1253.83 639.563L1252.66 639.164ZM1272.58 642.031L1271.38 645.542L1273.72 646.34L1274.92 642.829L1272.58 642.031ZM1267.82 652.165L1267.42 653.336L1270.93 654.532L1270.53 655.702L1267 658.416L1268.17 658.814C1269.9 659.043 1272.13 657.624 1274.84 654.557L1272.13 651.021L1270.96 650.622L1267.82 652.165ZM1203.67 656.437C1205.75 658.015 1206.12 660.754 1204.79 664.655L1203.6 668.166C1206.91 669.295 1211.83 675.322 1218.34 686.247C1224.99 691.851 1228.09 695.52 1227.65 697.255L1225.26 704.277C1224.61 706.162 1220.31 706.004 1212.36 703.801L1209.64 700.265L1203.39 699.442L1188.6 689.18C1185.19 693.241 1182.83 695.05 1181.53 694.607L1178.02 693.411C1175.68 692.614 1175.97 687.924 1178.89 679.342L1186.87 655.936C1187.46 654.181 1189.81 653.675 1193.91 654.418L1195.46 657.556C1197.03 655.481 1199.77 655.108 1203.67 656.437ZM1195.03 662.636L1196.18 666.944L1200.09 666.97L1199.29 669.31L1201.63 670.108L1202.43 667.767L1195.43 661.466L1195.03 662.636Z" fill="#9F967B"/>
<path d="M122.79 683.524L134.567 676.724L137.945 677.63L138.563 678.7L138.111 680.389L145.816 688.789L147.052 690.93L145.981 691.548L153.234 701.637L155.706 705.92L172.562 737.588L174.251 738.041L174.869 739.111L176.271 744.012L179.362 749.366L184.142 755.172L183.689 756.861L184.307 757.931L196.958 774.897L197.741 778.727C206.52 775.8 211.271 774.961 211.992 776.21C216.159 786.176 217.054 791.846 214.674 793.22L192.356 808.961L190.667 808.508L189.596 809.126L185.931 812.67C179.232 815.903 175.608 817.044 175.059 816.092L174.606 817.781L170.324 820.253C163.877 818.979 159.675 816.646 157.718 813.255L156.481 811.114C160.195 803.26 163.955 798.234 167.762 796.036L165.908 792.824L162.696 794.678L160.841 791.466L157.298 787.801L157.75 786.113L157.132 785.042L147.407 770.67L146.789 769.6L144.769 763.628L139.989 757.822L129.48 739.62L125.937 735.956L119.424 719.73L117.735 719.277C109.081 704.287 107.252 695.35 112.249 692.465L122.79 683.524ZM77.3683 711.176L85.0288 709.608L93.5943 704.663L98.3296 700.502L100.018 700.954L101.873 704.166C105.067 709.698 103.93 718.444 98.4627 730.404L99.9535 755.24C92.4034 758.647 88.2163 759.637 87.3921 758.21L81.8286 748.573L80.4266 743.672L77.5014 741.078L74.6975 731.277L69.9178 725.471L67.4452 721.188C66.621 719.76 69.9287 716.423 77.3683 711.176ZM145.44 673.302L147.581 672.066L149.27 672.519L149.723 670.83L155.076 667.739C160.21 665.092 163.121 664.363 163.807 665.553L168.543 661.392L171.755 659.537L173.444 659.99L174.514 659.371L192.772 695.941C188.252 698.551 185.507 702.039 184.538 706.405L170.53 694.506L149.48 685.246L144.535 676.68L145.44 673.302ZM147.593 709.176C148.83 711.318 148.734 712.801 147.306 713.625L148.543 715.766L153.444 714.364L149.735 707.94L147.593 709.176ZM160.619 741.628L159.262 746.695L157.573 746.243L156.502 746.861L158.356 750.073L163.754 756.949L161.613 758.186L157.451 753.45L156.381 754.069C158.029 756.924 158.14 758.764 156.712 759.588L158.401 760.04L160.255 763.252L159.185 763.871L157.496 763.418L156.425 764.036L154.405 758.065L153.169 755.923L151.027 757.159L152.716 757.612L153.952 759.753L152.882 760.372L148.433 760.085L145.839 763.01L146.458 764.081C147.885 763.256 149.217 763.915 150.454 766.056L151.524 765.438L150.288 763.297C151.715 762.473 154.022 763.996 157.209 767.866L159.35 766.63L159.968 767.701L160.421 766.012L161.492 765.394L163.181 765.846L163.633 764.157L164.704 763.539C166.845 762.303 168.534 762.755 169.77 764.897L172.817 760.283L170.962 757.071L166.68 759.543L166.061 758.473C165.314 753.194 166.219 749.816 168.777 748.34L165.686 742.986C163.544 744.222 162.062 744.127 161.237 742.699L163.379 741.463L162.761 740.392L160.619 741.628ZM160.631 778.739L162.486 781.951L164.627 780.715L164.009 779.644L160.631 778.739ZM158.655 782.735L158.203 784.424L159.439 786.565L162.651 784.711L162.033 783.64L158.655 782.735ZM166.768 779.478L170.93 784.214L168.954 788.21C171.653 791.648 175.237 792.91 179.705 791.995L182.917 790.141C181.269 787.286 181.515 785.24 183.657 784.004C180.237 779.316 176.296 778.26 171.835 780.836L169.98 777.624L166.768 779.478ZM330.994 730.941C321 736.71 313.943 736.026 309.822 728.888C311.632 722.132 315.036 717.312 320.032 714.428L324.315 711.955L323.366 705.365L318.299 704.008L318.752 702.319L317.063 701.866C315.228 695.391 305.996 676.928 289.367 646.477C278.514 627.681 265.909 620.683 251.549 625.483L244.297 615.395C244.199 610.692 246.024 607.259 249.772 605.096C274.576 590.775 303.08 598.111 335.285 627.104L335.903 628.175C333.777 632.734 334.053 637.333 336.731 641.972C338.873 640.736 340.768 641.546 342.416 644.401L344.557 643.164C348.198 649.47 348.323 654.632 344.933 658.651L343.244 658.198L342.174 658.817L342.052 666.025L352.185 668.74C353.439 674.757 353.469 681.402 352.274 688.675L351.204 689.293C348.868 685.248 345.078 683.629 339.834 684.436L336.622 686.291C338.545 689.622 339.274 692.532 338.808 695.022L340.044 697.163C340.868 698.591 343.628 698.425 348.323 696.666L350.917 693.741L351.535 694.812L344.868 712.937L342.727 714.173L338.278 713.886L337.208 714.504L336.303 717.882L337.991 718.335L330.994 730.941ZM302.085 747.631L301.014 748.249L292.57 745.986L292.117 747.675L292.736 748.746L294.424 749.199L291.83 752.124C269.372 759.38 256.288 759.796 252.579 753.372C247.761 756.154 235.125 742.511 214.673 712.443L215.125 710.754L214.507 709.684L211.582 707.09C207.505 694.533 204.686 681.409 203.126 667.717L209.097 665.696L211.239 664.46L212.144 661.082L206.293 655.895C208.159 636.735 215.308 623.566 227.74 616.388L229.881 615.152L240.18 620.627C242.137 624.017 240.478 630.21 235.202 639.204C232.525 640.75 235.178 651.114 243.161 670.299L248.559 677.175L262.324 703.49L264.179 706.702L269.577 713.579L268.506 714.197C277.984 730.614 287.72 735.938 297.713 730.169L304.8 737.498L306.036 739.639L302.085 747.631ZM282.934 751.55L279.556 750.645L278.485 751.263L279.722 753.404L282.934 751.55ZM341.777 707.583L341.159 706.513L337.781 705.608L339.636 708.82L341.777 707.583ZM350.088 679.944L348.234 676.731L347.329 680.109L347.947 681.18L350.088 679.944ZM330.485 685.551L328.012 681.269L326.941 681.887L328.178 684.028L324.966 685.883L324.347 684.812L324.634 680.364L322.78 677.152L315.406 674.271L314.954 675.96L311.742 677.814L310.053 677.362L308.982 677.98L309.6 679.05L313.762 683.786L313.309 685.475C314.737 684.65 317.401 685.967 321.301 689.426C324.87 687.365 327.067 687.049 327.891 688.477L330.485 685.551ZM248.947 729.772L247.092 726.56L243.714 725.655L241.573 726.892C244.526 729.945 246.627 731.112 247.876 730.391L248.947 729.772ZM264.344 709.462L260.967 708.557L259.896 709.175L261.132 711.316L264.344 709.462ZM325.572 649.843C322.315 647.361 319.857 646.401 318.198 646.962L312.845 650.053L314.081 652.194L317.293 650.34L317.911 651.411L317.625 655.859L318.243 656.93L321.62 657.835C325.903 655.362 327.22 652.698 325.572 649.843ZM310.582 658.497L309.964 657.427L304.898 656.069L305.681 659.899L307.37 660.352L310.582 658.497ZM226.737 701.195L227.476 695.058L225.335 696.294L224.717 695.223L225.169 693.534L224.551 692.464L222.862 692.011L220.721 693.248C221.717 694.973 221.677 697.375 220.6 700.456L226.737 701.195ZM232.123 670.961L232.576 669.272L231.957 668.202L230.268 667.749L225.986 670.222L232.123 670.961ZM284.09 632.393L283.427 621.354L278.074 624.445L279.31 626.587L278.24 627.205L279.928 627.657L280.547 628.728L281.949 633.629L284.09 632.393ZM315.264 573.47L317.406 572.234L327.66 567.741L328.112 566.052L334.084 564.032L337.296 562.177L355.95 549.98C365.944 544.21 373.207 545.251 377.74 553.103L371.813 565.091L366.746 563.733C364.509 566.452 363.7 568.347 364.318 569.418L365.554 571.559L369.716 576.294L373.998 573.822L374.451 572.133L375.522 571.515L377.211 571.967L379.065 575.179L378.612 576.868L380.301 577.321L397.489 614.508L404.575 621.837L407.048 626.12L404.907 627.356L406.143 629.498C408.998 627.849 413.723 632.735 420.316 644.156L419.864 645.845L418.793 646.463L417.104 646.011L417.601 654.289L436.631 657.578L439.722 662.932C440.176 667.428 437.638 671.273 432.106 674.467L422.591 672.822L423.043 671.133L422.425 670.063L420.284 671.299L419.666 670.228L415.427 682.668L407.933 686.996C398.118 692.662 389.688 693.722 382.644 690.175L380.171 685.892C379.485 684.703 380.802 682.039 384.123 677.901L384.41 673.452L380.248 668.717L377.776 664.434L379.917 663.198L381.771 666.41L383.913 665.174L381.109 655.372L380.038 655.99L380.491 654.301L379.254 652.16C373.9 651.127 369.23 647.161 365.247 640.261L360.301 631.695L356.758 628.031L357.211 626.342L356.592 625.271L346.249 609.829L338.666 594.221L343.567 592.819L348.302 588.658L346.447 585.446C344.306 586.682 341.999 585.159 339.526 580.876L334.338 586.726C332.278 583.157 330.534 581.785 329.106 582.609C323.821 583.757 320.292 583.415 318.521 581.583L315.264 573.47ZM381.647 535.144L409.485 519.071L411.174 519.524L411.626 517.835L412.697 517.217L414.386 517.669L421.263 512.272L426.616 509.181L431.683 510.538L434.773 515.892C436.25 518.45 431.268 524.657 419.828 534.514L416.175 575.167C443.548 592.357 466.247 604.473 484.271 611.515C495.118 613.818 500.953 615.683 501.778 617.111C502.915 625.812 502.835 630.618 501.535 631.527L498.323 633.381L496.634 632.928L496.182 634.617L495.111 635.235L493.422 634.783L471.721 651.595L461.467 656.087L458.873 659.013C452.316 655.898 448.059 652.646 446.102 649.255L448.817 639.122L414.377 619.033L408.693 616.605L409.598 613.227C401.667 607.734 396.792 603.41 394.972 600.258C393.667 597.997 394.446 589.457 397.311 574.638L399.651 549.018L397.178 544.736C394.62 546.212 391.861 546.378 388.899 545.232L388.447 546.921L387.376 547.539L383.998 546.634L380.289 540.21L381.647 535.144ZM351.227 591.252L352.011 595.082L354.152 593.845L352.298 590.633L351.227 591.252ZM366.924 603.603L376.439 605.247L377.012 596.351C375.406 597.278 373.305 596.112 370.71 592.852L366.427 595.324C364.697 597.274 364.863 600.034 366.924 603.603ZM389.751 633.251L391.319 640.912L393.173 644.124L402.688 645.768L403.759 645.15C404.558 638.978 405.82 635.395 407.545 634.399L406.927 633.328C404.785 634.564 403.097 634.112 401.86 631.97C399.54 633.31 395.504 633.737 389.751 633.251ZM396.882 650.548L397.501 651.618C400.22 653.855 402.115 654.665 403.185 654.047L401.331 650.835L397.953 649.93L396.882 650.548ZM389.145 669.291L391.618 673.574C395.522 676.078 399.408 676.214 403.274 673.982L404.345 673.364L400.923 662.491C399.995 660.885 397.593 660.845 393.715 662.37C389.844 665.556 388.321 667.863 389.145 669.291ZM408.131 662.612L409.367 664.754L413.197 663.97L412.579 662.899L409.201 661.994L408.131 662.612ZM390.26 678.64L392.733 682.923L393.638 679.545L390.26 678.64ZM445.601 490.963L453.714 487.706L486.288 467.472L496.918 478.466L508.376 503.258L521.644 521.294L534.493 513.876L539.228 509.714L546.27 507.076L552.694 503.367L556.072 504.272L557.308 506.414L559.328 512.385L558.258 513.003L553.809 512.717L551.381 518.401C553.331 520.131 556.091 519.965 559.66 517.904L560.112 516.215L561.801 516.668L562.419 517.739C560.707 521.503 557.399 524.841 552.496 527.751L551.878 526.68L551.426 528.369L545.454 530.389L532.606 537.807L532.153 539.496L531.082 540.114L532.319 542.255L533.389 541.637L541.591 558.316L547.155 567.952L546.415 574.089L548.888 578.372C551.029 577.136 552.512 577.231 553.336 578.659L555.809 582.942C558.556 587.7 558.475 592.505 555.566 597.357L549.595 599.378L539.959 604.941L529.87 612.193L529.252 611.123L528.799 612.812L527.728 613.43C518.449 618.787 511.543 617.54 507.01 609.688L506.391 608.618C508.771 607.244 510.651 604.731 512.032 601.078L488.873 565.911L484.998 556.727L480.219 550.921L480.671 549.233L476.51 544.497L456.397 504.716L454.256 505.952L453.638 504.882L453.185 506.571L451.044 507.807C449.616 508.631 448.284 507.973 447.048 505.831L445.601 490.963ZM502.021 456.604L503.71 457.057L519.153 446.713L528.789 441.15C533.785 438.265 537.726 439.321 540.611 444.318L551.738 463.59L553.14 468.491L556.065 471.085L553.018 475.699L549.188 476.483L547.831 481.549L544.618 483.404C540.394 476.087 533.624 470.955 524.308 468.006C523.072 465.865 521.383 465.412 519.241 466.648L516.195 471.262C505.954 474.954 500.284 475.849 499.185 473.945C499.788 471.693 498.648 468.069 495.763 463.073L502.021 456.604ZM492.227 492.595L495.605 493.5L496.841 495.642L495.152 495.189L491.94 497.044L493.176 499.185L496.388 497.331L496.841 495.642L497.912 495.024L499.6 495.476L500.053 493.787L499.435 492.717L495.273 487.981L493.132 489.218L492.227 492.595ZM517.119 538.183L518.973 541.395C520.686 543.261 524.159 542.683 529.394 539.661L529.68 535.213C526.028 533.832 523.515 531.952 522.141 529.573C517.694 533.409 516.02 536.279 517.119 538.183ZM516.016 565.944C518.871 564.295 520.711 564.185 521.535 565.612L522.319 569.443L522.771 567.754L523.842 567.136L525.531 567.588L526.601 566.97L526.888 562.522L526.27 561.451L518.897 558.57C516.415 561.827 515.455 564.285 516.016 565.944ZM528.864 558.526L530.553 558.978L532.694 557.742L533.599 554.364L531.911 553.912L529.769 555.148L528.864 558.526ZM576.295 534.354L577.365 533.735L580.743 534.641L581.979 536.782L581.527 538.471L582.145 539.541C586.412 537.316 590.147 538.015 593.349 541.638L594.42 541.02L592.565 537.808L590.876 537.356L590.258 536.285L590.711 534.596L591.781 533.978L593.47 534.431L595.325 537.643L594.872 539.331L596.561 539.784L599.652 545.137L604.145 555.392L608.924 561.198L606.496 566.883L600.072 570.592L589.817 575.084L582.941 580.482L580.468 576.199L573.018 590.494C571.412 591.421 567.868 587.757 562.388 579.5L576.097 558.737C577.286 558.05 580.156 559.724 584.707 563.759C590.005 559.749 592.242 557.029 591.418 555.602C588.121 549.891 584.331 548.273 580.048 550.745L578.977 551.363L577.741 549.222L577.244 540.943L579.386 539.707L580.622 541.848L581.693 541.23L579.838 538.018L576.295 534.354ZM643.396 381.881L650.438 379.243L650.891 377.554L651.962 376.936L660.858 377.51L665.594 373.348C670.951 382.628 671.845 388.298 668.276 390.358C664.351 392.625 664.064 397.073 667.416 403.703L672.195 409.509L673.597 414.41L677.141 418.075L676.688 419.764L677.306 420.834L681.468 425.57L682.87 430.471L686.413 434.135L693.379 448.672L693.997 449.743L692.926 450.361C677.496 448.087 668.227 444.397 665.121 439.291L661.412 432.866L662.438 422.281L660.749 421.828L657.537 423.683L659.392 426.895L656.014 425.99L654.777 423.848L655.848 423.23L650.45 416.354L644.887 406.717L637.226 408.285L633.562 411.828C632.134 412.652 630.802 411.994 629.566 409.853C623.796 399.859 623.767 393.214 629.477 389.918L643.396 381.881ZM594.762 411.388C605.945 412.624 613.374 416.425 617.049 422.79C619.19 421.553 621.085 422.363 622.734 425.218C626.825 425.711 636.767 431.392 652.559 442.26C678.473 455.137 697.794 466.348 710.522 475.892L710.069 477.581L714.231 482.316L716.085 485.528L715.633 487.217L717.321 487.67L717.94 488.741C718.626 489.93 715.58 494.544 708.8 502.583L710.037 504.724C712.892 503.076 714.731 502.965 715.556 504.393L715.103 506.082L714.032 506.7C711.891 507.936 710.202 507.484 708.966 505.342L705.754 507.197C706.99 509.338 704.396 512.263 697.972 515.972C697.148 514.545 694.951 514.861 691.382 516.922L687.221 512.186C689.362 510.95 689.815 509.261 688.578 507.12L694.55 505.1C695.056 498.146 696.469 493.999 698.788 492.66L697.552 490.518L691.084 484.26L688.942 485.496L690.178 487.637L686.966 489.492C684.082 484.495 681.212 482.821 678.356 484.47L677.451 487.847L674.074 486.942L677.33 495.055L683.467 495.795L684.086 496.865L681.944 498.102L691.007 501.435L691.625 502.506L690.554 503.124L682.728 501.932L681.823 505.31L683.964 504.073L685.201 506.215L682.607 509.14L635.561 482.053L636.919 476.987C632.636 479.459 629.671 479.268 628.022 476.413C597.809 458.563 579.725 449.494 573.769 449.205C568.524 450.012 565.559 449.821 564.872 448.631L564.254 447.561L570.225 445.54L572.819 442.615L570.347 438.332L561.947 446.037L560.258 445.585L559.64 444.514L560.092 442.825L554.739 445.916L552.266 441.633C551.506 439.217 553.743 436.498 558.977 433.476L560.666 433.928L561.737 433.31L565.401 429.767L567.543 428.531L570.92 429.436L570.633 433.884C571.698 435.728 575.021 435.713 580.601 433.84L579.365 431.698L575.369 429.723L573.514 426.51L594.762 411.388ZM576.815 444.591L578.504 445.043L579.575 444.425L580.027 442.736L578.173 439.524L576.815 444.591ZM590.282 438.244L592.754 442.526L596.584 441.743L595.966 440.672L590.282 438.244ZM583.405 443.642L584.023 444.712C584.847 446.14 586.687 446.029 589.542 444.381L590.778 446.522L592.92 445.286L591.684 443.145L583.405 443.642ZM575.954 457.936L578.096 456.7C579.048 456.15 582.33 458.538 587.942 463.863L595.316 466.744C596.14 468.172 595.124 469.71 592.269 471.358L592.887 472.429C597.17 469.956 599.724 469.434 600.548 470.861L601.95 475.762L603.639 476.215L604.709 475.597L605.614 472.219C617.828 475.24 628.759 485.108 638.41 501.823L644.591 512.53C646.652 516.099 651.718 517.456 659.791 516.602L661.027 518.744L661.811 522.574L666.591 528.38L667.209 529.451L666.922 533.899L660.95 535.919L654.074 541.317L653.456 540.246L653.003 541.935L643.367 547.499L625.618 556.319L621.953 559.862C618.198 558.303 614.86 554.995 611.941 549.939C613.857 545.977 616.451 543.052 619.723 541.163L614.778 532.598L615.804 522.012L611.974 522.796L611.069 526.174L609.38 525.721L592.689 496.812L586.055 487.794L580.779 473.71L579.09 473.257L578.471 472.186C575.366 463.51 574.527 458.76 575.954 457.936ZM610.592 453.642L611.21 454.712C613.264 456.62 615.515 457.223 617.966 456.522L618.253 452.074L614.875 451.169L610.592 453.642ZM604.301 487.253L607.226 489.847L605.085 491.083L608.463 491.988L613.198 487.827L611.344 484.615L606.277 483.257L604.301 487.253ZM639.844 479.581L640.462 480.651L644.006 484.316L646.147 483.08L647.052 479.702C646.125 478.096 643.722 478.055 639.844 479.581ZM687.496 470.628L688.114 471.698L691.492 472.603L692.397 469.226L691.779 468.155L687.496 470.628ZM632.571 533.745L631.5 534.363L629.812 533.911L628.741 534.529L629.977 536.67C632.832 535.022 635.29 535.982 637.351 539.551L643.941 538.602L646.369 532.917L645.133 530.776L642.207 528.182L642.66 526.493L636.07 527.442L632.571 533.745ZM823.155 446.791C813.162 452.561 806.105 451.876 801.983 444.738C803.794 437.983 807.197 433.163 812.193 430.278L816.476 427.806L815.527 421.216L810.46 419.858L810.913 418.169L809.224 417.717C807.389 411.242 798.157 392.779 781.528 362.328C770.676 343.531 758.07 336.533 743.71 341.334L736.458 331.245C736.36 326.543 738.185 323.11 741.933 320.946C766.737 306.626 795.242 313.962 827.446 342.955L828.064 344.025C825.938 348.584 826.214 353.183 828.893 357.823C831.034 356.587 832.929 357.396 834.577 360.251L836.719 359.015C840.359 365.32 840.484 370.482 837.094 374.502L835.406 374.049L834.335 374.667L834.214 381.875L844.347 384.59C845.6 390.608 845.63 397.253 844.435 404.525L843.365 405.143C841.029 401.099 837.24 399.48 831.995 400.287L828.783 402.141C830.706 405.472 831.435 408.383 830.969 410.873L832.205 413.014C833.03 414.442 835.789 414.276 840.484 412.517L843.078 409.592L843.696 410.663L837.029 428.787L834.888 430.024L830.44 429.737L829.369 430.355L828.464 433.733L830.153 434.185L823.155 446.791ZM794.246 463.482L793.175 464.1L784.731 461.837L784.279 463.526L784.897 464.597L786.586 465.049L783.992 467.974C761.533 475.231 748.449 475.647 744.74 469.223C739.922 472.004 727.286 458.361 706.834 428.294L707.286 426.605L706.668 425.534L703.743 422.94C699.666 410.384 696.847 397.259 695.287 383.567L701.258 381.547L703.4 380.311L704.305 376.933L698.454 371.745C700.32 352.585 707.469 339.417 719.901 332.239L722.042 331.003L732.341 336.477C734.298 339.868 732.639 346.06 727.363 355.055C724.686 356.6 727.339 366.965 735.322 386.149L740.72 393.026L754.485 419.341L756.34 422.553L761.738 429.429L760.667 430.048C770.146 446.465 779.881 451.789 789.875 446.019L796.961 453.348L798.198 455.49L794.246 463.482ZM775.095 467.401L771.717 466.495L770.647 467.114L771.883 469.255L775.095 467.401ZM833.939 423.434L833.32 422.363L829.943 421.458L831.797 424.67L833.939 423.434ZM842.25 395.794L840.395 392.582L839.49 395.96L840.108 397.03L842.25 395.794ZM822.646 401.402L820.173 397.119L819.103 397.737L820.339 399.879L817.127 401.733L816.509 400.663L816.796 396.214L814.941 393.002L807.568 390.121L807.115 391.81L803.903 393.665L802.214 393.212L801.143 393.83L801.762 394.901L805.923 399.636L805.471 401.325C806.898 400.501 809.562 401.818 813.462 405.277C817.031 403.216 819.228 402.9 820.052 404.327L822.646 401.402ZM741.108 445.623L739.253 442.411L735.876 441.506L733.734 442.742C736.687 445.796 738.788 446.962 740.037 446.241L741.108 445.623ZM756.506 425.312L753.128 424.407L752.057 425.025L753.294 427.167L756.506 425.312ZM817.733 365.694C814.476 363.212 812.018 362.252 810.36 362.813L805.006 365.904L806.242 368.045L809.455 366.19L810.073 367.261L809.786 371.71L810.404 372.78L813.782 373.685C818.064 371.213 819.382 368.549 817.733 365.694ZM802.743 374.348L802.125 373.277L797.059 371.92L797.843 375.75L799.531 376.202L802.743 374.348ZM718.898 417.046L719.638 410.908L717.496 412.145L716.878 411.074L717.331 409.385L716.712 408.314L715.024 407.862L712.882 409.098C713.878 410.823 713.838 413.226 712.761 416.306L718.898 417.046ZM724.284 386.812L724.737 385.123L724.119 384.052L722.43 383.6L718.147 386.072L724.284 386.812ZM776.251 348.243L775.589 337.205L770.235 340.296L771.471 342.437L770.401 343.055L772.09 343.508L772.708 344.578L774.11 349.479L776.251 348.243ZM812.138 280.175L825.771 276.587L829.435 273.044C830.259 274.472 831.742 274.567 833.884 273.331L841.831 267.315C849.683 262.782 855.051 263.013 857.936 268.01L921.009 312.967L920.557 314.656L923.934 315.561L925.171 317.702C924.764 335.544 926.678 352.046 930.912 367.209L928.77 368.445C920.043 367.615 912.051 363.663 904.795 356.591C889.724 346.971 871.926 333.453 851.402 316.037L852.473 315.419L850.784 314.967L850.166 313.896L850.618 312.207L850 311.136L840.485 309.492L839.249 307.351L842.461 305.496C840.813 302.641 838.561 302.038 835.706 303.686C833.645 300.117 834.042 297.508 836.898 295.86L834.712 287.129L826.886 285.937L827.338 284.248L825.484 281.036C824.086 288.505 824.06 294.23 825.407 298.211L821.124 300.684L814.821 297.185L814.203 296.114C810.906 290.404 811.399 286.312 815.682 283.84L813.993 283.387L812.138 280.175ZM911.713 222.686L919.373 221.118L919.705 226.637L926.626 231.207L927.696 230.589C925.636 227.02 926.39 224.205 929.959 222.145L924.727 218.027L930.08 214.937L933.458 215.842L939.021 225.478C939.743 226.727 938.576 228.828 935.522 231.781L936.924 236.682L938.613 237.134L942.94 244.629C944.177 246.771 942.653 249.078 938.371 251.55L938.989 252.621L941.914 255.215L940.843 255.833L942.532 256.286L948.427 271.441L947.356 272.059L942.908 271.772L942.455 273.461L940.767 273.008L942.003 275.15L947.688 277.578L948.14 275.889L950.281 274.653L952.136 277.865L951.231 281.243L949.542 280.79L948.471 281.408L947.732 287.546L948.35 288.616L951.728 289.521L961.364 283.958L965.978 287.004L967.214 289.146C968.068 295.157 966.614 301.706 962.855 308.794L968.087 312.911L966.111 316.907L960.427 314.479L957.833 317.404L956.144 316.951L955.526 315.88L955.978 314.192L955.36 313.121C953.932 313.945 952.6 313.287 951.364 311.145L947.081 313.618C948.318 315.759 948.222 317.242 946.794 318.066L945.724 318.684C943.801 315.353 940.368 313.528 935.425 313.21C934.189 311.068 931.319 309.394 926.815 308.187L898.06 290.527C893.274 266.166 891.883 252.217 893.887 248.681L892.198 248.229L891.58 247.158C890.736 241.3 891.229 237.209 893.059 234.884L900.553 230.556L911.713 222.686ZM914.12 281.255L913.381 287.392C914.205 288.819 916.045 288.709 918.9 287.061L922.443 290.725L924.585 289.489L925.49 286.111L922.399 280.758C920.449 279.028 917.689 279.194 914.12 281.255ZM926.439 292.701L925.203 290.56L924.132 291.178L924.751 292.248L927.676 294.842L926.605 295.46L929.53 298.054L930.601 297.436L928.746 294.224L931.958 292.37C933.565 291.442 935.665 292.609 938.261 295.869L940.69 290.184L940.071 289.113C937.93 290.35 935.829 289.183 933.769 285.614L931.627 286.851L931.009 285.78L926.439 292.701ZM861.293 333.168L878.965 341.524L891.947 364.008L893.349 368.909C895.409 372.478 898.224 373.233 901.793 371.172C908.877 370.255 912.762 370.391 913.449 371.58C917.447 379.741 918.643 384.285 917.037 385.212L909.376 386.78L903.736 394.319L899.453 396.792L895.005 396.505L894.1 399.883L892.411 399.43L890.557 396.218L891.627 395.6L895.457 394.816L896.363 391.438L897.433 390.82L898.67 392.962L901.882 391.107L900.193 390.655L900.645 388.966L899.409 386.824L897.268 388.061L896.649 386.99L895.866 383.16L894.795 383.778C893.367 384.602 892.035 383.943 890.799 381.802L890.015 377.972L888.945 378.59C882.108 381.585 878.278 382.369 877.454 380.941L877.906 379.253L878.977 378.634L883.425 378.921L886.638 377.067L885.854 373.237L880.787 371.879L878.888 358.699L875.511 357.794L877.652 356.558L874.561 351.205C869.9 345.33 864.834 343.972 859.361 347.132L858.743 346.061C860.349 345.134 860.335 341.811 858.699 336.094L861.293 333.168ZM947.158 296.442L949.013 299.654L953.295 297.182L952.059 295.04L947.158 296.442ZM873.579 371.758L877.409 370.974L878.028 372.045L873.745 374.517L874.197 372.828L873.579 371.758ZM948.546 332.639L949.617 332.021C951.044 331.197 953.557 333.077 957.156 337.662L960.986 336.878C958.514 332.595 959.062 329.423 962.631 327.363L965.556 329.957L966.627 329.339L969.96 320.276C972.913 323.33 975.014 324.496 976.263 323.775L978.857 320.85L981.948 326.203L983.018 325.585L983.471 323.896L984.542 323.278L986.23 323.731L986.849 324.801L986.396 326.49L988.085 326.943L985.943 328.179L986.562 329.25L1000.07 332.87C1000.29 336.549 998.976 339.213 996.121 340.862L993.648 336.579L992.578 337.197C993.917 339.517 994.233 341.714 993.527 343.787L987.555 345.807L979.608 351.823C978.372 349.682 976.683 349.229 974.542 350.465L972.521 344.494L968.073 344.207L967.168 347.585L968.857 348.037C971.467 352.558 968.682 358.449 960.501 365.71L953.128 362.829L946.946 352.122C946.122 350.694 948.51 347.412 954.11 342.276L948.546 332.639ZM977.768 317.315L982.05 314.842L982.669 315.913L982.216 317.602L983.905 318.054L985.141 320.196L984.07 320.814C982.464 321.741 980.363 320.575 977.768 317.315ZM874.121 390.004L886.108 395.931L887.344 398.073C885.679 399.034 884.211 402.261 882.94 407.753C879.253 409.882 876.493 410.048 874.662 408.25L874.044 407.179L874.496 405.49L872.807 405.038L870.953 401.826L871.405 400.137L869.717 399.684L868.48 397.543C867.656 396.116 869.536 393.602 874.121 390.004ZM963.772 342.526L965.008 344.668L966.366 339.601L965.747 338.531L964.677 339.149L963.772 342.526ZM954.136 348.09L959.368 352.207L960.152 356.037L961.84 356.49L962.911 355.872C961.263 353.017 962.223 350.559 965.792 348.498L965.174 347.427L957.348 346.235L954.136 348.09ZM878.613 400.258L881.086 404.541L882.157 403.923L879.684 399.64L878.613 400.258ZM944.095 205.418L967.816 194.578L967.197 193.507L968.886 193.96L984.781 181.928C989.373 179.99 991.926 179.468 992.442 180.36L992.894 178.671L993.965 178.053L997.342 178.958L1001.67 186.453C1004.79 191.866 1002.87 196.781 995.908 201.2L1003.35 219.032L1005.04 219.485L1008.29 227.598L1018.18 244.729L1025.44 254.817C1022.39 258.477 1017.81 262.076 1011.68 265.613C1010.72 263.948 1006.48 264.018 998.956 265.823C1000.19 267.964 1000.1 269.447 998.669 270.271L995.744 267.678L996.197 265.989L995.578 264.918C994.548 263.134 990.401 261.721 983.138 260.68L966.757 232.306L959.505 222.218L960.575 221.599C958.51 218.985 955.188 218.999 950.608 221.644L946.612 219.668L943.521 214.315L944.095 205.418ZM995.623 274.885L996.241 275.956L995.336 279.334L993.647 278.881L993.029 277.811L993.481 276.122L995.623 274.885ZM1015.06 266.518L1016.75 266.971L1017.37 268.041L1017.7 273.56L1018.77 272.942L1020.75 268.946C1022.39 271.802 1025.72 271.787 1030.71 268.902L1036.56 274.09L1039.65 279.443C1034.36 282.5 1030.68 282.721 1028.62 280.106C1028.01 282.358 1023.79 285.75 1015.93 290.283L1019.93 292.259L1024.66 288.098L1028.66 290.073L1032.16 283.77L1036.32 288.506L1035.58 294.643L1036.2 295.714L1036.65 294.025L1037.72 293.407C1039.78 296.976 1044.03 296.906 1050.45 293.197L1051.69 295.338L1052.76 294.72L1052.14 293.649L1049.21 291.055L1051.19 287.059C1056.47 285.911 1060 286.253 1061.78 288.086C1065.42 296.453 1065.9 301.409 1063.22 302.954L1031.1 321.499L1021.3 324.303L1019.16 325.539L1012.9 332.008L1011.21 331.555L1006.88 324.06L1002.1 318.254C1001.58 314.193 1001.98 311.584 1003.3 310.428L1009.72 306.719L1008.48 304.578L1009.55 303.96L1007.86 303.507L1000.45 290.659L1002.59 289.423L998.879 282.998C1003.16 280.526 1004.69 278.219 1003.45 276.077L1006.66 274.223L1012.8 274.962C1011.39 272.524 1012.14 269.709 1015.06 266.518ZM1004.85 280.978L1006.09 283.12L1012.51 279.411L1011.89 278.34L1008.52 277.435L1004.85 280.978ZM1014.65 278.174L1015.27 279.245C1017.41 278.009 1019.1 278.461 1020.34 280.603L1021.41 279.985L1019.55 276.772C1018.13 277.597 1016.79 276.938 1015.56 274.797L1014.65 278.174ZM1030.43 273.35L1033.35 275.944L1034.42 275.326L1032.57 272.114L1030.43 273.35ZM1029.16 298.352L1031.01 301.564L1034.84 300.78L1035.29 299.091L1033.44 295.879L1029.16 298.352ZM1038.72 309.964L1039.33 311.035L1040.24 307.657L1039.62 306.586L1038.72 309.964ZM1060.75 138.779L1066.89 139.519L1067.51 140.589L1068.91 145.49L1072.45 149.155C1070.18 154.277 1067.07 157.971 1063.15 160.237L1062.53 159.167C1060.74 156.074 1060.94 153.108 1063.1 150.27L1061.7 145.369L1053.88 144.177L1060.75 138.779ZM1042.1 150.977L1042.72 152.048L1043.17 150.359L1049.59 146.65L1052.97 147.555L1049.92 152.169C1052.16 156.035 1056.56 158.725 1063.15 160.237C1061.62 169.13 1072.1 193.057 1094.6 232.018C1102.84 246.294 1109.46 251.99 1114.46 249.105C1115.38 250.711 1119.98 250.435 1128.25 248.277L1131.34 253.63L1130.89 255.319L1132.58 255.772L1135.05 260.054L1134.6 261.743L1135.22 262.814L1127.11 266.07L1125.87 263.929L1126.61 257.792L1124.92 257.339L1124.3 256.268L1123.52 252.438L1122.45 253.056L1116.48 255.076L1118.16 255.529L1120.18 261.501L1122.04 264.713L1123.73 265.165L1124.35 266.236L1121.75 269.161C1118.96 270.775 1115.07 270.639 1110.1 268.753L1109.03 269.371L1108.57 271.06L1107.5 271.678L1099.68 270.486L1098.61 271.104L1097.99 270.034L1098.44 268.345L1097.82 267.274L1094.44 266.369L1089.71 270.531C1076.67 270.205 1062.32 261.835 1046.66 245.42L1044.8 242.208L1045.71 238.83L1041.71 236.854L1034.91 225.077C1028.84 211.532 1027.07 203.515 1029.59 201.024L1032.19 198.099L1026.95 193.982C1026.23 183.932 1026.61 178.001 1028.1 176.188L1029.79 176.641L1030.86 176.023L1034.98 170.791L1036.67 171.243C1032.61 163.117 1033.91 157.13 1040.57 153.284L1041.03 151.595L1042.1 150.977ZM1076.8 127.015C1089.89 120.013 1097.55 118.446 1099.78 122.312L1100.85 121.694L1104.64 110.943L1109.99 107.852L1111.23 109.993C1109.09 111.23 1108.69 113.838 1110.04 117.819L1119.1 121.153L1131.46 142.566C1135.58 149.704 1134.79 154.922 1129.08 158.219C1129.9 159.646 1128.89 161.184 1126.03 162.833L1112.64 152.005C1099.87 146.771 1087.84 143.246 1076.56 141.431L1074.87 140.978L1074.25 139.908C1070.96 134.197 1071.81 129.9 1076.8 127.015ZM1082.37 136.651L1082.98 137.722L1092.5 139.366L1094.64 138.13L1092.91 127.71C1091.57 125.944 1088.96 125.547 1085.08 126.518C1080.8 128.991 1079.89 132.368 1082.37 136.651ZM1108.32 144.51L1109.55 146.651C1110.89 148.971 1115.49 148.695 1123.35 145.823L1122.73 144.752L1118.57 140.017L1119.02 138.328C1116.88 139.564 1114.78 138.398 1112.72 134.829L1110.58 136.065L1108.32 144.51ZM1050.68 183.142C1054.81 186.463 1057.48 187.78 1058.67 187.094L1064.02 184.003L1062.78 181.861L1057.43 184.952L1055.41 178.981L1056.48 178.362L1058.17 178.815L1059.24 178.197L1058.62 177.126L1055.7 174.532L1053.56 175.768L1050.68 183.142ZM1050.02 209.214L1054.8 215.02L1056.95 213.784L1054.47 209.501L1051.1 208.596L1050.02 209.214ZM1150.85 190.977L1157.6 192.787L1158.22 193.858C1167.67 210.215 1168.51 227.336 1160.75 245.218L1148.69 256.467C1144.41 254.015 1141.28 251.064 1139.29 247.614C1136.65 243.034 1139.02 236.429 1146.41 227.8C1148.82 218.793 1148.37 208.112 1145.04 195.757L1145.49 194.068L1150.85 190.977ZM1063.71 252.704L1064.95 254.846L1074.01 258.179L1077.22 256.325L1078.13 252.947L1071.37 251.137L1070.76 250.066L1071.21 248.377L1070.59 247.307L1063.71 252.704ZM1101.28 251.004L1104.2 253.598L1105.27 252.979L1106.18 249.602L1105.56 248.531L1101.28 251.004ZM1102.23 257.594L1103.91 258.046L1104.53 259.117L1106.55 265.088L1108.24 265.541L1107.79 267.23L1111.62 266.446L1108.65 253.885L1106.96 253.432L1105.89 254.05L1102.23 257.594ZM1161.81 82.2163L1163.5 82.6688L1163.05 84.3576L1164.29 86.499L1167.66 87.4041L1168.73 86.7859L1166.26 82.5031L1167.33 81.885L1170.71 82.79L1174.42 89.2142L1165.73 101.367C1164.33 107.175 1164.81 112.132 1167.18 116.236C1170.48 121.946 1183.15 120.816 1205.19 112.846C1217.72 110.371 1229.79 111.493 1241.4 116.212C1254.26 118.702 1263.9 125.509 1270.32 136.632C1274.58 144.008 1275.45 155.403 1272.93 170.817C1267.47 184.439 1262.59 192.486 1258.31 194.958L1249.75 199.904L1242.99 198.093L1239.28 191.669L1249.33 174.449C1248.09 172.308 1248.19 170.825 1249.61 170.001L1251.75 168.765L1251.3 170.454L1251.92 171.524L1255.13 169.67L1253.9 167.528L1251.75 168.765L1251.14 167.694L1254.35 165.84L1257.27 168.433L1258.34 167.815C1262.21 165.583 1263.88 162.713 1263.37 159.205L1262.75 158.135L1262.3 159.824L1260.15 161.06L1259.54 159.989L1258.75 156.159L1257.06 155.706L1253.85 157.561L1248.66 163.411C1243.31 154.132 1235.63 152.377 1225.64 158.147L1189.64 167.508C1168.96 167.949 1153.48 159.277 1143.22 141.492L1141.36 138.28C1133.26 124.242 1135.64 108.59 1148.51 91.3231L1152.06 94.9877L1155.27 93.1332L1156.17 89.7555L1154.48 89.303L1161.81 82.2163ZM1185.37 68.6166L1185.99 69.6873L1186.94 76.2771L1189.86 78.871L1190.93 78.2529L1192.91 74.257L1196.74 73.4732L1196.12 72.4025L1190.89 68.2854L1191.34 66.5965L1192.41 65.9784C1193.65 68.1197 1195.69 68.3662 1198.55 66.7178L1203.33 72.5238L1204.4 71.9056C1203.16 69.7642 1205.04 67.2511 1210.04 64.3664C1207.81 60.5 1208.15 56.9714 1211.06 53.7807C1215.76 52.0218 1218.52 51.8562 1219.34 53.2838L1221.82 57.5666C1224.84 62.8011 1225.42 66.2744 1223.55 67.9866L1221.41 69.2229L1219.72 68.7704L1218.65 69.3886L1219.31 80.4267C1220.74 79.6025 1222.07 80.2611 1223.31 82.4025L1224.38 81.7843C1223.45 80.1783 1224.3 75.8807 1226.93 68.8916L1228.62 69.3442L1229.23 70.4149C1227.39 71.4795 1227.41 74.802 1229.28 80.3824L1230.35 79.7642L1232.94 76.839L1234.63 77.2915L1235.25 78.3622C1235.16 85.0759 1234.46 88.8105 1233.15 89.5661L1232.08 90.1842C1210.87 83.395 1196.05 82.4387 1187.6 87.3153C1184.74 88.9638 1182.9 89.0742 1182.08 87.6466C1177.55 79.7948 1177.06 74.8387 1180.63 72.7782L1185.37 68.6166ZM1203.93 137.848L1206.85 140.442C1208.68 138.67 1209.02 135.142 1207.88 129.856L1206.19 129.404C1203.33 131.052 1202.94 133.661 1205 137.23L1203.93 137.848ZM1219.2 124.745L1221.06 127.957L1223.2 126.721L1221.34 123.509L1219.2 124.745ZM1223.69 135L1224.31 136.07L1227.52 134.216L1228.14 135.286L1227.86 139.735L1228.93 139.117C1230.24 137.961 1230.64 135.352 1230.12 131.291L1225.67 131.004L1224.6 131.622L1223.69 135ZM1184.66 186.085C1187.22 185.563 1189.53 187.086 1191.59 190.655L1193.44 193.867C1196.47 192.115 1204.24 192.388 1216.75 194.683C1225.35 193.367 1230.16 193.448 1231.17 194.926L1234.88 201.35C1235.87 203.075 1232.92 206.206 1226.03 210.744L1221.58 210.457L1216.84 214.618L1199.38 218.99C1200.19 224.234 1200 227.2 1198.81 227.887L1195.59 229.741C1193.45 230.977 1190.11 227.67 1185.58 219.818L1173.22 198.404C1172.29 196.798 1173.46 194.697 1176.72 192.101L1180.1 193.006C1179.57 190.453 1181.1 188.146 1184.66 186.085ZM1183.64 196.671L1187.63 198.647L1190.23 195.721L1191.46 197.863L1193.61 196.627L1192.37 194.485L1183.02 195.6L1183.64 196.671Z" fill="#9F967B"/>
</svg>
