<svg width="979" height="203" viewBox="0 0 979 203" fill="none" xmlns="http://www.w3.org/2000/svg">
<path d="M10.8582 87.5408L13.8411 87.3714L16.1096 86.7822C27.452 83.8362 33.3687 83.3084 33.8597 85.1988L35.458 89.0213L35.6273 92.0042L36.3418 92.424L36.5112 95.4069L37.8369 100.511L38.8459 102.065L39.0153 105.048L45.9384 131.703L49.5768 141.049C49.988 144.575 49.6737 146.472 48.634 146.742C48.2412 145.23 47.0996 144.719 45.2092 145.21C43.9489 145.538 42.9203 147.016 42.1232 149.644L36.1794 152.399L32.6294 152.715L31.4952 153.01L31.2006 151.876L32.3348 151.581L31.451 148.178L32.5853 147.884L32.2907 146.75L31.8708 147.464L31.3037 147.611L31.0091 146.477L31.8487 145.048L32.983 144.754L34.1393 146.875L34.0141 148.723L34.5812 148.576C36.6423 146.023 38.4762 144.538 40.083 144.12L39.9357 143.553C38.8015 143.848 38.1362 143.617 37.9398 142.861L37.52 143.575L35.8186 144.017L35.524 142.883L37.2253 142.441L37.078 141.874L35.3767 142.316L34.9569 143.03L34.515 141.329L35.0821 141.182L37.4979 141.159L39.0519 140.15L41.9096 141.83L42.4767 141.682C42.3049 141.021 39.4963 139.531 34.051 137.212C34.321 138.251 33.5305 139.869 31.6794 142.065L31.1122 142.213L30.8176 141.078L30.3978 141.793L29.2636 142.087C28.9853 141.016 27.6964 139.938 25.3969 138.854L25.8167 138.14L25.1023 137.72L22.4509 127.512C21.9599 125.621 22.8486 124.382 25.1171 123.792L24.8225 122.658L23.3936 121.818L21.2724 122.975L21.1251 122.408L22.8044 119.55C23.0581 120.527 24.5778 120.939 27.3635 120.787L27.2162 120.22L27.9085 118.224L27.7612 117.657C25.8708 118.148 24.8274 118.016 24.631 117.259C24.4346 116.503 23.2022 116.42 20.9337 117.009L21.3756 118.71L20.2413 119.005L20.094 118.438L15.3583 97.8742L9.34835 93.3814C8.95064 91.3322 9.45394 89.3853 10.8582 87.5408ZM38.3746 81.6046L40.076 81.1627L42.4918 81.1406L44.6129 79.9843L45.3274 80.4041L48.0157 79.1005L51.4184 78.2167C57.7827 76.5636 63.8344 80.4402 69.5735 89.8464L69.7208 90.4135C71.292 96.4628 70.0203 102.443 65.9055 108.355L66.0528 108.922C71.1954 110.075 74.1513 112.133 74.9205 115.094L75.5097 117.363L73.5137 116.67L70.6781 117.407C69.6421 118.08 69.3696 119.361 69.8606 121.252L70.0079 121.819L75.5539 122.194L75.9737 121.48L77.2773 124.168L74.9057 129.022L75.6201 129.442L75.7674 130.009L71.9449 131.607L70.6413 128.919L71.2084 128.771L73.057 128.897L72.7624 127.762C71.6282 128.057 70.9629 127.826 70.7665 127.07L70.8917 125.221L68.6232 125.811C69.1142 127.701 68.2255 128.941 65.957 129.53L64.8448 132.24L65.434 134.509C69.3785 134.157 71.6617 135.178 72.2837 137.573L71.7165 137.72C72.1204 140.44 71.1408 142.107 68.7778 142.721L65.9422 143.458L64.9332 141.903L65.0584 140.055L64.4913 140.202L62.4953 139.51C62.6917 140.266 61.8447 140.89 59.9543 141.381L59.5345 142.095L59.8291 143.229L60.5435 143.649L60.6908 144.216L60.271 144.931L59.1368 145.225L58.4223 144.805L58.0025 145.52L56.3012 145.962L54.8723 145.122L54.725 144.555L55.4394 144.975L56.0066 144.827L55.712 143.693L55.1448 143.84L54.725 144.555L54.1579 144.702L53.8633 143.568L54.7029 142.139L57.4133 143.251C57.7767 141.543 58.7145 140.492 60.2268 140.099C60.0304 139.343 59.3651 139.112 58.2309 139.407C59.4122 137.351 59.4171 132.708 58.2457 125.479L60.2195 123.756C59.1148 119.502 55.0247 117.739 47.9492 118.467L47.2127 115.632C47.9705 113.888 48.0957 112.039 47.5883 110.086L46.4541 110.38L46.1595 109.246L46.7266 109.099L47.441 109.519L48.0081 109.371C51.7889 108.389 52.6482 103.929 50.586 95.9888L50.1441 94.2875C48.9657 89.7505 47.0532 87.8257 44.4067 88.5131C40.9057 89.0189 39.0571 88.8937 38.8607 88.1375L37.535 83.0334L38.3746 81.6046ZM57.9438 108.001L58.3857 109.703L60.5289 110.962L63.3645 110.226L63.0699 109.092L63.6371 108.944L62.9226 108.524L62.628 107.39L63.0479 106.676L62.9006 106.109L60.6321 106.698L57.9438 108.001ZM23.5851 127.217L23.7324 127.784L25.1612 128.624L25.0139 128.057L23.5851 127.217ZM35.9365 125.825L36.5257 128.094L40.3703 128.911L41.9244 127.902L40.7681 125.781L40.5987 122.798L35.9365 125.825ZM74.5228 118.224L75.657 117.93L76.3935 120.765L74.9647 119.926L74.5228 118.224ZM25.7725 133.308L26.2144 135.009L27.3487 134.715L27.2014 134.148L25.7725 133.308ZM61.1696 134.406L61.339 137.389L61.4863 137.956L64.4692 137.786L64.0273 136.085C63.2711 136.281 62.7458 135.812 62.4511 134.678L61.7367 134.258L61.1696 134.406ZM44.1781 141.241L44.0529 143.089L44.7673 143.509L47.0358 142.92L45.4596 141.513L45.8794 140.799L44.1781 141.241ZM56.0876 138.147L57.5165 138.987L55.3953 140.143L55.248 139.576L56.0876 138.147ZM64.0494 138.501L65.4782 139.34L66.0453 139.193L65.7507 138.059L64.0494 138.501ZM71.9918 71.9649L84.1959 70.0059L84.0486 69.4387L84.7631 69.8586L93.5424 66.3675C95.8845 66.0619 97.117 66.1453 97.2397 66.6179L97.6595 65.9035L98.2266 65.7562L99.6555 66.5958L100.687 70.5657C101.431 73.4328 99.9337 75.4361 96.1938 76.5757L97.3427 85.6606L98.0571 86.0804L98.5211 90.1976L100.878 99.2715L102.918 104.795C101.067 106.083 98.5182 107.149 95.273 107.992C95.0439 107.11 93.097 106.606 89.4324 106.482C89.727 107.616 89.4962 108.282 88.7401 108.478L87.7311 106.924L88.1509 106.209L88.0036 105.642C87.7581 104.697 86.042 103.529 82.8553 102.136L78.9518 87.1078L76.9117 81.5839L77.4788 81.4366C76.8655 79.9816 75.3458 79.5691 72.9198 80.1992L71.3437 78.7925L70.6071 75.9569L71.9918 71.9649ZM86.7662 110.201L86.9135 110.768L86.0739 112.197L85.3594 111.778L85.2121 111.21L85.632 110.496L86.7662 110.201ZM96.7018 108.831L97.4163 109.251L97.5636 109.818L97.0185 112.382L97.5857 112.234L98.9924 110.658C99.3852 112.17 100.905 112.583 103.551 111.895L105.569 115.004L106.306 117.839C103.502 118.567 101.793 118.204 101.18 116.749C100.62 117.702 98.2608 118.718 94.1019 119.798L95.678 121.205L98.3663 119.901L99.9425 121.308L102.336 118.87L103.64 121.559L102.528 124.269L102.675 124.836L103.095 124.122L103.662 123.974C104.153 125.865 106.1 126.368 109.502 125.484L109.797 126.618L110.364 126.471L110.217 125.904L109.208 124.35L110.615 122.774C113.174 122.916 114.743 123.518 115.321 124.578C115.929 128.86 115.523 131.185 114.106 131.553L97.0921 135.972L92.2605 136.016L91.1263 136.311L87.451 138.476L86.7366 138.057L85.7055 134.087L84.2546 130.831C84.5291 128.91 85.0398 127.769 85.7865 127.406L89.1893 126.523L88.8947 125.388L89.4618 125.241L88.7474 124.821L86.9798 118.016L88.114 117.721L87.2302 114.319C89.4987 113.729 90.4856 112.868 90.191 111.733L91.8924 111.291L94.6027 112.404C94.2672 111.112 94.9669 109.921 96.7018 108.831ZM90.2131 114.149L90.5077 115.283L93.9104 114.4L93.7631 113.832L92.3343 112.993L90.2131 114.149ZM95.0447 114.105L95.192 114.672C96.3262 114.377 97.0406 114.797 97.3352 115.932L97.9023 115.784L97.4604 114.083C96.7043 114.279 96.1789 113.81 95.8843 112.676L95.0447 114.105ZM102.859 113.891L103.868 115.445L104.435 115.298L103.993 113.597L102.859 113.891ZM99.1249 125.153L99.5668 126.854L101.415 126.979L101.835 126.265L101.393 124.564L99.1249 125.153ZM102.027 131.664L102.174 132.231L103.014 130.802L102.866 130.235L102.027 131.664ZM154.897 51.6423L158.447 51.3256L158.867 50.6112L159.434 50.4639L163.426 51.8486L166.114 50.545C167.391 55.46 167.084 58.163 165.193 58.654C163.114 59.1941 162.422 61.1901 163.116 64.6419L164.567 67.8973L164.589 70.3131L165.746 72.4343L165.326 73.1487L165.473 73.7158L166.777 76.4041L166.799 78.8199L167.955 80.9411L169.303 88.461L169.45 89.0281L168.883 89.1754C162.121 86.1896 158.353 83.3343 157.578 80.6096L156.694 77.2069L158.498 72.5006L157.784 72.0807L156.083 72.5226L156.525 74.224L155.096 73.3844L154.801 72.2501L155.368 72.1028L153.77 68.2803L152.444 63.1762L148.747 62.9258L146.626 64.0821C145.87 64.2785 145.344 63.8096 145.05 62.6753C143.675 57.3822 144.5 54.3428 147.524 53.5572L154.897 51.6423ZM128.957 58.9853C133.909 60.9612 136.824 63.6348 137.699 67.006C138.833 66.7114 139.597 67.3203 139.99 68.8326C141.797 69.574 145.622 73.4236 151.465 80.3813C161.678 89.5334 169.09 97.0926 173.7 103.059L173.28 103.773L174.584 106.462L175.026 108.163L174.606 108.877L175.32 109.297L175.468 109.864C175.631 110.494 173.657 112.218 169.546 115.035L169.841 116.169C171.353 115.776 172.207 115.958 172.404 116.714L171.984 117.428L171.417 117.576C170.282 117.87 169.568 117.45 169.273 116.316L167.572 116.758C167.867 117.892 166.313 118.901 162.91 119.785C162.714 119.029 161.67 118.896 159.78 119.387L158.476 116.699C159.61 116.404 160.03 115.69 159.736 114.556L162.718 114.386C163.827 111.273 164.996 109.557 166.224 109.238L165.93 108.104L163.764 104.429L162.63 104.723L162.925 105.858L161.223 106.299C160.536 103.653 159.436 102.526 157.924 102.919L157.084 104.348L155.655 103.508L156.119 107.625L158.83 108.737L158.977 109.304L157.843 109.599L161.562 112.265L161.709 112.832L161.142 112.98L157.717 111.448L156.878 112.876L158.012 112.582L158.307 113.716L156.753 114.725L138.679 96.4152L139.938 94.272C137.67 94.8612 136.339 94.3996 135.946 92.8873C124.396 80.9208 117.279 74.4959 114.595 73.6125C112.097 73.3195 110.766 72.8579 110.603 72.2278L110.455 71.6607L113.438 71.4913L114.992 70.4823L114.403 68.2138L109.594 70.6738L108.879 70.2539L108.732 69.6868L109.152 68.9724L106.316 69.7089L105.727 67.4404C105.684 66.2407 107.049 65.2808 109.822 64.5606L110.536 64.9805L111.103 64.8332L113.225 63.6768L114.359 63.3822L115.788 64.2219L115.095 66.2178C115.349 67.1945 116.869 67.607 119.654 67.4552L119.36 66.321L117.784 64.9142L117.342 63.2129L128.957 58.9853ZM116.568 71.889L117.283 72.3089L117.85 72.1616L118.27 71.4471L117.828 69.7458L116.568 71.889ZM123.521 70.6886L124.11 72.957L125.959 73.0822L125.812 72.5151L123.521 70.6886ZM119.699 72.2868L119.846 72.8539C120.042 73.6101 120.897 73.7917 122.409 73.3989L122.704 74.5332L123.838 74.2386L123.543 73.1043L119.699 72.2868ZM114.491 77.8769L115.626 77.5823C116.13 77.4514 117.328 78.9564 119.22 82.0972L122.225 84.3436C122.421 85.0998 121.763 85.6742 120.251 86.067L120.398 86.6342C122.667 86.045 123.899 86.1284 124.096 86.8846L124.118 89.3004L124.832 89.7202L125.399 89.5729L126.239 88.1441C131.437 91.0652 135.186 96.9525 137.485 105.806L138.958 111.477C139.449 113.367 141.593 114.627 145.388 115.255L145.683 116.39L145.558 118.238L147.008 121.494L147.156 122.061L146.463 124.057L143.481 124.226L139.658 125.824L139.511 125.257L139.091 125.972L133.987 127.297L124.766 129.087L122.644 130.243C121.126 129.057 120.018 127.125 119.323 124.447C120.698 122.879 122.252 121.87 123.985 121.42L122.806 116.883L124.611 112.177L122.762 112.051L121.923 113.48L121.208 113.06L117.231 97.7482L115.338 92.7914L114.705 85.6914L113.991 85.2716L113.843 84.7045C113.519 80.3492 113.735 78.0733 114.491 77.8769ZM130.857 80.2854L131.004 80.8525C131.701 81.9831 132.654 82.5429 133.862 82.5318L134.554 80.5359L133.125 79.6962L130.857 80.2854ZM123.742 94.8464L124.751 96.4004L123.617 96.695L125.046 97.5347L127.734 96.231L127.292 94.5297L125.149 93.2702L123.742 94.8464ZM140.947 95.826L141.094 96.3931L142.251 98.5143L143.385 98.2197L144.225 96.7909C144.004 95.9402 142.911 95.6186 140.947 95.826ZM163.845 97.7484L163.993 98.3156L165.422 99.1552L166.261 97.7264L166.114 97.1592L163.845 97.7484ZM130.79 119.652L130.223 119.8L129.509 119.38L128.942 119.527L129.236 120.661C130.749 120.269 131.75 121.017 132.241 122.908L135.371 123.305L137.198 121.015L136.903 119.881L135.894 118.327L136.314 117.612L133.184 117.214L130.79 119.652Z" fill="#A6FF61"/>
<path d="M685.625 26.1091L687.684 27.373L690.095 27.5194C691.958 28.1071 692.772 28.7734 692.537 29.5185L693.272 29.136L698.86 30.8989L704.065 31.9267L706.683 33.367L704.92 38.9549L703.45 39.7199L703.42 37.8672L702.302 37.5146L700.097 38.6621L700.479 39.3972C699.244 39.4171 698.333 40.3584 697.745 42.221L693.338 56.1907L691.721 59.3672L692.104 60.1022L691.928 60.661L690.487 63.2787L690.87 64.0138L689.43 66.6314L688.372 69.9841L684.347 84.6889L679.966 88.8365L680.349 89.5716L680.908 89.7479L681.643 89.3654L682.202 89.5417L684.084 91.3644L688.348 91.4809L687.291 94.8336L685.82 95.5986L686.173 94.4811L685.055 94.1285L684.879 94.6873L685.262 95.4223L685.085 95.9811C683.6 96.4684 681.748 96.4983 679.527 96.0709L679.145 95.3358L668.734 93.2801L667.969 91.8099L666.499 92.5749L661.47 90.9883L658.5 90.6656C657.548 88.4881 657.626 85.6454 658.733 82.1374L659.261 80.4611L663.732 81.8714L664.084 80.7538L665.202 81.1064C664.849 82.224 666.349 83.3116 669.702 84.3694C669.467 85.1144 668.791 85.3107 667.673 84.9581L667.497 85.5169C669.359 86.1045 670.173 86.7709 669.938 87.5159L667.527 87.3695L667.174 88.4871L667.909 88.1046L669.027 88.4572L667.587 91.0749L670.557 91.3975L670.174 90.6624L670.351 90.1037L673.497 89.8675L673.82 86.8973L674.525 84.6622L676.171 83.3384L676.318 80.9269L675.759 80.7506L675.406 81.8682L674.848 81.6919L674.465 80.9568L673.906 80.7806L672.819 82.2806L671.701 81.928L672.23 80.2517L667.76 78.8413L664.996 79.8125L664.437 79.6362L664.789 78.5187L671.166 60.255L674.662 47.2266L676.984 41.815L677.306 38.8447L677.689 39.5798L678.806 39.9324L678.983 39.3736L677.865 39.021L678.57 36.7859L680.393 34.9033L682.099 37.2848C682.736 35.267 684.324 34.1295 686.862 33.8723L687.039 33.3135C686.294 33.0784 686.097 32.4021 686.45 31.2846L686.067 30.5495L683.273 29.668C682.715 29.4917 681.921 30.0605 680.892 31.3743L680.746 33.7857L680.569 34.3445L678.893 33.8156L679.951 30.4629C679.206 30.2279 678.598 30.8554 678.128 32.3455L677.393 32.728L675.716 32.1991L674.951 30.7289L675.48 29.0526C676.656 25.3273 679.478 24.1699 683.949 25.5802L685.625 26.1091ZM676.721 48.4905L676.544 49.0493C676.192 50.1669 676.761 50.9607 678.251 51.4308C679.322 51.4959 680.548 50.8584 681.926 49.5184L678.191 47.7255L676.721 48.4905ZM671.961 63.5778L671.785 64.1366L671.462 67.1068L672.021 67.2831L675.52 65.9294L676.225 63.6942L673.431 62.8128L671.961 63.5778ZM709.636 78.5359L710.195 78.7122L715.636 82.8865L711.521 92.0334L711.345 92.5921L711.199 95.0036L709.935 97.0624L708.701 100.974C707.244 102.562 706.019 103.2 705.025 102.886L704.643 102.151L695.908 100.625L696.085 100.066L695.35 100.448L692.556 99.5668C690.569 98.94 689.5 97.7836 689.349 96.0976L690.76 91.6273L692.965 90.4798L692.789 91.0386C700.954 91.123 705.678 89.1318 706.961 85.065L706.579 84.33L706.755 83.7712L709.636 78.5359ZM699.524 95.0068C700.797 95.4083 701.807 96.751 702.554 99.0347L703.113 99.211L703.642 97.5347L702.112 94.5944L700.994 94.2418L699.524 95.0068ZM697.143 96.713L698.26 97.0656L699.73 96.3006L699.907 95.7418L699.348 95.5655L697.143 96.713ZM679.468 92.3655L678.939 94.0419L679.497 94.2182L680.968 93.4532L680.585 92.7181L679.468 92.3655ZM747.545 44.8762L757.603 48.0495L757.986 48.7846L758.721 48.4021C764.278 50.1552 767.288 52.9481 767.751 56.7807L766.992 78.66L764.787 79.8075C764.102 81.9805 765.063 84.127 767.671 86.2469C767.367 103.764 768.565 112.949 771.266 113.801C773.266 115.251 774.149 116.348 773.914 117.094C772.621 121.191 770.112 122.653 766.386 121.477L763.769 120.037C754.886 118.873 747.759 117.444 742.388 115.749C741.133 113.237 740.907 110.708 741.71 108.162C745.631 107.42 747.719 106.645 747.973 105.838L746.287 70.2845L745.991 63.4327C746.555 61.972 747.162 61.3444 747.814 61.5501C748.167 60.4325 747.598 59.6387 746.108 59.1686C745.382 58.2228 744.98 56.2527 744.901 53.258C742.528 51.6903 741.459 50.5339 741.694 49.7888L742.399 47.5537C743.222 44.946 744.937 44.0535 747.545 44.8762ZM753.958 51.8146L754.516 51.9909L755.251 51.6084L755.81 51.7847C755.526 53.3336 755.85 54.2549 756.781 54.5487L757.517 54.1662L757.693 53.6074C756.203 53.1373 755.634 52.3435 755.987 51.2259L757.104 51.5785L757.457 50.4609L756.898 50.2846L753.958 51.8146ZM760.284 64.8698C759.931 65.9873 759.196 66.3698 758.078 66.0172L757.55 67.6936C758.791 68.0854 759.919 69.0555 760.932 70.604L762.931 68.1627L763.108 67.6039C762.833 65.8787 761.95 64.7811 760.46 64.311L760.284 64.8698ZM753.668 68.3122L753.315 69.4298L754.815 70.5175L754.992 69.9587L754.227 68.4885L753.668 68.3122ZM751.845 70.1948L751.669 70.7536L753.169 71.8412L753.522 70.7237L751.845 70.1948ZM754.08 70.9L753.728 72.0175L755.228 73.1052L755.052 73.664L754.317 74.0465L754.14 74.6053L755.817 75.1341L756.904 73.6341L756.139 72.1639L755.404 72.5464L754.287 72.1938L754.639 71.0762L754.08 70.9ZM740.67 66.6689L741.787 67.0215C743.277 67.4916 743.906 71.9908 743.673 80.519C741.105 82.1665 738.704 82.6377 736.468 81.9325L735.733 82.315L735.204 83.9914C735.949 84.2264 736.028 85.2753 735.441 87.1379L736.176 86.7554L742.881 88.8709C745.489 89.6936 746.264 91.7813 745.206 95.134L743.001 96.2815L743.031 98.1342L742.296 98.5167L740.619 97.9878L737.443 96.3712L733.737 96.4311L732.061 95.9022L728.063 100.785C731.475 102.954 732.691 105.59 731.712 108.694L729.683 109.283L729.3 108.548L729.124 109.107L729.506 109.842L729.33 110.401L726.742 110.813L721.89 108.668L720.037 108.698L715.743 106.729L711.655 106.053C708.24 104.976 706.955 101.908 707.8 96.8498C708.153 95.7322 709.633 95.5848 712.241 96.4075C718.484 94.7933 722.267 91.8907 723.59 87.6998C727.235 83.9347 731.292 78.8657 735.76 72.4929L736.495 72.1104L737.054 72.2867L736.671 71.5516L736.848 70.9929C738.526 67.836 739.8 66.3947 740.67 66.6689ZM747.082 73.6073C747.022 75.6365 748.032 76.9791 750.112 77.6353L752.347 78.3405L753.229 75.5465L751.875 72.0474L747.082 73.6073ZM754.878 85.8975L755.115 89.044L755.673 89.2203C755.908 88.4753 756.585 88.279 757.702 88.6316L757.879 88.0728L754.878 85.8975ZM733.704 82.9037L733.175 84.5801L734.852 85.1089L733.704 82.9037ZM736.206 88.608L735.853 89.7256L737.706 89.6957L737.882 89.1369L736.206 88.608ZM725.855 90.2577L729.62 93.9032C730.649 92.5893 731.442 92.0206 732.001 92.1969L732.384 92.932L733.119 92.5495C733.048 90.0695 731.91 88.4818 729.706 87.7864C727.658 87.7886 726.374 88.6123 725.855 90.2577ZM758.823 100.659L758.647 101.218L760.177 104.158L761.853 104.687L763.47 101.51L763.087 100.775L760.293 99.8939L758.823 100.659ZM718.065 101.317L720.3 102.022L719.535 100.552L718.065 101.317ZM828.366 72.2178C836.518 77.2132 841.617 83.1227 843.663 89.9463C844.516 92.4342 843.969 96.7671 842.02 102.945L840.962 106.298L835.114 122.885C832.211 123.539 828.722 125.51 824.647 128.799L823.469 124.741L819.029 125.183L818.853 125.742C818.461 126.984 818.608 128.464 819.295 130.182L819.119 130.741C818.001 130.388 816.894 130.653 815.796 131.536L815.061 131.918C814.708 133.036 814.16 133.477 813.414 133.242L812.856 133.066L812.473 132.331L811.914 132.154C811.131 134.638 807.563 135.56 801.211 134.922C797.486 133.746 796.328 130.924 797.738 126.453C801.579 125.207 804.353 124.854 806.06 125.392L806.237 124.834L805.119 124.481L806.589 123.716L807.354 125.186L807.913 125.362L808.236 122.392C809.633 122.184 812.014 120.478 815.38 117.273L816.498 117.626L818.377 107.774L823.137 92.6867C824.55 84.5307 823.176 79.7965 819.016 78.4841L818.634 77.749L818.81 77.1902L821.015 76.0428L820.427 74.0138L821.162 73.6313L822.279 73.9839L824.544 76.5417L826.015 75.7767L826.367 74.6592L825.25 74.3066L825.602 73.189C825.896 72.2577 826.817 71.934 828.366 72.2178ZM805.338 63.4166C808.101 64.2882 809.552 66.1797 809.692 69.091L809.515 69.6498L808.957 69.4735L808.192 68.0033C807.074 67.6507 806.339 68.0332 805.986 69.1508C803.878 70.5335 802.094 70.9947 800.635 70.5344L800.252 69.7993L799.517 70.1818L799.341 70.7406L800.106 72.2108L801.782 72.7397C802.135 71.6221 802.684 71.1808 803.429 71.4159L804.017 73.4448L803.665 74.5624L802.547 74.2098L802.165 73.4747L801.606 73.2984L801.43 73.8572L801.812 74.5923L801.636 75.1511L800.166 75.9161C801.127 78.0626 801.46 79.6015 801.167 80.5328L801.902 80.1503L803.578 80.6792L803.961 81.4142L804.519 81.5905L804.872 80.4729L806.372 81.5606L808.225 81.5307L806.285 87.6774L804.815 88.4424L804.433 87.7073L804.257 88.2661L804.845 90.295L804.11 90.6775L803.551 90.5012L802.404 88.296L801.845 88.1197C800.169 88.2394 799.071 89.1219 798.552 90.7672L797.435 90.4147L797.787 89.2971L798.522 88.9146L798.699 88.3558L797.581 88.0032L796.876 90.2384L796.201 94.3262L795.465 94.7087C796.432 97.1639 797.942 98.8691 799.996 99.8243C800.348 98.7067 800.897 98.2655 801.642 98.5005C802.387 98.7356 802.583 99.4119 802.231 100.529L801.496 100.912L801.319 101.471L801.702 102.206L801.526 102.765L800.791 103.147L800.614 103.706L799.763 108.353C799.459 109.315 798.361 110.197 796.47 111L795.206 113.059C797.441 113.764 798.03 115.793 796.972 119.146L795.033 125.292C793.392 128.871 792.059 130.498 791.035 130.175L788.799 129.47L773.536 125.269L772.388 123.064L773.124 122.681L773.476 121.564L770.093 118.653L770.975 115.859C774.484 116.42 776.455 116.018 776.885 114.652L779.147 105.535L779.882 105.153L780.059 104.594L779.676 103.859L779.853 103.3C781.221 100.045 782.308 98.545 783.116 98.7996L783.585 93.418L784.702 93.7706L785.085 94.5056L785.643 94.6819L786.349 92.4468L784.32 93.0355L783.202 92.6829L783.555 91.5653L784.29 91.1828L783.907 90.4477L784.084 89.889L786.053 85.5949L787.609 78.7132L791.341 68.8313L790.959 68.0962L789.841 67.7436L786.871 67.421L786.489 66.6859L787.018 65.0095L792.309 59.9206L793.81 61.0083L796.221 61.1547L800.515 63.1238L805.338 63.4166ZM817.397 69.9858L818.514 70.3384L818.338 70.8972L816.133 72.0447L815.368 70.5745L817.397 69.9858ZM821.308 71.2199L821.132 71.7787L819.868 73.8375L819.898 75.6902L819.339 75.5139L818.574 74.0437L818.75 73.4849L819.485 73.1024L819.662 72.5436L819.279 71.8086L821.308 71.2199ZM821.867 71.3962L823.543 71.925L823.191 73.0426L821.514 72.5137L821.867 71.3962ZM792.02 76.4182L791.667 77.5358L792.785 77.8884L794.255 77.1234L792.02 76.4182ZM797.255 79.2987L796.873 78.5636L796.314 78.3874L795.432 81.1813L798.961 81.6803L799.284 78.71L797.255 79.2987ZM834.669 106.77L833.934 107.152L833.229 109.387L833.964 109.005L835.64 109.534C835.08 111.2 833.806 112.642 831.818 113.858L831.642 114.416L832.201 114.593L832.553 113.475L834.023 112.71L835.141 113.063L834.053 114.563L833.701 115.68L834.26 115.857C834.73 114.367 835.71 113.857 837.2 114.327L837.376 113.768C836.259 113.415 835.935 112.494 836.405 111.004L834.669 106.77ZM793.759 92.3271L791.584 95.3273L792.908 96.9737L794.73 95.0912L794.907 94.5324L793.759 92.3271ZM799.347 94.0901L799.906 94.2664C798.877 95.5802 798.083 96.1489 797.524 95.9726L797.877 94.8551L799.347 94.0901ZM787.819 91.6818L786.202 94.8582L786.585 95.5933L785.85 95.9758L785.467 95.2407L784.35 94.8881L783.644 97.1233L784.027 97.8584L784.379 96.7408L784.938 96.9171L785.321 97.6522L789.026 97.5923L789.791 99.0625L789.615 99.6213L788.88 100.004L788.703 100.563L789.262 100.739L791.115 100.709L792.173 97.3562C790.682 96.8861 790.349 95.3472 791.171 92.7395L787.819 91.6818ZM829.7 108.888L828.994 111.124L830.877 112.946L833.082 111.799L833.258 111.24L832.493 109.77L831.758 110.152L831.2 109.976L829.7 108.888ZM792.026 99.7677L791.674 100.885L793.526 100.855L793.496 99.0027L792.026 99.7677ZM826.437 113.389L824.76 112.86L824.378 112.125L823.819 111.948L822.555 114.007L821.437 113.655C821.79 112.537 821.594 111.861 820.849 111.626C820.379 113.116 819.585 113.685 818.467 113.332L817.233 117.243L819.468 117.949L827.937 114.476L828.495 114.653L828.878 115.388L828.702 115.946L826.29 115.8L827.055 117.27C827.32 116.432 828.427 116.167 830.378 116.475L828.289 113.359L828.465 112.8L826.437 113.389ZM792.735 109.207L793.117 109.942L792.764 111.06L791.647 110.707L791.471 111.266L792.029 111.442C794.5 111.403 795.97 110.638 796.44 109.147L792.735 109.207ZM785.56 112.473L785.384 113.032L787.649 115.59L790.06 115.736L790.413 114.619L787.795 113.179L785.56 112.473ZM784.649 113.415L783.914 113.797L783.561 114.915L785.414 114.885L784.649 113.415ZM769.741 119.771L770.858 120.123C770.271 121.986 770.722 123.152 772.212 123.622L770.742 124.387C769.78 124.084 769.446 122.545 769.741 119.771ZM856.839 78.6919L860.574 80.4848L878.073 85.391L877.634 92.6254L872.638 104.566L870.582 114.977L877.288 117.092L880.258 117.415L883.434 119.032L886.787 120.089L887.552 121.56L887.2 122.677L885.759 125.295L885.201 125.118L883.877 123.472L881.113 124.443C881.133 125.678 882.074 126.59 883.937 127.177L884.672 126.795L885.054 127.53L884.878 128.089C883.014 128.695 880.789 128.608 878.202 127.826L878.379 127.267L877.644 127.65L875.026 126.209L868.32 124.094L867.585 124.476L867.027 124.3L866.674 125.418L867.233 125.594L864.03 133.799L862.443 138.828L860.061 140.535L859.356 142.77C860.474 143.122 860.915 143.671 860.68 144.416L859.975 146.651C859.191 149.135 857.486 150.645 854.859 151.182L852.242 149.741L847.212 148.155L841.448 146.951L841.625 146.392L840.89 146.774L840.331 146.598C835.488 145.07 833.713 142.257 835.006 138.16L835.182 137.601C836.424 137.993 837.904 137.845 839.622 137.158L844.499 117.807L846.468 113.513L846.967 109.984L847.702 109.602L848.025 106.631L855.489 86.8675L854.371 86.515L854.547 85.9562L853.812 86.3387L852.695 85.9861C851.95 85.751 851.753 85.0747 852.106 83.9571L856.839 78.6919ZM886.908 87.4104L887.291 88.1455L895.849 90.2311L900.878 91.8177C903.486 92.6404 904.378 94.3556 903.555 96.9633L900.382 107.021L899.118 109.08L899.148 110.933L896.56 111.345L895.06 110.258L892.855 111.405L891.179 110.876C892.383 107.058 892.01 103.049 890.058 98.849C890.41 97.7314 890.028 96.9964 888.91 96.6438L886.323 97.0562C881.754 94.6591 879.626 92.9638 879.94 91.9704C880.92 91.4604 881.821 89.9016 882.644 87.2939L886.908 87.4104ZM871.195 95.509L871.96 96.9792L871.607 98.0968L871.224 97.3617L869.548 96.8328L869.196 97.9504L870.872 98.4793L871.607 98.0968L872.166 98.2731L872.548 99.0082L873.283 98.6257L873.46 98.0669L873.782 95.0966L872.665 94.7441L871.195 95.509ZM863.232 118.802L862.703 120.478C862.598 121.674 863.912 122.703 866.644 123.565L868.291 122.241C867.604 120.523 867.456 119.042 867.848 117.801C865.084 117.475 863.545 117.808 863.232 118.802ZM853.176 127.303C854.667 127.773 855.294 128.381 855.059 129.126L853.971 130.626L854.706 130.244L855.265 130.42L855.648 131.155L856.207 131.331L857.853 130.008L858.029 129.449L856.676 125.95C854.743 126.125 853.577 126.576 853.176 127.303ZM859.882 129.419L860.264 130.154L861.382 130.506L862.852 129.741L862.47 129.006L861.352 128.654L859.882 129.419ZM883.513 138.257L884.072 138.433L884.837 139.903L884.484 141.021L883.749 141.403L883.573 141.962C885.717 142.741 886.668 144.27 886.427 146.549L886.986 146.725L887.514 145.049L887.132 144.314L887.308 143.755L888.043 143.372L888.602 143.549L888.985 144.284L888.456 145.96L887.721 146.343L888.103 147.078L887.222 149.872L885.076 154.724L884.577 158.253L881.813 159.225L878.461 158.167L873.608 156.021L869.52 155.346L870.225 153.111L862.844 155.083C862.006 154.819 862.153 152.407 863.284 147.849L874.928 145.993C875.549 146.189 875.883 147.728 875.929 150.61C879.027 151.178 880.694 151.089 880.929 150.344C881.869 147.364 881.221 145.521 878.986 144.816L878.427 144.639L878.78 143.522L881.514 140.698L882.632 141.051L882.279 142.168L882.838 142.344L883.367 140.668L883.513 138.257ZM958.279 112.897L961.456 114.514L962.191 114.131L962.75 114.307L965.397 117.6L968.367 117.923C966.84 122.766 965.144 124.893 963.282 124.306C961.233 123.659 959.586 124.983 958.342 128.277L957.843 131.806L956.579 133.865L956.433 136.276L955.698 136.659L955.522 137.218L955.199 140.188L953.935 142.247L953.789 144.658L950.938 151.746L950.762 152.305L950.203 152.129C946.058 146.008 944.381 141.588 945.171 138.867L946.229 135.515L950.257 132.484L949.874 131.749L948.198 131.221L947.669 132.897L946.904 131.427L947.256 130.309L947.815 130.485L948.49 126.398L950.077 121.369L947.077 119.193L944.665 119.047C943.92 118.812 943.724 118.135 944.077 117.018C945.722 111.803 948.035 109.665 951.015 110.605L958.279 112.897ZM932.399 105.346C935.547 109.65 936.597 113.463 935.549 116.785C936.666 117.138 936.99 118.059 936.52 119.549C937.657 121.137 938.855 126.43 940.112 135.428C943.907 148.606 946.174 158.947 946.913 166.451L946.178 166.833L945.856 169.804L945.327 171.48L944.592 171.862L944.974 172.598L944.798 173.156C944.602 173.777 942.014 174.19 937.035 174.394L936.682 175.511C938.172 175.981 938.8 176.589 938.565 177.334L937.829 177.716L937.271 177.54C936.153 177.187 935.771 176.452 936.123 175.335L934.447 174.806C934.094 175.924 932.242 175.953 928.889 174.896C929.124 174.151 928.31 173.484 926.448 172.897L926.77 169.926C927.888 170.279 928.623 169.897 928.975 168.779L931.593 170.219C934.185 168.17 936.087 167.336 937.297 167.718L937.65 166.6L937.766 162.336L936.649 161.984L936.296 163.101L934.62 162.572C935.443 159.965 935.109 158.426 933.619 157.956L932.149 158.721L931.384 157.251L929.591 160.986L931.297 163.367L931.121 163.926L930.003 163.574L931.739 167.808L931.563 168.367L931.004 168.19L928.916 165.074L927.445 165.839L928.563 166.191L928.21 167.309L926.358 167.339L920.764 142.226L922.969 141.079C920.734 140.374 919.851 139.276 920.321 137.786C916.888 121.513 914.268 112.29 912.462 110.116C910.501 108.541 909.619 107.444 909.814 106.823L909.991 106.264L912.608 107.704L914.461 107.674L915.166 105.439L909.785 104.97L909.402 104.235L909.578 103.676L910.313 103.294L907.519 102.412L908.225 100.177C908.826 99.138 910.492 99.0493 913.224 99.9112L913.606 100.646L914.165 100.823L916.577 100.969L917.694 101.322L918.459 102.792L916.813 104.115C916.509 105.078 917.578 106.234 920.019 107.585L920.372 106.467L919.783 104.438L920.312 102.762L932.399 105.346ZM915.05 109.703L915.432 110.438L915.991 110.615L916.726 110.232L917.255 108.556L915.05 109.703ZM921.579 112.378L920.874 114.613L922.374 115.7L922.55 115.142L921.579 112.378ZM917.491 111.702L917.315 112.261C917.08 113.006 917.707 113.614 919.197 114.084L918.845 115.201L919.962 115.554L920.315 114.436L917.491 111.702ZM910.11 113.675L911.228 114.027C911.725 114.184 911.941 116.095 911.876 119.762L913.23 123.261C912.995 124.006 912.132 124.143 910.642 123.673L910.466 124.232C912.701 124.937 913.701 125.662 913.466 126.407L912.202 128.466L912.585 129.201L913.144 129.377L914.614 128.612C917.468 133.848 917.519 140.827 914.766 149.55L913.004 155.138C912.416 157.001 913.563 159.206 916.446 161.754L916.093 162.872L915.006 164.372L914.507 167.901L914.33 168.459L912.684 169.783L910.066 168.343L905.979 167.668L906.155 167.109L905.42 167.491L900.391 165.905L891.626 162.525L889.215 162.379C888.558 160.567 888.645 158.342 889.478 155.703C891.476 155.105 893.328 155.075 895.036 155.614L896.446 151.143L900.474 148.113L898.974 147.026L897.504 147.791L897.121 147.056L901.881 131.968L902.909 126.763L906.142 120.41L905.76 119.675L905.936 119.116C907.974 115.253 909.365 113.44 910.11 113.675ZM922.7 124.405L922.523 124.964C922.514 126.292 923.024 127.272 924.053 127.904L925.7 126.58L924.935 125.11L922.7 124.405ZM908.939 132.966L908.969 134.819L907.852 134.466L908.617 135.936L911.587 136.259L912.116 134.583L910.968 132.378L908.939 132.966ZM922.999 142.931L922.822 143.49L922.676 145.902L923.794 146.254L925.264 145.489C925.528 144.651 924.773 143.799 922.999 142.931ZM941.382 156.719L941.206 157.277L941.971 158.747L943.441 157.983L943.617 157.424L941.382 156.719ZM901.741 157.729L901.182 157.553L900.8 156.818L900.241 156.642L899.889 157.759C901.379 158.229 901.83 159.396 901.242 161.258L903.684 163.257L906.448 162.286L906.8 161.168L906.77 159.316L907.505 158.933L905.064 156.934L901.741 157.729Z" fill="#A6FF61"/>
</svg>
